<?xml version="1.0" encoding="utf-8"?>
<!-- Generator: Adobe Illustrator 16.0.0, SVG Export Plug-In . SVG Version: 6.00 Build 0)  -->
<!DOCTYPE svg PUBLIC "-//W3C//DTD SVG 1.1//EN" "http://www.w3.org/Graphics/SVG/1.1/DTD/svg11.dtd">
<svg version="1.1" id="Слой_1" xmlns="http://www.w3.org/2000/svg" xmlns:xlink="http://www.w3.org/1999/xlink" x="0px" y="0px"
	 width="88.183px" height="86.69px" viewBox="0 0 88.183 86.69" enable-background="new 0 0 88.183 86.69" xml:space="preserve">
<path fill="#669ACB" d="M88.17,27.364l-0.048-0.264c-0.001-0.004-0.003-0.006-0.003-0.01c-0.001-0.003,0-0.007,0-0.011l-0.039-0.189
	c-0.009-0.045-0.036-0.08-0.051-0.123c-0.017-0.042-0.019-0.087-0.04-0.128l-0.124-0.229c-0.007-0.013-0.02-0.02-0.027-0.032
	c-0.007-0.014-0.008-0.026-0.016-0.039l-0.114-0.17c-0.023-0.036-0.061-0.058-0.089-0.091c-0.029-0.031-0.046-0.068-0.08-0.098
	l-0.179-0.152c-0.004-0.004-0.01-0.004-0.013-0.008c-0.004-0.002-0.005-0.006-0.009-0.008l-0.142-0.114
	c-0.02-0.015-0.041-0.018-0.06-0.03c-0.019-0.015-0.03-0.033-0.052-0.045L59.465,9.678c-0.017-0.01-0.035-0.01-0.053-0.02
	c-0.019-0.008-0.028-0.021-0.046-0.029l-0.182-0.077c-0.019-0.007-0.035-0.004-0.054-0.011c-0.003-0.002-0.006-0.004-0.009-0.004
	l-0.23-1.653c-0.002-0.019-0.013-0.029-0.016-0.046c-0.004-0.018,0.002-0.031-0.003-0.048L58.827,7.6V7.599L58.75,7.296
	c-0.013-0.052-0.044-0.089-0.063-0.134c-0.021-0.047-0.026-0.095-0.056-0.139l-0.162-0.247c-0.006-0.009-0.016-0.014-0.021-0.021
	c-0.007-0.011-0.008-0.021-0.016-0.029l-0.113-0.151c-0.02-0.024-0.048-0.039-0.07-0.062c-0.021-0.023-0.032-0.053-0.056-0.074
	l-0.219-0.189c-0.016-0.015-0.034-0.018-0.051-0.029C57.908,6.208,57.9,6.19,57.882,6.179l-0.142-0.095
	c-0.009-0.006-0.019-0.006-0.026-0.012c-0.008-0.005-0.012-0.013-0.021-0.018l-3.655-2.127c-0.019-0.012-0.042-0.012-0.063-0.022
	c-0.021-0.009-0.034-0.026-0.056-0.036l-0.189-0.074c-0.016-0.007-0.03-0.004-0.046-0.01c-0.017-0.006-0.025-0.017-0.043-0.021
	l-0.133-0.039c-0.005-0.002-0.01,0-0.014-0.001c-0.005-0.002-0.009-0.007-0.015-0.008L53.329,3.68c-0.037-0.009-0.073,0-0.109-0.005
	c-0.037-0.004-0.069-0.022-0.107-0.022h-0.171H52.78c-0.038,0-0.072,0.019-0.109,0.022c-0.036,0.004-0.071-0.004-0.108,0.005
	l-0.15,0.037c-0.006,0.001-0.01,0.006-0.015,0.008c-0.005,0.001-0.012-0.001-0.017,0.001l-0.133,0.037
	c-0.016,0.005-0.026,0.017-0.041,0.022c-0.016,0.004-0.031,0-0.046,0.008l-0.19,0.074c-0.019,0.01-0.032,0.026-0.053,0.034
	c-0.021,0.012-0.044,0.012-0.063,0.022L31.028,15.961c-0.016,0.01-0.025,0.024-0.04,0.036c-0.015,0.01-0.034,0.012-0.048,0.022
	l-0.151,0.113c-0.012,0.009-0.016,0.02-0.027,0.029c-0.01,0.01-0.024,0.012-0.034,0.021l-0.17,0.152
	c-0.023,0.021-0.033,0.049-0.053,0.068c-0.02,0.023-0.048,0.036-0.066,0.061l-0.114,0.15c-0.014,0.02-0.017,0.041-0.029,0.062
	c-0.011,0.017-0.029,0.027-0.038,0.047c-0.021,0.001-0.04-0.008-0.06-0.005l-0.161,0.018c-0.021,0.003-0.038,0.017-0.057,0.021
	c-0.02,0.004-0.039-0.002-0.058,0.003l-0.152,0.039c-0.003,0.001-0.004,0.003-0.007,0.004c-0.004,0.001-0.008,0-0.012,0.001
	l-0.132,0.036c-0.018,0.006-0.03,0.019-0.047,0.022c-0.016,0.006-0.033,0.003-0.049,0.011l-0.19,0.075
	c-0.02,0.009-0.034,0.026-0.052,0.035c-0.02,0.01-0.042,0.009-0.061,0.021L8.381,29.022c-0.02,0.013-0.032,0.031-0.051,0.044
	c-0.02,0.016-0.043,0.02-0.062,0.033l-0.142,0.114c-0.006,0.006-0.008,0.013-0.015,0.019c-0.005,0.003-0.012,0.004-0.018,0.01
	l-0.172,0.152c-0.029,0.025-0.044,0.062-0.069,0.091c-0.026,0.03-0.06,0.05-0.083,0.082l-0.113,0.171
	c-0.008,0.014-0.009,0.026-0.016,0.039c-0.008,0.014-0.021,0.021-0.028,0.033L7.49,30.039c-0.022,0.042-0.024,0.086-0.039,0.128
	c-0.016,0.043-0.042,0.077-0.051,0.124L7.362,30.48c-0.001,0.003,0,0.006,0,0.01s-0.003,0.007-0.004,0.01L7.31,30.766
	c-0.004,0.027,0.004,0.053,0.002,0.08c-0.003,0.027-0.016,0.051-0.016,0.078v7.802l-0.12,0.026L7.08,38.767
	c-0.051,0.008-0.093,0.035-0.141,0.05c-0.05,0.017-0.101,0.02-0.15,0.044l-0.18,0.096c-0.005,0.003-0.009,0.009-0.014,0.012
	c-0.004,0.003-0.011,0.003-0.016,0.005l-3.625,2.088c-0.02,0.011-0.032,0.032-0.051,0.045c-0.02,0.014-0.044,0.018-0.064,0.033
	l-0.142,0.114c-0.003,0.002-0.004,0.007-0.008,0.01c-0.002,0.002-0.005,0.002-0.007,0.004l-0.18,0.15
	c-0.032,0.026-0.048,0.064-0.076,0.095c-0.028,0.03-0.065,0.052-0.089,0.087l-0.104,0.152c-0.009,0.014-0.01,0.028-0.018,0.043
	c-0.01,0.015-0.023,0.021-0.031,0.036l-0.123,0.228c-0.019,0.035-0.02,0.072-0.033,0.108c-0.015,0.035-0.039,0.064-0.049,0.102
	l-0.048,0.19c-0.003,0.016,0.001,0.029-0.001,0.046c-0.003,0.016-0.014,0.026-0.016,0.044l-0.038,0.267
	c-0.003,0.021,0.006,0.042,0.004,0.063c-0.001,0.021-0.013,0.041-0.013,0.063V68.57c0,0.023,0.012,0.041,0.013,0.064
	c0.002,0.021-0.007,0.043-0.004,0.063l0.038,0.268c0.003,0.017,0.013,0.028,0.016,0.047c0.003,0.013-0.001,0.027,0.002,0.043
	l0.048,0.188c0.012,0.05,0.038,0.089,0.058,0.133c0.01,0.024,0.01,0.055,0.024,0.08l0.123,0.227c0.01,0.017,0.024,0.03,0.035,0.048
	c0.006,0.009,0.007,0.021,0.014,0.031l0.104,0.153c0.031,0.045,0.068,0.081,0.104,0.117c0.009,0.01,0.011,0.021,0.02,0.028
	l0.18,0.17c0.02,0.02,0.046,0.026,0.068,0.043c0.019,0.017,0.03,0.038,0.052,0.052l0.142,0.096c0.01,0.006,0.021,0.009,0.03,0.014
	c0.008,0.005,0.012,0.012,0.02,0.018l27.622,15.946c0.009,0.006,0.02,0.008,0.031,0.015c0.006,0.002,0.01,0.009,0.016,0.013
	l0.19,0.094c0.034,0.018,0.069,0.012,0.102,0.023c0.057,0.021,0.109,0.054,0.171,0.062l0.087,0.012l0.114,0.028
	c0.024,0.006,0.049,0.005,0.073,0.009c0.012,0.001,0.021,0.01,0.032,0.012l0.163,0.019c0.035,0.005,0.069,0.006,0.104,0.006h0.001
	h0.001h0.001h0.001c0.032,0,0.065-0.001,0.099-0.006l0.17-0.019c0.011-0.001,0.019-0.01,0.03-0.011
	c0.027-0.005,0.055-0.003,0.08-0.01l0.113-0.026l0.089-0.014c0.063-0.009,0.114-0.041,0.172-0.062
	c0.033-0.013,0.068-0.009,0.101-0.023l0.19-0.094c0.006-0.004,0.01-0.011,0.016-0.013c0.01-0.007,0.021-0.009,0.031-0.015
	l3.617-2.087c0.015-0.009,0.022-0.021,0.036-0.032c0.018-0.011,0.038-0.015,0.055-0.027l0.153-0.114
	c0.009-0.008,0.014-0.02,0.023-0.028c0.011-0.007,0.023-0.01,0.033-0.018l0.17-0.152c0.028-0.023,0.04-0.057,0.064-0.084
	c0.018-0.02,0.044-0.028,0.061-0.05l0.114-0.154c0.01-0.013,0.011-0.027,0.02-0.042c0.012-0.019,0.028-0.034,0.039-0.054
	c0.022-0.001,0.044-0.001,0.066-0.004l0.162-0.02c0.01-0.001,0.018-0.009,0.028-0.01c0.021-0.002,0.044-0.001,0.065-0.007
	l0.161-0.037c0.008-0.002,0.012-0.007,0.02-0.009c0.01-0.003,0.021-0.001,0.032-0.005l0.132-0.038
	c0.017-0.005,0.028-0.02,0.045-0.023c0.017-0.006,0.034-0.004,0.051-0.01l0.181-0.077c0.014-0.004,0.021-0.016,0.034-0.021
	c0.022-0.011,0.047-0.017,0.068-0.027l20.835-12.018c0.018-0.013,0.026-0.027,0.044-0.039c0.021-0.016,0.047-0.021,0.067-0.037
	l0.143-0.113c0.007-0.006,0.01-0.015,0.017-0.02c0.007-0.007,0.016-0.01,0.022-0.016l0.164-0.146
	c0.003-0.002,0.006-0.004,0.007-0.006c0.055-0.05,0.104-0.105,0.146-0.169l0.115-0.17c0.006-0.01,0.006-0.02,0.012-0.029
	s0.015-0.018,0.02-0.026h0.123H59.9c0.068,0,0.139-0.009,0.208-0.024l0.162-0.039c0.005-0.001,0.007-0.004,0.012-0.006
	c0.006-0.002,0.013,0,0.02-0.003l0.131-0.036c0.021-0.006,0.035-0.02,0.056-0.027c0.018-0.006,0.037-0.003,0.056-0.012l0.18-0.076
	c0.013-0.005,0.02-0.017,0.03-0.021c0.023-0.01,0.047-0.015,0.07-0.027l20.835-12.036c0.018-0.011,0.026-0.028,0.044-0.04
	c0.021-0.015,0.045-0.02,0.066-0.036l0.143-0.113c0.002-0.002,0.003-0.006,0.007-0.009c0.003-0.003,0.009-0.004,0.013-0.007
	l0.18-0.152c0.04-0.034,0.061-0.08,0.094-0.119c0.02-0.021,0.048-0.031,0.065-0.057l0.105-0.152c0.007-0.01,0.008-0.022,0.015-0.035
	c0.009-0.012,0.02-0.021,0.025-0.034c0.02-0.001,0.038-0.001,0.056-0.003l0.171-0.019c0.014-0.002,0.023-0.011,0.036-0.012
	c0.03-0.005,0.059-0.004,0.089-0.012l0.152-0.039c0.003-0.001,0.005-0.004,0.008-0.004c0.006-0.003,0.012-0.002,0.019-0.003
	l0.131-0.037c0.016-0.006,0.026-0.017,0.043-0.021c0.016-0.005,0.031-0.004,0.047-0.011l0.19-0.076
	c0.014-0.005,0.021-0.017,0.035-0.023c0.025-0.011,0.054-0.017,0.078-0.031l3.617-2.088c0.02-0.012,0.027-0.028,0.045-0.04
	c0.021-0.015,0.046-0.019,0.066-0.036l0.142-0.113c0.003-0.002,0.005-0.006,0.008-0.009c0.005-0.003,0.009-0.004,0.014-0.007
	l0.179-0.152c0.033-0.028,0.048-0.064,0.075-0.094c0.019-0.021,0.047-0.029,0.063-0.054l0.114-0.15
	c0.011-0.016,0.013-0.032,0.021-0.048c0.021-0.03,0.047-0.059,0.063-0.094l0.124-0.247c0.015-0.026,0.013-0.056,0.022-0.086
	c0.016-0.039,0.041-0.074,0.051-0.118l0.037-0.171c0.002-0.009,0-0.016,0.001-0.023c0.002-0.009,0.008-0.016,0.01-0.025l0.048-0.285
	c0.004-0.023-0.006-0.049-0.004-0.072c0.003-0.025,0.016-0.048,0.016-0.074V27.524c0-0.028-0.014-0.052-0.016-0.08
	C88.166,27.419,88.175,27.393,88.17,27.364 M31.877,84.822l-0.054,0.028c-0.004,0.001-0.007,0.003-0.01,0.004
	c-0.014,0.002-0.029-0.002-0.043,0.001l-0.1,0.023l-0.006,0.001l-0.008-0.001l-0.097-0.023c-0.015-0.003-0.029,0.001-0.044-0.001
	c-0.003-0.001-0.006-0.003-0.011-0.004l-0.054-0.028L3.874,68.901l-0.051-0.034l-0.056-0.053L3.744,68.78l-0.047-0.087l-0.009-0.035
	l-0.023-0.154V43.003l0.023-0.156l0.009-0.035l0.047-0.087l0.009-0.013l0.068-0.058c0.001,0,0.001,0,0.002-0.001l0.092-0.072
	l3.539-2.038l0.049-0.026c0.014-0.003,0.026-0.002,0.039-0.005l0.111-0.026l0.014-0.001l0.015,0.001l0.093,0.023
	c0.019,0.005,0.037,0.004,0.055,0.007l0.058,0.028l13.09,7.559l14.475,8.361l0.059,0.036l0.049,0.05l0.039,0.054l0.025,0.046
	l0.012,0.057l0.031,0.171v11.025v14.435l-0.002,0.009c-0.001,0.006,0.001,0.01,0,0.015s-0.003,0.009-0.004,0.015l-0.026,0.148
	l-0.01,0.05l-0.025,0.049l-0.022,0.028l-0.072,0.064l-0.082,0.061L31.877,84.822z M52.704,5.515l0.079-0.032l0.076-0.021
	l0.033-0.009h0.05H53l0.044,0.011l0.064,0.019l0.083,0.033l3.573,2.081l0.072,0.048l0.104,0.089l0.038,0.052l0.062,0.096
	l0.039,0.158V8.04l0.037,0.143l0.315,2.249v0.001l1.962,13.928L38.908,36.197c-0.021,0.014-0.033,0.033-0.053,0.047
	c-0.018,0.014-0.042,0.017-0.06,0.03l-0.142,0.115c-0.021,0.017-0.031,0.042-0.051,0.06c-0.018,0.019-0.041,0.025-0.058,0.045
	l-0.089,0.1l-2.201-15.651c-0.001-0.017-0.012-0.028-0.016-0.044c-0.003-0.017,0.002-0.032-0.001-0.048l-0.048-0.19
	c-0.002-0.008-0.007-0.012-0.009-0.019c-0.002-0.008,0-0.016-0.002-0.022l-0.085-0.283c-0.012-0.038-0.038-0.064-0.054-0.101
	C36.022,20.2,36.02,20.162,36,20.128l-0.161-0.267c-0.009-0.013-0.021-0.018-0.029-0.03c-0.008-0.014-0.009-0.026-0.018-0.038
	l-0.113-0.153c-0.023-0.03-0.057-0.046-0.081-0.073c-0.027-0.026-0.042-0.062-0.073-0.087l-0.208-0.17
	c-0.001-0.001-0.002-0.001-0.003-0.002s-0.002-0.002-0.003-0.003l-0.142-0.114c-0.019-0.016-0.042-0.02-0.062-0.034
	c-0.019-0.012-0.03-0.032-0.051-0.045l-2.942-1.695L52.704,5.515z M82.996,38.428l0.051,0.034l0.072,0.065l0.023,0.035l0.029,0.053
	l0.012,0.057l0.03,0.17v4.022l-0.031,0.185l-0.01,0.045l-0.035,0.069l-0.007,0.01l-0.083,0.068c0,0.001-0.001,0.001-0.002,0.001
	l-0.091,0.073l-1.558,0.894c0,0.001-0.001,0-0.002,0.001L62.375,55.19v-3.348c0-0.027-0.012-0.049-0.015-0.073
	c-0.002-0.025,0.007-0.049,0.003-0.075l-0.048-0.284c-0.002-0.009-0.008-0.014-0.01-0.021c-0.002-0.01,0.002-0.018,0-0.025
	l-0.038-0.171c-0.008-0.037-0.031-0.064-0.045-0.1c-0.013-0.035-0.012-0.072-0.028-0.108l-0.124-0.247
	c-0.013-0.024-0.035-0.041-0.051-0.063c-0.016-0.024-0.019-0.052-0.035-0.074l-0.113-0.151c-0.022-0.028-0.054-0.044-0.077-0.068
	c-0.022-0.023-0.035-0.056-0.061-0.076l-0.181-0.154c-0.004-0.001-0.009-0.002-0.012-0.005c-0.003-0.004-0.005-0.008-0.009-0.012
	l-0.143-0.113c-0.019-0.015-0.041-0.019-0.06-0.031c-0.02-0.013-0.03-0.032-0.051-0.045L39.993,37.649l20.588-11.897l0.106-0.042
	l0.051-0.02l0.052-0.013l0.018-0.001h0.006l0.099,0.022h0.001c0,0,0,0.001,0.001,0.001l0.061,0.017l0.073,0.036L82.996,38.428z
	 M39.607,68.345l-0.087,0.035l-0.087,0.023l-0.016,0.004h-0.059h-0.051l-0.016-0.004l-0.088-0.023l-0.087-0.036l-1.649-0.958V56.798
	c0-0.028-0.014-0.052-0.016-0.079c-0.003-0.027,0.006-0.053,0.002-0.08l-0.048-0.266c0-0.004-0.003-0.007-0.004-0.011
	c-0.001-0.003,0.001-0.006,0-0.01l-0.038-0.189c-0.009-0.047-0.037-0.082-0.052-0.124c-0.015-0.043-0.017-0.089-0.039-0.129
	l-0.123-0.226c-0.011-0.02-0.029-0.032-0.041-0.05c-0.013-0.02-0.015-0.042-0.029-0.062l-0.114-0.152
	c-0.014-0.02-0.035-0.026-0.05-0.044c-0.014-0.018-0.02-0.037-0.036-0.055l-0.17-0.17c-0.025-0.023-0.057-0.033-0.084-0.055
	c-0.027-0.022-0.045-0.054-0.075-0.073l-0.153-0.094c-0.004-0.003-0.01-0.003-0.015-0.006c-0.004-0.003-0.007-0.008-0.012-0.01
	L23.227,47.32l14.714-8.49l0.127-0.053c0.003-0.001,0.005-0.003,0.007-0.003c0.008-0.004,0.016-0.012,0.024-0.016
	c0.021-0.009,0.042-0.015,0.062-0.024l0.006-0.001h0.002l0.051,0.015l0.097,0.033l0.143,0.061l21.861,12.623l0.09,0.07l0.081,0.07
	l0.005,0.005l0.037,0.075l0.01,0.044l0.03,0.184v4.013l-0.001,0.01c-0.001,0.005,0,0.009,0,0.013
	c-0.001,0.007-0.004,0.011-0.006,0.015l-0.024,0.151l-0.011,0.05l-0.024,0.047l-0.029,0.04l-0.07,0.064l-0.055,0.037l-1.597,0.935
	h-0.001L39.607,68.345z M30.061,18.597l0.082-0.034l0.088-0.023c0.001,0,0.001-0.001,0.002-0.001l0.069-0.018l0.003-0.001
	l0.01,0.002l0.069,0.018h0.001l0.085,0.023l0.044,0.019c0,0.001,0.002,0,0.003,0.001c0.001,0,0.002,0.001,0.003,0.001l0.034,0.014
	l3.537,2.04l0.091,0.072l0.001,0.001l0.116,0.095l0.021,0.027l0.081,0.133l0.046,0.151l0.031,0.125l2.277,16.198l-15.327,8.844
	L9.094,39.165v-8.163l0.031-0.17l0.011-0.057l0.039-0.072l0.026-0.038l0.063-0.057l0.078-0.063L30.061,18.597z M37.468,81.6V69.468
	l0.802,0.467c0.026,0.015,0.054,0.021,0.08,0.032c0.014,0.008,0.022,0.019,0.037,0.023l0.19,0.077
	c0.016,0.006,0.032,0.004,0.048,0.011c0.016,0.005,0.025,0.017,0.041,0.021l0.133,0.038c0.005,0.001,0.01,0.001,0.017,0.002
	c0.003,0,0.004,0.003,0.008,0.004l0.152,0.039c0.075,0.018,0.148,0.027,0.222,0.027h0.001h0.16h0.172
	c0.073,0,0.147-0.01,0.222-0.027l0.152-0.039c0.003-0.001,0.005-0.004,0.008-0.004c0.005-0.001,0.011-0.001,0.017-0.002l0.132-0.038
	c0.017-0.005,0.026-0.017,0.042-0.021c0.016-0.007,0.032-0.005,0.048-0.011l0.19-0.077c0.014-0.005,0.022-0.016,0.034-0.021
	c0.027-0.012,0.055-0.019,0.079-0.032L58.307,59.63v9.643L58.3,69.314c-0.001,0.006,0.001,0.011,0.001,0.019
	c-0.002,0.005-0.006,0.01-0.006,0.016l-0.013,0.099l-0.006,0.027l-0.053,0.093l-0.025,0.04l-0.062,0.056l-0.074,0.06L37.468,81.6z
	 M60.106,68.537v-9.951l1.178-0.688c0.007-0.004,0.01-0.011,0.018-0.016c0.009-0.005,0.019-0.007,0.027-0.015l0.143-0.093
	c0.021-0.015,0.031-0.037,0.052-0.052c0.02-0.018,0.048-0.024,0.065-0.043l0.182-0.17c0.022-0.022,0.031-0.05,0.052-0.072
	c0.015-0.019,0.037-0.023,0.052-0.043l0.113-0.153c0.011-0.013,0.013-0.028,0.021-0.043c0.013-0.019,0.029-0.034,0.04-0.056
	c0.018,0,0.03,0,0.047-0.002l0.17-0.02c0.013-0.002,0.021-0.01,0.033-0.012c0.03-0.003,0.058-0.002,0.088-0.01l0.113-0.028
	l0.084-0.012c0.063-0.009,0.114-0.041,0.172-0.062c0.033-0.013,0.069-0.009,0.101-0.023l0.189-0.095
	c0.007-0.003,0.011-0.011,0.018-0.014c0.01-0.005,0.02-0.007,0.03-0.012l17.854-10.308v9.647l-0.002,0.009
	c-0.003,0.015,0.003,0.026,0,0.039c-0.002,0.015-0.011,0.023-0.012,0.036l-0.013,0.111l-0.007,0.024l-0.044,0.08l-0.01,0.015
	l-0.087,0.073l-0.071,0.057L60.106,68.537z M82.746,55.462v-9.951l1.17-0.671c0.018-0.012,0.028-0.026,0.044-0.038
	c0.023-0.017,0.05-0.023,0.072-0.04l0.142-0.114c0.004-0.003,0.006-0.006,0.008-0.009c0.004-0.003,0.007-0.003,0.01-0.006
	l0.18-0.152c0.032-0.025,0.048-0.063,0.074-0.093c0.021-0.022,0.05-0.031,0.067-0.057l0.113-0.151
	c0.013-0.017,0.015-0.034,0.024-0.051c0.019-0.028,0.043-0.055,0.059-0.086l0.124-0.246c0.014-0.026,0.013-0.057,0.022-0.082
	c0.016-0.043,0.043-0.081,0.053-0.128l0.037-0.171c0.002-0.009,0-0.016,0-0.022c0.002-0.009,0.008-0.015,0.009-0.024l0.048-0.283
	c0.005-0.025-0.005-0.051-0.003-0.074c0.003-0.025,0.016-0.047,0.016-0.073v-4.176c0-0.029-0.014-0.052-0.017-0.079
	c-0.002-0.027,0.008-0.053,0.002-0.08l-0.047-0.266c0-0.003-0.003-0.006-0.004-0.01c0-0.003,0.001-0.006,0-0.01l-0.037-0.188
	c-0.01-0.047-0.037-0.083-0.053-0.127c-0.017-0.043-0.019-0.088-0.04-0.129l-0.124-0.227c-0.012-0.021-0.03-0.032-0.042-0.051
	c-0.013-0.019-0.015-0.038-0.026-0.056l-0.114-0.153c-0.017-0.022-0.04-0.031-0.057-0.052c-0.019-0.021-0.026-0.047-0.047-0.065
	L84.228,37.1c-0.02-0.019-0.045-0.024-0.065-0.04c-0.021-0.018-0.031-0.039-0.053-0.054l-0.143-0.096
	c-0.009-0.006-0.019-0.006-0.026-0.011c-0.01-0.006-0.014-0.015-0.022-0.019L61.924,24.182c-0.009-0.005-0.018-0.005-0.025-0.009
	c-0.009-0.005-0.013-0.013-0.021-0.019l-0.189-0.094c-0.031-0.016-0.064-0.015-0.098-0.025c-0.033-0.013-0.059-0.035-0.094-0.046
	l-0.161-0.038h-0.002l-0.148-0.035c-0.012-0.003-0.023,0.001-0.035-0.002l-1.715-12.177l26.697,15.412l0.071,0.058l0.082,0.067
	l0.019,0.029l0.039,0.073l0.013,0.057l0.029,0.169v25.456l-0.03,0.188l-0.01,0.036l-0.039,0.078l-0.002,0.002l-0.101,0.086
	l-0.071,0.058L82.746,55.462z"/>
<path fill="#669ACB" d="M15.986,5.802c-0.235-1.186-0.873-2.213-1.803-2.918c-0.218-0.165-0.506-0.208-0.762-0.111
	c-1.478,0.551-2.269,0.223-2.768-0.693c-0.129-0.237-0.226-0.496-0.293-0.758c-0.04-0.153-0.06-0.269-0.065-0.318
	C10.262,0.712,10.072,0.461,9.8,0.352c-1.156-0.469-2.445-0.469-3.6,0c-0.273,0.109-0.462,0.36-0.495,0.651
	C5.699,1.053,5.679,1.168,5.64,1.321C5.572,1.583,5.476,1.842,5.347,2.079c-0.5,0.916-1.291,1.244-2.768,0.693
	C2.322,2.676,2.034,2.719,1.816,2.884C0.887,3.589,0.248,4.616,0.021,5.766c-0.056,0.295,0.025,0.561,0.21,0.747
	c1.685,1.706,1.685,5.064,0,6.771c-0.185,0.187-0.266,0.453-0.217,0.711c0.234,1.186,0.872,2.212,1.802,2.918
	c0.214,0.163,0.497,0.207,0.751,0.117c0.076-0.027,0.237-0.074,0.462-0.123c0.735-0.159,1.504-0.19,2.197-0.016
	c0.915,0.229,1.604,0.793,2.036,1.82c0.275,0.653,1.2,0.653,1.475,0c0.433-1.027,1.122-1.591,2.037-1.82
	c0.692-0.175,1.461-0.144,2.197,0.016c0.225,0.049,0.386,0.096,0.462,0.123c0.254,0.09,0.536,0.046,0.751-0.117
	c0.929-0.706,1.568-1.732,1.795-2.882c0.056-0.294-0.026-0.561-0.21-0.747c-1.686-1.706-1.686-5.064,0-6.771
	C15.953,6.326,16.035,6.061,15.986,5.802 M14.321,14.066c-0.158,0.501-0.438,0.956-0.814,1.32c-0.062-0.014-0.127-0.028-0.197-0.045
	c-0.956-0.207-1.96-0.247-2.927-0.004C9.434,15.577,8.622,16.071,8,16.839c-0.622-0.768-1.435-1.262-2.384-1.501
	c-0.966-0.243-1.971-0.203-2.927,0.004c-0.069,0.017-0.135,0.031-0.196,0.045c-0.376-0.364-0.655-0.818-0.815-1.321
	c1.889-2.274,1.889-6.061,0-8.335c0.156-0.494,0.432-0.943,0.8-1.307c2.009,0.587,3.465-0.095,4.274-1.58
	C6.97,2.444,7.113,2.049,7.199,1.702c0.525-0.136,1.076-0.136,1.601,0c0.087,0.347,0.229,0.742,0.448,1.142
	c0.809,1.485,2.264,2.167,4.274,1.58c0.367,0.362,0.642,0.812,0.799,1.308C12.432,8.005,12.432,11.791,14.321,14.066"/>
</svg>
