<?xml version="1.0" encoding="utf-8"?>
<!-- Generator: Adobe Illustrator 16.0.0, SVG Export Plug-In . SVG Version: 6.00 Build 0)  -->
<!DOCTYPE svg PUBLIC "-//W3C//DTD SVG 1.1//EN" "http://www.w3.org/Graphics/SVG/1.1/DTD/svg11.dtd">
<svg version="1.1" id="Слой_1" xmlns="http://www.w3.org/2000/svg" xmlns:xlink="http://www.w3.org/1999/xlink" x="0px" y="0px"
	 width="88px" height="77.064px" viewBox="0 0 88 77.064" enable-background="new 0 0 88 77.064" xml:space="preserve">
<path fill="#669ACB" d="M87.988,19.733l-0.039-0.209v-0.001l-0.028-0.15c-0.009-0.05-0.037-0.087-0.054-0.132
	c-0.018-0.046-0.02-0.096-0.045-0.14l-0.094-0.171c-0.01-0.016-0.024-0.023-0.033-0.04c-0.01-0.015-0.012-0.033-0.022-0.048
	l-0.094-0.132c-0.021-0.03-0.056-0.048-0.08-0.075c-0.024-0.026-0.037-0.059-0.065-0.083l-0.132-0.115
	c-0.002-0.002-0.005-0.002-0.007-0.004c-0.001-0.001-0.001-0.003-0.003-0.004l-0.113-0.094c-0.021-0.02-0.046-0.023-0.067-0.037
	c-0.022-0.017-0.037-0.039-0.06-0.054L65.266,5.677c-0.009-0.004-0.018-0.004-0.027-0.009c-0.008-0.005-0.012-0.013-0.02-0.018
	l-0.15-0.074l-0.168-1.2c-0.004-0.02-0.015-0.031-0.018-0.048c-0.004-0.02,0.002-0.033-0.003-0.053l-0.039-0.15
	c-0.001-0.005-0.005-0.009-0.007-0.014c0-0.006,0.001-0.011,0-0.016l-0.066-0.229c-0.014-0.044-0.043-0.076-0.062-0.118
	c-0.019-0.039-0.022-0.082-0.048-0.119l-0.123-0.191c-0.004-0.006-0.01-0.009-0.016-0.014c-0.004-0.006-0.004-0.014-0.009-0.02
	l-0.094-0.133c-0.024-0.031-0.058-0.051-0.086-0.079c-0.027-0.029-0.043-0.066-0.076-0.094l-0.161-0.132
	c-0.001-0.001-0.003-0.001-0.004-0.002l-0.104-0.087c-0.021-0.018-0.047-0.022-0.068-0.037c-0.021-0.017-0.037-0.04-0.061-0.055
	l-2.887-1.652c-0.005-0.003-0.01-0.003-0.016-0.006c-0.004-0.001-0.006-0.006-0.01-0.008l-0.143-0.075
	c-0.041-0.022-0.087-0.024-0.13-0.039c-0.044-0.016-0.081-0.043-0.129-0.052l-0.062-0.013l-0.074-0.021
	c-0.039-0.01-0.082-0.002-0.125-0.009s-0.084-0.025-0.131-0.025h-0.131h-0.133c-0.047,0-0.087,0.019-0.132,0.025
	c-0.043,0.007-0.085-0.001-0.128,0.012l-0.077,0.022l-0.056,0.011c-0.047,0.01-0.082,0.035-0.126,0.052
	c-0.044,0.015-0.091,0.016-0.132,0.039l-0.143,0.076c-0.005,0.003-0.008,0.007-0.013,0.01c-0.004,0.003-0.011,0.003-0.015,0.004
	l-16.431,9.473c-0.023,0.015-0.036,0.035-0.057,0.052c-0.022,0.016-0.048,0.018-0.069,0.037l-0.115,0.094l-0.127,0.102
	c-0.04,0.032-0.062,0.076-0.095,0.113c-0.034,0.038-0.076,0.065-0.105,0.11l-0.049,0.076c-0.042,0.002-0.08,0.021-0.121,0.025
	c-0.044,0.006-0.088-0.001-0.133,0.013l-0.075,0.024l-0.042,0.006c-0.042,0.009-0.075,0.034-0.115,0.046
	c-0.045,0.016-0.092,0.017-0.134,0.037l-0.151,0.078c-0.008,0.004-0.013,0.011-0.02,0.015c-0.007,0.006-0.016,0.004-0.023,0.009
	l-16.424,9.473c-0.022,0.013-0.036,0.035-0.056,0.051c-0.022,0.015-0.048,0.019-0.07,0.037l-0.109,0.09l-0.135,0.109
	c-0.041,0.033-0.062,0.077-0.096,0.114c-0.031,0.033-0.071,0.059-0.097,0.1l-0.055,0.084c-0.041,0.001-0.078,0.018-0.118,0.023
	c-0.044,0.008-0.088,0-0.131,0.014l-0.072,0.021l-0.057,0.012c-0.042,0.009-0.075,0.032-0.115,0.047
	c-0.041,0.014-0.082,0.014-0.122,0.032l-0.151,0.075c-0.01,0.004-0.014,0.015-0.023,0.019c-0.008,0.005-0.018,0.005-0.026,0.01
	L6.928,31.229c-0.023,0.015-0.037,0.036-0.058,0.054c-0.022,0.015-0.048,0.019-0.069,0.036l-0.113,0.095
	c-0.007,0.006-0.009,0.015-0.016,0.02c-0.007,0.006-0.017,0.008-0.023,0.015l-0.143,0.134c-0.02,0.018-0.028,0.045-0.046,0.063
	c-0.019,0.021-0.042,0.031-0.058,0.054l-0.086,0.113c-0.012,0.018-0.015,0.037-0.026,0.057c-0.013,0.019-0.032,0.029-0.043,0.051
	l-0.104,0.189c-0.023,0.04-0.025,0.085-0.04,0.128c-0.016,0.039-0.041,0.071-0.051,0.115l-0.029,0.13
	c-0.002,0.01,0.001,0.017,0,0.023c-0.001,0.009-0.006,0.013-0.008,0.02l-0.038,0.23c-0.005,0.024,0.005,0.049,0.003,0.074
	c-0.002,0.023-0.015,0.047-0.015,0.071v5.995c-0.021,0.007-0.042,0.002-0.064,0.011l-0.105,0.036
	c-0.003,0.003-0.006,0.006-0.01,0.008c-0.003,0.001-0.007,0-0.011,0.002L5.623,39.01c-0.023,0.008-0.037,0.026-0.06,0.037
	c-0.022,0.011-0.048,0.01-0.069,0.023l-2.857,1.651c-0.024,0.013-0.038,0.036-0.059,0.052c-0.021,0.017-0.046,0.02-0.067,0.036
	l-0.099,0.083H2.411l-0.142,0.116c-0.039,0.032-0.061,0.076-0.095,0.113c-0.032,0.036-0.072,0.059-0.099,0.102l-0.086,0.133
	c-0.006,0.01-0.006,0.02-0.011,0.028c-0.005,0.007-0.013,0.012-0.017,0.021l-0.095,0.17c-0.02,0.036-0.022,0.075-0.036,0.112
	c-0.015,0.037-0.041,0.067-0.052,0.107l-0.037,0.15c-0.004,0.018,0.001,0.032-0.002,0.051c-0.004,0.017-0.014,0.028-0.016,0.046
	l-0.029,0.209c-0.003,0.02,0.005,0.041,0.003,0.061c-0.001,0.021-0.012,0.039-0.012,0.062v20.218c0,0.021,0.011,0.04,0.012,0.06
	c0.002,0.021-0.006,0.041-0.003,0.063l0.029,0.209c0.002,0.017,0.012,0.032,0.016,0.049c0.003,0.016-0.002,0.031,0.002,0.046
	l0.037,0.152c0.013,0.051,0.04,0.091,0.06,0.135c0.012,0.027,0.012,0.055,0.026,0.083l0.095,0.17
	c0.006,0.012,0.016,0.021,0.022,0.032c0.003,0.006,0.003,0.013,0.008,0.02l0.086,0.133c0.05,0.076,0.112,0.142,0.179,0.198
	c0.005,0.006,0.008,0.013,0.013,0.017l0.142,0.114H2.41l0.099,0.084c0.023,0.02,0.052,0.025,0.075,0.043
	c0.019,0.014,0.031,0.033,0.052,0.046L24.42,76.811c0.011,0.005,0.021,0.007,0.03,0.014c0.006,0.002,0.01,0.009,0.015,0.012
	l0.151,0.076c0.075,0.039,0.155,0.061,0.235,0.077c0.005,0.001,0.009,0.005,0.014,0.006l0.05,0.009l0.072,0.021
	c0.087,0.028,0.174,0.04,0.262,0.04h0.001h0.123h0.132h0.001c0.087,0,0.175-0.012,0.262-0.04l0.072-0.021l0.05-0.009
	c0.005-0.001,0.009-0.005,0.014-0.006c0.079-0.017,0.158-0.038,0.233-0.076l0.152-0.076c0.006-0.003,0.009-0.01,0.015-0.012
	c0.011-0.008,0.021-0.009,0.032-0.015l2.857-1.65c0.008-0.005,0.012-0.013,0.019-0.019c0.009-0.004,0.02-0.006,0.029-0.013
	l0.114-0.075c0.025-0.019,0.04-0.045,0.064-0.064c0.023-0.019,0.053-0.027,0.076-0.052l0.132-0.133
	c0.018-0.018,0.024-0.041,0.04-0.06c0.011-0.016,0.029-0.021,0.041-0.034l0.086-0.114c0.002-0.004,0.002-0.008,0.005-0.011
	l0.126-0.021c0.001,0,0.001-0.001,0.002-0.001c0.003-0.001,0.008,0,0.013-0.001l0.113-0.018c0.025-0.005,0.044-0.021,0.068-0.026
	c0.032-0.007,0.062-0.005,0.094-0.016l0.104-0.038c0.001-0.001,0.002-0.002,0.004-0.003s0.004,0,0.006-0.001l0.153-0.057
	c0.014-0.006,0.023-0.018,0.037-0.023c0.031-0.014,0.065-0.022,0.095-0.039l16.431-9.493c0.007-0.004,0.012-0.012,0.02-0.017
	c0.01-0.006,0.021-0.008,0.031-0.017l0.115-0.075c0.025-0.018,0.038-0.043,0.063-0.062c0.021-0.02,0.049-0.027,0.07-0.048
	l0.133-0.132c0.012-0.012,0.014-0.027,0.024-0.038c0.01-0.012,0.022-0.015,0.032-0.025l0.095-0.113
	c0.013-0.015,0.015-0.031,0.022-0.046h0.002l0.125-0.02l0,0c0.004-0.001,0.006-0.001,0.01-0.001l0.123-0.019
	c0.027-0.006,0.048-0.02,0.072-0.026c0.033-0.008,0.064-0.006,0.098-0.019l0.104-0.037c0.006-0.002,0.008-0.007,0.014-0.009
	c0.004-0.002,0.009-0.001,0.014-0.003l0.143-0.056c0.012-0.006,0.019-0.017,0.031-0.021c0.027-0.013,0.057-0.019,0.083-0.033
	l16.431-9.492c0.008-0.005,0.012-0.012,0.02-0.019c0.01-0.005,0.021-0.008,0.031-0.014l0.113-0.076
	c0.02-0.014,0.029-0.035,0.049-0.05c0.021-0.017,0.047-0.024,0.067-0.042l0.142-0.133c0.023-0.022,0.033-0.05,0.054-0.072
	c0.014-0.018,0.034-0.022,0.048-0.041l0.086-0.114c0.005-0.005,0.005-0.012,0.01-0.017l0.109-0.016
	c0.004-0.001,0.007-0.001,0.011-0.001l0.123-0.019c0.029-0.005,0.052-0.021,0.079-0.03c0.033-0.008,0.066-0.005,0.1-0.017
	l0.104-0.039c0.003-0.001,0.005-0.003,0.008-0.005c0.005-0.001,0.007,0,0.011-0.002l0.143-0.056
	c0.013-0.007,0.021-0.018,0.033-0.021c0.027-0.013,0.059-0.02,0.086-0.036l16.432-9.492c0.007-0.005,0.012-0.012,0.02-0.017
	c0.01-0.006,0.021-0.008,0.031-0.015l0.114-0.077c0.021-0.016,0.03-0.035,0.051-0.05c0.019-0.018,0.044-0.022,0.062-0.04
	l0.143-0.133c0.025-0.021,0.035-0.054,0.057-0.078c0.016-0.019,0.039-0.024,0.055-0.047l0.085-0.113
	c0.001-0.002,0.001-0.003,0.002-0.005h0.002l0.124-0.02l0.123-0.019c0.023-0.004,0.042-0.02,0.066-0.024
	c0.03-0.007,0.063-0.005,0.094-0.016l0.104-0.037c0.006-0.002,0.008-0.006,0.012-0.008c0.004,0,0.008,0,0.012-0.001l0.152-0.059
	c0.014-0.005,0.022-0.017,0.035-0.021c0.031-0.015,0.063-0.022,0.092-0.038l2.858-1.651c0.021-0.012,0.034-0.033,0.054-0.047
	c0.024-0.017,0.051-0.023,0.074-0.042l0.113-0.095c0.002-0.001,0.002-0.003,0.004-0.005s0.004-0.002,0.006-0.005l0.133-0.113
	c0.034-0.029,0.051-0.069,0.08-0.104c0.02-0.021,0.049-0.032,0.066-0.056l0.094-0.133c0.008-0.012,0.01-0.023,0.016-0.032
	c0.012-0.021,0.027-0.032,0.039-0.052l0.094-0.17c0.015-0.026,0.015-0.056,0.024-0.081c0.029-0.063,0.06-0.123,0.074-0.192
	l0.026-0.152v-0.001l0.039-0.209c0.006-0.026-0.002-0.054-0.002-0.082C87.986,40.165,88,40.14,88,40.111V19.896
	c0-0.027-0.014-0.052-0.018-0.08C87.984,19.789,87.992,19.762,87.988,19.733 M25.456,75.244l-0.04,0.02
	c-0.01,0.001-0.02,0-0.031,0.002h-0.01h-0.001c-0.011-0.002-0.021-0.001-0.032-0.002l-0.038-0.02l-21.7-12.519L3.55,62.681
	c-0.002-0.001-0.005-0.001-0.006-0.003c-0.003-0.003-0.004-0.006-0.007-0.008l-0.026-0.022l-0.014-0.024l-0.013-0.09V42.435
	l0.013-0.09l0.014-0.026l0.026-0.02c0.003-0.002,0.004-0.005,0.007-0.007c0.001-0.002,0.004-0.003,0.006-0.005l0.053-0.043
	l2.731-1.579l0.068-0.025l0.027-0.01l0.02-0.003l0.034,0.005l0.027,0.009c0.002,0.001,0.004,0,0.007,0.001
	c0.001,0.001,0.002,0.002,0.004,0.003l0.012,0.005l0.009,0.003l10.316,5.957l11.416,6.594l0.011,0.009l0.028,0.027l0.004,0.006
	l0.009,0.015v0.003l0.023,0.128v8.672v11.358l-0.002,0.009c-0.001,0.005,0.001,0.009,0,0.016c-0.001,0.005-0.004,0.009-0.005,0.015
	l-0.017,0.103l-0.008,0.015l-0.004,0.006l-0.028,0.026l-0.008,0.008L25.456,75.244z M59.957,2.704L59.98,2.69
	c0.012-0.002,0.024-0.002,0.037-0.005h0.004h0.006c0.013,0.003,0.023,0.003,0.037,0.005l0.012,0.009L60.078,2.7l2.82,1.613
	l0.049,0.041c0,0.001,0.002,0.001,0.002,0.001c0.002,0.002,0.002,0.004,0.004,0.006l0.07,0.059l0.02,0.025l0.035,0.054l0.025,0.09
	l0.021,0.088l0.249,1.772l1.524,10.855l-16.043,9.274c-0.023,0.013-0.037,0.034-0.058,0.05c-0.022,0.015-0.047,0.018-0.067,0.037
	l-0.002,0.002l-1.684-11.965c-0.002-0.013-0.01-0.021-0.012-0.031c-0.002-0.012,0.002-0.022,0-0.033l-0.037-0.171
	c-0.004-0.016-0.014-0.026-0.018-0.041s0-0.028-0.006-0.041l-0.066-0.209c-0.01-0.033-0.034-0.056-0.049-0.086
	c-0.014-0.033-0.016-0.068-0.033-0.099l-0.123-0.208c-0.008-0.014-0.02-0.02-0.027-0.029c-0.007-0.012-0.008-0.025-0.016-0.036
	l-0.094-0.133c-0.025-0.034-0.061-0.053-0.09-0.082c-0.025-0.028-0.041-0.063-0.07-0.088l-0.158-0.131l-0.002-0.002l-0.115-0.096
	c-0.02-0.017-0.047-0.021-0.07-0.038c-0.021-0.014-0.035-0.036-0.057-0.051l-2.043-1.168L59.957,2.704z M83.578,28.633l0.055,0.046
	c0.003,0.001,0.008,0.001,0.01,0.004c0.002,0.002,0.002,0.005,0.006,0.007l0.022,0.02l0.017,0.027l0.002,0.007l0.018,0.104v3.137
	l-0.018,0.102l-0.01,0.029l-0.01,0.021l-0.02,0.018l-0.039,0.026l-1.248,0.721c0,0.001,0,0.001-0.002,0.001l-14.719,8.51v-2.34
	c0-0.02-0.012-0.037-0.014-0.058c0-0.021,0.008-0.04,0.005-0.06l-0.026-0.209c-0.004-0.021-0.016-0.032-0.02-0.053
	c-0.003-0.017,0.002-0.034-0.002-0.053l-0.039-0.15c-0.01-0.039-0.035-0.066-0.049-0.103c-0.016-0.037-0.018-0.075-0.036-0.11
	l-0.095-0.172c-0.006-0.008-0.014-0.013-0.018-0.021c-0.006-0.008-0.007-0.02-0.012-0.027l-0.085-0.132
	c-0.026-0.041-0.067-0.067-0.101-0.103c-0.032-0.037-0.053-0.081-0.094-0.113l-0.142-0.114c-0.001,0-0.001-0.001-0.002-0.001
	l-0.097-0.082c-0.021-0.018-0.049-0.023-0.069-0.038c-0.022-0.016-0.036-0.039-0.06-0.052l-16.518-9.525l15.941-9.214l0.078-0.028
	c0.004-0.002,0.008-0.007,0.013-0.008l0.017-0.003l0.049,0.007l0.055,0.029L83.578,28.633z M31.554,62.24l-0.063,0.024l-0.004,0.001
	l-0.037,0.006l-0.037-0.006l-0.004-0.001l-0.061-0.024l-1.199-0.695v-8.234c0-0.027-0.014-0.053-0.017-0.08
	c-0.002-0.026,0.006-0.053,0.002-0.08l-0.038-0.209c0-0.001-0.001-0.002-0.001-0.004v-0.003l-0.029-0.15
	c-0.009-0.048-0.036-0.083-0.051-0.126c-0.016-0.047-0.019-0.097-0.044-0.142l-0.104-0.189c-0.011-0.021-0.031-0.031-0.043-0.052
	c-0.011-0.017-0.014-0.037-0.027-0.055l-0.085-0.115c-0.013-0.018-0.033-0.023-0.046-0.042c-0.015-0.016-0.02-0.036-0.036-0.053
	l-0.132-0.133c-0.023-0.023-0.053-0.032-0.077-0.052c-0.023-0.021-0.038-0.047-0.064-0.063l-0.113-0.077
	c-0.008-0.005-0.018-0.005-0.026-0.01c-0.009-0.005-0.014-0.014-0.022-0.019l-10.087-5.826l11.353-6.546l0.047-0.024l0.041,0.006
	l0.056,0.027l17.261,9.954l0.058,0.048c0.003,0.002,0.007,0.002,0.009,0.005c0.002,0.002,0.004,0.004,0.006,0.006l0.02,0.016
	l0.007,0.018l0.022,0.126v3.166l-0.012,0.046c-0.002,0.009,0.002,0.018,0,0.028s-0.01,0.016-0.012,0.024l-0.004,0.023l-0.02,0.019
	l-0.033,0.022l-1.254,0.724c0,0.001,0,0.001-0.002,0.001L31.554,62.24z M49.787,51.712v-2.333c0-0.028-0.014-0.051-0.016-0.078
	c-0.004-0.028,0.006-0.055,0.002-0.083l-0.039-0.208c0-0.004-0.004-0.008-0.004-0.013c-0.002-0.005,0-0.009,0-0.014l-0.029-0.133
	c-0.008-0.038-0.031-0.067-0.045-0.104c-0.014-0.036-0.014-0.074-0.03-0.11l-0.095-0.19c-0.008-0.016-0.021-0.022-0.029-0.038
	c-0.01-0.017-0.01-0.031-0.02-0.048l-0.086-0.133c-0.027-0.044-0.07-0.068-0.104-0.106c-0.032-0.035-0.055-0.078-0.094-0.108
	l-0.133-0.107l-0.108-0.091c-0.021-0.018-0.048-0.021-0.069-0.038c-0.021-0.014-0.033-0.035-0.056-0.05l-16.519-9.522l15.948-9.213
	l0.084-0.032c0.004-0.001,0.004-0.003,0.008-0.003l0.012-0.003l0.045,0.007l0.041,0.02l17.271,9.959l0.053,0.045
	c0.004,0.002,0.006,0.004,0.008,0.006c0.004,0.001,0.005,0.005,0.008,0.008l0.025,0.019l0.016,0.028l0.012,0.09v3.194l-0.003,0.027
	L65.833,42.4l-0.004,0.02l-0.013,0.022l-0.025,0.024l-0.021,0.015l-1.26,0.729L49.787,51.712z M42.08,13.021l0.039-0.019
	c0.014-0.004,0.029-0.003,0.043-0.006c0.014,0.003,0.029,0.002,0.042,0.006l0.038,0.019l2.796,1.6l0.056,0.046
	c0.001,0.001,0.001,0.001,0.002,0.001l0.069,0.056l0.005,0.007l0.055,0.093l0.018,0.06l0.025,0.106l1.775,12.625l-16.052,9.274
	c-0.03,0.018-0.047,0.045-0.074,0.065c-0.017,0.013-0.036,0.018-0.051,0.029l-1.676-11.97c-0.002-0.017-0.013-0.029-0.016-0.044
	c-0.002-0.017,0.002-0.032-0.001-0.048l-0.038-0.154c-0.001-0.005-0.006-0.01-0.008-0.016c-0.002-0.008,0-0.015-0.002-0.021
	l-0.067-0.226c-0.012-0.041-0.04-0.073-0.058-0.111c-0.018-0.04-0.022-0.082-0.046-0.12l-0.133-0.209H28.82l-0.086-0.133
	c-0.026-0.042-0.066-0.065-0.098-0.102c-0.032-0.036-0.052-0.079-0.091-0.11l-0.161-0.132c-0.016-0.014-0.036-0.017-0.052-0.028
	c-0.017-0.011-0.026-0.028-0.044-0.041l-0.123-0.076c-0.004-0.003-0.009-0.003-0.014-0.006c-0.002-0.002-0.004-0.005-0.008-0.006
	l-2.045-1.188L42.08,13.021z M24.223,23.33l0.042-0.021c0.014-0.003,0.028-0.002,0.041-0.005c0.014,0.003,0.028,0.002,0.042,0.005
	l0.044,0.022l2.823,1.641l0.075,0.045l0.004,0.004l0.006,0.011v0.001l0.064,0.101l0.027,0.092l0.02,0.084l1.771,12.635
	l-11.876,6.849l-9.54-5.51v-6.307l0.02-0.118l0.01-0.019l0.068-0.064l0.031-0.024L24.223,23.33z M30.148,72.539v-8.914l0.347,0.203
	c0.025,0.015,0.053,0.02,0.079,0.033c0.013,0.005,0.02,0.016,0.033,0.021l0.142,0.057c0.007,0.003,0.014,0.002,0.02,0.005
	c0.006,0.002,0.011,0.009,0.018,0.012l0.105,0.036c0.03,0.011,0.062,0.01,0.093,0.017c0.024,0.006,0.042,0.021,0.068,0.025
	l0.123,0.019c0.003,0.001,0.006,0,0.01,0.001l0.133,0.018c0.042,0.009,0.085,0.011,0.126,0.012h0.002h0.001h0.001h0.002
	c0.042-0.001,0.083-0.003,0.127-0.012l0.132-0.018c0.002-0.001,0.006-0.001,0.009-0.001l0.123-0.019
	c0.025-0.004,0.044-0.02,0.069-0.025c0.03-0.007,0.063-0.006,0.093-0.017l0.104-0.036c0.008-0.003,0.012-0.01,0.019-0.012
	c0.007-0.003,0.014-0.002,0.02-0.005l0.143-0.057c0.012-0.006,0.019-0.017,0.032-0.021c0.025-0.014,0.053-0.02,0.077-0.032
	l13.8-7.973v7.294l-0.012,0.042c-0.002,0.01,0.002,0.018,0,0.026c-0.002,0.007-0.009,0.014-0.011,0.022l-0.004,0.021l-0.034,0.035
	l-0.02,0.013L30.148,72.539z M48.003,62.229v-7.413l0.832-0.48c0.006-0.004,0.01-0.011,0.017-0.016
	c0.01-0.007,0.02-0.008,0.029-0.015l0.114-0.075c0.021-0.014,0.032-0.035,0.052-0.051c0.02-0.017,0.046-0.022,0.064-0.041
	l0.143-0.133c0.023-0.021,0.031-0.049,0.053-0.072c0.016-0.018,0.036-0.022,0.051-0.043l0.086-0.113
	c0.006-0.005,0.006-0.013,0.008-0.017l0.111-0.016c0.002,0,0.002-0.001,0.002-0.001c0.006-0.001,0.01,0,0.016-0.001l0.124-0.02
	c0.028-0.004,0.051-0.021,0.077-0.028c0.033-0.009,0.065-0.007,0.097-0.018l0.104-0.039c0.002-0.001,0.004-0.003,0.006-0.004
	s0.007-0.001,0.01-0.002l0.143-0.056c0.012-0.007,0.02-0.018,0.032-0.021c0.028-0.013,0.058-0.02,0.087-0.036l13.801-7.972v7.292
	c0,0.002-0.002,0.004-0.002,0.005l-0.012,0.082l-0.004,0.014l-0.01,0.019l-0.027,0.025l-0.021,0.017L48.003,62.229z M65.857,51.922
	v-7.413l0.832-0.481c0.006-0.004,0.012-0.012,0.019-0.016c0.01-0.006,0.021-0.008,0.03-0.015l0.113-0.075
	c0.021-0.015,0.031-0.035,0.051-0.051c0.021-0.018,0.047-0.024,0.066-0.042l0.143-0.134c0.023-0.021,0.033-0.053,0.054-0.075
	c0.017-0.019,0.038-0.023,0.052-0.043l0.086-0.114c0.004-0.004,0.004-0.008,0.006-0.011l0.111-0.018
	c0.002-0.001,0.004-0.001,0.007-0.001l0.123-0.018c0.026-0.004,0.047-0.021,0.073-0.027c0.031-0.006,0.064-0.004,0.097-0.016
	l0.104-0.038c0.004-0.001,0.005-0.003,0.007-0.004c0.003-0.001,0.006-0.001,0.009-0.002l0.15-0.058
	c0.016-0.005,0.025-0.017,0.037-0.022c0.033-0.015,0.064-0.021,0.096-0.038l13.79-7.971v7.295L81.9,42.613l-0.002,0.014
	l-0.015,0.025l-0.019,0.021l-0.032,0.021L65.857,51.922z M83.712,41.618v-7.417l0.833-0.482c0.006-0.004,0.01-0.011,0.018-0.015
	c0.01-0.009,0.021-0.009,0.032-0.018l0.114-0.075c0.02-0.015,0.029-0.034,0.049-0.051c0.02-0.014,0.044-0.02,0.063-0.038
	l0.142-0.132c0.024-0.021,0.034-0.052,0.056-0.077c0.016-0.018,0.039-0.023,0.055-0.045l0.086-0.113
	c0.011-0.016,0.012-0.032,0.021-0.048c0.02-0.03,0.045-0.055,0.061-0.09l0.096-0.188c0.012-0.024,0.01-0.052,0.02-0.076
	c0.016-0.037,0.039-0.07,0.049-0.11l0.037-0.151c0.002-0.01,0-0.018,0-0.024c0.004-0.011,0.01-0.019,0.012-0.028l0.039-0.208
	c0.005-0.027-0.004-0.055-0.002-0.084c0.002-0.026,0.017-0.051,0.017-0.081v-3.303c0-0.029-0.015-0.053-0.017-0.082
	c-0.002-0.026,0.008-0.055,0.002-0.083l-0.039-0.208c-0.002-0.009-0.008-0.017-0.012-0.024c0-0.01,0.002-0.019,0-0.026l-0.037-0.153
	c-0.01-0.04-0.035-0.068-0.051-0.104c-0.016-0.039-0.017-0.079-0.037-0.116l-0.095-0.17c-0.006-0.01-0.013-0.014-0.019-0.023
	c-0.006-0.008-0.006-0.018-0.012-0.024l-0.084-0.133c-0.028-0.044-0.07-0.07-0.104-0.106s-0.055-0.079-0.094-0.112l-0.137-0.105
	l-0.105-0.091c-0.02-0.018-0.046-0.021-0.068-0.035c-0.021-0.017-0.033-0.038-0.056-0.053L67.199,17.106
	c-0.008-0.005-0.018-0.005-0.025-0.01c-0.008-0.003-0.012-0.012-0.021-0.016l-0.149-0.076c-0.022-0.012-0.047-0.01-0.069-0.019
	c-0.023-0.011-0.039-0.027-0.063-0.035l-0.123-0.038c-0.024-0.009-0.048-0.003-0.071-0.009c-0.006-0.002-0.011-0.005-0.018-0.007
	l-1.274-9.074l20.701,11.942l0.042,0.035v0.001l0.05,0.043l0.002,0.002l0.001,0.006v0.001l0.023,0.127v20.054l-0.023,0.127v0.001
	l-0.001,0.007l-0.003,0.003l-0.049,0.043v0.001l-0.043,0.034L83.712,41.618z"/>
<path fill="#669ACB" d="M15.986,5.802c-0.235-1.186-0.873-2.213-1.803-2.918c-0.218-0.165-0.506-0.208-0.762-0.111
	c-1.478,0.551-2.269,0.223-2.768-0.693c-0.129-0.237-0.226-0.496-0.293-0.758c-0.04-0.153-0.06-0.269-0.065-0.318
	C10.262,0.712,10.072,0.461,9.8,0.352c-1.156-0.469-2.445-0.469-3.6,0c-0.273,0.109-0.462,0.36-0.495,0.651
	C5.699,1.053,5.679,1.168,5.64,1.321C5.572,1.583,5.476,1.842,5.347,2.079c-0.5,0.916-1.291,1.244-2.768,0.693
	C2.322,2.676,2.034,2.719,1.816,2.884C0.887,3.589,0.248,4.616,0.021,5.766c-0.056,0.295,0.025,0.561,0.21,0.747
	c1.685,1.706,1.685,5.064,0,6.771c-0.185,0.187-0.266,0.453-0.217,0.711c0.234,1.186,0.872,2.212,1.802,2.918
	c0.214,0.163,0.497,0.207,0.751,0.117c0.076-0.027,0.237-0.074,0.462-0.123c0.735-0.159,1.504-0.19,2.197-0.016
	c0.915,0.229,1.604,0.793,2.036,1.82c0.275,0.653,1.2,0.653,1.475,0c0.433-1.027,1.122-1.591,2.037-1.82
	c0.692-0.175,1.461-0.144,2.197,0.016c0.225,0.049,0.386,0.096,0.462,0.123c0.254,0.09,0.536,0.046,0.751-0.117
	c0.929-0.706,1.568-1.732,1.795-2.882c0.056-0.294-0.026-0.561-0.21-0.747c-1.686-1.706-1.686-5.064,0-6.771
	C15.953,6.326,16.035,6.061,15.986,5.802 M14.321,14.066c-0.158,0.501-0.438,0.956-0.814,1.32c-0.062-0.014-0.127-0.028-0.197-0.045
	c-0.956-0.207-1.96-0.247-2.927-0.004C9.434,15.577,8.622,16.071,8,16.839c-0.622-0.768-1.435-1.262-2.384-1.501
	c-0.966-0.243-1.971-0.203-2.927,0.004c-0.069,0.017-0.135,0.031-0.196,0.045c-0.376-0.364-0.655-0.818-0.815-1.321
	c1.889-2.274,1.889-6.061,0-8.335c0.156-0.494,0.432-0.943,0.8-1.307c2.009,0.587,3.465-0.095,4.274-1.58
	C6.97,2.444,7.113,2.049,7.199,1.702c0.525-0.136,1.076-0.136,1.601,0c0.087,0.347,0.229,0.742,0.448,1.142
	c0.809,1.485,2.264,2.167,4.274,1.58c0.367,0.362,0.642,0.812,0.799,1.308C12.432,8.005,12.432,11.791,14.321,14.066"/>
</svg>
