<?xml version="1.0" encoding="utf-8"?>
<!-- Generator: Adobe Illustrator 16.0.0, SVG Export Plug-In . SVG Version: 6.00 Build 0)  -->
<!DOCTYPE svg PUBLIC "-//W3C//DTD SVG 1.1//EN" "http://www.w3.org/Graphics/SVG/1.1/DTD/svg11.dtd">
<svg version="1.1" id="Слой_1" xmlns="http://www.w3.org/2000/svg" xmlns:xlink="http://www.w3.org/1999/xlink" x="0px" y="0px"
	 width="51px" height="74.152px" viewBox="0 0 51 74.152" enable-background="new 0 0 51 74.152" xml:space="preserve">
<path fill="#669ACB" d="M24,58.152l23-13.027v-7.973l-1-0.404L28,26.554v-24l-4-2.268V0.152h-2v0.134L0,12.748v31.81l20,11.33v9.5
	l-9.235-5.235H9v1.405l9.877,5.595L9,72.748v1.404h1.765L21,68.353l10.235,5.8H33v-1.404l-9.877-5.596L33,61.558v-1.405h-1.765
	L22,65.385V57.02L24,58.152z M2,43.287L2,43.287V14.02L23,2.125l3,1.7v23.159L7,37.749v1.403h1.765l18.618-10.546L45,38.588v5.265
	L24,55.748l-1-0.566v-0.029h-0.05L2,43.287z"/>
<path fill="#669ACB" d="M50.986,5.802c-0.234-1.186-0.874-2.213-1.803-2.918c-0.219-0.165-0.506-0.208-0.763-0.111
	c-1.478,0.551-2.269,0.223-2.769-0.693c-0.129-0.237-0.227-0.496-0.292-0.758c-0.04-0.153-0.061-0.269-0.065-0.318
	c-0.033-0.291-0.223-0.542-0.495-0.651c-1.155-0.469-2.444-0.469-3.6,0c-0.272,0.109-0.462,0.36-0.495,0.651
	c-0.006,0.05-0.025,0.165-0.065,0.318c-0.066,0.262-0.163,0.521-0.292,0.758c-0.5,0.916-1.291,1.244-2.769,0.693
	c-0.257-0.097-0.544-0.054-0.763,0.111c-0.929,0.705-1.568,1.732-1.796,2.883c-0.056,0.294,0.025,0.56,0.21,0.746
	c1.687,1.706,1.687,5.064,0,6.771c-0.185,0.187-0.266,0.453-0.217,0.711c0.234,1.186,0.873,2.212,1.803,2.918
	c0.214,0.163,0.496,0.207,0.751,0.117c0.076-0.027,0.236-0.074,0.462-0.123c0.735-0.159,1.505-0.19,2.197-0.017
	c0.915,0.23,1.604,0.794,2.036,1.821c0.274,0.653,1.2,0.653,1.475,0c0.433-1.027,1.121-1.591,2.036-1.821
	c0.692-0.174,1.462-0.143,2.197,0.017c0.226,0.049,0.386,0.096,0.462,0.123c0.255,0.09,0.536,0.046,0.751-0.117
	c0.93-0.706,1.568-1.732,1.796-2.882c0.056-0.294-0.025-0.561-0.21-0.747c-1.687-1.706-1.687-5.064,0-6.771
	C50.954,6.326,51.035,6.061,50.986,5.802 M49.321,14.066c-0.158,0.501-0.438,0.956-0.814,1.32c-0.062-0.014-0.127-0.028-0.196-0.045
	c-0.956-0.207-1.961-0.247-2.928-0.004c-0.948,0.239-1.761,0.733-2.383,1.501c-0.622-0.768-1.435-1.262-2.384-1.501
	c-0.966-0.243-1.971-0.203-2.927,0.004c-0.069,0.017-0.135,0.031-0.196,0.045c-0.375-0.364-0.655-0.818-0.814-1.321
	c1.889-2.274,1.889-6.061,0-8.335c0.156-0.494,0.431-0.943,0.799-1.307c2.01,0.587,3.465-0.095,4.274-1.58
	c0.219-0.399,0.36-0.795,0.447-1.142c0.525-0.136,1.076-0.136,1.601,0c0.088,0.347,0.229,0.742,0.448,1.142
	c0.81,1.485,2.265,2.167,4.274,1.58c0.367,0.362,0.642,0.812,0.799,1.308C47.433,8.005,47.433,11.791,49.321,14.066"/>
</svg>
