<?xml version="1.0" encoding="utf-8"?>
<!-- Generator: Adobe Illustrator 16.0.0, SVG Export Plug-In . SVG Version: 6.00 Build 0)  -->
<!DOCTYPE svg PUBLIC "-//W3C//DTD SVG 1.1//EN" "http://www.w3.org/Graphics/SVG/1.1/DTD/svg11.dtd">
<svg version="1.1" id="Слой_1" xmlns="http://www.w3.org/2000/svg" xmlns:xlink="http://www.w3.org/1999/xlink" x="0px" y="0px"
	 width="72.037px" height="84.689px" viewBox="0 0 72.037 84.689" enable-background="new 0 0 72.037 84.689" xml:space="preserve">
<path fill="#669ACB" d="M0.012,65.035l0.051,0.305c0.001,0.012,0.009,0.021,0.011,0.034c0.003,0.011,0,0.02,0.002,0.031l0.051,0.2
	c0.011,0.041,0.033,0.073,0.049,0.111c0.01,0.023,0.009,0.048,0.021,0.071l0.135,0.253c0.01,0.018,0.025,0.032,0.035,0.05
	c0.007,0.009,0.008,0.022,0.016,0.032l0.117,0.169c0.016,0.021,0.04,0.03,0.058,0.05c0.026,0.031,0.042,0.067,0.072,0.094
	l0.194,0.17c0.002,0.002,0.003,0.002,0.005,0.003c0.001,0.001,0.002,0.003,0.003,0.004l0.159,0.136
	c0.021,0.017,0.048,0.023,0.069,0.04c0.018,0.013,0.028,0.032,0.049,0.043l30.434,17.565c0.023,0.015,0.047,0.02,0.071,0.03
	c0.012,0.004,0.019,0.017,0.032,0.021l0.211,0.084c0.021,0.009,0.043,0.006,0.063,0.013c0.02,0.006,0.033,0.018,0.053,0.023
	l0.112,0.026l0.151,0.045c0.038,0.012,0.076,0.012,0.113,0.018c0.017,0.002,0.029,0.013,0.048,0.015l0.186,0.016
	c0.023,0.003,0.046,0.003,0.068,0.003h0.001h0.001c0.024,0,0.049,0,0.073-0.003l0.176-0.016c0.018-0.002,0.033-0.013,0.05-0.016
	c0.036-0.006,0.072-0.005,0.108-0.017l0.143-0.044l0.12-0.025c0.024-0.005,0.042-0.021,0.065-0.028
	c0.022-0.008,0.047-0.005,0.068-0.015l0.202-0.084c0.011-0.006,0.019-0.015,0.029-0.019c0.021-0.01,0.044-0.015,0.064-0.028
	l3.991-2.311c0.011-0.008,0.018-0.019,0.028-0.026c0.016-0.009,0.031-0.013,0.046-0.022l0.161-0.118
	c0.008-0.007,0.012-0.016,0.019-0.022c0.01-0.008,0.021-0.01,0.03-0.017l0.194-0.169c0.026-0.022,0.038-0.054,0.061-0.079
	c0.015-0.018,0.039-0.025,0.053-0.045l0.126-0.169c0.009-0.012,0.011-0.026,0.018-0.037c0.017-0.022,0.035-0.042,0.049-0.068
	l0.045-0.084c0.019,0.003,0.039,0.003,0.056,0.003h0.001h0.001h0.002l0,0c0.023,0,0.046,0,0.069-0.004l0.186-0.016
	c0.008-0.001,0.013-0.005,0.02-0.006c0.022-0.003,0.044-0.002,0.066-0.007l0.169-0.033c0.016-0.004,0.027-0.015,0.044-0.02
	c0.021-0.006,0.044-0.003,0.065-0.011l0.144-0.05c0.007-0.002,0.01-0.007,0.016-0.009c0.006-0.003,0.01-0.001,0.017-0.003
	l0.211-0.084c0.013-0.005,0.021-0.018,0.031-0.021c0.023-0.011,0.049-0.017,0.072-0.029l22.954-13.248
	c0.011-0.009,0.016-0.019,0.028-0.025c0.016-0.01,0.03-0.014,0.046-0.024l0.16-0.117c0.014-0.011,0.02-0.024,0.031-0.035
	c0.016-0.015,0.034-0.019,0.048-0.03l0.194-0.186c0.023-0.022,0.032-0.053,0.052-0.076c0.016-0.019,0.037-0.024,0.05-0.044
	l0.117-0.169c0.008-0.011,0.009-0.021,0.016-0.032c0.011-0.018,0.024-0.03,0.036-0.05l0.045-0.086
	c0.021,0.003,0.044,0.004,0.066,0.004h0.001c0.026,0,0.052-0.002,0.077-0.004l0.178-0.018c0.005,0,0.01-0.004,0.015-0.005
	c0.019-0.001,0.036-0.001,0.054-0.004l0.177-0.033c0.005-0.001,0.01-0.005,0.015-0.006c0.01-0.001,0.018-0.001,0.027-0.003
	l0.144-0.034c0.003-0.001,0.005-0.004,0.008-0.004c0.057-0.015,0.111-0.033,0.164-0.06l0.203-0.102
	c0.005-0.002,0.009-0.008,0.014-0.011c0.009-0.005,0.018-0.006,0.026-0.011l3.999-2.295c0.015-0.01,0.022-0.022,0.036-0.031
	c0.018-0.014,0.04-0.018,0.057-0.03l0.151-0.119c0.011-0.008,0.016-0.02,0.025-0.028c0.011-0.011,0.025-0.014,0.036-0.023
	l0.194-0.186c0.019-0.019,0.026-0.044,0.044-0.063c0.013-0.014,0.031-0.019,0.043-0.035l0.126-0.169
	c0.009-0.011,0.01-0.023,0.018-0.036c0.016-0.022,0.035-0.042,0.048-0.066l0.136-0.253c0.015-0.025,0.014-0.054,0.023-0.079
	c0.019-0.045,0.044-0.085,0.055-0.136l0.042-0.201c0.001-0.007-0.002-0.012,0-0.017c0.001-0.006,0.005-0.011,0.006-0.017l0.05-0.306
	c0.004-0.021-0.005-0.043-0.003-0.063c0.002-0.023,0.015-0.043,0.015-0.066V34.092c0-0.023-0.013-0.043-0.015-0.065
	s0.007-0.043,0.003-0.065l-0.05-0.304c-0.001-0.006-0.005-0.011-0.006-0.017c-0.002-0.006,0.001-0.011,0-0.016l-0.042-0.202
	c-0.009-0.04-0.033-0.071-0.046-0.106c-0.014-0.035-0.015-0.073-0.033-0.107l-0.135-0.253c-0.011-0.021-0.028-0.03-0.041-0.049
	c-0.011-0.019-0.013-0.038-0.024-0.056l-0.127-0.169c-0.015-0.017-0.034-0.025-0.05-0.044c-0.016-0.017-0.021-0.039-0.039-0.054
	L68.988,32.4c-0.01-0.011-0.023-0.014-0.033-0.021c-0.011-0.009-0.015-0.021-0.025-0.03l-0.151-0.118
	c-0.015-0.012-0.034-0.014-0.05-0.024c-0.018-0.011-0.025-0.028-0.043-0.038L38.242,14.599c-0.008-0.005-0.017-0.004-0.024-0.008
	s-0.012-0.012-0.02-0.016l-0.203-0.101c-0.03-0.015-0.061-0.014-0.091-0.024c-0.028-0.011-0.052-0.03-0.083-0.037l-0.029-0.008
	l-0.271-1.94c-0.003-0.016-0.012-0.025-0.017-0.041c-0.002-0.015,0.002-0.028-0.002-0.043l-0.048-0.202
	c-0.002-0.004-0.006-0.008-0.007-0.013s0-0.01-0.001-0.016l-0.093-0.32c-0.011-0.036-0.035-0.063-0.05-0.095
	c-0.016-0.034-0.018-0.069-0.037-0.102l-0.179-0.288c-0.006-0.011-0.018-0.016-0.024-0.027s-0.008-0.021-0.017-0.032l-0.127-0.169
	c-0.017-0.023-0.043-0.035-0.063-0.059c-0.022-0.021-0.031-0.048-0.056-0.069l-0.237-0.202c-0.008-0.007-0.019-0.009-0.026-0.016
	s-0.012-0.015-0.019-0.021l-0.16-0.117c-0.013-0.01-0.027-0.011-0.04-0.019c-0.014-0.01-0.02-0.021-0.034-0.029l-4.024-2.329
	c-0.018-0.011-0.036-0.011-0.055-0.018c-0.018-0.011-0.029-0.024-0.049-0.033l-0.212-0.084c-0.02-0.008-0.04-0.005-0.06-0.011
	c-0.021-0.008-0.034-0.021-0.055-0.024l-0.113-0.028l-0.151-0.045c-0.037-0.011-0.075-0.004-0.113-0.01
	c-0.04-0.006-0.076-0.023-0.117-0.023H31.15h-0.177c-0.039,0-0.074,0.018-0.112,0.022c-0.036,0.005-0.072-0.001-0.109,0.008
	l-0.153,0.045L30.47,8.087c-0.022,0.005-0.039,0.021-0.061,0.027s-0.044,0.004-0.063,0.013l-0.203,0.084
	c-0.017,0.008-0.026,0.02-0.041,0.028c-0.018,0.008-0.035,0.008-0.052,0.017L7.101,21.518c-0.016,0.009-0.022,0.022-0.035,0.031
	c-0.012,0.008-0.028,0.01-0.041,0.02l-0.16,0.117c-0.009,0.007-0.013,0.018-0.021,0.024s-0.019,0.009-0.027,0.015l-0.194,0.169
	c-0.022,0.021-0.034,0.049-0.053,0.07c-0.019,0.021-0.045,0.032-0.063,0.054l-0.125,0.169c-0.014,0.018-0.016,0.036-0.026,0.055
	c-0.012,0.018-0.03,0.028-0.04,0.049L6.18,22.543c-0.018,0.034-0.019,0.07-0.032,0.105c-0.014,0.037-0.038,0.068-0.045,0.108
	L6.06,22.959c-0.001,0.006,0.001,0.011,0,0.016c-0.001,0.006-0.005,0.011-0.006,0.017l-0.051,0.305
	c-0.004,0.022,0.005,0.043,0.003,0.064c-0.002,0.022-0.014,0.043-0.014,0.066v8.75L5.95,32.18c-0.026,0.003-0.049,0.018-0.075,0.023
	c-0.025,0.005-0.052-0.001-0.079,0.007l-0.143,0.043l-0.127,0.028c-0.024,0.006-0.041,0.021-0.065,0.028
	c-0.021,0.008-0.044,0.005-0.065,0.015l-0.203,0.084c-0.016,0.007-0.026,0.02-0.043,0.027c-0.016,0.01-0.033,0.01-0.049,0.019
	l-3.992,2.31c-0.013,0.01-0.021,0.023-0.033,0.032c-0.013,0.008-0.029,0.01-0.042,0.019l-0.16,0.118
	c-0.009,0.007-0.013,0.018-0.021,0.024c-0.008,0.007-0.019,0.009-0.027,0.015l-0.195,0.169c-0.024,0.023-0.036,0.054-0.06,0.078
	c-0.022,0.025-0.051,0.041-0.07,0.068l-0.118,0.169c-0.009,0.014-0.011,0.03-0.019,0.046c-0.008,0.013-0.022,0.021-0.03,0.036
	l-0.135,0.253c-0.017,0.031-0.017,0.066-0.03,0.098c-0.013,0.034-0.034,0.062-0.044,0.098l-0.051,0.219
	c-0.002,0.008,0.001,0.014-0.001,0.021s-0.007,0.014-0.008,0.021l-0.05,0.287c-0.004,0.023,0.004,0.047,0.001,0.069
	C0.013,36.628,0,36.648,0,36.673v28.231c0,0.022,0.012,0.042,0.014,0.063C0.017,64.992,0.009,65.012,0.012,65.035 M30.811,9.664
	l0.088-0.037l0.08-0.019c0.006-0.001,0.01-0.006,0.016-0.008c0.008-0.002,0.016-0.001,0.023-0.003l0.067-0.019h0.065h0.067
	l0.056,0.016c0.011,0.004,0.02,0.002,0.031,0.005c0.006,0.002,0.011,0.008,0.017,0.009l0.084,0.02l0.104,0.043l3.936,2.276
	l0.097,0.071l0.151,0.13l0.049,0.064l0.104,0.168l0.06,0.206l0.035,0.141l0.35,2.491l2.175,15.499l-17.093,9.859l-13.78-7.96v-9.124
	l0.035-0.219l0.017-0.077l0.053-0.102l0.036-0.047l0.107-0.094l0.1-0.073L30.811,9.664z M67.835,33.525l0.078,0.06l0.117,0.112
	l0.049,0.063l0.052,0.101l0.018,0.08l0.036,0.216v28.084l-0.037,0.219l-0.017,0.078l-0.053,0.099l-0.048,0.063l-0.122,0.117
	l-0.073,0.058l-3.929,2.253l-0.1,0.05l-0.006,0.001V53.793l1.388-0.799c0.016-0.009,0.022-0.023,0.037-0.032
	c0.019-0.013,0.039-0.017,0.057-0.031l0.151-0.119c0.006-0.004,0.008-0.01,0.014-0.014c0.006-0.005,0.013-0.007,0.018-0.013
	l0.195-0.168c0.026-0.023,0.038-0.056,0.062-0.08c0.017-0.019,0.039-0.026,0.053-0.045l0.127-0.169
	c0.01-0.014,0.011-0.027,0.018-0.041c0.019-0.027,0.042-0.052,0.059-0.082l0.134-0.271c0.012-0.021,0.01-0.045,0.017-0.066
	c0.015-0.032,0.035-0.061,0.042-0.096l0.052-0.2c0.004-0.014-0.001-0.024,0.002-0.038c0.003-0.016,0.012-0.026,0.015-0.041
	L66.28,51.2c0.003-0.021-0.005-0.038-0.003-0.06c0.001-0.019,0.011-0.037,0.011-0.057v-4.607c0-0.018-0.01-0.034-0.011-0.053
	s0.006-0.037,0.004-0.055l-0.043-0.305c-0.002-0.016-0.012-0.026-0.015-0.043c-0.003-0.015,0.002-0.028-0.002-0.045l-0.052-0.2
	c-0.007-0.033-0.029-0.058-0.042-0.089c-0.011-0.029-0.011-0.062-0.026-0.093l-0.135-0.252c-0.011-0.019-0.029-0.031-0.04-0.049
	c-0.012-0.018-0.015-0.038-0.026-0.055l-0.127-0.169c-0.013-0.018-0.032-0.025-0.047-0.042c-0.017-0.018-0.021-0.04-0.039-0.058
	l-0.194-0.185c-0.011-0.01-0.024-0.013-0.035-0.022c-0.011-0.009-0.016-0.021-0.025-0.029l-0.152-0.118
	c-0.016-0.013-0.034-0.017-0.05-0.025c-0.016-0.011-0.024-0.026-0.042-0.038L40.951,30.564c-0.01-0.007-0.021-0.006-0.031-0.011
	c-0.008-0.005-0.014-0.014-0.022-0.018l-0.211-0.103c-0.02-0.01-0.042-0.007-0.063-0.016c-0.02-0.009-0.036-0.024-0.057-0.031
	l-0.169-0.048c-0.013-0.005-0.025,0-0.039-0.005c-0.013-0.002-0.022-0.012-0.035-0.014l-0.178-0.035
	c-0.013-0.002-0.024,0.003-0.039,0c-0.014-0.001-0.024-0.01-0.039-0.012l-0.05-0.006l-1.954-13.924L67.835,33.525z M39.513,31.962
	l0.151-0.077l0.025-0.011l0.054-0.011l0.069-0.008l0.071,0.009l0.093,0.018l0.073,0.021l0.127,0.061l24.165,13.945l0.073,0.058
	l0.124,0.118l0.046,0.061l0.061,0.115l0.018,0.064l0.027,0.208v4.494l-0.027,0.188l-0.019,0.079l-0.065,0.13l-0.029,0.039
	l-0.117,0.102l-0.088,0.07l-1.74,1.001c0,0,0,0-0.001,0h-0.001L41.468,64.839l-0.105,0.049l-0.056,0.015l-0.102,0.021l-0.074,0.006
	l-0.071-0.006l-0.104-0.021l-0.053-0.014l-0.108-0.05l-1.941-1.12V51.945c0-0.022-0.013-0.043-0.015-0.065s0.007-0.044,0.002-0.067
	l-0.049-0.303c-0.001-0.006-0.005-0.01-0.007-0.017c0-0.004,0.002-0.01,0-0.017l-0.042-0.201c-0.008-0.038-0.032-0.069-0.045-0.104
	c-0.013-0.036-0.014-0.075-0.032-0.109l-0.135-0.253c-0.011-0.019-0.028-0.029-0.04-0.048c-0.012-0.018-0.014-0.039-0.027-0.055
	l-0.127-0.169c-0.016-0.024-0.042-0.035-0.06-0.057c-0.021-0.021-0.031-0.05-0.053-0.067l-0.194-0.169
	c-0.009-0.008-0.02-0.01-0.029-0.018c-0.008-0.007-0.012-0.017-0.02-0.021l-0.161-0.118c-0.013-0.01-0.026-0.011-0.039-0.019
	c-0.015-0.01-0.021-0.022-0.036-0.031l-14.771-8.536L39.513,31.962z M38.994,79.523l-0.141,0.056h-0.001V65.564l1.171,0.676
	c0.012,0.007,0.023,0.009,0.036,0.015c0.008,0.004,0.011,0.011,0.019,0.014l0.211,0.102c0.024,0.013,0.051,0.009,0.076,0.017
	c0.03,0.012,0.054,0.032,0.086,0.04l0.145,0.034c0.006,0.001,0.011,0.001,0.016,0.002c0.003,0,0.005,0.002,0.008,0.003l0.168,0.034
	c0.022,0.005,0.046,0.004,0.068,0.007c0.008,0.001,0.015,0.005,0.021,0.006l0.185,0.018c0.022,0.003,0.047,0.003,0.069,0.003h0.002
	c0.023,0,0.048,0,0.07-0.003l0.185-0.018c0.008-0.001,0.015-0.005,0.021-0.006c0.022-0.003,0.046-0.002,0.068-0.007l0.168-0.034
	c0.003-0.001,0.005-0.003,0.008-0.003c0.005-0.001,0.01,0,0.016-0.002l0.145-0.034c0.031-0.008,0.056-0.028,0.086-0.04
	c0.024-0.009,0.051-0.005,0.076-0.017l0.211-0.102c0.007-0.003,0.012-0.01,0.018-0.014c0.011-0.005,0.025-0.008,0.037-0.015
	l19.961-11.525V65.68l-0.008,0.038c-0.002,0.009,0.001,0.02,0,0.03c-0.002,0.011-0.009,0.017-0.01,0.028l-0.021,0.144l-0.016,0.061
	l-0.064,0.123l-0.047,0.067l-0.104,0.097l-0.076,0.058L38.994,79.523z M5.856,33.865l0.089-0.037l0.086-0.021
	c0.007-0.001,0.013-0.006,0.02-0.008c0.011-0.003,0.021-0.001,0.031-0.005l0.093-0.028l0.034-0.003l0.021,0.002l0.097,0.029
	c0.01,0.004,0.021,0.002,0.031,0.005c0.007,0.002,0.012,0.007,0.019,0.008l0.099,0.022l0.003,0.002c0,0,0.001,0.001,0.002,0.001
	l0.003,0.001l0.06,0.026l14.427,8.332l15.937,9.21l0.092,0.067l0.112,0.098l0.035,0.048l0.053,0.1l0.017,0.075l0.037,0.221v12.168
	v15.942l-0.006,0.039l-0.029,0.146v0.003c0,0.002-0.002,0.002-0.002,0.003l-0.019,0.102l-0.05,0.094l-0.036,0.047l-0.111,0.098
	l-0.095,0.07l-3.91,2.266l-0.084,0.035l-0.085,0.019c-0.011,0.002-0.018,0.009-0.028,0.012c-0.01,0.002-0.02-0.001-0.029,0.002
	l-0.092,0.028l-0.027,0.003l-0.028-0.003l-0.092-0.028c-0.009-0.002-0.018,0-0.026-0.002c-0.008-0.002-0.015-0.007-0.022-0.01
	l-0.083-0.02l-0.104-0.041L1.973,65.48l-0.099-0.084l-0.118-0.103L1.72,65.243l-0.066-0.122l-0.018-0.072l-0.034-0.21V36.743
	l0.033-0.194l0.022-0.098l0.062-0.116l0.034-0.05l0.097-0.084l0.103-0.076L5.856,33.865z"/>
<path fill="#669ACB" d="M72.023,5.802c-0.234-1.186-0.874-2.213-1.803-2.918c-0.219-0.165-0.506-0.208-0.763-0.111
	c-1.478,0.551-2.269,0.223-2.769-0.693c-0.129-0.237-0.227-0.496-0.292-0.758c-0.04-0.153-0.061-0.269-0.065-0.318
	c-0.033-0.291-0.223-0.542-0.495-0.651c-1.155-0.469-2.444-0.469-3.6,0c-0.272,0.109-0.462,0.36-0.495,0.651
	c-0.006,0.05-0.025,0.165-0.065,0.318c-0.066,0.262-0.163,0.521-0.292,0.758c-0.5,0.916-1.291,1.244-2.769,0.693
	c-0.257-0.097-0.544-0.054-0.763,0.111c-0.929,0.705-1.568,1.732-1.796,2.882c-0.056,0.295,0.025,0.561,0.21,0.747
	c1.687,1.706,1.687,5.064,0,6.771c-0.185,0.187-0.266,0.453-0.217,0.711c0.234,1.186,0.873,2.212,1.803,2.918
	c0.214,0.163,0.496,0.207,0.751,0.117c0.076-0.027,0.236-0.074,0.462-0.123c0.735-0.159,1.505-0.19,2.197-0.016
	c0.915,0.229,1.604,0.793,2.036,1.82c0.274,0.653,1.2,0.653,1.475,0c0.433-1.027,1.121-1.591,2.036-1.82
	c0.692-0.175,1.462-0.144,2.197,0.016c0.226,0.049,0.386,0.096,0.462,0.123c0.255,0.09,0.536,0.046,0.751-0.117
	c0.93-0.706,1.568-1.732,1.796-2.882c0.056-0.294-0.025-0.561-0.21-0.747c-1.687-1.706-1.687-5.064,0-6.771
	C71.991,6.326,72.072,6.061,72.023,5.802 M70.358,14.066c-0.158,0.501-0.438,0.956-0.814,1.32c-0.062-0.014-0.127-0.028-0.196-0.045
	c-0.956-0.207-1.961-0.247-2.928-0.004c-0.948,0.239-1.761,0.733-2.383,1.501c-0.622-0.768-1.435-1.262-2.384-1.501
	c-0.966-0.243-1.971-0.203-2.927,0.004c-0.069,0.017-0.135,0.031-0.196,0.045c-0.375-0.364-0.655-0.818-0.814-1.321
	c1.889-2.274,1.889-6.061,0-8.335c0.156-0.494,0.431-0.943,0.799-1.307c2.01,0.587,3.465-0.095,4.274-1.58
	c0.219-0.399,0.36-0.795,0.447-1.142c0.525-0.136,1.076-0.136,1.601,0c0.088,0.347,0.229,0.742,0.448,1.142
	c0.81,1.485,2.265,2.167,4.274,1.58c0.367,0.362,0.642,0.812,0.799,1.308C68.47,8.005,68.47,11.791,70.358,14.066"/>
</svg>
