<svg width="51" height="67" viewBox="0 0 51 67" fill="none" xmlns="http://www.w3.org/2000/svg">
<path d="M44.9016 23.7V18.6H40.7016L33.1016 23.7L24.6016 2.5L8.40157 24.5L1.60156 39.8L4.20157 53.4L15.2016 63.6L29.7016 65.3L39.1016 60.2C39.1016 60.2 43.3016 52.6 41.6016 46.6C39.9016 40.6 38.2016 35.6 38.2016 35.6L41.6016 32.2L44.9016 23.7ZM17.7016 48.3L10.9016 44.1L7.50157 33H10.9016L16.9016 36.4L23.7016 41.5L25.4016 50L17.7016 48.3Z" fill="#90C2C2"/>
<path d="M25.2026 66.8C39.2026 66.8 50.5026 55.4 50.5026 41.5C50.5026 39.4 49.9026 36.9 48.9026 34C48.6026 33.2 47.7026 32.8 47.0026 33.1C46.2026 33.4 45.8026 34.3 46.1026 35C47.1026 37.5 47.6026 39.7 47.6026 41.5C47.6026 53.8 37.6026 63.8 25.2026 63.8C12.9026 63.8 2.80258 53.8 2.80258 41.5C2.80258 30.6 20.5026 9.19999 25.2026 3.79999C27.4026 6.29999 32.3026 12.2 37.0026 18.9C34.8026 20 32.8026 21.6 31.1026 23.6C27.3026 28 25.5026 33.8 26.3026 39.4C26.3026 39.5 26.4026 39.6 26.4026 39.7C26.0026 40.6 25.6026 41.6 25.3026 42.6C24.4026 40.6 23.1026 38.7 21.4026 37.1C17.7026 33.5 12.8026 31.5 8.00259 31.7C7.20259 31.7 6.60258 32.3 6.60258 33.1C6.20258 37.7 8.10259 42.4 11.9026 46C15.2026 49.3 19.6026 51.2 24.0026 51.3C24.0026 53.3 24.2026 55.4 24.6026 57.7C24.7026 58.4 25.4026 58.9 26.1026 58.9C26.2026 58.9 26.3026 58.9 26.4026 58.9C27.2026 58.7 27.7026 58 27.6026 57.2C26.3026 50.4 27.4026 45 29.2026 40.7C34.0026 40.5 38.7026 38.1 42.2026 34.1C46.0026 29.7 47.8026 23.9 47.0026 18.3C46.9026 17.6 46.3026 17 45.6026 17C43.7026 16.9 41.8026 17.2 39.9026 17.7C33.5026 8.5 26.5026 0.6 26.4026 0.5C26.1026 0.2 25.7026 0 25.3026 0C24.9026 0 24.5026 0.2 24.2026 0.5C23.2026 1.6 0.00259201 27.9 0.00259201 41.5C-0.197408 55.4 11.2026 66.8 25.2026 66.8ZM13.8026 43.8C11.1026 41.2 9.60259 37.9 9.40259 34.6C12.9026 34.8 16.5026 36.4 19.2026 39.1C21.9026 41.7 23.4026 45 23.6026 48.3C20.1026 48.1 16.6026 46.5 13.8026 43.8ZM44.0026 19.9C44.2026 24.2 42.6026 28.6 39.7026 32.1C37.2026 35 34.0026 36.9 30.7026 37.5C33.7026 32.7 37.5026 30.2 37.8026 30C38.5026 29.6 38.7026 28.6 38.3026 27.9C37.9026 27.2 36.9026 27 36.2026 27.4C36.1026 27.4 32.5026 29.8 29.2026 34.5C29.7026 31.2 31.1026 28.1 33.3026 25.5C36.2026 22.1 40.0026 20.1 44.0026 19.9Z" fill="#333333"/>
</svg>
