<?xml version="1.0" encoding="utf-8"?>
<!-- Generator: Adobe Illustrator 22.0.0, SVG Export Plug-In . SVG Version: 6.00 Build 0)  -->
<svg version="1.1" id="Слой_1" xmlns="http://www.w3.org/2000/svg" xmlns:xlink="http://www.w3.org/1999/xlink" x="0px" y="0px"
	 viewBox="0 0 80 80" style="enable-background:new 0 0 80 80;" xml:space="preserve">
<style type="text/css">
	.st0{opacity:0.5;fill:#90C2C2;}
	.st1{fill:#333333;}
</style>
<g>
	<path class="st0" d="M23.2,75.1c0,0,0-7.6,0-12s7.2-7.8,16.1-7.8s17,0,17,0l2.7,4.3L55.5,64v3.5l-3.6,3.5v6l-6.3,1.7l-17.9-0.9
		L23.2,75.1z"/>
	<path class="st0" d="M44.7,23.1c0,0,2.7-1.8,5.4-4.5s4.5-6.3,4.5-6.3l9,6.3l-9,6.3L51,32L44.7,23.1z"/>
	<path class="st1" d="M60.3,59c-0.1-1.7-1-3.2-2.5-4.1c0.8-1,1.2-2.3,1.2-3.6c-0.1-2.8-2.5-4.9-5.4-4.9H40.9
		c1.2-4.2,2.7-13.2-4.1-16.5c-1-0.5-2.1-0.6-3.2-0.3c-2.2,0.5-3.8,2.5-3.8,4.8v5.8l-5.6,12.6L23.9,53c-0.1-0.7-0.7-1.2-1.4-1.2H9
		c-0.8,0-1.4,0.6-1.4,1.4v25c0,0.8,0.6,1.4,1.4,1.4h13.6c0.8,0,1.4-0.6,1.4-1.4v-0.7c2.1,1.5,4.6,2.4,7.2,2.4h17.5
		c2.9,0,5.3-2.2,5.4-4.9c0.1-1.1-0.2-2.1-0.8-3.1c2-0.7,3.5-2.5,3.6-4.6c0.1-1-0.2-2-0.7-2.9c1-0.2,2-0.7,2.7-1.5
		C59.9,61.8,60.4,60.4,60.3,59z M50.3,63.1c0,0.8,0.6,1.4,1.4,1.4c0.7,0,1.3,0.3,1.8,0.8c0.5,0.5,0.7,1.2,0.7,1.8
		c-0.1,1.3-1.3,2.3-2.7,2.3h-2.6c-0.8,0-1.4,0.6-1.4,1.4c0,0.8,0.6,1.4,1.4,1.4c0.7,0,1.3,0.3,1.8,0.8c0.5,0.5,0.7,1.2,0.7,1.8
		c-0.1,1.3-1.3,2.3-2.7,2.3H31.2c-2.7,0-5.4-1.3-7.2-3.4V56.5l2.2-1.8c0.2-0.1,0.3-0.3,0.4-0.5L32.4,41c0.1-0.2,0.1-0.4,0.1-0.6
		v-6.1c0-1,0.7-1.9,1.7-2.1c0.5-0.1,1-0.1,1.4,0.1c6.4,3.1,2.2,14.8,2.1,14.9c-0.2,0.4-0.1,0.9,0.2,1.3c0.3,0.4,0.7,0.6,1.1,0.6
		h14.5c1.4,0,2.6,1,2.7,2.3c0,0.7-0.2,1.3-0.7,1.8c-0.5,0.5-1.1,0.8-1.8,0.8c-0.8,0-1.4,0.6-1.4,1.4c0,0.8,0.6,1.4,1.4,1.4h1.1
		c1.4,0,2.6,1,2.7,2.3c0,0.7-0.2,1.3-0.7,1.8c-0.5,0.5-1.1,0.8-1.8,0.8h-3.5C50.9,61.7,50.3,62.3,50.3,63.1z M21.2,54.6v22.2H10.4
		V54.6H21.2z"/>
	<g>
		<path class="st1" d="M68.6,49.9c-0.7,0-1.3-0.6-1.3-1.3c0-2.6-2.2-4.8-4.8-4.8c-0.7,0-1.3-0.6-1.3-1.3c0-0.7,0.6-1.3,1.3-1.3
			c2.6,0,4.8-2.2,4.8-4.8c0-0.7,0.6-1.3,1.3-1.3c0.7,0,1.3,0.6,1.3,1.3c0,2.6,2.2,4.8,4.8,4.8c0.7,0,1.3,0.6,1.3,1.3
			c0,0.7-0.6,1.3-1.3,1.3c-2.6,0-4.8,2.2-4.8,4.8C69.9,49.3,69.3,49.9,68.6,49.9z M66.7,42.4c0.7,0.5,1.4,1.2,1.9,1.9
			c0.5-0.7,1.2-1.4,1.9-1.9c-0.7-0.5-1.4-1.2-1.9-1.9C68,41.3,67.4,41.9,66.7,42.4z"/>
	</g>
	<g>
		<path class="st1" d="M15.4,40.7c-0.7,0-1.3-0.6-1.3-1.3c0-2.6-2.2-4.8-4.8-4.8c-0.7,0-1.3-0.6-1.3-1.3c0-0.7,0.6-1.3,1.3-1.3
			c2.6,0,4.8-2.2,4.8-4.8c0-0.7,0.6-1.3,1.3-1.3c0.7,0,1.3,0.6,1.3,1.3c0,2.6,2.2,4.8,4.8,4.8c0.7,0,1.3,0.6,1.3,1.3
			c0,0.7-0.6,1.3-1.3,1.3c-2.6,0-4.8,2.2-4.8,4.8C16.7,40.1,16.1,40.7,15.4,40.7z M13.5,33.3c0.7,0.5,1.4,1.2,1.9,1.9
			c0.5-0.7,1.2-1.4,1.9-1.9c-0.7-0.5-1.4-1.2-1.9-1.9C14.8,32.1,14.2,32.8,13.5,33.3z"/>
	</g>
	<path class="st1" d="M67.8,17.6C59.1,17.6,52,10.5,52,1.8c0-0.8-0.6-1.4-1.4-1.4S49.2,1,49.2,1.8c0,8.7-7.1,15.8-15.8,15.8
		c-0.8,0-1.4,0.6-1.4,1.4c0,0.8,0.6,1.4,1.4,1.4c8.7,0,15.8,7.1,15.8,15.8c0,0.8,0.6,1.4,1.4,1.4S52,37,52,36.1
		c0-8.7,7.1-15.8,15.8-15.8c0.8,0,1.4-0.6,1.4-1.4C69.2,18.1,68.6,17.6,67.8,17.6z M60.8,19c-4.6,1.9-8.3,5.6-10.2,10.2
		C48.7,24.5,45,20.9,40.5,19c4.6-1.9,8.3-5.6,10.2-10.2C52.5,13.4,56.2,17.1,60.8,19z"/>
</g>
</svg>
