<?xml version="1.0" encoding="UTF-8" standalone="yes"?>
<svg version="1.1" id="Layer_1" xmlns:x="&amp;ns_extend;" xmlns:i="&amp;ns_ai;" xmlns:graph="&amp;ns_graphs;" xmlns="http://www.w3.org/2000/svg" xmlns:xlink="http://www.w3.org/1999/xlink" x="0px" y="0px" viewBox="0 0 315 297.249" style="enable-background:new 0 0 315 297.249;" xml:space="preserve">
      <style type="text/css">.st0{fill:#5C9999;}</style>
    <metadata>
              <sfw>
                      <slices/>
            <sliceSourceBounds bottomLeftOrigin="true" height="297.249" width="315" x="461.336" y="-620.391"/>
                  </sfw>
          </metadata>
    <g id="color_index_0" fill="rgba(92, 153, 153, 1)">
              <path d="M177.551,21.621c-12.141,0.863-24.371-0.496-36.182-4.195L157.676,0L177.551,21.621z M204.317,50.268&#x9;&#x9;l-7.006-7.498c-19.933,6.286-41.227,5.423-60.77-2.67c-4.1-1.698-8.284-3.003-12.5-4.128l-7.354,7.87&#x9;&#x9;c5.501,1.138,10.939,2.776,16.243,4.973C155.918,58.334,181.083,58.741,204.317,50.268z M204.765,280.976&#x9;&#x9;c-21.994,9.111-46.225,9.111-68.223,0c-24.328-10.074-51.117-10.074-75.444,0c-19.647,8.138-41.069,8.953-61.097,2.552v9.848&#x9;&#x9;c8.853,2.54,17.914,3.873,26.987,3.871c12.78,0,25.562-2.52,37.722-7.557c21.994-9.109,46.227-9.113,68.222,0&#x9;&#x9;c24.329,10.078,51.121,10.078,75.446,0c21.994-9.109,46.227-9.113,68.222,0c12.38,5.128,25.397,7.616,38.402,7.525v-9.44&#x9;&#x9;c-11.782,0.091-23.576-2.155-34.791-6.8C255.882,270.902,229.092,270.902,204.765,280.976z M246.714,135.867&#x9;&#x9;c-11.483-0.499-23.028,1.063-33.979,4.55c-2.972,0.946-5.883,2.067-8.802,3.167c-2.63,0.992-5.266,1.967-7.957,2.784&#x9;&#x9;c-5.777,1.753-11.787,2.857-17.798,3.371c-3.356,0.287-6.728,0.351-10.095,0.253l-0.503,9.459c1.024,0.055,2.048,0.152,3.072,0.152&#x9;&#x9;c3.549,0,7.093-0.261,10.629-0.65c0.221-0.023,0.441-0.049,0.661-0.074c2.471-0.29,4.931-0.671,7.383-1.15&#x9;&#x9;c0.513-0.098,1.027-0.18,1.539-0.287c2.745-0.582,5.48-1.246,8.188-2.066c2.232,4.823,4.257,9.51,6.165,14.101&#x9;&#x9;c2.995-1.419,6.148-2.468,8.786-3.197c-1.892-4.601-3.892-9.28-6.084-14.07c0.15-0.062,0.306-0.101,0.457-0.164&#x9;&#x9;c21.992-9.111,46.22-9.111,68.222,0c9.549,3.955,19.482,6.3,29.494,7.15l-10.339-11.066c-5.262-1.132-10.467-2.695-15.544-4.798&#x9;&#x9;C269.583,138.93,258.209,136.367,246.714,135.867z M280.209,177.743c-10.827-4.484-22.435-7.028-34.149-7.427&#x9;&#x9;c-11.793-0.402-23.416,1.448-34.622,5.082c-5.726,1.857-11.229,4.306-17.04,5.907c-5.724,1.578-11.608,2.574-17.531,2.976&#x9;&#x9;c-3.531,0.239-7.076,0.235-10.61,0.057l-0.502,9.431c1.634,0.084,3.265,0.246,4.9,0.246c12.78,0,25.559-2.517,37.722-7.556&#x9;&#x9;c0.957-0.396,1.939-0.679,2.905-1.041c1.853,5.618,3.146,10.68,3.809,15.064c3.463-1.102,6.814-1.77,9.135-2.142&#x9;&#x9;c-0.808-4.702-2.169-9.968-4.069-15.733c18.668-4.875,38.308-3.662,56.442,3.852c12.38,5.128,25.397,7.616,38.402,7.525v-9.44&#x9;&#x9;C303.218,184.633,291.424,182.388,280.209,177.743z M225.031,206.243c0-0.008,0.001-0.016,0.001-0.023&#x9;&#x9;c-4.065,0.805-8.689,2.052-10.76,2.631c-3.2,0.951-6.379,2.007-9.507,3.302c-12.974,5.376-26.723,7.521-40.337,6.552l-0.501,9.426&#x9;&#x9;c2.24,0.173,4.481,0.296,6.726,0.296c12.78,0,25.561-2.52,37.723-7.559c1.906-0.789,3.848-1.42,5.785-2.072&#x9;&#x9;c-2.622,11.69-8.782,22.029-17.286,29.895c-3.832,3.544-8.222,6.37-12.974,8.519c-3.87,1.751-7.711,3.618-11.761,4.926&#x9;&#x9;c-4.694,1.515-9.724,2.056-14.642,2.056c-13.679,0-26.247-4.782-36.184-12.722c-4.217-3.369-7.939-7.316-11.081-11.715&#x9;&#x9;c-5.32-7.447-8.905-16.187-10.22-25.661c-0.364-2.625-0.618-5.285-0.618-8.009c0-0.46,0.044-0.968,0.067-1.455&#x9;&#x9;c0.31-6.372,2.607-14.927,6.168-24.669c1.083-2.963,2.279-6.03,3.572-9.18c3.02-7.357,6.548-15.136,10.334-22.99&#x9;&#x9;c1.389-2.882,2.807-5.769,4.249-8.65c3.564-7.117,18.705-35.259,20.283-38.071l0.975-1.858l0.932-1.53&#x9;&#x9;c1.796-3.179,3.511-6.183,5.085-8.914c1.902-3.299,3.615-6.234,5.08-8.723c0.48-0.817,0.935-1.588,1.36-2.305&#x9;&#x9;c0.498,0.841,1.047,1.772,1.621,2.749c1.661,2.826,3.631,6.209,5.815,10.013c2.927,5.096,6.248,10.974,9.753,17.327&#x9;&#x9;c4.11-0.248,7.661-0.782,10.108-1.245c-3.145-5.757-6.175-11.176-8.95-16.056c11.037-0.59,22.016-2.947,32.53-7.303&#x9;&#x9;c6.928-2.869,14.089-4.729,21.322-5.791L222,69.194c-5.833,1.252-11.604,2.985-17.235,5.316&#x9;&#x9;c-11.024,4.567-22.612,6.84-34.198,6.829c-5.014-8.627-8.467-14.302-9.042-15.244l-4.026-6.587l-4.025,6.587&#x9;&#x9;c-0.495,0.81-3.119,5.124-7.03,11.796c-3.337-0.949-6.649-2.033-9.902-3.38c-13.405-5.551-27.553-7.929-41.629-7.363L85.184,77.56&#x9;&#x9;c15.995-2.507,32.41-0.69,47.746,5.665c2.843,1.178,5.725,2.189,8.629,3.092c-3.399,5.917-7.287,12.813-11.388,20.322&#x9;&#x9;c-22.583-7.616-46.845-6.922-69.074,2.282c-2.582,1.069-5.2,1.989-7.837,2.808l-11.403,12.205&#x9;&#x9;c7.75-1.197,15.421-3.219,22.852-6.298c19.593-8.114,40.954-8.956,60.936-2.611c-3.793,7.106-7.651,14.563-11.373,22.099&#x9;&#x9;c-17.807-2.861-36.096-0.864-53.174,6.21c-13.911,5.762-28.713,7.856-43.28,6.33L10,158.028c5.629,0.996,11.302,1.576,16.984,1.576&#x9;&#x9;c12.78,0,25.559-2.52,37.724-7.556c14.541-6.024,30.054-7.978,45.261-6.035c-3.912,8.257-7.546,16.451-10.614,24.201&#x9;&#x9;c-12.958-0.071-25.924,2.421-38.258,7.529c-19.647,8.139-41.069,8.953-61.097,2.552v9.848c8.853,2.54,17.914,3.873,26.987,3.871&#x9;&#x9;c12.78,0,25.562-2.52,37.722-7.556c10.035-4.156,20.54-6.32,31.082-6.684c-3.427,9.864-5.573,18.583-5.778,25.258&#x9;&#x9;c-9.816,0.892-19.549,3.243-28.916,7.121c-19.649,8.139-41.068,8.954-61.097,2.552v9.849c21.32,6.117,43.912,4.931,64.709-3.686&#x9;&#x9;c8.367-3.465,17.057-5.595,25.826-6.424c1.097,8.83,3.88,17.135,8.058,24.576c-12.705,0.03-25.406,2.539-37.496,7.546&#x9;&#x9;C41.448,254.702,20.029,255.52,0,249.118v9.846c8.851,2.539,17.914,3.872,26.985,3.872c12.78,0,25.559-2.52,37.724-7.556&#x9;&#x9;c13.026-5.395,26.834-7.514,40.501-6.518c12.394,15.16,31.225,24.862,52.289,24.862c13.268,0,25.652-3.849,36.1-10.485&#x9;&#x9;c4.802-3.051,9.79-5.768,15.038-7.967c0.13-0.055,0.262-0.111,0.393-0.166c21.968-9.381,46.713-8,68.913,0.82&#x9;&#x9;c11.975,4.757,24.522,7.064,37.058,6.976v-9.437c-11.783,0.091-23.578-2.155-34.791-6.8c-21.357-8.847-44.61-9.914-66.425-3.231&#x9;&#x9;c5.356-8.067,8.966-17.358,10.444-27.341c17.433-3.687,35.553-2.093,52.37,4.875c12.371,5.124,25.375,7.643,38.371,7.556&#x9;&#x9;c0.012-0.012,0.019-0.019,0.031-0.031v-9.44c-11.783,0.091-23.578-2.155-34.791-6.8&#x9;&#x9;C262.486,204.814,243.463,202.889,225.031,206.243z M252.569,101.913c-16.09-1.676-32.437,0.644-47.804,7.007&#x9;&#x9;c-3.022,1.252-6.165,2.171-9.303,3.081c-1.249,0.362-2.49,0.708-3.73,1.031c-4.473,1.165-8.924,2.039-13.62,2.343&#x9;&#x9;c-2.731,0.177-5.469,0.366-8.206,0.343l-0.501,9.414c0.417,0.023,0.832,0.062,1.249,0.062c4.308,0,8.606-0.393,12.89-0.966&#x9;&#x9;c2.68,5.082,5.34,10.304,7.957,15.546c3.394-0.84,6.958-2.082,9.086-2.876c-2.411-4.877-4.856-9.734-7.329-14.476&#x9;&#x9;c5.107-1.216,10.172-2.738,15.118-4.787c17.645-7.307,36.713-8.651,54.928-4.233L252.569,101.913z M128.603,203.534&#x9;&#x9;c-4.319,0-7.82,3.501-7.82,7.82s3.501,7.82,7.82,7.82s7.82-3.501,7.82-7.82S132.922,203.534,128.603,203.534z M138.213,176.303&#x9;&#x9;c-2.578,0-4.669,2.09-4.669,4.669s2.09,4.669,4.669,4.669c2.578,0,4.669-2.09,4.669-4.669S140.792,176.303,138.213,176.303z"/>
          </g>
  </svg>