<svg width="111" height="79" viewBox="0 0 111 79" fill="none" xmlns="http://www.w3.org/2000/svg">
<path d="M108.499 32.9385L108.461 33.2212L108.437 33.3079L108.356 33.4639L108.292 33.5465L108.125 33.7065L108.025 33.7852C98.0373 39.5492 54.716 65.3119 44.7293 71.0759C43.784 71.0665 42.8373 71.0572 41.892 71.0479C31.92 65.2945 12.616 54.2052 2.644 48.4519L2.544 48.3732L2.37733 48.2132L2.31333 48.1305L2.232 47.9745L2.208 47.8879L2.17066 47.6052V46.7385V45.4052V40.5372L2.208 40.2545L2.232 40.1679L2.31333 40.0132L2.37733 39.9292L2.544 39.7692L2.644 39.6905C12.616 33.9372 55.92 8.18253 65.892 2.42787C66.8373 2.41853 67.784 2.41053 68.7293 2.4012C78.716 8.16387 98.0373 19.2599 108.025 25.0239L108.125 25.1025L108.292 25.2625L108.356 25.3465L108.437 25.5012L108.461 25.5879L108.499 25.8705V30.7385V32.0719V32.9385ZM108.461 38.5545L108.437 38.6412L108.356 38.7972L108.292 38.8799L108.125 39.0399L108.025 39.1185C98.0373 44.8825 54.716 70.6452 44.7293 76.4092C43.784 76.3999 42.8373 76.3905 41.892 76.3812C31.92 70.6279 12.616 59.5385 2.644 53.7852L2.544 53.7065L2.37733 53.5465L2.31333 53.4639L2.232 53.3079L2.208 53.2212L2.17066 52.9385V50.6839C11.7747 56.2279 30.712 67.1039 40.316 72.6465C41.0253 73.0065 42.068 73.4052 43.3347 73.4052C44.676 73.4052 45.7227 72.9599 46.3533 72.6465C48.5387 71.5652 92.5813 45.4372 108.499 36.0265V38.2719L108.461 38.5545ZM110.653 25.7225C110.652 25.6972 110.663 25.6745 110.659 25.6479L110.601 25.2345C110.597 25.2132 110.584 25.1972 110.581 25.1785C110.577 25.1572 110.583 25.1372 110.579 25.1172L110.509 24.8425C110.499 24.7985 110.469 24.7652 110.452 24.7252C110.436 24.6839 110.436 24.6385 110.415 24.5985L110.232 24.2545C110.217 24.2292 110.193 24.2132 110.177 24.1892C110.163 24.1639 110.157 24.1359 110.141 24.1132L109.971 23.8839C109.952 23.8599 109.925 23.8505 109.907 23.8265C109.884 23.8025 109.876 23.7719 109.853 23.7505L109.588 23.4985C109.575 23.4839 109.556 23.4812 109.54 23.4692C109.527 23.4559 109.52 23.4399 109.507 23.4279L109.3 23.2665C109.279 23.2505 109.252 23.2452 109.232 23.2332C109.209 23.2185 109.197 23.1959 109.175 23.1825C93.4653 13.8945 72.5693 1.92653 70.3533 0.829198C69.7227 0.517198 68.676 0.0718634 67.3347 0.0718634C66.068 0.0718634 65.0253 0.469198 64.316 0.829198C54.4867 6.50253 11.324 32.1759 1.49467 37.8492C1.47067 37.8625 1.46 37.8852 1.43734 37.8999C1.416 37.9119 1.39067 37.9172 1.36933 37.9332L1.16267 38.0945C1.14934 38.1065 1.14267 38.1225 1.12933 38.1359C1.11333 38.1479 1.09466 38.1505 1.08133 38.1652L0.815999 38.4172C0.793333 38.4385 0.785331 38.4692 0.762665 38.4932C0.743998 38.5172 0.717336 38.5265 0.698669 38.5505L0.526672 38.7799C0.512006 38.8025 0.506671 38.8305 0.492004 38.8545C0.476004 38.8799 0.452004 38.8959 0.437337 38.9212L0.253337 39.2652C0.233337 39.3052 0.233336 39.3505 0.217336 39.3919C0.200003 39.4319 0.17067 39.4652 0.160004 39.5092L0.0906677 39.7839C0.0853344 39.8039 0.0920025 39.8239 0.0880025 39.8452C0.0840025 39.8639 0.0720033 39.8799 0.0680033 39.9012L0.010671 40.3145C0.00667098 40.3412 0.0173347 40.3639 0.0160014 40.3892C0.014668 40.4145 0 40.4372 0 40.4625V45.4052V46.7385V47.6812V53.0145C0 53.0385 0.014668 53.0612 0.0160014 53.0865C0.0173347 53.1119 0.00667098 53.1345 0.010671 53.1612L0.0680033 53.5759C0.0720033 53.5959 0.0840025 53.6119 0.0880025 53.6319C0.0920025 53.6519 0.0853344 53.6719 0.0906677 53.6919L0.160004 53.9665C0.17067 54.0119 0.200003 54.0439 0.217336 54.0839C0.233336 54.1265 0.233337 54.1705 0.253337 54.2105L0.437337 54.5545C0.452004 54.5799 0.476004 54.5959 0.492004 54.6212C0.506671 54.6452 0.512006 54.6732 0.526672 54.6959L0.698669 54.9252C0.717336 54.9492 0.743998 54.9599 0.762665 54.9825C0.785331 55.0065 0.793333 55.0372 0.815999 55.0585L1.08133 55.3105C1.09466 55.3252 1.11333 55.3279 1.12933 55.3399C1.14267 55.3545 1.14934 55.3692 1.16267 55.3812L1.36933 55.5425C1.39067 55.5585 1.416 55.5639 1.43734 55.5772C1.46 55.5905 1.47067 55.6132 1.49467 55.6279C11.324 61.2999 30.4867 72.3065 40.316 77.9799C41.0253 78.3399 42.068 78.7385 43.3347 78.7385C44.676 78.7385 45.7227 78.2932 46.3533 77.9799C48.5693 76.8825 93.4653 50.2479 109.175 40.9612C109.197 40.9465 109.209 40.9239 109.232 40.9105C109.252 40.8972 109.279 40.8919 109.3 40.8759L109.507 40.7145C109.52 40.7025 109.527 40.6879 109.54 40.6732C109.556 40.6612 109.575 40.6585 109.588 40.6439L109.853 40.3919C109.876 40.3705 109.884 40.3399 109.907 40.3159C109.925 40.2932 109.952 40.2825 109.971 40.2585L110.141 40.0292C110.157 40.0065 110.163 39.9785 110.177 39.9545C110.193 39.9292 110.217 39.9132 110.232 39.8879L110.415 39.5439C110.436 39.5039 110.436 39.4599 110.452 39.4172C110.469 39.3772 110.499 39.3452 110.509 39.2999L110.579 39.0252C110.583 39.0052 110.577 38.9852 110.581 38.9652C110.584 38.9452 110.597 38.9292 110.601 38.9092L110.659 38.4945C110.663 38.4679 110.652 38.4452 110.653 38.4199C110.655 38.3945 110.669 38.3719 110.669 38.3479V33.0145V32.0719V30.7385V25.7959C110.669 25.7705 110.655 25.7479 110.653 25.7225" fill="#37A0D9"/>
<path fill-rule="evenodd" clip-rule="evenodd" d="M21.9218 40.126L21.5232 39.894L20.3005 40.6167L19.3058 40.0394L18.8165 40.326L19.8125 40.906L18.5898 41.6274L18.9885 41.8594L20.2112 41.1367L21.2072 41.7154L21.6952 41.4274L20.6992 40.8487L21.9218 40.126Z" fill="#37A0D9"/>
<path fill-rule="evenodd" clip-rule="evenodd" d="M17.1406 37.3487L16.7419 37.1167L15.5193 37.8394L14.5233 37.262L14.0353 37.5487L15.0299 38.1287L13.8086 38.85L14.2073 39.082L15.4286 38.3594L16.4246 38.938L16.9139 38.65L15.9179 38.0714L17.1406 37.3487Z" fill="#37A0D9"/>
<path fill-rule="evenodd" clip-rule="evenodd" d="M31.4804 45.6807L31.0818 45.4487L29.8604 46.1714L28.8644 45.5941L28.3751 45.8807L29.3711 46.4607L28.1484 47.1821L28.5471 47.4141L29.7698 46.6914L30.7658 47.2701L31.2538 46.9821L30.2578 46.4034L31.4804 45.6807Z" fill="#37A0D9"/>
<path fill-rule="evenodd" clip-rule="evenodd" d="M26.6992 42.9034L26.3005 42.6714L25.0779 43.3941L24.0819 42.8167L23.5939 43.1034L24.5899 43.6834L23.3672 44.4047L23.7659 44.6367L24.9872 43.9141L25.9832 44.4927L26.4725 44.2047L25.4765 43.6261L26.6992 42.9034Z" fill="#37A0D9"/>
<path fill-rule="evenodd" clip-rule="evenodd" d="M41.039 51.2354L40.6404 51.0034L39.419 51.7261L38.423 51.1488L37.9337 51.4354L38.9297 52.0154L37.707 52.7368L38.1057 52.9688L39.3284 52.2461L40.3244 52.8248L40.8124 52.5368L39.8164 51.9581L41.039 51.2354Z" fill="#37A0D9"/>
<path fill-rule="evenodd" clip-rule="evenodd" d="M36.2578 48.4581L35.8591 48.2261L34.6364 48.9487L33.6404 48.3714L33.1524 48.6581L34.1484 49.2381L32.9258 49.9594L33.3244 50.1914L34.5458 49.4687L35.5418 50.0474L36.0311 49.7594L35.0351 49.1807L36.2578 48.4581Z" fill="#37A0D9"/>
<path fill-rule="evenodd" clip-rule="evenodd" d="M50.5976 56.7901L50.199 56.5581L48.9776 57.2808L47.9816 56.7034L47.4923 56.9901L48.4883 57.5701L47.2656 58.2914L47.6643 58.5234L48.887 57.8008L49.883 58.3794L50.371 58.0914L49.3763 57.5128L50.5976 56.7901Z" fill="#37A0D9"/>
<path fill-rule="evenodd" clip-rule="evenodd" d="M45.8164 54.0128L45.4177 53.7808L44.195 54.5034L43.199 53.9261L42.711 54.2128L43.707 54.7928L42.4844 55.5141L42.883 55.7461L44.1057 55.0234L45.1004 55.6021L45.5897 55.3141L44.5937 54.7354L45.8164 54.0128Z" fill="#37A0D9"/>
<path fill-rule="evenodd" clip-rule="evenodd" d="M27.789 36.6611L27.3904 36.4291L26.1677 37.1504L25.173 36.5731L24.6837 36.8611L25.6797 37.4397L24.457 38.1624L24.8557 38.3931L26.0784 37.6717L27.073 38.2491L27.5624 37.9624L26.5664 37.3824L27.789 36.6611Z" fill="#37A0D9"/>
<path fill-rule="evenodd" clip-rule="evenodd" d="M23.0064 33.8839L22.6078 33.6519L21.3864 34.3732L20.3904 33.7959L19.9024 34.0839L20.8971 34.6625L19.6758 35.3852L20.0731 35.6172L21.2958 34.8945L22.2918 35.4719L22.7798 35.1852L21.7851 34.6052L23.0064 33.8839Z" fill="#37A0D9"/>
<path fill-rule="evenodd" clip-rule="evenodd" d="M37.3476 42.2158L36.949 41.9838L35.7263 42.7051L34.7316 42.1278L34.2423 42.4158L35.2383 42.9944L34.0156 43.7171L34.4143 43.9478L35.637 43.2264L36.6316 43.8038L37.121 43.5171L36.125 42.9371L37.3476 42.2158Z" fill="#37A0D9"/>
<path fill-rule="evenodd" clip-rule="evenodd" d="M32.565 39.4384L32.1664 39.2064L30.945 39.9277L29.949 39.3504L29.461 39.6384L30.4557 40.2171L29.2344 40.9397L29.6317 41.1704L30.8544 40.4491L31.8504 41.0264L32.3384 40.7397L31.3437 40.1597L32.565 39.4384Z" fill="#37A0D9"/>
<path fill-rule="evenodd" clip-rule="evenodd" d="M46.9062 47.7704L46.5076 47.5384L45.2849 48.2598L44.2902 47.6824L43.8009 47.9704L44.7969 48.5491L43.5742 49.2718L43.9729 49.5024L45.1956 48.7811L46.1902 49.3584L46.6796 49.0718L45.6836 48.4918L46.9062 47.7704Z" fill="#37A0D9"/>
<path fill-rule="evenodd" clip-rule="evenodd" d="M42.1236 44.9931L41.7263 44.7611L40.5036 45.4824L39.5076 44.9051L39.0196 45.1931L40.0143 45.7718L38.793 46.4944L39.1916 46.7251L40.413 46.0038L41.409 46.5811L41.897 46.2944L40.9023 45.7144L42.1236 44.9931Z" fill="#37A0D9"/>
<path fill-rule="evenodd" clip-rule="evenodd" d="M56.4648 53.3251L56.0661 53.0931L54.8435 53.8145L53.8488 53.2371L53.3595 53.5251L54.3555 54.1038L53.1328 54.8265L53.5315 55.0571L54.7541 54.3358L55.7488 54.9131L56.2381 54.6265L55.2421 54.0465L56.4648 53.3251Z" fill="#37A0D9"/>
<path fill-rule="evenodd" clip-rule="evenodd" d="M51.6822 50.5478L51.2849 50.3158L50.0622 51.0371L49.0662 50.4598L48.5782 50.7478L49.5729 51.3265L48.3516 52.0491L48.7502 52.2798L49.9716 51.5585L50.9676 52.1358L51.4556 51.8491L50.4609 51.2691L51.6822 50.5478Z" fill="#37A0D9"/>
<path fill-rule="evenodd" clip-rule="evenodd" d="M33.6562 33.1949L33.2576 32.9642L32.0349 33.6856L31.0389 33.1082L30.5509 33.3949L31.5469 33.9749L30.3242 34.6962L30.7229 34.9282L31.9442 34.2069L32.9402 34.7842L33.4296 34.4962L32.4336 33.9176L33.6562 33.1949Z" fill="#37A0D9"/>
<path fill-rule="evenodd" clip-rule="evenodd" d="M28.875 30.4178L28.4763 30.1871L27.2536 30.9085L26.259 30.3311L25.7696 30.6178L26.7656 31.1978L25.543 31.9191L25.9416 32.1511L27.1643 31.4298L28.1603 32.0071L28.6483 31.7191L27.6523 31.1405L28.875 30.4178Z" fill="#37A0D9"/>
<path fill-rule="evenodd" clip-rule="evenodd" d="M43.2148 38.7496L42.8161 38.5189L41.5935 39.2402L40.5975 38.6629L40.1095 38.9496L41.1055 39.5296L39.8828 40.2509L40.2815 40.4829L41.5028 39.7616L42.4988 40.3389L42.9881 40.0509L41.9921 39.4722L43.2148 38.7496Z" fill="#37A0D9"/>
<path fill-rule="evenodd" clip-rule="evenodd" d="M38.4336 35.9722L38.0349 35.7416L36.8136 36.4629L35.8176 35.8856L35.3282 36.1722L36.3242 36.7522L35.1016 37.4736L35.5002 37.7056L36.7229 36.9842L37.7189 37.5616L38.2069 37.2736L37.2109 36.6949L38.4336 35.9722Z" fill="#37A0D9"/>
<path fill-rule="evenodd" clip-rule="evenodd" d="M52.7734 44.3043L52.3747 44.0736L51.1521 44.7949L50.1561 44.2176L49.6681 44.5043L50.6641 45.0843L49.4414 45.8056L49.8401 46.0376L51.0614 45.3163L52.0574 45.8936L52.5467 45.6056L51.5507 45.0269L52.7734 44.3043Z" fill="#37A0D9"/>
<path fill-rule="evenodd" clip-rule="evenodd" d="M47.9922 41.5269L47.5935 41.2963L46.3722 42.0176L45.3762 41.4403L44.8868 41.7269L45.8828 42.3069L44.6602 43.0283L45.0588 43.2603L46.2815 42.5389L47.2775 43.1163L47.7655 42.8283L46.7695 42.2496L47.9922 41.5269Z" fill="#37A0D9"/>
<path fill-rule="evenodd" clip-rule="evenodd" d="M62.332 49.859L61.9333 49.6283L60.7107 50.3496L59.7147 49.7723L59.2267 50.059L60.2227 50.639L59 51.3603L59.3987 51.5923L60.6213 50.871L61.616 51.4483L62.1053 51.1603L61.1093 50.5816L62.332 49.859Z" fill="#37A0D9"/>
<path fill-rule="evenodd" clip-rule="evenodd" d="M57.5507 47.0816L57.1521 46.8509L55.9307 47.5723L54.9348 46.9949L54.4454 47.2816L55.4414 47.8616L54.2188 48.5829L54.6174 48.8149L55.8401 48.0936L56.8361 48.6709L57.3241 48.3829L56.3281 47.8043L57.5507 47.0816Z" fill="#37A0D9"/>
<path fill-rule="evenodd" clip-rule="evenodd" d="M39.5221 29.73L39.1234 29.498L37.9021 30.2207L36.9061 29.642L36.4181 29.93L37.4127 30.5087L36.1914 31.2314L36.5887 31.4634L37.8114 30.7407L38.8074 31.318L39.2954 31.0314L38.3007 30.4514L39.5221 29.73Z" fill="#37A0D9"/>
<path fill-rule="evenodd" clip-rule="evenodd" d="M34.7422 26.9527L34.3435 26.7207L33.1208 27.4434L32.1262 26.8647L31.6368 27.1527L32.6328 27.7314L31.4102 28.454L31.8088 28.686L33.0315 27.9634L34.0262 28.5407L34.5155 28.254L33.5195 27.674L34.7422 26.9527Z" fill="#37A0D9"/>
<path fill-rule="evenodd" clip-rule="evenodd" d="M49.0807 35.285L48.682 35.053L47.4607 35.7756L46.4647 35.197L45.9767 35.485L46.9713 36.0636L45.75 36.7863L46.1473 37.0183L47.37 36.2956L48.366 36.873L48.854 36.5863L47.8593 36.0063L49.0807 35.285Z" fill="#37A0D9"/>
<path fill-rule="evenodd" clip-rule="evenodd" d="M44.3007 32.5074L43.9021 32.2754L42.6794 32.9981L41.6848 32.4194L41.1954 32.7074L42.1914 33.2861L40.9688 34.0087L41.3674 34.2407L42.5901 33.5181L43.5848 34.0954L44.0741 33.8087L43.0781 33.2287L44.3007 32.5074Z" fill="#37A0D9"/>
<path fill-rule="evenodd" clip-rule="evenodd" d="M58.6393 40.8397L58.2419 40.6077L57.0193 41.3303L56.0233 40.7517L55.5353 41.0397L56.5299 41.6183L55.3086 42.341L55.7073 42.573L56.9286 41.8503L57.9246 42.4277L58.4126 42.141L57.4179 41.561L58.6393 40.8397Z" fill="#37A0D9"/>
<path fill-rule="evenodd" clip-rule="evenodd" d="M53.8593 38.0623L53.4607 37.8303L52.238 38.553L51.2433 37.9743L50.754 38.2623L51.75 38.841L50.5273 39.5637L50.926 39.7957L52.1487 39.073L53.1433 39.6503L53.6327 39.3637L52.6367 38.7837L53.8593 38.0623Z" fill="#37A0D9"/>
<path fill-rule="evenodd" clip-rule="evenodd" d="M68.1979 46.3941L67.8005 46.1621L66.5779 46.8848L65.5819 46.3061L65.0939 46.5941L66.0885 47.1728L64.8672 47.8954L65.2659 48.1274L66.4872 47.4048L67.4832 47.9821L67.9712 47.6954L66.9765 47.1154L68.1979 46.3941Z" fill="#37A0D9"/>
<path fill-rule="evenodd" clip-rule="evenodd" d="M63.4179 43.6168L63.0193 43.3848L61.7966 44.1074L60.8019 43.5288L60.3126 43.8168L61.3086 44.3954L60.0859 45.1181L60.4846 45.3501L61.7073 44.6274L62.7019 45.2048L63.1913 44.9181L62.1953 44.3381L63.4179 43.6168Z" fill="#37A0D9"/>
<path fill-rule="evenodd" clip-rule="evenodd" d="M45.3867 26.2642L44.988 26.0336L43.7654 26.7549L42.7707 26.1776L42.2814 26.4656L43.2774 27.0442L42.0547 27.7656L42.4534 27.9976L43.676 27.2762L44.672 27.8536L45.16 27.5656L44.164 26.9869L45.3867 26.2642Z" fill="#37A0D9"/>
<path fill-rule="evenodd" clip-rule="evenodd" d="M40.6093 23.4869L40.2107 23.2562L38.988 23.9775L37.992 23.4002L37.504 23.6882L38.4987 24.2669L37.2773 24.9882L37.676 25.2202L38.8973 24.4989L39.8933 25.0762L40.3827 24.7882L39.3867 24.2095L40.6093 23.4869Z" fill="#37A0D9"/>
<path fill-rule="evenodd" clip-rule="evenodd" d="M54.9453 31.8187L54.5466 31.588L53.3253 32.3093L52.3293 31.732L51.8399 32.02L52.8359 32.5987L51.6133 33.32L52.0119 33.552L53.2346 32.8307L54.2306 33.408L54.7186 33.12L53.7226 32.5413L54.9453 31.8187Z" fill="#37A0D9"/>
<path fill-rule="evenodd" clip-rule="evenodd" d="M50.1679 29.0413L49.7693 28.8107L48.5466 29.532L47.5506 28.9547L47.0626 29.2427L48.0586 29.8213L46.8359 30.5427L47.2346 30.7747L48.4559 30.0533L49.4519 30.6307L49.9413 30.3427L48.9453 29.764L50.1679 29.0413Z" fill="#37A0D9"/>
<path fill-rule="evenodd" clip-rule="evenodd" d="M64.5039 37.3736L64.1052 37.1429L62.8839 37.8643L61.8879 37.2869L61.3985 37.5736L62.3945 38.1536L61.1719 38.8749L61.5705 39.1069L62.7932 38.3856L63.7892 38.9629L64.2772 38.6749L63.2812 38.0963L64.5039 37.3736Z" fill="#37A0D9"/>
<path fill-rule="evenodd" clip-rule="evenodd" d="M59.7265 34.5963L59.3279 34.3656L58.1052 35.0869L57.1092 34.5096L56.6212 34.7963L57.6172 35.3763L56.3945 36.0976L56.7932 36.3296L58.0145 35.6083L59.0105 36.1856L59.4999 35.8976L58.5039 35.3189L59.7265 34.5963Z" fill="#37A0D9"/>
<path fill-rule="evenodd" clip-rule="evenodd" d="M74.0625 42.9283L73.6638 42.6976L72.4425 43.419L71.4465 42.8416L70.9571 43.1283L71.9531 43.7083L70.7305 44.4296L71.1291 44.6616L72.3518 43.9403L73.3478 44.5176L73.8358 44.2296L72.8411 43.651L74.0625 42.9283Z" fill="#37A0D9"/>
<path fill-rule="evenodd" clip-rule="evenodd" d="M69.2851 40.1509L68.8865 39.9203L67.6638 40.6416L66.6678 40.0643L66.1798 40.3509L67.1758 40.9309L65.9531 41.6523L66.3518 41.8843L67.5745 41.1629L68.5691 41.7403L69.0585 41.4523L68.0625 40.8736L69.2851 40.1509Z" fill="#37A0D9"/>
<path fill-rule="evenodd" clip-rule="evenodd" d="M51.2539 22.7994L50.8552 22.5674L49.6325 23.29L48.6379 22.7114L48.1485 22.9994L49.1445 23.578L47.9219 24.3007L48.3205 24.5327L49.5432 23.81L50.5379 24.3887L51.0272 24.1007L50.0312 23.5207L51.2539 22.7994Z" fill="#37A0D9"/>
<path fill-rule="evenodd" clip-rule="evenodd" d="M46.4752 20.022L46.0765 19.79L44.8552 20.5127L43.8592 19.934L43.3712 20.222L44.3659 20.8007L43.1445 21.5234L43.5419 21.7554L44.7645 21.0327L45.7605 21.6114L46.2485 21.3234L45.2539 20.7434L46.4752 20.022Z" fill="#37A0D9"/>
<path fill-rule="evenodd" clip-rule="evenodd" d="M60.8125 28.3541L60.4138 28.1221L59.1911 28.8447L58.1965 28.2661L57.7071 28.5541L58.7031 29.1327L57.4805 29.8554L57.8791 30.0874L59.1018 29.3647L60.0965 29.9434L60.5858 29.6554L59.5898 29.0754L60.8125 28.3541Z" fill="#37A0D9"/>
<path fill-rule="evenodd" clip-rule="evenodd" d="M56.0338 25.5767L55.6351 25.3447L54.4138 26.0674L53.4178 25.4887L52.9298 25.7767L53.9245 26.3554L52.7031 27.0781L53.1005 27.3101L54.3231 26.5874L55.3191 27.1661L55.8071 26.8781L54.8125 26.2981L56.0338 25.5767Z" fill="#37A0D9"/>
<path fill-rule="evenodd" clip-rule="evenodd" d="M70.3711 33.9088L69.9724 33.6768L68.7497 34.3994L67.7551 33.8208L67.2657 34.1088L68.2617 34.6874L67.0391 35.4101L67.4377 35.6421L68.6604 34.9194L69.6551 35.4981L70.1444 35.2101L69.1484 34.6301L70.3711 33.9088Z" fill="#37A0D9"/>
<path fill-rule="evenodd" clip-rule="evenodd" d="M65.5924 31.1314L65.1951 30.8994L63.9724 31.6221L62.9764 31.0434L62.4884 31.3314L63.4831 31.9101L62.2617 32.6327L62.6604 32.8647L63.8817 32.1421L64.8777 32.7207L65.3657 32.4327L64.3711 31.8527L65.5924 31.1314Z" fill="#37A0D9"/>
<path fill-rule="evenodd" clip-rule="evenodd" d="M79.9297 39.4632L79.531 39.2312L78.3083 39.9539L77.3137 39.3752L76.8243 39.6632L77.8203 40.2419L76.5977 40.9645L76.9963 41.1965L78.219 40.4739L79.2137 41.0525L79.703 40.7645L78.707 40.1845L79.9297 39.4632Z" fill="#37A0D9"/>
<path fill-rule="evenodd" clip-rule="evenodd" d="M75.151 36.6859L74.7536 36.4539L73.531 37.1765L72.535 36.5979L72.047 36.8859L73.0416 37.4645L71.8203 38.1872L72.219 38.4192L73.4403 37.6965L74.4363 38.2752L74.9243 37.9872L73.9296 37.4072L75.151 36.6859Z" fill="#37A0D9"/>
<path fill-rule="evenodd" clip-rule="evenodd" d="M57.1211 19.3331L56.7224 19.1024L55.4997 19.8237L54.5037 19.2464L54.0157 19.5344L55.0117 20.1131L53.7891 20.8344L54.1877 21.0664L55.4091 20.3451L56.4051 20.9224L56.8944 20.6344L55.8984 20.0557L57.1211 19.3331Z" fill="#37A0D9"/>
<path fill-rule="evenodd" clip-rule="evenodd" d="M52.3437 16.5557L51.9451 16.3251L50.7224 17.0464L49.7277 16.4691L49.2384 16.7571L50.2344 17.3357L49.0117 18.0571L49.4104 18.2891L50.6331 17.5677L51.6291 18.1451L52.1171 17.8571L51.1211 17.2784L52.3437 16.5557Z" fill="#37A0D9"/>
<path fill-rule="evenodd" clip-rule="evenodd" d="M66.6797 24.8878L66.281 24.6571L65.0583 25.3784L64.0623 24.8011L63.5743 25.0891L64.5703 25.6678L63.3477 26.3891L63.7463 26.6211L64.9677 25.8998L65.9637 26.4771L66.453 26.1891L65.457 25.6104L66.6797 24.8878Z" fill="#37A0D9"/>
<path fill-rule="evenodd" clip-rule="evenodd" d="M61.9023 22.1104L61.5036 21.8798L60.2823 22.6011L59.2863 22.0238L58.797 22.3118L59.793 22.8904L58.5703 23.6118L58.969 23.8438L60.1916 23.1224L61.1876 23.6998L61.6756 23.4118L60.6796 22.8331L61.9023 22.1104Z" fill="#37A0D9"/>
<path fill-rule="evenodd" clip-rule="evenodd" d="M76.2382 30.4424L75.8396 30.2118L74.6169 30.9331L73.6209 30.3558L73.1329 30.6438L74.1289 31.2224L72.9062 31.9438L73.3049 32.1758L74.5262 31.4544L75.5223 32.0318L76.0116 31.7438L75.0156 31.1651L76.2382 30.4424Z" fill="#37A0D9"/>
<path fill-rule="evenodd" clip-rule="evenodd" d="M71.4609 27.6651L71.0622 27.4344L69.8409 28.1558L68.8449 27.5784L68.3556 27.8664L69.3516 28.4451L68.1289 29.1664L68.5276 29.3984L69.7502 28.6771L70.7462 29.2544L71.2342 28.9664L70.2382 28.3878L71.4609 27.6651Z" fill="#37A0D9"/>
<path fill-rule="evenodd" clip-rule="evenodd" d="M85.7968 35.9971L85.3982 35.7665L84.1755 36.4878L83.1795 35.9105L82.6915 36.1985L83.6875 36.7771L82.4648 37.4985L82.8635 37.7305L84.0862 37.0091L85.0808 37.5865L85.5702 37.2985L84.5742 36.7198L85.7968 35.9971Z" fill="#37A0D9"/>
<path fill-rule="evenodd" clip-rule="evenodd" d="M81.0195 33.2198L80.6208 32.9891L79.3995 33.7105L78.4035 33.1331L77.9142 33.4211L78.9102 33.9998L77.6875 34.7211L78.0862 34.9531L79.3088 34.2318L80.3048 34.8091L80.7928 34.5211L79.7982 33.9425L81.0195 33.2198Z" fill="#37A0D9"/>
<path fill-rule="evenodd" clip-rule="evenodd" d="M62.9869 15.8682L62.5882 15.6362L61.3669 16.3589L60.3709 15.7802L59.8829 16.0682L60.8776 16.6469L59.6562 17.3696L60.0536 17.6016L61.2762 16.8789L62.2722 17.4576L62.7602 17.1696L61.7656 16.5896L62.9869 15.8682Z" fill="#37A0D9"/>
<path fill-rule="evenodd" clip-rule="evenodd" d="M58.2109 13.0909L57.8122 12.8589L56.5896 13.5816L55.5949 13.0029L55.1056 13.2909L56.1016 13.8696L54.8789 14.5922L55.2776 14.8242L56.5002 14.1016L57.4949 14.6802L57.9842 14.3922L56.9882 13.8122L58.2109 13.0909Z" fill="#37A0D9"/>
<path fill-rule="evenodd" clip-rule="evenodd" d="M72.5455 21.4229L72.1482 21.1909L70.9255 21.9136L69.9295 21.3349L69.4415 21.6229L70.4362 22.2016L69.2148 22.9243L69.6135 23.1562L70.8348 22.4336L71.8308 23.0123L72.3188 22.7243L71.3242 22.1443L72.5455 21.4229Z" fill="#37A0D9"/>
<path fill-rule="evenodd" clip-rule="evenodd" d="M67.7695 18.6456L67.3708 18.4136L66.1482 19.1362L65.1535 18.5576L64.6642 18.8456L65.6602 19.4242L64.4375 20.1469L64.8362 20.3789L66.0588 19.6562L67.0535 20.2349L67.5428 19.9469L66.5468 19.3669L67.7695 18.6456Z" fill="#37A0D9"/>
<path fill-rule="evenodd" clip-rule="evenodd" d="M82.1041 26.9776L81.7068 26.7456L80.4841 27.4683L79.4881 26.8896L79.0001 27.1776L79.9948 27.7563L78.7734 28.4789L79.1721 28.7109L80.3934 27.9883L81.3894 28.5669L81.8774 28.2789L80.8828 27.6989L82.1041 26.9776Z" fill="#37A0D9"/>
<path fill-rule="evenodd" clip-rule="evenodd" d="M77.3281 24.2003L76.9294 23.9683L75.7068 24.6909L74.7121 24.1123L74.2228 24.4003L75.2188 24.9789L73.9961 25.7016L74.3948 25.9336L75.6174 25.2109L76.6121 25.7896L77.1014 25.5016L76.1054 24.9216L77.3281 24.2003Z" fill="#37A0D9"/>
<path fill-rule="evenodd" clip-rule="evenodd" d="M91.6627 32.5323L91.2654 32.3003L90.0427 33.023L89.0467 32.4443L88.5587 32.7323L89.5534 33.311L88.332 34.0336L88.7307 34.2656L89.952 33.543L90.948 34.1216L91.436 33.8336L90.4414 33.2536L91.6627 32.5323Z" fill="#37A0D9"/>
<path fill-rule="evenodd" clip-rule="evenodd" d="M86.8867 29.7549L86.488 29.5229L85.2654 30.2456L84.2707 29.6669L83.7814 29.9549L84.7774 30.5336L83.5547 31.2563L83.9534 31.4883L85.176 30.7656L86.1707 31.3443L86.66 31.0563L85.664 30.4763L86.8867 29.7549Z" fill="#37A0D9"/>
<path fill-rule="evenodd" clip-rule="evenodd" d="M68.8554 12.4033L68.4568 12.1713L67.2354 12.8926L66.2394 12.3153L65.7501 12.6033L66.7461 13.1819L65.5234 13.9033L65.9221 14.1353L67.1448 13.4139L68.1408 13.9913L68.6288 13.7033L67.6328 13.1246L68.8554 12.4033Z" fill="#37A0D9"/>
<path fill-rule="evenodd" clip-rule="evenodd" d="M64.0781 9.62591L63.6794 9.39391L62.4568 10.1152L61.4608 9.53791L60.9728 9.82591L61.9674 10.4046L60.7461 11.1259L61.1448 11.3579L62.3661 10.6366L63.3621 11.2139L63.8514 10.9259L62.8554 10.3472L64.0781 9.62591Z" fill="#37A0D9"/>
<path fill-rule="evenodd" clip-rule="evenodd" d="M78.414 17.9579L78.0154 17.7259L76.794 18.4473L75.798 17.8699L75.3087 18.1579L76.3047 18.7366L75.082 19.4579L75.4807 19.6899L76.7034 18.9686L77.6994 19.5459L78.1874 19.2579L77.1914 18.6793L78.414 17.9579Z" fill="#37A0D9"/>
<path fill-rule="evenodd" clip-rule="evenodd" d="M73.6367 15.1806L73.238 14.9486L72.0154 15.6699L71.0194 15.0926L70.5314 15.3806L71.5274 15.9593L70.3047 16.6806L70.7034 16.9126L71.9247 16.1913L72.9207 16.7686L73.41 16.4806L72.414 15.9019L73.6367 15.1806Z" fill="#37A0D9"/>
<path fill-rule="evenodd" clip-rule="evenodd" d="M87.9726 23.5113L87.574 23.2806L86.3526 24.002L85.3566 23.4246L84.8673 23.7126L85.8633 24.2913L84.6406 25.0126L85.0393 25.2446L86.262 24.5233L87.258 25.1006L87.746 24.8126L86.75 24.234L87.9726 23.5113Z" fill="#37A0D9"/>
<path fill-rule="evenodd" clip-rule="evenodd" d="M83.1953 20.7353L82.7966 20.5033L81.5739 21.2246L80.5779 20.6473L80.0899 20.9353L81.0859 21.514L79.8633 22.2353L80.2619 22.4673L81.4833 21.746L82.4793 22.3233L82.9686 22.0353L81.9726 21.4566L83.1953 20.7353Z" fill="#37A0D9"/>
<path fill-rule="evenodd" clip-rule="evenodd" d="M97.5312 29.066L97.1326 28.8353L95.9112 29.5566L94.9152 28.9793L94.4259 29.2673L95.4219 29.846L94.1992 30.5673L94.5979 30.7993L95.8206 30.078L96.8166 30.6553L97.3046 30.3673L96.3099 29.7886L97.5312 29.066Z" fill="#37A0D9"/>
<path fill-rule="evenodd" clip-rule="evenodd" d="M92.7539 26.2886L92.3552 26.058L91.1325 26.7793L90.1365 26.202L89.6485 26.49L90.6445 27.0686L89.4219 27.79L89.8205 28.022L91.0432 27.3006L92.0379 27.878L92.5272 27.59L91.5312 27.0113L92.7539 26.2886Z" fill="#37A0D9"/>
<path fill-rule="evenodd" clip-rule="evenodd" d="M74.7226 8.93708L74.324 8.70508L73.1013 9.42774L72.1066 8.84908L71.6173 9.13708L72.6133 9.71708L71.3906 10.4384L71.7893 10.6704L73.012 9.94774L74.0066 10.5264L74.496 10.2384L73.5 9.65974L74.7226 8.93708Z" fill="#37A0D9"/>
<path fill-rule="evenodd" clip-rule="evenodd" d="M69.9439 6.15973L69.5453 5.92773L68.3239 6.6504L67.3279 6.07173L66.8399 6.35973L67.8346 6.93973L66.6133 7.66107L67.0106 7.89307L68.2333 7.1704L69.2293 7.74907L69.7173 7.46107L68.7226 6.8824L69.9439 6.15973Z" fill="#37A0D9"/>
<path fill-rule="evenodd" clip-rule="evenodd" d="M84.2812 14.4918L83.8826 14.2598L82.6599 14.9824L81.6652 14.4038L81.1759 14.6918L82.1719 15.2718L80.9492 15.9931L81.3479 16.2251L82.5706 15.5024L83.5652 16.0811L84.0546 15.7931L83.0586 15.2144L84.2812 14.4918Z" fill="#37A0D9"/>
<path fill-rule="evenodd" clip-rule="evenodd" d="M79.5025 11.7144L79.1039 11.4824L77.8825 12.2051L76.8865 11.6264L76.3985 11.9144L77.3932 12.4944L76.1719 13.2158L76.5692 13.4478L77.7919 12.7251L78.7879 13.3038L79.2759 13.0158L78.2812 12.4371L79.5025 11.7144Z" fill="#37A0D9"/>
<path fill-rule="evenodd" clip-rule="evenodd" d="M93.8398 20.0465L93.4411 19.8145L92.2185 20.5371L91.2238 19.9585L90.7345 20.2465L91.7305 20.8265L90.5078 21.5478L90.9065 21.7798L92.1291 21.0571L93.1238 21.6358L93.6131 21.3478L92.6171 20.7691L93.8398 20.0465Z" fill="#37A0D9"/>
<path fill-rule="evenodd" clip-rule="evenodd" d="M89.0611 17.2691L88.6638 17.0371L87.4411 17.7598L86.4451 17.1811L85.9571 17.4691L86.9518 18.0491L85.7305 18.7704L86.1291 19.0024L87.3505 18.2798L88.3465 18.8584L88.8345 18.5704L87.8398 17.9918L89.0611 17.2691Z" fill="#37A0D9"/>
<path fill-rule="evenodd" clip-rule="evenodd" d="M103.398 25.6014L103 25.3694L101.777 26.0921L100.782 25.5134L100.293 25.8014L101.289 26.3814L100.066 27.1027L100.465 27.3347L101.688 26.6121L102.684 27.1907L103.172 26.9027L102.176 26.3227L103.398 25.6014Z" fill="#37A0D9"/>
<path fill-rule="evenodd" clip-rule="evenodd" d="M98.6197 22.8238L98.2224 22.5918L96.9997 23.3145L96.0037 22.7358L95.5157 23.0238L96.5104 23.6038L95.2891 24.3251L95.6877 24.5571L96.9091 23.8345L97.9051 24.4131L98.3931 24.1251L97.3984 23.5465L98.6197 22.8238Z" fill="#37A0D9"/>
<path fill-rule="evenodd" clip-rule="evenodd" d="M16.0533 43.5922L15.6547 43.3602L14.4333 44.0816L13.4373 43.5042L12.9493 43.7922L13.944 44.3709L12.7227 45.0936L13.12 45.3242L14.3427 44.6029L15.3387 45.1802L15.8267 44.8936L14.832 44.3136L16.0533 43.5922Z" fill="#37A0D9"/>
<path fill-rule="evenodd" clip-rule="evenodd" d="M11.2734 40.8149L10.8747 40.5829L9.65207 41.3042L8.65741 40.7269L8.16807 41.0149L9.16407 41.5935L7.94141 42.3162L8.34007 42.5469L9.56274 41.8255L10.5574 42.4029L11.0467 42.1162L10.0507 41.5362L11.2734 40.8149Z" fill="#37A0D9"/>
<path fill-rule="evenodd" clip-rule="evenodd" d="M25.6119 49.1469L25.2132 48.9149L23.9919 49.6362L22.9959 49.0589L22.5079 49.3469L23.5026 49.9256L22.2812 50.6482L22.6786 50.8789L23.9012 50.1576L24.8972 50.7349L25.3852 50.4482L24.3906 49.8682L25.6119 49.1469Z" fill="#37A0D9"/>
<path fill-rule="evenodd" clip-rule="evenodd" d="M20.832 46.3696L20.4333 46.1376L19.2107 46.8589L18.216 46.2816L17.7267 46.5696L18.7227 47.1482L17.5 47.8709L17.8987 48.1016L19.1213 47.3802L20.116 47.9576L20.6053 47.6709L19.6093 47.0909L20.832 46.3696Z" fill="#37A0D9"/>
<path fill-rule="evenodd" clip-rule="evenodd" d="M35.1705 54.7016L34.7732 54.4696L33.5505 55.1909L32.5545 54.6136L32.0665 54.9016L33.0612 55.4803L31.8398 56.2029L32.2385 56.4336L33.4598 55.7123L34.4558 56.2896L34.9438 56.0029L33.9492 55.4229L35.1705 54.7016Z" fill="#37A0D9"/>
<path fill-rule="evenodd" clip-rule="evenodd" d="M30.3906 51.9243L29.9919 51.6923L28.7693 52.4136L27.7746 51.8363L27.2853 52.1243L28.2813 52.7029L27.0586 53.4256L27.4573 53.6562L28.6799 52.9349L29.6746 53.5122L30.1639 53.2256L29.1679 52.6456L30.3906 51.9243Z" fill="#37A0D9"/>
<path fill-rule="evenodd" clip-rule="evenodd" d="M44.7291 60.2563L44.3318 60.0243L43.1091 60.7456L42.1131 60.1683L41.6251 60.4563L42.6198 61.0349L41.3984 61.7576L41.7971 61.9883L43.0184 61.2669L44.0144 61.8443L44.5024 61.5576L43.5078 60.9776L44.7291 60.2563Z" fill="#37A0D9"/>
<path fill-rule="evenodd" clip-rule="evenodd" d="M39.9492 57.4789L39.5505 57.2469L38.3279 57.9683L37.3332 57.3909L36.8439 57.6789L37.8399 58.2576L36.6172 58.9803L37.0159 59.2109L38.2385 58.4896L39.2332 59.0669L39.7225 58.7803L38.7265 58.2003L39.9492 57.4789Z" fill="#37A0D9"/>
</svg>
