<svg width="125" height="87" viewBox="0 0 125 87" fill="none" xmlns="http://www.w3.org/2000/svg">
<path d="M121.832 40.9385L121.795 41.2212L121.771 41.3079L121.689 41.4639L121.625 41.5465L121.459 41.7065L121.359 41.7852C111.371 47.5492 68.0493 73.3119 58.0627 79.0759C57.1173 79.0665 56.1707 79.0572 55.2253 79.0479C45.2533 73.2945 12.616 54.2052 2.644 48.4519L2.544 48.3732L2.37733 48.2132L2.31333 48.1305L2.232 47.9745L2.208 47.8879L2.17066 47.6052V46.7385V45.4052V40.5372L2.208 40.2545L2.232 40.1679L2.31333 40.0132L2.37733 39.9292L2.544 39.7692L2.644 39.6905C12.616 33.9372 55.92 8.18253 65.892 2.42787C66.8373 2.41853 67.784 2.41053 68.7293 2.4012C78.716 8.16387 111.371 27.2599 121.359 33.0239L121.459 33.1025L121.625 33.2625L121.689 33.3465L121.771 33.5012L121.795 33.5879L121.832 33.8705V38.7385V40.0719V40.9385ZM121.795 46.5545L121.771 46.6412L121.689 46.7972L121.625 46.8799L121.459 47.0399L121.359 47.1185C111.371 52.8825 68.0493 78.6452 58.0627 84.4092C57.1173 84.3999 56.1707 84.3905 55.2253 84.3812C45.2533 78.6279 12.616 59.5385 2.644 53.7852L2.544 53.7065L2.37733 53.5465L2.31333 53.4639L2.232 53.3079L2.208 53.2212L2.17066 52.9385V50.6839C11.7747 56.2279 44.0453 75.1039 53.6493 80.6465C54.3587 81.0065 55.4013 81.4052 56.668 81.4052C58.0093 81.4052 59.056 80.9599 59.6867 80.6465C61.872 79.5652 105.915 53.4372 121.832 44.0265V46.2719L121.795 46.5545ZM123.987 33.7225C123.985 33.6972 123.996 33.6745 123.992 33.6479L123.935 33.2345C123.931 33.2132 123.917 33.1972 123.915 33.1785C123.911 33.1572 123.916 33.1372 123.912 33.1172L123.843 32.8425C123.832 32.7985 123.803 32.7652 123.785 32.7252C123.769 32.6839 123.769 32.6385 123.748 32.5985L123.565 32.2545C123.551 32.2292 123.527 32.2132 123.511 32.1892C123.496 32.1639 123.491 32.1359 123.475 32.1132L123.304 31.8839C123.285 31.8599 123.259 31.8505 123.24 31.8265C123.217 31.8025 123.209 31.7719 123.187 31.7505L122.921 31.4985C122.908 31.4839 122.889 31.4812 122.873 31.4692C122.86 31.4559 122.853 31.4399 122.84 31.4279L122.633 31.2665C122.612 31.2505 122.585 31.2452 122.565 31.2332C122.543 31.2185 122.531 31.1959 122.508 31.1825C106.799 21.8945 72.5693 1.92653 70.3533 0.829198C69.7227 0.517198 68.676 0.0718639 67.3347 0.0718639C66.068 0.0718639 65.0253 0.469198 64.316 0.829198C54.4867 6.50253 11.324 32.1759 1.49467 37.8492C1.47067 37.8625 1.46 37.8852 1.43734 37.8999C1.416 37.9119 1.39067 37.9172 1.36933 37.9332L1.16267 38.0945C1.14934 38.1065 1.14267 38.1225 1.12933 38.1359C1.11333 38.1479 1.09466 38.1505 1.08133 38.1652L0.815999 38.4172C0.793333 38.4385 0.785331 38.4692 0.762665 38.4932C0.743998 38.5172 0.717336 38.5265 0.698669 38.5505L0.526672 38.7799C0.512006 38.8025 0.506671 38.8305 0.492004 38.8559C0.476004 38.8799 0.452004 38.8959 0.437337 38.9212L0.253337 39.2652C0.233337 39.3052 0.233336 39.3505 0.217336 39.3919C0.200003 39.4319 0.17067 39.4652 0.160004 39.5092L0.0906677 39.7839C0.0853344 39.8039 0.0920025 39.8239 0.0880025 39.8452C0.0840025 39.8639 0.0720033 39.8799 0.0680033 39.9012L0.010671 40.3145C0.00667098 40.3412 0.0173347 40.3639 0.0160014 40.3892C0.014668 40.4145 0 40.4372 0 40.4625V45.4052V46.7385V47.6812V53.0145C0 53.0385 0.014668 53.0612 0.0160014 53.0865C0.0173347 53.1119 0.00667098 53.1345 0.010671 53.1612L0.0680033 53.5759C0.0720033 53.5959 0.0840025 53.6119 0.0880025 53.6319C0.0920025 53.6519 0.0853344 53.6719 0.0906677 53.6919L0.160004 53.9665C0.17067 54.0119 0.200003 54.0439 0.217336 54.0839C0.233336 54.1265 0.233337 54.1705 0.253337 54.2105L0.437337 54.5545C0.452004 54.5799 0.476004 54.5959 0.492004 54.6212C0.506671 54.6452 0.512006 54.6732 0.526672 54.6959L0.698669 54.9252C0.717336 54.9492 0.743998 54.9599 0.762665 54.9825C0.785331 55.0065 0.793333 55.0372 0.815999 55.0585L1.08133 55.3105C1.09466 55.3252 1.11333 55.3279 1.12933 55.3399C1.14267 55.3545 1.14934 55.3692 1.16267 55.3812L1.36933 55.5425C1.39067 55.5585 1.416 55.5639 1.43734 55.5772C1.46 55.5905 1.47067 55.6132 1.49467 55.6279C11.324 61.2999 43.82 80.3065 53.6493 85.9799C54.3587 86.3399 55.4013 86.7385 56.668 86.7385C58.0093 86.7385 59.056 86.2932 59.6867 85.9799C61.9027 84.8825 106.799 58.2479 122.508 48.9612C122.531 48.9465 122.543 48.9239 122.565 48.9105C122.585 48.8972 122.612 48.8919 122.633 48.8759L122.84 48.7145C122.853 48.7025 122.86 48.6879 122.873 48.6732C122.889 48.6612 122.908 48.6585 122.921 48.6439L123.187 48.3919C123.209 48.3705 123.217 48.3399 123.24 48.3159C123.259 48.2932 123.285 48.2825 123.304 48.2585L123.475 48.0292C123.491 48.0065 123.496 47.9785 123.511 47.9545C123.527 47.9292 123.551 47.9132 123.565 47.8879L123.748 47.5439C123.769 47.5039 123.769 47.4599 123.785 47.4172C123.803 47.3772 123.832 47.3452 123.843 47.2999L123.912 47.0252C123.916 47.0052 123.911 46.9852 123.915 46.9652C123.917 46.9452 123.931 46.9292 123.935 46.9092L123.992 46.4945C123.996 46.4679 123.985 46.4452 123.987 46.4199C123.988 46.3945 124.003 46.3719 124.003 46.3479V41.0145V40.0719V38.7385V33.7959C124.003 33.7705 123.988 33.7479 123.987 33.7225" fill="#5C9999"/>
<path fill-rule="evenodd" clip-rule="evenodd" d="M38.9882 57.8878L38.5896 57.6558L37.3669 58.3784L36.3709 57.7998L35.8829 58.0878L36.8789 58.6664L35.6562 59.3891L36.0549 59.6211L37.2762 58.8984L38.2723 59.4771L38.7616 59.1891L37.7656 58.6091L38.9882 57.8878Z" fill="#5C9999"/>
<path fill-rule="evenodd" clip-rule="evenodd" d="M34.207 55.1104L33.8083 54.8784L32.5857 55.6011L31.591 55.0224L31.1017 55.3104L32.0977 55.8891L30.875 56.6118L31.2737 56.8438L32.4963 56.1211L33.4923 56.6998L33.9803 56.4118L32.9843 55.8318L34.207 55.1104Z" fill="#5C9999"/>
<path fill-rule="evenodd" clip-rule="evenodd" d="M48.5468 63.4424L48.1482 63.2104L46.9255 63.9331L45.9295 63.3544L45.4415 63.6424L46.4375 64.2211L45.2148 64.9438L45.6135 65.1758L46.8348 64.4531L47.8308 65.0318L48.3202 64.7438L47.3242 64.1638L48.5468 63.4424Z" fill="#5C9999"/>
<path fill-rule="evenodd" clip-rule="evenodd" d="M43.7656 60.6651L43.3669 60.4331L42.1456 61.1558L41.1496 60.5771L40.6603 60.8651L41.6563 61.4438L40.4336 62.1664L40.8323 62.3984L42.0549 61.6758L43.0509 62.2544L43.5389 61.9664L42.5429 61.3864L43.7656 60.6651Z" fill="#5C9999"/>
<path fill-rule="evenodd" clip-rule="evenodd" d="M58.1054 68.9971L57.7068 68.7651L56.4841 69.4878L55.4881 68.9091L55.0001 69.1971L55.9961 69.7758L54.7734 70.4985L55.1721 70.7305L56.3934 70.0078L57.3894 70.5865L57.8788 70.2985L56.8828 69.7185L58.1054 68.9971Z" fill="#5C9999"/>
<path fill-rule="evenodd" clip-rule="evenodd" d="M53.3242 66.2198L52.9255 65.9878L51.7042 66.7105L50.7082 66.1318L50.2189 66.4198L51.2149 66.9985L49.9922 67.7211L50.3909 67.9531L51.6135 67.2305L52.6095 67.8091L53.0975 67.5211L52.1015 66.9411L53.3242 66.2198Z" fill="#5C9999"/>
<path fill-rule="evenodd" clip-rule="evenodd" d="M44.8541 54.4215L44.4554 54.1908L43.2341 54.9121L42.2381 54.3348L41.7501 54.6228L42.7448 55.2015L41.5234 55.9228L41.9208 56.1548L43.1434 55.4335L44.1394 56.0108L44.6274 55.7228L43.6328 55.1441L44.8541 54.4215Z" fill="#5C9999"/>
<path fill-rule="evenodd" clip-rule="evenodd" d="M40.0742 51.6457L39.6755 51.4137L38.4529 52.135L37.4582 51.5577L36.9689 51.8457L37.9649 52.4244L36.7422 53.1457L37.1409 53.3777L38.3635 52.6564L39.3582 53.2337L39.8475 52.9457L38.8515 52.367L40.0742 51.6457Z" fill="#5C9999"/>
<path fill-rule="evenodd" clip-rule="evenodd" d="M54.4127 59.9761L54.014 59.7455L52.7927 60.4668L51.7967 59.8895L51.3087 60.1775L52.3034 60.7561L51.082 61.4775L51.4794 61.7095L52.702 60.9881L53.698 61.5655L54.186 61.2775L53.1914 60.6988L54.4127 59.9761Z" fill="#5C9999"/>
<path fill-rule="evenodd" clip-rule="evenodd" d="M49.6328 57.1988L49.2341 56.9681L48.0114 57.6895L47.0168 57.1121L46.5274 57.4001L47.5234 57.9788L46.3008 58.7001L46.6994 58.9321L47.9221 58.2108L48.9168 58.7881L49.4061 58.5001L48.4101 57.9215L49.6328 57.1988Z" fill="#5C9999"/>
<path fill-rule="evenodd" clip-rule="evenodd" d="M63.9713 65.5308L63.574 65.3002L62.3513 66.0215L61.3553 65.4442L60.8673 65.7322L61.862 66.3108L60.6406 67.0322L61.0393 67.2642L62.2606 66.5428L63.2566 67.1202L63.7446 66.8322L62.75 66.2535L63.9713 65.5308Z" fill="#5C9999"/>
<path fill-rule="evenodd" clip-rule="evenodd" d="M59.1914 62.7535L58.7927 62.5228L57.57 63.2441L56.5754 62.6668L56.086 62.9548L57.082 63.5335L55.8594 64.2548L56.258 64.4868L57.4807 63.7655L58.4754 64.3428L58.9647 64.0548L57.9687 63.4761L59.1914 62.7535Z" fill="#5C9999"/>
<path fill-rule="evenodd" clip-rule="evenodd" d="M50.7226 50.9569L50.324 50.7249L49.1013 51.4475L48.1066 50.8689L47.6173 51.1569L48.6133 51.7369L47.3906 52.4582L47.7893 52.6902L49.012 51.9675L50.008 52.5462L50.496 52.2582L49.5 51.6795L50.7226 50.9569Z" fill="#5C9999"/>
<path fill-rule="evenodd" clip-rule="evenodd" d="M45.9414 48.1795L45.5427 47.9475L44.32 48.6702L43.324 48.0915L42.836 48.3795L43.8307 48.9595L42.6094 49.6808L43.008 49.9128L44.2294 49.1902L45.2254 49.7688L45.7147 49.4808L44.7187 48.9022L45.9414 48.1795Z" fill="#5C9999"/>
<path fill-rule="evenodd" clip-rule="evenodd" d="M60.2812 56.5113L59.8826 56.2793L58.6612 57.002L57.6652 56.4233L57.1759 56.7113L58.1719 57.2913L56.9492 58.0126L57.3479 58.2446L58.5706 57.522L59.5666 58.1006L60.0546 57.8126L59.0586 57.2326L60.2812 56.5113Z" fill="#5C9999"/>
<path fill-rule="evenodd" clip-rule="evenodd" d="M55.5 53.7342L55.1013 53.5022L53.8786 54.2249L52.8826 53.6462L52.3946 53.9342L53.3906 54.5142L52.168 55.2355L52.5666 55.4675L53.788 54.7449L54.784 55.3235L55.2733 55.0355L54.2773 54.4569L55.5 53.7342Z" fill="#5C9999"/>
<path fill-rule="evenodd" clip-rule="evenodd" d="M69.8398 62.066L69.4411 61.834L68.2198 62.5566L67.2238 61.978L66.7345 62.266L67.7305 62.846L66.5078 63.5673L66.9065 63.7993L68.1291 63.0766L69.1251 63.6553L69.6131 63.3673L68.6171 62.7873L69.8398 62.066Z" fill="#5C9999"/>
<path fill-rule="evenodd" clip-rule="evenodd" d="M65.0586 59.2886L64.6599 59.0566L63.4372 59.7793L62.4412 59.2006L61.9532 59.4886L62.9492 60.0686L61.7266 60.79L62.1252 61.022L63.3466 60.2993L64.3426 60.878L64.8319 60.59L63.8359 60.01L65.0586 59.2886Z" fill="#37A0D9"/>
<path fill-rule="evenodd" clip-rule="evenodd" d="M56.5898 47.4921L56.1911 47.2601L54.9685 47.9815L53.9738 47.4041L53.4845 47.6921L54.4805 48.2708L53.2578 48.9935L53.6565 49.2241L54.8791 48.5028L55.8738 49.0801L56.3631 48.7921L55.3671 48.2135L56.5898 47.4921Z" fill="#5C9999"/>
<path fill-rule="evenodd" clip-rule="evenodd" d="M51.8072 44.7148L51.4086 44.4828L50.1872 45.2041L49.1912 44.6268L48.7032 44.9148L49.6979 45.4934L48.4766 46.2161L48.8739 46.4468L50.0966 45.7254L51.0926 46.3028L51.5806 46.0148L50.5859 45.4361L51.8072 44.7148Z" fill="#5C9999"/>
<path fill-rule="evenodd" clip-rule="evenodd" d="M66.1484 53.0466L65.7497 52.8146L64.5271 53.5359L63.5324 52.9586L63.0431 53.2466L64.0391 53.8252L62.8164 54.5479L63.2151 54.7786L64.4377 54.0572L65.4324 54.6346L65.9217 54.3466L64.9257 53.7679L66.1484 53.0466Z" fill="#5C9999"/>
<path fill-rule="evenodd" clip-rule="evenodd" d="M61.3658 50.2692L60.9672 50.0372L59.7458 50.7586L58.7498 50.1812L58.2618 50.4692L59.2565 51.0479L58.0352 51.7706L58.4325 52.0012L59.6552 51.2799L60.6512 51.8572L61.1392 51.5692L60.1445 50.9906L61.3658 50.2692Z" fill="#5C9999"/>
<path fill-rule="evenodd" clip-rule="evenodd" d="M75.707 58.6015L75.3083 58.3695L74.0857 59.0908L73.091 58.5135L72.6017 58.8015L73.5977 59.3802L72.375 60.1028L72.7737 60.3335L73.9963 59.6122L74.991 60.1895L75.4803 59.9015L74.4843 59.3228L75.707 58.6015Z" fill="#5C9999"/>
<path fill-rule="evenodd" clip-rule="evenodd" d="M70.9244 55.8239L70.5271 55.5919L69.3044 56.3132L68.3084 55.7359L67.8204 56.0239L68.8151 56.6026L67.5938 57.3252L67.9924 57.5559L69.2137 56.8346L70.2097 57.4119L70.6977 57.1239L69.7031 56.5452L70.9244 55.8239Z" fill="#5C9999"/>
<path fill-rule="evenodd" clip-rule="evenodd" d="M62.457 44.0259L62.0583 43.7939L60.8357 44.5166L59.8397 43.9379L59.3517 44.2259L60.3477 44.8059L59.125 45.5273L59.5237 45.7593L60.745 45.0366L61.741 45.6153L62.2303 45.3273L61.2343 44.7486L62.457 44.0259Z" fill="#5C9999"/>
<path fill-rule="evenodd" clip-rule="evenodd" d="M57.6757 41.2486L57.2771 41.0166L56.0544 41.7393L55.0598 41.1606L54.5704 41.4486L55.5664 42.0286L54.3438 42.7499L54.7424 42.9819L55.9651 42.2593L56.9611 42.8379L57.4491 42.5499L56.4531 41.9713L57.6757 41.2486Z" fill="#5C9999"/>
<path fill-rule="evenodd" clip-rule="evenodd" d="M72.0156 49.5804L71.6169 49.3484L70.3943 50.0711L69.3983 49.4924L68.9103 49.7804L69.9063 50.3604L68.6836 51.0817L69.0823 51.3137L70.3036 50.5911L71.2996 51.1697L71.7889 50.8817L70.7929 50.3031L72.0156 49.5804Z" fill="#5C9999"/>
<path fill-rule="evenodd" clip-rule="evenodd" d="M67.2343 46.8033L66.8357 46.5713L65.6143 47.294L64.6183 46.7153L64.129 47.0033L65.125 47.5833L63.9023 48.3046L64.301 48.5366L65.5237 47.814L66.5197 48.3926L67.0077 48.1046L66.0117 47.526L67.2343 46.8033Z" fill="#5C9999"/>
<path fill-rule="evenodd" clip-rule="evenodd" d="M81.5742 55.1351L81.1755 54.9031L79.9529 55.6257L78.9569 55.0471L78.4689 55.3351L79.4649 55.9151L78.2422 56.6364L78.6409 56.8684L79.8622 56.1457L80.8582 56.7244L81.3475 56.4364L80.3515 55.8577L81.5742 55.1351Z" fill="#5C9999"/>
<path fill-rule="evenodd" clip-rule="evenodd" d="M76.7929 52.3577L76.3943 52.1257L75.1729 52.8484L74.1769 52.2697L73.6876 52.5577L74.6836 53.1377L73.4609 53.8591L73.8596 54.0911L75.0823 53.3684L76.0783 53.9471L76.5663 53.6591L75.5703 53.0804L76.7929 52.3577Z" fill="#5C9999"/>
<path fill-rule="evenodd" clip-rule="evenodd" d="M68.3229 40.561L67.9242 40.329L66.7029 41.0503L65.7069 40.473L65.2189 40.761L66.2135 41.3396L64.9922 42.0623L65.3895 42.293L66.6122 41.5716L67.6082 42.149L68.0962 41.861L67.1015 41.2823L68.3229 40.561Z" fill="#5C9999"/>
<path fill-rule="evenodd" clip-rule="evenodd" d="M63.5429 37.7836L63.1443 37.5516L61.9216 38.273L60.9269 37.6956L60.4376 37.9836L61.4336 38.5623L60.2109 39.285L60.6096 39.5156L61.8323 38.7943L62.8269 39.3716L63.3163 39.0836L62.3203 38.505L63.5429 37.7836Z" fill="#5C9999"/>
<path fill-rule="evenodd" clip-rule="evenodd" d="M77.8814 46.1157L77.4841 45.8837L76.2614 46.605L75.2654 46.0277L74.7774 46.3157L75.7721 46.8943L74.5508 47.617L74.9494 47.8477L76.1708 47.1263L77.1668 47.7037L77.6548 47.4157L76.6601 46.837L77.8814 46.1157Z" fill="#5C9999"/>
<path fill-rule="evenodd" clip-rule="evenodd" d="M73.1015 43.3383L72.7029 43.1063L71.4802 43.8276L70.4855 43.2503L69.9962 43.5383L70.9922 44.117L69.7695 44.8396L70.1682 45.0703L71.3909 44.349L72.3855 44.9263L72.8749 44.6383L71.8789 44.0596L73.1015 43.3383Z" fill="#5C9999"/>
<path fill-rule="evenodd" clip-rule="evenodd" d="M87.44 51.6703L87.0427 51.4383L85.82 52.1597L84.824 51.5823L84.336 51.8703L85.3307 52.449L84.1094 53.1717L84.508 53.4023L85.7294 52.681L86.7254 53.2583L87.2134 52.9703L86.2187 52.3917L87.44 51.6703Z" fill="#5C9999"/>
<path fill-rule="evenodd" clip-rule="evenodd" d="M82.6601 48.893L82.2615 48.661L81.0388 49.3823L80.0441 48.805L79.5548 49.093L80.5508 49.6717L79.3281 50.3943L79.7268 50.625L80.9495 49.9037L81.9441 50.481L82.4335 50.193L81.4375 49.6143L82.6601 48.893Z" fill="#5C9999"/>
<path fill-rule="evenodd" clip-rule="evenodd" d="M74.1875 37.0948L73.7888 36.8628L72.5675 37.5855L71.5715 37.0081L71.0821 37.2948L72.0781 37.8748L70.8555 38.5961L71.2541 38.8281L72.4768 38.1055L73.4728 38.6841L73.9608 38.3961L72.9648 37.8175L74.1875 37.0948Z" fill="#5C9999"/>
<path fill-rule="evenodd" clip-rule="evenodd" d="M69.4101 34.3174L69.0115 34.0854L67.7888 34.8081L66.7928 34.2308L66.3048 34.5174L67.2995 35.0974L66.0781 35.8188L66.4768 36.0508L67.6981 35.3281L68.6941 35.9068L69.1835 35.6188L68.1875 35.0401L69.4101 34.3174Z" fill="#5C9999"/>
<path fill-rule="evenodd" clip-rule="evenodd" d="M29.4297 52.3331L29.031 52.1011L27.8083 52.8237L26.8123 52.2451L26.3243 52.5331L27.319 53.1117L26.0977 53.8344L26.4963 54.0664L27.7177 53.3437L28.7137 53.9224L29.203 53.6344L28.207 53.0544L29.4297 52.3331Z" fill="#5C9999"/>
<path fill-rule="evenodd" clip-rule="evenodd" d="M24.6484 49.5557L24.2497 49.3237L23.0271 50.0464L22.0324 49.4677L21.5431 49.7557L22.5391 50.3344L21.3164 51.0571L21.7151 51.2891L22.9377 50.5664L23.9337 51.1451L24.4217 50.8571L23.4257 50.2771L24.6484 49.5557Z" fill="#5C9999"/>
<path fill-rule="evenodd" clip-rule="evenodd" d="M35.2955 48.8683L34.8968 48.6363L33.6755 49.3577L32.6795 48.7803L32.1915 49.0683L33.1862 49.647L31.9648 50.3683L32.3622 50.6003L33.5848 49.879L34.5808 50.4563L35.0688 50.1683L34.0742 49.5897L35.2955 48.8683Z" fill="#5C9999"/>
<path fill-rule="evenodd" clip-rule="evenodd" d="M30.5156 46.0908L30.1169 45.8588L28.8943 46.5801L27.8983 46.0028L27.4103 46.2908L28.4063 46.8694L27.1836 47.5908L27.5823 47.8228L28.8049 47.1014L29.7996 47.6788L30.2889 47.3908L29.2929 46.8121L30.5156 46.0908Z" fill="#5C9999"/>
<path fill-rule="evenodd" clip-rule="evenodd" d="M41.164 45.4019L40.7654 45.1699L39.5427 45.8926L38.548 45.3139L38.0587 45.6019L39.0547 46.1819L37.832 46.9033L38.2307 47.1353L39.4534 46.4126L40.4494 46.9913L40.9374 46.7033L39.9414 46.1246L41.164 45.4019Z" fill="#5C9999"/>
<path fill-rule="evenodd" clip-rule="evenodd" d="M36.3814 42.6246L35.9841 42.3926L34.7614 43.1152L33.7654 42.5366L33.2774 42.8246L34.2721 43.4046L33.0508 44.1259L33.4494 44.3579L34.6708 43.6352L35.6668 44.2139L36.1548 43.9259L35.1601 43.3472L36.3814 42.6246Z" fill="#5C9999"/>
<path fill-rule="evenodd" clip-rule="evenodd" d="M47.0312 41.9374L46.6326 41.7054L45.4099 42.4268L44.4152 41.8494L43.9259 42.1374L44.9219 42.7161L43.6992 43.4388L44.0979 43.6694L45.3206 42.9481L46.3152 43.5254L46.8046 43.2374L45.8086 42.6588L47.0312 41.9374Z" fill="#5C9999"/>
<path fill-rule="evenodd" clip-rule="evenodd" d="M42.25 39.1601L41.8513 38.9281L40.63 39.6494L39.634 39.0721L39.1446 39.3601L40.1406 39.9388L38.918 40.6614L39.3166 40.8921L40.5393 40.1708L41.5353 40.7481L42.0233 40.4601L41.0286 39.8814L42.25 39.1601Z" fill="#5C9999"/>
<path fill-rule="evenodd" clip-rule="evenodd" d="M52.8984 38.4713L52.4997 38.2393L51.2771 38.9619L50.2811 38.3833L49.7931 38.6713L50.7877 39.2513L49.5664 39.9726L49.9651 40.2046L51.1864 39.4819L52.1824 40.0606L52.6717 39.7726L51.6757 39.1939L52.8984 38.4713Z" fill="#5C9999"/>
<path fill-rule="evenodd" clip-rule="evenodd" d="M48.1172 35.6939L47.7185 35.4619L46.4958 36.1846L45.5012 35.6059L45.0118 35.8939L46.0078 36.4739L44.7852 37.1952L45.1838 37.4272L46.4065 36.7046L47.4025 37.2832L47.8905 36.9952L46.8945 36.4166L48.1172 35.6939Z" fill="#5C9999"/>
<path fill-rule="evenodd" clip-rule="evenodd" d="M58.7643 35.0063L58.3656 34.7743L57.1443 35.4956L56.1483 34.9183L55.6603 35.2063L56.6549 35.7849L55.4336 36.5076L55.8309 36.7383L57.0536 36.0169L58.0496 36.5943L58.5376 36.3063L57.5429 35.7276L58.7643 35.0063Z" fill="#5C9999"/>
<path fill-rule="evenodd" clip-rule="evenodd" d="M53.9843 32.2289L53.5857 31.9969L52.363 32.7183L51.367 32.1409L50.879 32.4289L51.875 33.0076L50.6523 33.7303L51.051 33.9609L52.2737 33.2396L53.2683 33.8169L53.7577 33.5289L52.7617 32.9503L53.9843 32.2289Z" fill="#5C9999"/>
<path fill-rule="evenodd" clip-rule="evenodd" d="M64.6289 31.5401L64.2302 31.3081L63.0075 32.0308L62.0129 31.4534L61.5235 31.7401L62.5195 32.3201L61.2969 33.0414L61.6955 33.2734L62.9182 32.5508L63.9142 33.1294L64.4022 32.8414L63.4062 32.2628L64.6289 31.5401Z" fill="#5C9999"/>
<path fill-rule="evenodd" clip-rule="evenodd" d="M59.8515 28.7628L59.4529 28.5308L58.2302 29.2534L57.2342 28.6761L56.7462 28.9628L57.7409 29.5428L56.5195 30.2641L56.9182 30.4961L58.1395 29.7734L59.1355 30.3521L59.6235 30.0641L58.6289 29.4854L59.8515 28.7628Z" fill="#5C9999"/>
<path fill-rule="evenodd" clip-rule="evenodd" d="M83.7461 42.6495L83.3474 42.4175L82.1261 43.1401L81.1301 42.5628L80.6407 42.8495L81.6367 43.4295L80.4141 44.1508L80.8127 44.3828L82.0354 43.6601L83.0314 44.2388L83.5194 43.9508L82.5234 43.3721L83.7461 42.6495Z" fill="#5C9999"/>
<path fill-rule="evenodd" clip-rule="evenodd" d="M78.9687 39.8721L78.5701 39.6401L77.3474 40.3628L76.3514 39.7855L75.8634 40.0721L76.8594 40.6521L75.6367 41.3735L76.0354 41.6055L77.2567 40.8828L78.2527 41.4615L78.7421 41.1735L77.7461 40.5948L78.9687 39.8721Z" fill="#5C9999"/>
<path fill-rule="evenodd" clip-rule="evenodd" d="M93.3047 48.2042L92.906 47.9722L91.6847 48.6948L90.6887 48.1175L90.1993 48.4042L91.1953 48.9842L89.9727 49.7055L90.3713 49.9375L91.594 49.2148L92.59 49.7935L93.078 49.5055L92.082 48.9268L93.3047 48.2042Z" fill="#5C9999"/>
<path fill-rule="evenodd" clip-rule="evenodd" d="M88.5273 45.4268L88.1286 45.1948L86.906 45.9175L85.91 45.3402L85.422 45.6268L86.418 46.2068L85.1953 46.9282L85.594 47.1602L86.8153 46.4375L87.8113 47.0162L88.3006 46.7282L87.3046 46.1495L88.5273 45.4268Z" fill="#5C9999"/>
<path fill-rule="evenodd" clip-rule="evenodd" d="M80.0547 33.6298L79.656 33.3978L78.4333 34.1191L77.4387 33.5418L76.9493 33.8298L77.9453 34.4085L76.7227 35.1311L77.1213 35.3618L78.344 34.6405L79.3387 35.2178L79.828 34.9311L78.832 34.3511L80.0547 33.6298Z" fill="#5C9999"/>
<path fill-rule="evenodd" clip-rule="evenodd" d="M75.276 30.8525L74.8773 30.6205L73.656 31.3418L72.66 30.7645L72.172 31.0525L73.1666 31.6311L71.9453 32.3538L72.3426 32.5845L73.5653 31.8631L74.5613 32.4405L75.0493 32.1538L74.0546 31.5738L75.276 30.8525Z" fill="#5C9999"/>
<path fill-rule="evenodd" clip-rule="evenodd" d="M89.6132 39.1847L89.2146 38.9527L87.9919 39.6741L86.9973 39.0967L86.5079 39.3847L87.5039 39.9634L86.2812 40.6861L86.6799 40.9167L87.9026 40.1954L88.8973 40.7727L89.3866 40.4861L88.3906 39.9061L89.6132 39.1847Z" fill="#5C9999"/>
<path fill-rule="evenodd" clip-rule="evenodd" d="M84.8346 36.4072L84.4359 36.1752L83.2146 36.8965L82.2186 36.3192L81.7306 36.6072L82.7252 37.1858L81.5039 37.9085L81.9012 38.1392L83.1239 37.4178L84.1199 37.9952L84.6079 37.7085L83.6132 37.1285L84.8346 36.4072Z" fill="#5C9999"/>
<path fill-rule="evenodd" clip-rule="evenodd" d="M99.1718 44.7392L98.7732 44.5072L97.5505 45.2285L96.5558 44.6512L96.0665 44.9392L97.0625 45.5179L95.8398 46.2405L96.2385 46.4712L97.4612 45.7499L98.4558 46.3272L98.9452 46.0405L97.9492 45.4605L99.1718 44.7392Z" fill="#5C9999"/>
<path fill-rule="evenodd" clip-rule="evenodd" d="M94.3932 41.9621L93.9958 41.7301L92.7732 42.4514L91.7772 41.8741L91.2892 42.1621L92.2838 42.7408L91.0625 43.4634L91.4612 43.6941L92.6825 42.9728L93.6785 43.5501L94.1665 43.2634L93.1718 42.6834L94.3932 41.9621Z" fill="#5C9999"/>
<path fill-rule="evenodd" clip-rule="evenodd" d="M85.9218 30.1636L85.5232 29.9316L84.3005 30.6543L83.3045 30.077L82.8165 30.3636L83.8125 30.9436L82.5898 31.665L82.9885 31.897L84.2098 31.1756L85.2058 31.753L85.6952 31.465L84.6992 30.8863L85.9218 30.1636Z" fill="#5C9999"/>
<path fill-rule="evenodd" clip-rule="evenodd" d="M81.1445 27.3863L80.7458 27.1543L79.5232 27.877L78.5285 27.2996L78.0392 27.5863L79.0352 28.1663L77.8125 28.8876L78.2112 29.1196L79.4338 28.3983L80.4298 28.9756L80.9178 28.6876L79.9218 28.109L81.1445 27.3863Z" fill="#5C9999"/>
<path fill-rule="evenodd" clip-rule="evenodd" d="M95.4804 35.7183L95.0818 35.4863L93.8591 36.209L92.8631 35.6317L92.3751 35.9183L93.3711 36.4983L92.1484 37.2197L92.5471 37.4517L93.7684 36.729L94.7644 37.3077L95.2538 37.0197L94.2578 36.441L95.4804 35.7183Z" fill="#5C9999"/>
<path fill-rule="evenodd" clip-rule="evenodd" d="M90.7031 32.941L90.3044 32.709L89.0831 33.4316L88.0871 32.8543L87.5978 33.141L88.5938 33.721L87.3711 34.4423L87.7698 34.6743L88.9924 33.9516L89.9884 34.5303L90.4764 34.2423L89.4804 33.6636L90.7031 32.941Z" fill="#5C9999"/>
<path fill-rule="evenodd" clip-rule="evenodd" d="M105.039 41.2733L104.64 41.0413L103.418 41.7639L102.422 41.1866L101.934 41.4733L102.93 42.0533L101.707 42.7746L102.106 43.0066L103.328 42.2839L104.323 42.8626L104.812 42.5746L103.816 41.9959L105.039 41.2733Z" fill="#5C9999"/>
<path fill-rule="evenodd" clip-rule="evenodd" d="M100.262 38.4959L99.863 38.2639L98.6417 38.9866L97.6457 38.4092L97.1564 38.6959L98.1524 39.2759L96.9297 39.9972L97.3284 40.2292L98.551 39.5066L99.547 40.0852L100.035 39.7972L99.039 39.2186L100.262 38.4959Z" fill="#5C9999"/>
<path fill-rule="evenodd" clip-rule="evenodd" d="M91.7877 26.6988L91.389 26.4668L90.1677 27.1881L89.1717 26.6108L88.6837 26.8988L89.6784 27.4775L88.457 28.2001L88.8544 28.4321L90.077 27.7095L91.073 28.2868L91.561 28.0001L90.5664 27.4201L91.7877 26.6988Z" fill="#5C9999"/>
<path fill-rule="evenodd" clip-rule="evenodd" d="M87.0117 23.9215L86.613 23.6895L85.3904 24.4121L84.3957 23.8335L83.9064 24.1215L84.9024 24.7001L83.6797 25.4228L84.0784 25.6548L85.301 24.9321L86.2957 25.5095L86.785 25.2228L85.789 24.6428L87.0117 23.9215Z" fill="#5C9999"/>
<path fill-rule="evenodd" clip-rule="evenodd" d="M101.346 32.2535L100.949 32.0215L99.7263 32.7428L98.7303 32.1655L98.2423 32.4535L99.237 33.0321L98.0156 33.7548L98.4143 33.9868L99.6356 33.2641L100.632 33.8415L101.12 33.5548L100.125 32.9748L101.346 32.2535Z" fill="#5C9999"/>
<path fill-rule="evenodd" clip-rule="evenodd" d="M96.5703 29.4761L96.1716 29.2441L94.9489 29.9655L93.9543 29.3881L93.4649 29.6761L94.4609 30.2548L93.2383 30.9775L93.6369 31.2095L94.8596 30.4868L95.8543 31.0641L96.3436 30.7775L95.3476 30.1975L96.5703 29.4761Z" fill="#5C9999"/>
<path fill-rule="evenodd" clip-rule="evenodd" d="M110.905 37.8083L110.508 37.5763L109.285 38.2976L108.289 37.7203L107.801 38.0083L108.796 38.5869L107.574 39.3096L107.973 39.5403L109.194 38.8189L110.19 39.3963L110.678 39.1096L109.684 38.5296L110.905 37.8083Z" fill="#5C9999"/>
<path fill-rule="evenodd" clip-rule="evenodd" d="M106.129 35.0308L105.73 34.7988L104.508 35.5202L103.513 34.9428L103.024 35.2308L104.02 35.8095L102.797 36.5322L103.196 36.7642L104.418 36.0415L105.413 36.6188L105.902 36.3322L104.906 35.7522L106.129 35.0308Z" fill="#5C9999"/>
<path fill-rule="evenodd" clip-rule="evenodd" d="M97.6562 23.233L97.2576 23.0023L96.0362 23.7236L95.0402 23.1463L94.5509 23.433L95.5469 24.013L94.3242 24.7343L94.7229 24.9663L95.9456 24.245L96.9416 24.8223L97.4296 24.5343L96.4336 23.9556L97.6562 23.233Z" fill="#37A0D9"/>
<path fill-rule="evenodd" clip-rule="evenodd" d="M92.8789 20.4556L92.4802 20.225L91.2575 20.9463L90.2615 20.369L89.7735 20.6556L90.7695 21.2356L89.5469 21.957L89.9455 22.189L91.1669 21.4676L92.1629 22.045L92.6522 21.757L91.6562 21.1783L92.8789 20.4556Z" fill="#5C9999"/>
<path fill-rule="evenodd" clip-rule="evenodd" d="M70.4961 28.0751L70.0974 27.8431L68.8747 28.5645L67.8801 27.9871L67.3907 28.2751L68.3867 28.8538L67.1641 29.5765L67.5627 29.8071L68.7854 29.0858L69.7801 29.6631L70.2694 29.3765L69.2734 28.7965L70.4961 28.0751Z" fill="#5C9999"/>
<path fill-rule="evenodd" clip-rule="evenodd" d="M65.7174 25.2978L65.3187 25.0658L64.0974 25.7871L63.1014 25.2098L62.6134 25.4978L63.6081 26.0765L62.3867 26.7991L62.7841 27.0298L64.0067 26.3085L65.0027 26.8858L65.4907 26.5991L64.4961 26.0191L65.7174 25.2978Z" fill="#5C9999"/>
<path fill-rule="evenodd" clip-rule="evenodd" d="M76.3632 24.609L75.9646 24.377L74.7419 25.0996L73.7459 24.5223L73.2579 24.809L74.2526 25.389L73.0312 26.1103L73.4299 26.3423L74.6512 25.621L75.6473 26.1983L76.1366 25.9103L75.1406 25.3316L76.3632 24.609Z" fill="#5C9999"/>
<path fill-rule="evenodd" clip-rule="evenodd" d="M71.5859 21.8316L71.1872 21.6009L69.9646 22.3223L68.9699 21.7449L68.4806 22.0316L69.4766 22.6116L68.2539 23.3329L68.6526 23.5649L69.8752 22.8436L70.8712 23.4209L71.3592 23.1329L70.3632 22.5543L71.5859 21.8316Z" fill="#5C9999"/>
<path fill-rule="evenodd" clip-rule="evenodd" d="M82.2291 21.1441L81.8304 20.9121L80.6091 21.6348L79.6131 21.0561L79.1251 21.3441L80.1198 21.9228L78.8984 22.6454L79.2958 22.8774L80.5184 22.1548L81.5144 22.7321L82.0024 22.4454L81.0078 21.8654L82.2291 21.1441Z" fill="#37A0D9"/>
<path fill-rule="evenodd" clip-rule="evenodd" d="M77.4531 18.3668L77.0544 18.1348L75.8318 18.8574L74.8358 18.2788L74.3478 18.5668L75.3438 19.1454L74.1211 19.8681L74.5198 20.1001L75.7424 19.3774L76.7371 19.9548L77.2264 19.6681L76.2304 19.0881L77.4531 18.3668Z" fill="#5C9999"/>
<path fill-rule="evenodd" clip-rule="evenodd" d="M88.0976 17.6783L87.699 17.4476L86.4763 18.169L85.4816 17.5916L84.9923 17.8783L85.9883 18.4583L84.7656 19.1796L85.1643 19.4116L86.387 18.6903L87.383 19.2676L87.871 18.9796L86.875 18.401L88.0976 17.6783Z" fill="#37A0D9"/>
<path fill-rule="evenodd" clip-rule="evenodd" d="M83.3203 14.9009L82.9216 14.6703L81.6989 15.3916L80.7029 14.8143L80.2149 15.1009L81.2096 15.6809L79.9883 16.4023L80.3869 16.6343L81.6083 15.9129L82.6043 16.4903L83.0936 16.2023L82.0976 15.6236L83.3203 14.9009Z" fill="#5C9999"/>
<path fill-rule="evenodd" clip-rule="evenodd" d="M19.8697 46.7784L19.4724 46.5464L18.2497 47.2691L17.2537 46.6904L16.7657 46.9784L17.7604 47.5571L16.5391 48.2797L16.9377 48.5117L18.1591 47.7891L19.1551 48.3677L19.6431 48.0797L18.6484 47.4997L19.8697 46.7784Z" fill="#5C9999"/>
<path fill-rule="evenodd" clip-rule="evenodd" d="M15.0898 44.001L14.6911 43.769L13.4685 44.4917L12.4738 43.913L11.9845 44.201L12.9805 44.7797L11.7578 45.5024L12.1565 45.7344L13.3791 45.0117L14.3738 45.5904L14.8631 45.3024L13.8671 44.7224L15.0898 44.001Z" fill="#5C9999"/>
<path fill-rule="evenodd" clip-rule="evenodd" d="M25.7382 43.3134L25.3396 43.0814L24.1182 43.8027L23.1223 43.2254L22.6329 43.5134L23.6289 44.0921L22.4062 44.8134L22.8049 45.0454L24.0276 44.3241L25.0236 44.9014L25.5116 44.6134L24.5169 44.0347L25.7382 43.3134Z" fill="#5C9999"/>
<path fill-rule="evenodd" clip-rule="evenodd" d="M20.957 40.5361L20.5583 40.3041L19.3357 41.0254L18.3397 40.4481L17.8517 40.7361L18.8477 41.3147L17.625 42.0361L18.0237 42.2681L19.2463 41.5467L20.241 42.1241L20.7303 41.8361L19.7343 41.2574L20.957 40.5361Z" fill="#5C9999"/>
<path fill-rule="evenodd" clip-rule="evenodd" d="M31.6054 39.8472L31.2068 39.6152L29.9841 40.3379L28.9894 39.7592L28.5001 40.0472L29.4961 40.6272L28.2734 41.3486L28.6721 41.5806L29.8948 40.8579L30.8894 41.4366L31.3788 41.1486L30.3828 40.5699L31.6054 39.8472Z" fill="#5C9999"/>
<path fill-rule="evenodd" clip-rule="evenodd" d="M26.8229 37.0699L26.4255 36.8379L25.2029 37.5606L24.2069 36.9819L23.7189 37.2699L24.7135 37.8499L23.4922 38.5712L23.8909 38.8032L25.1122 38.0806L26.1082 38.6592L26.5962 38.3712L25.6015 37.7926L26.8229 37.0699Z" fill="#5C9999"/>
<path fill-rule="evenodd" clip-rule="evenodd" d="M37.4726 36.3827L37.074 36.1507L35.8513 36.8721L34.8553 36.2947L34.3673 36.5827L35.3633 37.1614L34.1406 37.8841L34.5393 38.1147L35.762 37.3934L36.7566 37.9707L37.246 37.6827L36.25 37.1041L37.4726 36.3827Z" fill="#5C9999"/>
<path fill-rule="evenodd" clip-rule="evenodd" d="M32.6914 33.6054L32.2927 33.3734L31.0714 34.0947L30.0754 33.5174L29.586 33.8054L30.582 34.3841L29.3594 35.1067L29.758 35.3374L30.9807 34.6161L31.9767 35.1934L32.4647 34.9054L31.4687 34.3267L32.6914 33.6054Z" fill="#5C9999"/>
<path fill-rule="evenodd" clip-rule="evenodd" d="M43.3385 32.9166L42.9411 32.6846L41.7185 33.4072L40.7225 32.8286L40.2345 33.1166L41.2291 33.6966L40.0078 34.4179L40.4065 34.6499L41.6278 33.9272L42.6238 34.5059L43.1118 34.2179L42.1171 33.6392L43.3385 32.9166Z" fill="#5C9999"/>
<path fill-rule="evenodd" clip-rule="evenodd" d="M38.5586 30.1392L38.1599 29.9072L36.9372 30.6299L35.9426 30.0512L35.4532 30.3392L36.4492 30.9192L35.2266 31.6406L35.6252 31.8726L36.8479 31.1499L37.8426 31.7286L38.3319 31.4406L37.3359 30.8619L38.5586 30.1392Z" fill="#5C9999"/>
<path fill-rule="evenodd" clip-rule="evenodd" d="M49.2031 29.4516L48.8044 29.2196L47.5831 29.9409L46.5871 29.3636L46.0978 29.6516L47.0938 30.2303L45.8711 30.9529L46.2698 31.1836L47.4924 30.4623L48.4884 31.0396L48.9764 30.7516L47.9818 30.1729L49.2031 29.4516Z" fill="#5C9999"/>
<path fill-rule="evenodd" clip-rule="evenodd" d="M44.4257 26.6743L44.0271 26.4423L42.8044 27.1636L41.8084 26.5863L41.3204 26.8743L42.3164 27.4529L41.0938 28.1756L41.4924 28.4062L42.7151 27.6849L43.7098 28.2622L44.1991 27.9743L43.2031 27.3956L44.4257 26.6743Z" fill="#5C9999"/>
<path fill-rule="evenodd" clip-rule="evenodd" d="M55.0703 25.9854L54.6716 25.7534L53.4489 26.4761L52.4543 25.8988L51.9649 26.1854L52.9609 26.7654L51.7383 27.4868L52.1369 27.7188L53.3596 26.9961L54.3543 27.5748L54.8436 27.2868L53.8476 26.7081L55.0703 25.9854Z" fill="#5C9999"/>
<path fill-rule="evenodd" clip-rule="evenodd" d="M50.2916 23.2081L49.8943 22.9761L48.6716 23.6987L47.6756 23.1214L47.1876 23.4081L48.1823 23.9881L46.9609 24.7094L47.3596 24.9414L48.5809 24.2187L49.5769 24.7974L50.0649 24.5094L49.0703 23.9307L50.2916 23.2081Z" fill="#5C9999"/>
<path fill-rule="evenodd" clip-rule="evenodd" d="M10.3111 41.2237L9.9138 40.9917L8.69114 41.7144L7.69514 41.1357L7.20714 41.4237L8.2018 42.0024L6.98047 42.725L7.37914 42.957L8.60047 42.2344L9.59647 42.813L10.0845 42.525L9.0898 41.945L10.3111 41.2237Z" fill="#5C9999"/>
<path fill-rule="evenodd" clip-rule="evenodd" d="M16.1797 37.7587L15.781 37.5267L14.5597 38.2481L13.5637 37.6707L13.0743 37.9587L14.0703 38.5374L12.8477 39.2587L13.2463 39.4907L14.469 38.7694L15.465 39.3467L15.953 39.0587L14.957 38.4801L16.1797 37.7587Z" fill="#5C9999"/>
<path fill-rule="evenodd" clip-rule="evenodd" d="M22.0468 34.2925L21.6482 34.0605L20.4255 34.7832L19.4308 34.2045L18.9415 34.4925L19.9375 35.0725L18.7148 35.7939L19.1135 36.0259L20.3362 35.3032L21.3308 35.8819L21.8202 35.5939L20.8242 35.0152L22.0468 34.2925Z" fill="#5C9999"/>
<path fill-rule="evenodd" clip-rule="evenodd" d="M27.914 30.8281L27.5154 30.5961L26.2927 31.3174L25.2967 30.7401L24.8087 31.0281L25.8047 31.6067L24.582 32.3294L24.9807 32.5601L26.202 31.8387L27.198 32.4161L27.6874 32.1281L26.6914 31.5494L27.914 30.8281Z" fill="#5C9999"/>
<path fill-rule="evenodd" clip-rule="evenodd" d="M33.7799 27.3619L33.3826 27.1299L32.1599 27.8525L31.1639 27.2739L30.6759 27.5619L31.6706 28.1419L30.4492 28.8632L30.8479 29.0952L32.0692 28.3725L33.0652 28.9512L33.5532 28.6632L32.5586 28.0845L33.7799 27.3619Z" fill="#5C9999"/>
<path fill-rule="evenodd" clip-rule="evenodd" d="M39.6445 23.8969L39.2458 23.6649L38.0245 24.3862L37.0285 23.8089L36.5392 24.0969L37.5352 24.6756L36.3125 25.3982L36.7112 25.6289L37.9338 24.9076L38.9298 25.4849L39.4178 25.1982L38.4218 24.6182L39.6445 23.8969Z" fill="#5C9999"/>
<path fill-rule="evenodd" clip-rule="evenodd" d="M45.5117 20.4307L45.113 20.1987L43.8904 20.9214L42.8957 20.3441L42.4064 20.6307L43.4024 21.2107L42.1797 21.9321L42.5784 22.1641L43.801 21.4414L44.7957 22.0201L45.285 21.7321L44.289 21.1534L45.5117 20.4307Z" fill="#5C9999"/>
<path fill-rule="evenodd" clip-rule="evenodd" d="M60.9375 22.5204L60.5388 22.2884L59.3161 23.0098L58.3201 22.4324L57.8321 22.7204L58.8281 23.2991L57.6055 24.0218L58.0041 24.2524L59.2268 23.5311L60.2215 24.1084L60.7108 23.8218L59.7148 23.2418L60.9375 22.5204Z" fill="#5C9999"/>
<path fill-rule="evenodd" clip-rule="evenodd" d="M56.1601 19.7431L55.7615 19.5111L54.5401 20.2324L53.5441 19.6551L53.0548 19.9431L54.0508 20.5218L52.8281 21.2444L53.2268 21.4751L54.4495 20.7538L55.4455 21.3311L55.9335 21.0444L54.9388 20.4644L56.1601 19.7431Z" fill="#5C9999"/>
<path fill-rule="evenodd" clip-rule="evenodd" d="M66.8033 19.0543L66.406 18.8236L65.1833 19.5449L64.1873 18.9676L63.6993 19.2543L64.694 19.8343L63.4727 20.5556L63.8713 20.7876L65.0927 20.0663L66.0887 20.6436L66.5767 20.3556L65.582 19.7769L66.8033 19.0543Z" fill="#5C9999"/>
<path fill-rule="evenodd" clip-rule="evenodd" d="M62.0273 16.2769L61.6286 16.0463L60.406 16.7676L59.4113 16.1903L58.922 16.4769L59.918 17.0569L58.6953 17.7783L59.094 18.0103L60.3166 17.2889L61.3113 17.8663L61.8006 17.5783L60.8046 16.9996L62.0273 16.2769Z" fill="#5C9999"/>
<path fill-rule="evenodd" clip-rule="evenodd" d="M72.6718 15.5897L72.2732 15.3577L71.0518 16.0803L70.0558 15.5017L69.5665 15.7897L70.5625 16.3683L69.3398 17.091L69.7385 17.323L70.9612 16.6003L71.9572 17.1777L72.4452 16.891L71.4505 16.311L72.6718 15.5897Z" fill="#37A0D9"/>
<path fill-rule="evenodd" clip-rule="evenodd" d="M67.8945 12.8123L67.4958 12.5803L66.2732 13.303L65.2772 12.7243L64.7892 13.0123L65.7852 13.591L64.5625 14.3137L64.9612 14.5457L66.1838 13.823L67.1785 14.4003L67.6678 14.1137L66.6718 13.5337L67.8945 12.8123Z" fill="#5C9999"/>
<path fill-rule="evenodd" clip-rule="evenodd" d="M78.539 12.1236L78.1404 11.8929L76.9177 12.6143L75.923 12.0369L75.4337 12.3236L76.4297 12.9036L75.207 13.6249L75.6057 13.8569L76.8284 13.1356L77.8244 13.7129L78.3124 13.4249L77.3164 12.8463L78.539 12.1236Z" fill="#37A0D9"/>
<path fill-rule="evenodd" clip-rule="evenodd" d="M73.7604 9.34626L73.363 9.11559L72.1404 9.83692L71.1444 9.25959L70.6564 9.54626L71.651 10.1263L70.4297 10.8476L70.8284 11.0796L72.0497 10.3583L73.0457 10.9356L73.5337 10.6476L72.539 10.0689L73.7604 9.34626Z" fill="#5C9999"/>
<path fill-rule="evenodd" clip-rule="evenodd" d="M51.3789 16.9658L50.9802 16.7338L49.7575 17.4551L48.7615 16.8778L48.2735 17.1658L49.2695 17.7444L48.0469 18.4671L48.4455 18.6978L49.6682 17.9764L50.6629 18.5538L51.1522 18.2671L50.1562 17.6871L51.3789 16.9658Z" fill="#5C9999"/>
<path fill-rule="evenodd" clip-rule="evenodd" d="M57.2447 13.4996L56.8474 13.2689L55.6247 13.9902L54.6287 13.4129L54.1407 13.6996L55.1354 14.2796L53.9141 15.0009L54.3127 15.2329L55.5341 14.5116L56.5301 15.0889L57.0181 14.8009L56.0234 14.2222L57.2447 13.4996Z" fill="#5C9999"/>
<path fill-rule="evenodd" clip-rule="evenodd" d="M63.1132 10.035L62.7146 9.80298L61.4932 10.5256L60.4973 9.94698L60.0079 10.235L61.0039 10.8136L59.7812 11.5363L60.1799 11.7683L61.4026 11.0456L62.3986 11.623L62.8866 11.3363L61.8906 10.7563L63.1132 10.035Z" fill="#5C9999"/>
<path fill-rule="evenodd" clip-rule="evenodd" d="M68.9804 6.56867L68.5818 6.338L67.3591 7.05934L66.3644 6.482L65.8751 6.76867L66.8711 7.34867L65.6484 8.07L66.0471 8.302L67.2698 7.58067L68.2644 8.158L68.7538 7.87L67.7578 7.29134L68.9804 6.56867Z" fill="#5C9999"/>
<path fill-rule="evenodd" clip-rule="evenodd" d="M107.215 28.7877L106.816 28.557L105.595 29.2783L104.599 28.701L104.109 28.9877L105.105 29.5677L103.883 30.289L104.281 30.521L105.504 29.7997L106.5 30.377L106.988 30.089L105.992 29.5103L107.215 28.7877Z" fill="#5C9999"/>
<path fill-rule="evenodd" clip-rule="evenodd" d="M102.437 26.0103L102.039 25.7797L100.816 26.501L99.8201 25.9237L99.3321 26.2103L100.328 26.7903L99.1055 27.5117L99.5041 27.7437L100.725 27.0223L101.721 27.5997L102.211 27.3117L101.215 26.733L102.437 26.0103Z" fill="#5C9999"/>
<path fill-rule="evenodd" clip-rule="evenodd" d="M116.773 34.3424L116.375 34.1117L115.153 34.833L114.157 34.2557L113.668 34.5424L114.664 35.1224L113.441 35.8437L113.84 36.0757L115.063 35.3544L116.059 35.9317L116.547 35.6437L115.551 35.065L116.773 34.3424Z" fill="#5C9999"/>
<path fill-rule="evenodd" clip-rule="evenodd" d="M111.996 31.565L111.597 31.3343L110.375 32.0557L109.379 31.4783L108.891 31.765L109.887 32.345L108.664 33.0663L109.063 33.2983L110.284 32.577L111.28 33.1543L111.769 32.8663L110.773 32.2877L111.996 31.565Z" fill="#5C9999"/>
</svg>
