<svg width="83" height="64" viewBox="0 0 83 64" fill="none" xmlns="http://www.w3.org/2000/svg">
<path d="M80.4987 25.6053L80.4613 25.8879L80.4373 25.9746L80.356 26.1306L80.292 26.2133L80.1253 26.3733L80.0253 26.4519C70.0373 32.2159 40.0493 49.9786 30.0627 55.7426C29.1173 55.7333 28.1707 55.7239 27.2253 55.7146C17.2533 49.9613 12.616 46.8719 2.644 41.1186L2.544 41.0399L2.37733 40.8799L2.31333 40.7973L2.232 40.6413L2.208 40.5546L2.17067 40.2719V39.4053V38.0719V33.2039L2.208 32.9213L2.232 32.8346L2.31333 32.6799L2.37733 32.5959L2.544 32.4359L2.644 32.3573C12.616 26.6039 42.5867 8.84927 52.5587 3.09461C53.504 3.08527 54.4507 3.07728 55.396 3.06795C65.3827 8.83061 70.0373 11.9266 80.0253 17.6906L80.1253 17.7693L80.292 17.9293L80.356 18.0133L80.4373 18.1679L80.4613 18.2546L80.4987 18.5373V23.4053V24.7386V25.6053ZM80.4613 31.2213L80.4373 31.3079L80.356 31.4639L80.292 31.5466L80.1253 31.7066L80.0253 31.7853C70.0373 37.5493 40.0493 55.3119 30.0627 61.0759C29.1173 61.0666 28.1707 61.0573 27.2253 61.0479C17.2533 55.2946 12.616 52.2053 2.644 46.4519L2.544 46.3733L2.37733 46.2133L2.31333 46.1306L2.232 45.9746L2.208 45.8879L2.17067 45.6053V43.3506C11.7747 48.8946 16.0453 51.7706 25.6493 57.3133C26.3587 57.6733 27.4013 58.0719 28.668 58.0719C30.0093 58.0719 31.056 57.6266 31.6867 57.3133C33.872 56.2319 64.5813 38.1039 80.4987 28.6933V30.9386L80.4613 31.2213ZM82.6533 18.3893C82.652 18.3639 82.6627 18.3413 82.6587 18.3146L82.6013 17.9013C82.5973 17.8799 82.584 17.8639 82.5813 17.8453C82.5773 17.8239 82.5827 17.8039 82.5787 17.7839L82.5093 17.5093C82.4987 17.4653 82.4693 17.4319 82.452 17.3919C82.436 17.3506 82.436 17.3053 82.4147 17.2653L82.232 16.9213C82.2173 16.8959 82.1933 16.8799 82.1773 16.8559C82.1627 16.8306 82.1573 16.8026 82.1413 16.7799L81.9707 16.5506C81.952 16.5266 81.9253 16.5173 81.9067 16.4933C81.884 16.4693 81.876 16.4386 81.8533 16.4173L81.588 16.1653C81.5747 16.1506 81.556 16.1479 81.54 16.1359C81.5267 16.1226 81.52 16.1066 81.5067 16.0946L81.3 15.9333C81.2787 15.9173 81.252 15.9119 81.232 15.8999C81.2093 15.8853 81.1973 15.8626 81.1747 15.8493C65.4653 6.56128 59.236 2.59328 57.02 1.49594C56.3893 1.18394 55.3427 0.738611 54.0013 0.738611C52.7347 0.738611 51.692 1.13594 50.9827 1.49594C41.1533 7.16928 11.324 24.8426 1.49467 30.5159C1.47067 30.5293 1.46 30.5519 1.43733 30.5666C1.416 30.5786 1.39067 30.5839 1.36933 30.5999L1.16267 30.7613C1.14934 30.7733 1.14267 30.7893 1.12933 30.8026C1.11333 30.8146 1.09467 30.8173 1.08133 30.8319L0.815999 31.0839C0.793333 31.1053 0.785337 31.1359 0.76267 31.1599C0.744003 31.1839 0.717336 31.1933 0.698669 31.2173L0.526667 31.4466C0.512001 31.4693 0.506666 31.4973 0.491999 31.5213C0.475999 31.5466 0.451999 31.5626 0.437332 31.5879L0.253337 31.9319C0.233337 31.9719 0.233336 32.0173 0.217336 32.0586C0.200003 32.0986 0.170665 32.1319 0.159999 32.1759L0.0906677 32.4506C0.0853344 32.4706 0.0920025 32.4906 0.0880025 32.5119C0.0840025 32.5306 0.0719982 32.5466 0.0679982 32.5679L0.0106659 32.9813C0.00666589 33.0079 0.0173347 33.0306 0.0160014 33.0559C0.014668 33.0813 0 33.1039 0 33.1293V38.0719V39.4053V40.3479V45.6813C0 45.7053 0.014668 45.7279 0.0160014 45.7533C0.0173347 45.7786 0.00666589 45.8013 0.0106659 45.8279L0.0679982 46.2426C0.0719982 46.2626 0.0840025 46.2786 0.0880025 46.2986C0.0920025 46.3186 0.0853344 46.3386 0.0906677 46.3586L0.159999 46.6333C0.170665 46.6786 0.200003 46.7106 0.217336 46.7506C0.233336 46.7933 0.233337 46.8373 0.253337 46.8773L0.437332 47.2213C0.451999 47.2466 0.475999 47.2626 0.491999 47.2879C0.506666 47.3119 0.512001 47.3399 0.526667 47.3626L0.698669 47.5919C0.717336 47.6159 0.744003 47.6266 0.76267 47.6493C0.785337 47.6733 0.793333 47.7039 0.815999 47.7253L1.08133 47.9773C1.09467 47.9919 1.11333 47.9946 1.12933 48.0066C1.14267 48.0213 1.14934 48.0359 1.16267 48.0479L1.36933 48.2093C1.39067 48.2253 1.416 48.2306 1.43733 48.2439C1.46 48.2573 1.47067 48.2799 1.49467 48.2946C11.324 53.9666 15.82 56.9733 25.6493 62.6466C26.3587 63.0066 27.4013 63.4053 28.668 63.4053C30.0093 63.4053 31.056 62.9599 31.6867 62.6466C33.9027 61.5493 65.4653 42.9146 81.1747 33.6279C81.1973 33.6133 81.2093 33.5906 81.232 33.5773C81.252 33.5639 81.2787 33.5586 81.3 33.5426L81.5067 33.3813C81.52 33.3693 81.5267 33.3546 81.54 33.3399C81.556 33.3279 81.5747 33.3253 81.588 33.3106L81.8533 33.0586C81.876 33.0373 81.884 33.0066 81.9067 32.9826C81.9253 32.9599 81.952 32.9493 81.9707 32.9253L82.1413 32.6959C82.1573 32.6733 82.1627 32.6453 82.1773 32.6213C82.1933 32.5959 82.2173 32.5799 82.232 32.5546L82.4147 32.2106C82.436 32.1706 82.436 32.1266 82.452 32.0839C82.4693 32.0439 82.4987 32.0119 82.5093 31.9666L82.5787 31.6919C82.5827 31.6719 82.5773 31.6519 82.5813 31.6319C82.584 31.6119 82.5973 31.5959 82.6013 31.5759L82.6587 31.1613C82.6627 31.1346 82.652 31.1119 82.6533 31.0866C82.6547 31.0613 82.6693 31.0386 82.6693 31.0146V25.6813V24.7386V23.4053V18.4626C82.6693 18.4373 82.6547 18.4146 82.6533 18.3893" fill="#5C9999"/>
<path fill-rule="evenodd" clip-rule="evenodd" d="M15.1757 30.7574L14.7771 30.5267L13.5544 31.2481L12.5598 30.6707L12.0704 30.9587L13.0664 31.5374L11.8438 32.2587L12.2424 32.4907L13.4651 31.7694L14.4611 32.3467L14.9491 32.0587L13.9531 31.4801L15.1757 30.7574Z" fill="#5C9999"/>
<path fill-rule="evenodd" clip-rule="evenodd" d="M24.7343 36.3123L24.3357 36.0817L23.1143 36.803L22.1183 36.2257L21.629 36.5137L22.625 37.0923L21.4023 37.8137L21.801 38.0457L23.0237 37.3243L24.0197 37.9017L24.5077 37.6137L23.5117 37.035L24.7343 36.3123Z" fill="#5C9999"/>
<path fill-rule="evenodd" clip-rule="evenodd" d="M19.9531 33.535L19.5544 33.3043L18.3318 34.0256L17.3358 33.4483L16.8478 33.7363L17.8438 34.315L16.6211 35.0363L17.0198 35.2683L18.2411 34.547L19.2371 35.1243L19.7264 34.8363L18.7304 34.2576L19.9531 33.535Z" fill="#5C9999"/>
<path fill-rule="evenodd" clip-rule="evenodd" d="M34.2929 41.8668L33.8943 41.6361L32.6729 42.3574L31.6769 41.7801L31.1876 42.0681L32.1836 42.6468L30.9609 43.3681L31.3596 43.6001L32.5823 42.8788L33.5783 43.4561L34.0663 43.1681L33.0703 42.5894L34.2929 41.8668Z" fill="#5C9999"/>
<path fill-rule="evenodd" clip-rule="evenodd" d="M29.5117 39.0897L29.113 38.859L27.8904 39.5803L26.8944 39.003L26.4064 39.291L27.4024 39.8697L26.1797 40.591L26.5784 40.823L27.7997 40.1017L28.7957 40.679L29.285 40.391L28.289 39.8123L29.5117 39.0897Z" fill="#5C9999"/>
<path fill-rule="evenodd" clip-rule="evenodd" d="M21.0429 27.2925L20.6443 27.0605L19.4216 27.7832L18.4269 27.2045L17.9376 27.4925L18.9336 28.0712L17.7109 28.7939L18.1096 29.0259L19.3323 28.3032L20.3269 28.8819L20.8163 28.5939L19.8203 28.0139L21.0429 27.2925Z" fill="#5C9999"/>
<path fill-rule="evenodd" clip-rule="evenodd" d="M30.6015 32.8472L30.2029 32.6152L28.9802 33.3379L27.9855 32.7592L27.4962 33.0472L28.4922 33.6259L27.2695 34.3486L27.6682 34.5806L28.8909 33.8579L29.8855 34.4366L30.3749 34.1486L29.3789 33.5686L30.6015 32.8472Z" fill="#5C9999"/>
<path fill-rule="evenodd" clip-rule="evenodd" d="M25.8189 30.0699L25.4203 29.8379L24.1989 30.5606L23.2029 29.9819L22.7149 30.2699L23.7096 30.8486L22.4883 31.5712L22.8856 31.8032L24.1083 31.0806L25.1043 31.6592L25.5923 31.3712L24.5976 30.7912L25.8189 30.0699Z" fill="#5C9999"/>
<path fill-rule="evenodd" clip-rule="evenodd" d="M40.1601 38.4019L39.7615 38.1699L38.5388 38.8926L37.5441 38.3139L37.0548 38.6019L38.0508 39.1806L36.8281 39.9033L37.2268 40.1353L38.4495 39.4126L39.4441 39.9913L39.9335 39.7033L38.9375 39.1233L40.1601 38.4019Z" fill="#5C9999"/>
<path fill-rule="evenodd" clip-rule="evenodd" d="M35.3775 35.6246L34.9802 35.3926L33.7575 36.1152L32.7615 35.5366L32.2735 35.8246L33.2682 36.4032L32.0469 37.1259L32.4455 37.3579L33.6669 36.6352L34.6629 37.2139L35.1509 36.9259L34.1562 36.3459L35.3775 35.6246Z" fill="#5C9999"/>
<path fill-rule="evenodd" clip-rule="evenodd" d="M26.9101 23.8281L26.5115 23.5961L25.2888 24.3174L24.2928 23.7401L23.8048 24.0281L24.8008 24.6067L23.5781 25.3281L23.9768 25.5601L25.1981 24.8387L26.1941 25.4161L26.6835 25.1281L25.6875 24.5494L26.9101 23.8281Z" fill="#5C9999"/>
<path fill-rule="evenodd" clip-rule="evenodd" d="M36.4687 29.3827L36.0701 29.1507L34.8474 29.8721L33.8514 29.2947L33.3634 29.5827L34.3594 30.1614L33.1367 30.8827L33.5354 31.1147L34.7567 30.3934L35.7527 30.9707L36.2421 30.6827L35.2461 30.1041L36.4687 29.3827Z" fill="#5C9999"/>
<path fill-rule="evenodd" clip-rule="evenodd" d="M31.6875 26.6054L31.2888 26.3734L30.0675 27.0947L29.0715 26.5174L28.5821 26.8054L29.5781 27.3841L28.3555 28.1054L28.7541 28.3374L29.9768 27.6161L30.9728 28.1934L31.4608 27.9054L30.4648 27.3267L31.6875 26.6054Z" fill="#5C9999"/>
<path fill-rule="evenodd" clip-rule="evenodd" d="M46.0273 34.9359L45.6286 34.7052L44.406 35.4265L43.41 34.8492L42.922 35.1372L43.918 35.7159L42.6953 36.4372L43.094 36.6692L44.3153 35.9479L45.3113 36.5252L45.8006 36.2372L44.8046 35.6585L46.0273 34.9359Z" fill="#5C9999"/>
<path fill-rule="evenodd" clip-rule="evenodd" d="M41.2461 32.1601L40.8474 31.9281L39.6261 32.6494L38.6301 32.0721L38.1407 32.3601L39.1367 32.9388L37.9141 33.6601L38.3127 33.8921L39.5354 33.1708L40.5314 33.7481L41.0194 33.4601L40.0234 32.8814L41.2461 32.1601Z" fill="#5C9999"/>
<path fill-rule="evenodd" clip-rule="evenodd" d="M32.776 20.3619L32.3773 20.1299L31.156 20.8525L30.16 20.2739L29.672 20.5619L30.6666 21.1419L29.4453 21.8632L29.8426 22.0952L31.0653 21.3725L32.0613 21.9512L32.5493 21.6632L31.5546 21.0845L32.776 20.3619Z" fill="#5C9999"/>
<path fill-rule="evenodd" clip-rule="evenodd" d="M42.3346 25.9166L41.9359 25.6846L40.7146 26.4072L39.7186 25.8286L39.2306 26.1166L40.2252 26.6966L39.0039 27.4179L39.4026 27.6499L40.6239 26.9272L41.6199 27.5059L42.1079 27.2179L41.1132 26.6392L42.3346 25.9166Z" fill="#5C9999"/>
<path fill-rule="evenodd" clip-rule="evenodd" d="M37.5547 23.1392L37.156 22.9072L35.9333 23.6299L34.9387 23.0512L34.4493 23.3392L35.4453 23.9192L34.2227 24.6406L34.6213 24.8726L35.844 24.1499L36.8387 24.7286L37.328 24.4406L36.332 23.8619L37.5547 23.1392Z" fill="#5C9999"/>
<path fill-rule="evenodd" clip-rule="evenodd" d="M51.8932 31.4713L51.4958 31.2393L50.2732 31.9619L49.2772 31.3833L48.7892 31.6713L49.7838 32.2513L48.5625 32.9726L48.9612 33.2046L50.1825 32.4819L51.1785 33.0606L51.6665 32.7726L50.6718 32.1939L51.8932 31.4713Z" fill="#5C9999"/>
<path fill-rule="evenodd" clip-rule="evenodd" d="M47.1132 28.6939L46.7146 28.4619L45.4919 29.1846L44.4973 28.6059L44.0079 28.8939L45.0039 29.4739L43.7812 30.1952L44.1799 30.4272L45.4026 29.7046L46.3973 30.2832L46.8866 29.9952L45.8906 29.4166L47.1132 28.6939Z" fill="#5C9999"/>
<path fill-rule="evenodd" clip-rule="evenodd" d="M38.6406 16.8969L38.2419 16.6649L37.0206 17.3862L36.0246 16.8089L35.5353 17.0969L36.5313 17.6756L35.3086 18.3982L35.7073 18.6289L36.9299 17.9076L37.9259 18.4849L38.4139 18.1969L37.4179 17.6182L38.6406 16.8969Z" fill="#5C9999"/>
<path fill-rule="evenodd" clip-rule="evenodd" d="M48.1992 22.4516L47.8005 22.2196L46.5792 22.9409L45.5832 22.3636L45.0939 22.6516L46.0899 23.2303L44.8672 23.9529L45.2659 24.1836L46.4885 23.4623L47.4845 24.0396L47.9725 23.7516L46.9765 23.1729L48.1992 22.4516Z" fill="#5C9999"/>
<path fill-rule="evenodd" clip-rule="evenodd" d="M43.4218 19.6743L43.0232 19.4423L41.8005 20.1636L40.8045 19.5863L40.3165 19.8743L41.3125 20.4529L40.0898 21.1756L40.4885 21.4062L41.7098 20.6849L42.7058 21.2622L43.1952 20.9743L42.1992 20.3956L43.4218 19.6743Z" fill="#5C9999"/>
<path fill-rule="evenodd" clip-rule="evenodd" d="M57.7578 28.0063L57.3591 27.7743L56.1378 28.4956L55.1418 27.9183L54.6524 28.2063L55.6484 28.7849L54.4258 29.5076L54.8244 29.7383L56.0471 29.0169L57.0431 29.5943L57.5311 29.3063L56.5351 28.7276L57.7578 28.0063Z" fill="#5C9999"/>
<path fill-rule="evenodd" clip-rule="evenodd" d="M52.9804 25.2289L52.5818 24.9969L51.3591 25.7183L50.3631 25.1409L49.8751 25.4289L50.8711 26.0076L49.6484 26.7303L50.0471 26.9609L51.2684 26.2396L52.2644 26.8169L52.7538 26.5289L51.7578 25.9503L52.9804 25.2289Z" fill="#5C9999"/>
<path fill-rule="evenodd" clip-rule="evenodd" d="M44.5078 13.4307L44.1091 13.1987L42.8864 13.9214L41.8918 13.3427L41.4024 13.6307L42.3984 14.2107L41.1758 14.9321L41.5744 15.1641L42.7971 14.4414L43.7918 15.0201L44.2811 14.7321L43.2851 14.1534L44.5078 13.4307Z" fill="#5C9999"/>
<path fill-rule="evenodd" clip-rule="evenodd" d="M54.0664 18.9854L53.6677 18.7534L52.445 19.4761L51.4504 18.8974L50.961 19.1854L51.957 19.7654L50.7344 20.4868L51.133 20.7188L52.3557 19.9961L53.3504 20.5748L53.8397 20.2868L52.8437 19.7081L54.0664 18.9854Z" fill="#5C9999"/>
<path fill-rule="evenodd" clip-rule="evenodd" d="M49.2877 16.2081L48.889 15.9761L47.6677 16.6987L46.6717 16.1201L46.1837 16.4081L47.1784 16.9881L45.957 17.7094L46.3544 17.9414L47.577 17.2187L48.573 17.7974L49.061 17.5094L48.0664 16.9307L49.2877 16.2081Z" fill="#5C9999"/>
<path fill-rule="evenodd" clip-rule="evenodd" d="M63.625 24.5401L63.2263 24.3081L62.0036 25.0308L61.009 24.4521L60.5196 24.7401L61.5156 25.3201L60.293 26.0414L60.6916 26.2734L61.9143 25.5508L62.909 26.1294L63.3983 25.8414L62.4023 25.2628L63.625 24.5401Z" fill="#5C9999"/>
<path fill-rule="evenodd" clip-rule="evenodd" d="M58.8463 21.7628L58.449 21.5308L57.2263 22.2534L56.2303 21.6748L55.7423 21.9628L56.737 22.5428L55.5156 23.2641L55.9143 23.4961L57.1356 22.7734L58.1316 23.3521L58.6196 23.0641L57.625 22.4854L58.8463 21.7628Z" fill="#5C9999"/>
<path fill-rule="evenodd" clip-rule="evenodd" d="M50.375 9.96575L49.9763 9.73375L48.7536 10.4551L47.7576 9.87775L47.2696 10.1658L48.2656 10.7444L47.043 11.4671L47.4416 11.6978L48.663 10.9764L49.659 11.5538L50.1483 11.2658L49.1523 10.6871L50.375 9.96575Z" fill="#5C9999"/>
<path fill-rule="evenodd" clip-rule="evenodd" d="M59.9336 15.5204L59.5349 15.2884L58.3122 16.0098L57.3162 15.4324L56.8282 15.7204L57.8242 16.2991L56.6016 17.0218L57.0002 17.2524L58.2216 16.5311L59.2176 17.1084L59.7069 16.8204L58.7109 16.2418L59.9336 15.5204Z" fill="#5C9999"/>
<path fill-rule="evenodd" clip-rule="evenodd" d="M55.1562 12.7431L54.7576 12.5111L53.5362 13.2324L52.5402 12.6551L52.0509 12.9431L53.0469 13.5218L51.8242 14.2444L52.2229 14.4751L53.4456 13.7538L54.4416 14.3311L54.9296 14.0431L53.9336 13.4644L55.1562 12.7431Z" fill="#5C9999"/>
<path fill-rule="evenodd" clip-rule="evenodd" d="M69.4922 21.0751L69.0935 20.8431L67.8708 21.5645L66.8748 20.9871L66.3868 21.2751L67.3828 21.8538L66.1602 22.5765L66.5588 22.8071L67.7815 22.0858L68.7762 22.6631L69.2655 22.3751L68.2695 21.7965L69.4922 21.0751Z" fill="#5C9999"/>
<path fill-rule="evenodd" clip-rule="evenodd" d="M64.7148 18.2978L64.3161 18.0658L63.0948 18.7871L62.0988 18.2098L61.6095 18.4978L62.6055 19.0765L61.3828 19.7991L61.7815 20.0298L63.0041 19.3085L64.0001 19.8858L64.4881 19.5978L63.4921 19.0191L64.7148 18.2978Z" fill="#5C9999"/>
<path fill-rule="evenodd" clip-rule="evenodd" d="M56.2408 6.49958L55.8422 6.26758L54.6208 6.99024L53.6248 6.41291L53.1368 6.69958L54.1315 7.27958L52.9102 8.00091L53.3075 8.23291L54.5302 7.51024L55.5262 8.08891L56.0142 7.80091L55.0195 7.22224L56.2408 6.49958Z" fill="#5C9999"/>
<path fill-rule="evenodd" clip-rule="evenodd" d="M65.7994 12.0543L65.4021 11.8223L64.1794 12.5449L63.1834 11.9676L62.6954 12.2543L63.6901 12.8343L62.4688 13.5556L62.8674 13.7876L64.0887 13.0649L65.0847 13.6436L65.5727 13.3556L64.5781 12.7769L65.7994 12.0543Z" fill="#5C9999"/>
<path fill-rule="evenodd" clip-rule="evenodd" d="M61.0234 9.27692L60.6247 9.04492L59.4021 9.76759L58.4074 9.19025L57.9181 9.47692L58.9141 10.0569L57.6914 10.7783L58.0901 11.0103L59.3127 10.2876L60.3074 10.8663L60.7967 10.5783L59.8007 9.99959L61.0234 9.27692Z" fill="#5C9999"/>
<path fill-rule="evenodd" clip-rule="evenodd" d="M75.358 17.609L74.9607 17.377L73.738 18.0996L72.742 17.5223L72.254 17.809L73.2487 18.389L72.0273 19.1103L72.426 19.3423L73.6473 18.6196L74.6433 19.1983L75.1313 18.9103L74.1367 18.3316L75.358 17.609Z" fill="#5C9999"/>
<path fill-rule="evenodd" clip-rule="evenodd" d="M70.582 14.8316L70.1833 14.5996L68.9607 15.3223L67.966 14.7449L67.4767 15.0316L68.4727 15.6116L67.25 16.3329L67.6487 16.5649L68.8713 15.8423L69.866 16.4209L70.3553 16.1329L69.3593 15.5543L70.582 14.8316Z" fill="#5C9999"/>
<path fill-rule="evenodd" clip-rule="evenodd" d="M9.30723 34.2237L8.90856 33.9917L7.68723 34.7144L6.69123 34.1357L6.20323 34.4237L7.1979 35.0024L5.97656 35.725L6.3739 35.957L7.59656 35.2344L8.59256 35.813L9.08056 35.525L8.0859 34.945L9.30723 34.2237Z" fill="#5C9999"/>
<path fill-rule="evenodd" clip-rule="evenodd" d="M18.8658 39.7784L18.4672 39.5464L17.2458 40.2691L16.2498 39.6904L15.7618 39.9784L16.7565 40.5571L15.5352 41.2797L15.9325 41.5117L17.1552 40.7891L18.1512 41.3677L18.6392 41.0797L17.6445 40.4997L18.8658 39.7784Z" fill="#5C9999"/>
<path fill-rule="evenodd" clip-rule="evenodd" d="M14.0859 37.001L13.6872 36.769L12.4646 37.4917L11.4699 36.913L10.9806 37.201L11.9766 37.7797L10.7539 38.5024L11.1526 38.7344L12.3752 38.0117L13.3699 38.5904L13.8592 38.3024L12.8632 37.7224L14.0859 37.001Z" fill="#5C9999"/>
<path fill-rule="evenodd" clip-rule="evenodd" d="M28.4244 45.3331L28.0271 45.1011L26.8044 45.8237L25.8084 45.2451L25.3204 45.5331L26.3151 46.1117L25.0938 46.8344L25.4924 47.0664L26.7137 46.3437L27.7097 46.9224L28.1977 46.6344L27.2031 46.0544L28.4244 45.3331Z" fill="#5C9999"/>
<path fill-rule="evenodd" clip-rule="evenodd" d="M23.6445 42.5557L23.2458 42.3237L22.0232 43.0464L21.0285 42.4677L20.5392 42.7557L21.5352 43.3344L20.3125 44.0571L20.7112 44.2891L21.9338 43.5664L22.9285 44.1451L23.4178 43.8571L22.4218 43.2771L23.6445 42.5557Z" fill="#5C9999"/>
</svg>
