<svg width="98" height="72" viewBox="0 0 98 72" fill="none" xmlns="http://www.w3.org/2000/svg">
<path d="M95.1653 25.6053L95.128 25.8879L95.104 25.9746L95.0227 26.1306L94.9587 26.2133L94.792 26.3733L94.692 26.4519C84.704 32.2159 41.3827 57.9786 31.396 63.7426C30.4507 63.7333 29.504 63.7239 28.5587 63.7146C18.5867 57.9613 12.616 54.8719 2.644 49.1186L2.544 49.0399L2.37733 48.8799L2.31333 48.7973L2.232 48.6413L2.208 48.5546L2.17066 48.2719V47.4053V46.0719V41.2039L2.208 40.9213L2.232 40.8346L2.31333 40.6799L2.37733 40.5959L2.544 40.4359L2.644 40.3573C12.616 34.6039 55.92 8.84928 65.892 3.09461C66.8373 3.08528 67.784 3.07728 68.7293 3.06795C78.716 8.83061 84.704 11.9266 94.692 17.6906L94.792 17.7693L94.9587 17.9293L95.0227 18.0133L95.104 18.1679L95.128 18.2546L95.1653 18.5373V23.4053V24.7386V25.6053ZM95.128 31.2213L95.104 31.3079L95.0227 31.4639L94.9587 31.5466L94.792 31.7066L94.692 31.7853C84.704 37.5493 41.3827 63.3119 31.396 69.0759C30.4507 69.0666 29.504 69.0573 28.5587 69.0479C18.5867 63.2946 12.616 60.2053 2.644 54.4519L2.544 54.3733L2.37733 54.2133L2.31333 54.1306L2.232 53.9746L2.208 53.8879L2.17066 53.6053V51.3506C11.7747 56.8946 17.3787 59.7706 26.9827 65.3133C27.692 65.6733 28.7347 66.0719 30.0013 66.0719C31.3427 66.0719 32.3893 65.6266 33.02 65.3133C35.2053 64.2319 79.248 38.1039 95.1653 28.6933V30.9386L95.128 31.2213ZM97.32 18.3893C97.3187 18.3639 97.3293 18.3413 97.3253 18.3146L97.268 17.9013C97.264 17.8799 97.2507 17.8639 97.248 17.8453C97.244 17.8239 97.2493 17.8039 97.2453 17.7839L97.176 17.5093C97.1653 17.4653 97.136 17.4319 97.1187 17.3919C97.1027 17.3506 97.1027 17.3053 97.0813 17.2653L96.8987 16.9213C96.884 16.8959 96.86 16.8799 96.844 16.8559C96.8293 16.8306 96.824 16.8026 96.808 16.7799L96.6373 16.5506C96.6187 16.5266 96.592 16.5173 96.5733 16.4933C96.5507 16.4693 96.5427 16.4386 96.52 16.4173L96.2547 16.1653C96.2413 16.1506 96.2227 16.1479 96.2067 16.1359C96.1933 16.1226 96.1867 16.1066 96.1733 16.0946L95.9667 15.9333C95.9453 15.9173 95.9187 15.9119 95.8987 15.8999C95.876 15.8853 95.864 15.8626 95.8413 15.8493C80.132 6.56128 72.5693 2.59328 70.3533 1.49595C69.7227 1.18395 68.676 0.738611 67.3347 0.738611C66.068 0.738611 65.0253 1.13595 64.316 1.49595C54.4867 7.16928 11.324 32.8426 1.49467 38.5159C1.47067 38.5293 1.46 38.5519 1.43734 38.5666C1.416 38.5786 1.39067 38.5839 1.36933 38.5999L1.16267 38.7613C1.14934 38.7733 1.14267 38.7893 1.12933 38.8026C1.11333 38.8146 1.09466 38.8173 1.08133 38.8319L0.815999 39.0839C0.793333 39.1053 0.785331 39.1359 0.762665 39.1599C0.743998 39.1839 0.717336 39.1933 0.698669 39.2173L0.526672 39.4466C0.512006 39.4693 0.506671 39.4973 0.492004 39.5226C0.476004 39.5466 0.452004 39.5626 0.437337 39.5879L0.253337 39.9319C0.233337 39.9719 0.233336 40.0173 0.217336 40.0586C0.200003 40.0986 0.17067 40.1319 0.160004 40.1759L0.0906677 40.4506C0.0853344 40.4706 0.0920025 40.4906 0.0880025 40.5119C0.0840025 40.5306 0.0720033 40.5466 0.0680033 40.5679L0.010671 40.9813C0.00667098 41.0079 0.0173347 41.0306 0.0160014 41.0559C0.0146681 41.0813 0 41.1039 0 41.1293V46.0719V47.4053V48.3479V53.6813C0 53.7053 0.0146681 53.7279 0.0160014 53.7533C0.0173347 53.7786 0.00667098 53.8013 0.010671 53.8279L0.0680033 54.2426C0.0720033 54.2626 0.0840025 54.2786 0.0880025 54.2986C0.0920025 54.3186 0.0853344 54.3386 0.0906677 54.3586L0.160004 54.6333C0.17067 54.6786 0.200003 54.7106 0.217336 54.7506C0.233336 54.7933 0.233337 54.8373 0.253337 54.8773L0.437337 55.2213C0.452004 55.2466 0.476004 55.2626 0.492004 55.2879C0.506671 55.3119 0.512006 55.3399 0.526672 55.3626L0.698669 55.5919C0.717336 55.6159 0.743998 55.6266 0.762665 55.6493C0.785331 55.6733 0.793333 55.7039 0.815999 55.7253L1.08133 55.9773C1.09466 55.9919 1.11333 55.9946 1.12933 56.0066C1.14267 56.0213 1.14934 56.0359 1.16267 56.0479L1.36933 56.2093C1.39067 56.2253 1.416 56.2306 1.43734 56.2439C1.46 56.2573 1.47067 56.2799 1.49467 56.2946C11.324 61.9666 17.1533 64.9733 26.9827 70.6466C27.692 71.0066 28.7347 71.4053 30.0013 71.4053C31.3427 71.4053 32.3893 70.9599 33.02 70.6466C35.236 69.5493 80.132 42.9146 95.8413 33.6279C95.864 33.6133 95.876 33.5906 95.8987 33.5773C95.9187 33.5639 95.9453 33.5586 95.9667 33.5426L96.1733 33.3813C96.1867 33.3693 96.1933 33.3546 96.2067 33.3399C96.2227 33.3279 96.2413 33.3253 96.2547 33.3106L96.52 33.0586C96.5427 33.0373 96.5507 33.0066 96.5733 32.9826C96.592 32.9599 96.6187 32.9493 96.6373 32.9253L96.808 32.6959C96.824 32.6733 96.8293 32.6453 96.844 32.6213C96.86 32.5959 96.884 32.5799 96.8987 32.5546L97.0813 32.2106C97.1027 32.1706 97.1027 32.1266 97.1187 32.0839C97.136 32.0439 97.1653 32.0119 97.176 31.9666L97.2453 31.6919C97.2493 31.6719 97.244 31.6519 97.248 31.6319C97.2507 31.6119 97.264 31.5959 97.268 31.5759L97.3253 31.1613C97.3293 31.1346 97.3187 31.1119 97.32 31.0866C97.3213 31.0613 97.336 31.0386 97.336 31.0146V25.6813V24.7386V23.4053V18.4626C97.336 18.4373 97.3213 18.4146 97.32 18.3893" fill="#5C9999"/>
<path fill-rule="evenodd" clip-rule="evenodd" d="M16.6393 38.2237L16.2406 37.9917L15.0193 38.7144L14.0233 38.1357L13.5353 38.4237L14.5299 39.0024L13.3086 39.725L13.7059 39.957L14.9286 39.2344L15.9246 39.813L16.4126 39.525L15.4179 38.945L16.6393 38.2237Z" fill="#5C9999"/>
<path fill-rule="evenodd" clip-rule="evenodd" d="M26.1979 43.7784L25.7992 43.5464L24.5779 44.2691L23.5819 43.6904L23.0939 43.9784L24.0885 44.5571L22.8672 45.2797L23.2645 45.5117L24.4872 44.7891L25.4832 45.3677L25.9712 45.0797L24.9765 44.4997L26.1979 43.7784Z" fill="#5C9999"/>
<path fill-rule="evenodd" clip-rule="evenodd" d="M21.4218 41.001L21.0232 40.769L19.8005 41.4917L18.8058 40.913L18.3165 41.201L19.3125 41.7797L18.0898 42.5024L18.4885 42.7344L19.7112 42.0117L20.7058 42.5904L21.1952 42.3024L20.1992 41.7224L21.4218 41.001Z" fill="#5C9999"/>
<path fill-rule="evenodd" clip-rule="evenodd" d="M35.7564 49.3331L35.3591 49.1011L34.1364 49.8237L33.1404 49.2451L32.6524 49.5331L33.6471 50.1117L32.4258 50.8344L32.8244 51.0664L34.0458 50.3437L35.0418 50.9224L35.5298 50.6344L34.5351 50.0544L35.7564 49.3331Z" fill="#5C9999"/>
<path fill-rule="evenodd" clip-rule="evenodd" d="M30.9804 46.5557L30.5818 46.3237L29.3591 47.0464L28.3644 46.4677L27.8751 46.7557L28.8711 47.3344L27.6484 48.0571L28.0471 48.2891L29.2698 47.5664L30.2644 48.1451L30.7538 47.8571L29.7578 47.2771L30.9804 46.5557Z" fill="#5C9999"/>
<path fill-rule="evenodd" clip-rule="evenodd" d="M22.5078 34.7574L22.1091 34.5267L20.8864 35.2481L19.8918 34.6707L19.4024 34.9587L20.3984 35.5374L19.1758 36.2587L19.5744 36.4907L20.7971 35.7694L21.7931 36.3467L22.2811 36.0587L21.2851 35.4801L22.5078 34.7574Z" fill="#5C9999"/>
<path fill-rule="evenodd" clip-rule="evenodd" d="M32.0664 40.3123L31.6677 40.0817L30.4464 40.803L29.4504 40.2257L28.961 40.5137L29.957 41.0923L28.7344 41.8137L29.133 42.0457L30.3557 41.3243L31.3517 41.9017L31.8397 41.6137L30.8437 41.035L32.0664 40.3123Z" fill="#5C9999"/>
<path fill-rule="evenodd" clip-rule="evenodd" d="M27.289 37.535L26.8904 37.3043L25.6677 38.0256L24.6717 37.4483L24.1837 37.7363L25.1797 38.315L23.957 39.0363L24.3557 39.2683L25.577 38.547L26.573 39.1243L27.0624 38.8363L26.0664 38.2576L27.289 37.535Z" fill="#5C9999"/>
<path fill-rule="evenodd" clip-rule="evenodd" d="M41.625 45.8668L41.2263 45.6361L40.005 46.3574L39.009 45.7801L38.5196 46.0681L39.5156 46.6468L38.293 47.3681L38.6916 47.6001L39.9143 46.8788L40.9103 47.4561L41.3983 47.1681L40.4023 46.5894L41.625 45.8668Z" fill="#5C9999"/>
<path fill-rule="evenodd" clip-rule="evenodd" d="M36.8476 43.0897L36.449 42.859L35.2263 43.5803L34.2303 43.003L33.7423 43.291L34.7383 43.8697L33.5156 44.591L33.9143 44.823L35.1356 44.1017L36.1316 44.679L36.621 44.391L35.625 43.8123L36.8476 43.0897Z" fill="#5C9999"/>
<path fill-rule="evenodd" clip-rule="evenodd" d="M28.375 31.2925L27.9763 31.0605L26.7536 31.7832L25.759 31.2045L25.2696 31.4925L26.2656 32.0712L25.043 32.7939L25.4416 33.0259L26.6643 32.3032L27.659 32.8819L28.1483 32.5939L27.1523 32.0139L28.375 31.2925Z" fill="#5C9999"/>
<path fill-rule="evenodd" clip-rule="evenodd" d="M37.9336 36.8472L37.5349 36.6152L36.3122 37.3379L35.3176 36.7592L34.8282 37.0472L35.8242 37.6259L34.6016 38.3486L35.0002 38.5806L36.2229 37.8579L37.2176 38.4366L37.7069 38.1486L36.7109 37.5686L37.9336 36.8472Z" fill="#5C9999"/>
<path fill-rule="evenodd" clip-rule="evenodd" d="M33.1549 34.0699L32.7562 33.8379L31.5349 34.5606L30.5389 33.9819L30.0509 34.2699L31.0456 34.8486L29.8242 35.5712L30.2216 35.8032L31.4442 35.0806L32.4402 35.6592L32.9282 35.3712L31.9336 34.7912L33.1549 34.0699Z" fill="#5C9999"/>
<path fill-rule="evenodd" clip-rule="evenodd" d="M47.4922 42.4019L47.0935 42.1699L45.8708 42.8926L44.8762 42.3139L44.3868 42.6019L45.3828 43.1806L44.1602 43.9033L44.5588 44.1353L45.7815 43.4126L46.7762 43.9913L47.2655 43.7033L46.2695 43.1233L47.4922 42.4019Z" fill="#5C9999"/>
<path fill-rule="evenodd" clip-rule="evenodd" d="M42.7135 39.6246L42.3161 39.3926L41.0935 40.1152L40.0975 39.5366L39.6095 39.8246L40.6041 40.4032L39.3828 41.1259L39.7815 41.3579L41.0028 40.6352L41.9988 41.2139L42.4868 40.9259L41.4921 40.3459L42.7135 39.6246Z" fill="#5C9999"/>
<path fill-rule="evenodd" clip-rule="evenodd" d="M34.2422 27.8281L33.8435 27.5961L32.6208 28.3174L31.6248 27.7401L31.1368 28.0281L32.1328 28.6067L30.9102 29.3281L31.3088 29.5601L32.5302 28.8387L33.5262 29.4161L34.0155 29.1281L33.0195 28.5494L34.2422 27.8281Z" fill="#5C9999"/>
<path fill-rule="evenodd" clip-rule="evenodd" d="M43.8007 33.3827L43.4021 33.1507L42.1794 33.8721L41.1834 33.2947L40.6954 33.5827L41.6914 34.1614L40.4688 34.8827L40.8674 35.1147L42.0887 34.3934L43.0848 34.9707L43.5741 34.6827L42.5781 34.1041L43.8007 33.3827Z" fill="#5C9999"/>
<path fill-rule="evenodd" clip-rule="evenodd" d="M39.0195 30.6054L38.6208 30.3734L37.3995 31.0947L36.4035 30.5174L35.9142 30.8054L36.9102 31.3841L35.6875 32.1054L36.0862 32.3374L37.3088 31.6161L38.3048 32.1934L38.7928 31.9054L37.7968 31.3267L39.0195 30.6054Z" fill="#5C9999"/>
<path fill-rule="evenodd" clip-rule="evenodd" d="M53.3593 38.9359L52.9607 38.7052L51.738 39.4265L50.742 38.8492L50.254 39.1372L51.25 39.7159L50.0273 40.4372L50.426 40.6692L51.6473 39.9479L52.6433 40.5252L53.1327 40.2372L52.1367 39.6585L53.3593 38.9359Z" fill="#5C9999"/>
<path fill-rule="evenodd" clip-rule="evenodd" d="M48.5781 36.1601L48.1794 35.9281L46.9581 36.6494L45.9621 36.0721L45.4728 36.3601L46.4688 36.9388L45.2461 37.6601L45.6448 37.8921L46.8674 37.1708L47.8634 37.7481L48.3514 37.4601L47.3554 36.8814L48.5781 36.1601Z" fill="#5C9999"/>
<path fill-rule="evenodd" clip-rule="evenodd" d="M40.108 24.3619L39.7093 24.1299L38.488 24.8525L37.492 24.2739L37.004 24.5619L37.9987 25.1419L36.7773 25.8632L37.1747 26.0952L38.3973 25.3725L39.3933 25.9512L39.8813 25.6632L38.8867 25.0845L40.108 24.3619Z" fill="#5C9999"/>
<path fill-rule="evenodd" clip-rule="evenodd" d="M49.6666 29.9166L49.2679 29.6846L48.0466 30.4072L47.0506 29.8286L46.5626 30.1166L47.5573 30.6966L46.3359 31.4179L46.7346 31.6499L47.9559 30.9272L48.9519 31.5059L49.4399 31.2179L48.4453 30.6392L49.6666 29.9166Z" fill="#5C9999"/>
<path fill-rule="evenodd" clip-rule="evenodd" d="M44.8867 27.1392L44.488 26.9072L43.2654 27.6299L42.2707 27.0512L41.7814 27.3392L42.7774 27.9192L41.5547 28.6406L41.9534 28.8726L43.176 28.1499L44.1707 28.7286L44.66 28.4406L43.664 27.8619L44.8867 27.1392Z" fill="#5C9999"/>
<path fill-rule="evenodd" clip-rule="evenodd" d="M59.2252 35.4713L58.8279 35.2393L57.6052 35.9619L56.6092 35.3833L56.1212 35.6713L57.1159 36.2513L55.8945 36.9726L56.2932 37.2046L57.5145 36.4819L58.5105 37.0606L58.9985 36.7726L58.0039 36.1939L59.2252 35.4713Z" fill="#5C9999"/>
<path fill-rule="evenodd" clip-rule="evenodd" d="M54.4453 32.6939L54.0466 32.4619L52.8239 33.1846L51.8293 32.6059L51.3399 32.8939L52.3359 33.4739L51.1133 34.1952L51.5119 34.4272L52.7346 33.7046L53.7293 34.2832L54.2186 33.9952L53.2226 33.4166L54.4453 32.6939Z" fill="#5C9999"/>
<path fill-rule="evenodd" clip-rule="evenodd" d="M45.9765 20.8969L45.5779 20.6649L44.3565 21.3862L43.3605 20.8089L42.8712 21.0969L43.8672 21.6756L42.6445 22.3982L43.0432 22.6289L44.2659 21.9076L45.2619 22.4849L45.7499 22.1969L44.7539 21.6182L45.9765 20.8969Z" fill="#5C9999"/>
<path fill-rule="evenodd" clip-rule="evenodd" d="M55.5351 26.4516L55.1365 26.2196L53.9151 26.9409L52.9191 26.3636L52.4298 26.6516L53.4258 27.2303L52.2031 27.9529L52.6018 28.1836L53.8245 27.4623L54.8205 28.0396L55.3085 27.7516L54.3125 27.1729L55.5351 26.4516Z" fill="#5C9999"/>
<path fill-rule="evenodd" clip-rule="evenodd" d="M50.7539 23.6743L50.3552 23.4423L49.1325 24.1636L48.1365 23.5863L47.6485 23.8743L48.6445 24.4529L47.4219 25.1756L47.8205 25.4062L49.0419 24.6849L50.0379 25.2622L50.5272 24.9743L49.5312 24.3956L50.7539 23.6743Z" fill="#5C9999"/>
<path fill-rule="evenodd" clip-rule="evenodd" d="M65.0937 32.0063L64.6951 31.7743L63.4737 32.4956L62.4777 31.9183L61.9884 32.2063L62.9844 32.7849L61.7617 33.5076L62.1604 33.7383L63.3831 33.0169L64.3791 33.5943L64.8671 33.3063L63.8711 32.7276L65.0937 32.0063Z" fill="#5C9999"/>
<path fill-rule="evenodd" clip-rule="evenodd" d="M60.3125 29.2289L59.9138 28.9969L58.6911 29.7183L57.6951 29.1409L57.2071 29.4289L58.2031 30.0076L56.9805 30.7303L57.3791 30.9609L58.6005 30.2396L59.5965 30.8169L60.0858 30.5289L59.0898 29.9503L60.3125 29.2289Z" fill="#5C9999"/>
<path fill-rule="evenodd" clip-rule="evenodd" d="M51.8437 17.4307L51.4451 17.1987L50.2224 17.9214L49.2277 17.3427L48.7384 17.6307L49.7344 18.2107L48.5117 18.9321L48.9104 19.1641L50.1331 18.4414L51.1277 19.0201L51.6171 18.7321L50.6211 18.1534L51.8437 17.4307Z" fill="#5C9999"/>
<path fill-rule="evenodd" clip-rule="evenodd" d="M61.4023 22.9854L61.0036 22.7534L59.781 23.4761L58.7863 22.8974L58.297 23.1854L59.293 23.7654L58.0703 24.4868L58.469 24.7188L59.6916 23.9961L60.6863 24.5748L61.1756 24.2868L60.1796 23.7081L61.4023 22.9854Z" fill="#5C9999"/>
<path fill-rule="evenodd" clip-rule="evenodd" d="M56.6197 20.2081L56.2211 19.9761L54.9997 20.6987L54.0037 20.1201L53.5157 20.4081L54.5104 20.9881L53.2891 21.7094L53.6864 21.9414L54.9091 21.2187L55.9051 21.7974L56.3931 21.5094L55.3984 20.9307L56.6197 20.2081Z" fill="#5C9999"/>
<path fill-rule="evenodd" clip-rule="evenodd" d="M70.9609 28.5401L70.5622 28.3081L69.3396 29.0308L68.3449 28.4521L67.8556 28.7401L68.8516 29.3201L67.6289 30.0414L68.0276 30.2734L69.2502 29.5508L70.2449 30.1294L70.7342 29.8414L69.7382 29.2628L70.9609 28.5401Z" fill="#5C9999"/>
<path fill-rule="evenodd" clip-rule="evenodd" d="M66.1783 25.7628L65.781 25.5308L64.5583 26.2534L63.5623 25.6748L63.0743 25.9628L64.069 26.5428L62.8477 27.2641L63.2463 27.4961L64.4677 26.7734L65.4637 27.3521L65.9517 27.0641L64.957 26.4854L66.1783 25.7628Z" fill="#5C9999"/>
<path fill-rule="evenodd" clip-rule="evenodd" d="M57.7109 13.9658L57.3122 13.7338L56.0896 14.4551L55.0936 13.8778L54.6056 14.1658L55.6016 14.7444L54.3789 15.4671L54.7776 15.6978L55.9989 14.9764L56.9949 15.5538L57.4842 15.2658L56.4882 14.6871L57.7109 13.9658Z" fill="#5C9999"/>
<path fill-rule="evenodd" clip-rule="evenodd" d="M67.2695 19.5204L66.8708 19.2884L65.6482 20.0098L64.6522 19.4324L64.1642 19.7204L65.1602 20.2991L63.9375 21.0218L64.3362 21.2524L65.5575 20.5311L66.5535 21.1084L67.0428 20.8204L66.0468 20.2418L67.2695 19.5204Z" fill="#5C9999"/>
<path fill-rule="evenodd" clip-rule="evenodd" d="M62.4882 16.7431L62.0896 16.5111L60.8682 17.2324L59.8723 16.6551L59.3829 16.9431L60.3789 17.5218L59.1562 18.2444L59.5549 18.4751L60.7776 17.7538L61.7736 18.3311L62.2616 18.0431L61.2656 17.4644L62.4882 16.7431Z" fill="#5C9999"/>
<path fill-rule="evenodd" clip-rule="evenodd" d="M76.8281 25.0751L76.4294 24.8431L75.2068 25.5645L74.2108 24.9871L73.7228 25.2751L74.7188 25.8538L73.4961 26.5765L73.8948 26.8071L75.1174 26.0858L76.1121 26.6631L76.6014 26.3751L75.6054 25.7965L76.8281 25.0751Z" fill="#5C9999"/>
<path fill-rule="evenodd" clip-rule="evenodd" d="M72.0468 22.2978L71.6482 22.0658L70.4268 22.7871L69.4308 22.2098L68.9415 22.4978L69.9375 23.0765L68.7148 23.7991L69.1135 24.0298L70.3362 23.3085L71.3322 23.8858L71.8202 23.5978L70.8242 23.0191L72.0468 22.2978Z" fill="#5C9999"/>
<path fill-rule="evenodd" clip-rule="evenodd" d="M63.5768 10.4996L63.1781 10.2676L61.9568 10.9902L60.9608 10.4129L60.4728 10.6996L61.4674 11.2796L60.2461 12.0009L60.6434 12.2329L61.8661 11.5102L62.8621 12.0889L63.3501 11.8009L62.3554 11.2222L63.5768 10.4996Z" fill="#5C9999"/>
<path fill-rule="evenodd" clip-rule="evenodd" d="M73.1354 16.0543L72.738 15.8223L71.5154 16.5449L70.5194 15.9676L70.0314 16.2543L71.026 16.8343L69.8047 17.5556L70.2034 17.7876L71.4247 17.0649L72.4207 17.6436L72.9087 17.3556L71.914 16.7769L73.1354 16.0543Z" fill="#5C9999"/>
<path fill-rule="evenodd" clip-rule="evenodd" d="M68.3554 13.2769L67.9568 13.0449L66.7341 13.7676L65.7394 13.1903L65.2501 13.4769L66.2461 14.0569L65.0234 14.7783L65.4221 15.0103L66.6448 14.2876L67.6394 14.8663L68.1288 14.5783L67.1328 13.9996L68.3554 13.2769Z" fill="#5C9999"/>
<path fill-rule="evenodd" clip-rule="evenodd" d="M82.6939 21.609L82.2966 21.377L81.0739 22.0996L80.0779 21.5223L79.5899 21.809L80.5846 22.389L79.3633 23.1103L79.7619 23.3423L80.9833 22.6196L81.9793 23.1983L82.4673 22.9103L81.4726 22.3316L82.6939 21.609Z" fill="#5C9999"/>
<path fill-rule="evenodd" clip-rule="evenodd" d="M77.914 18.8316L77.5154 18.5996L76.2927 19.3223L75.298 18.7449L74.8087 19.0316L75.8047 19.6116L74.582 20.3329L74.9807 20.5649L76.2034 19.8423L77.198 20.4209L77.6874 20.1329L76.6914 19.5543L77.914 18.8316Z" fill="#5C9999"/>
<path fill-rule="evenodd" clip-rule="evenodd" d="M69.4414 7.03509L69.0427 6.80309L67.8214 7.52442L66.8254 6.94709L66.336 7.23509L67.332 7.81376L66.1094 8.53642L66.508 8.76709L67.7307 8.04576L68.7267 8.62309L69.2147 8.33642L68.2187 7.75642L69.4414 7.03509Z" fill="#5C9999"/>
<path fill-rule="evenodd" clip-rule="evenodd" d="M79 12.5898L78.6013 12.3578L77.38 13.0791L76.384 12.5018L75.8946 12.7898L76.8906 13.3684L75.668 14.0911L76.0666 14.3218L77.2893 13.6004L78.2853 14.1778L78.7733 13.8911L77.7773 13.3111L79 12.5898Z" fill="#5C9999"/>
<path fill-rule="evenodd" clip-rule="evenodd" d="M74.2226 9.81243L73.824 9.58043L72.6013 10.3018L71.6053 9.72443L71.1173 10.0124L72.1133 10.5911L70.8906 11.3138L71.2893 11.5444L72.5106 10.8231L73.5066 11.4004L73.996 11.1138L73 10.5338L74.2226 9.81243Z" fill="#5C9999"/>
<path fill-rule="evenodd" clip-rule="evenodd" d="M88.5586 18.1445L88.1599 17.9125L86.9386 18.6338L85.9426 18.0565L85.4532 18.3445L86.4492 18.9231L85.2266 19.6458L85.6252 19.8765L86.8479 19.1551L87.8439 19.7325L88.3319 19.4458L87.3359 18.8658L88.5586 18.1445Z" fill="#5C9999"/>
<path fill-rule="evenodd" clip-rule="evenodd" d="M83.7812 15.3671L83.3826 15.1351L82.1599 15.8565L81.1639 15.2791L80.6759 15.5671L81.6719 16.1458L80.4492 16.8685L80.8479 17.0991L82.0692 16.3778L83.0652 16.9551L83.5546 16.6685L82.5586 16.0885L83.7812 15.3671Z" fill="#5C9999"/>
<path fill-rule="evenodd" clip-rule="evenodd" d="M10.7734 41.6885L10.3747 41.4579L9.15207 42.1792L8.15607 41.6019L7.66807 41.8899L8.66407 42.4685L7.44141 43.1899L7.84007 43.4219L9.06141 42.7005L10.0574 43.2779L10.5467 42.9899L9.55074 42.4112L10.7734 41.6885Z" fill="#5C9999"/>
<path fill-rule="evenodd" clip-rule="evenodd" d="M20.332 47.2432L19.9333 47.0126L18.7107 47.7339L17.7147 47.1566L17.2267 47.4446L18.2227 48.0232L17 48.7446L17.3987 48.9766L18.62 48.2552L19.616 48.8326L20.1053 48.5446L19.1093 47.9659L20.332 47.2432Z" fill="#5C9999"/>
<path fill-rule="evenodd" clip-rule="evenodd" d="M15.5547 44.4659L15.156 44.2352L13.9347 44.9566L12.9387 44.3792L12.4493 44.6672L13.4453 45.2459L12.2227 45.9672L12.6213 46.1992L13.844 45.4779L14.84 46.0552L15.328 45.7672L14.332 45.1886L15.5547 44.4659Z" fill="#5C9999"/>
<path fill-rule="evenodd" clip-rule="evenodd" d="M29.8906 52.7979L29.4919 52.5673L28.2693 53.2886L27.2733 52.7113L26.7853 52.9979L27.7813 53.5779L26.5586 54.2993L26.9573 54.5312L28.1786 53.8099L29.1746 54.3873L29.6639 54.0993L28.6679 53.5206L29.8906 52.7979Z" fill="#5C9999"/>
<path fill-rule="evenodd" clip-rule="evenodd" d="M25.1132 50.0206L24.7146 49.7899L23.4932 50.5112L22.4973 49.9339L22.0079 50.2219L23.0039 50.8006L21.7812 51.5219L22.1799 51.7539L23.4026 51.0326L24.3986 51.6099L24.8866 51.3219L23.8906 50.7432L25.1132 50.0206Z" fill="#5C9999"/>
</svg>
