<svg width="116" height="111" viewBox="0 0 116 111" fill="none" xmlns="http://www.w3.org/2000/svg">
<path d="M49 46.0712L51.444 47.4045H110.333V46.0712L105.952 43.4045H53.3813L49 46.0712Z" fill="#9BCFEC"/>
<path d="M90.6202 34.0713L79.6682 27.4046L68.7148 34.0713H90.6202Z" fill="#9BCFEC"/>
<path d="M105.445 56.738H68.5557L75.889 60.738H98.1117L105.445 56.738Z" fill="#9BCFEC"/>
<path d="M56.334 50.0713L63.6673 54.0713H110.334V50.0713H56.334Z" fill="#9BCFEC"/>
<path d="M93.222 63.4046H79.666L80.9993 64.738V70.0713L93.222 63.4046Z" fill="#9BCFEC"/>
<path d="M64.3337 36.738L57.7617 40.738H101.572L95.0004 36.738H64.3337Z" fill="#9BCFEC"/>
<path d="M108.662 69.1494V55.8814L110.222 54.9868C110.246 54.9721 110.259 54.9521 110.281 54.9361C110.311 54.9148 110.347 54.9054 110.377 54.8828L110.566 54.7308C110.571 54.7268 110.574 54.7228 110.577 54.7188C110.581 54.7148 110.585 54.7148 110.589 54.7108L110.829 54.5081C110.871 54.4734 110.893 54.4241 110.927 54.3841C110.955 54.3548 110.994 54.3428 111.018 54.3081L111.169 54.1068C111.186 54.0841 111.189 54.0614 111.201 54.0388C111.226 54.0014 111.258 53.9668 111.279 53.9241L111.445 53.5961C111.463 53.5614 111.462 53.5214 111.474 53.4868C111.495 53.4294 111.531 53.3788 111.545 53.3161L111.594 53.0881C111.597 53.0774 111.594 53.0681 111.594 53.0588C111.597 53.0468 111.605 53.0388 111.606 53.0268L111.67 52.6481C111.677 52.6148 111.663 52.5814 111.666 52.5494C111.67 52.5161 111.687 52.4868 111.687 52.4521V46.8841C111.687 46.8454 111.669 46.8148 111.665 46.7788C111.662 46.7428 111.675 46.7081 111.667 46.6721L111.605 46.3174C111.605 46.3134 111.601 46.3094 111.599 46.3054C111.599 46.3014 111.601 46.2974 111.599 46.2921L111.55 46.0401C111.537 45.9774 111.501 45.9294 111.479 45.8708C111.458 45.8134 111.455 45.7534 111.426 45.6988L111.261 45.3974C111.246 45.3694 111.221 45.3548 111.205 45.3294C111.189 45.3054 111.186 45.2788 111.17 45.2548L111.018 45.0508C110.995 45.0214 110.965 45.0094 110.942 44.9814C110.917 44.9548 110.907 44.9188 110.879 44.8948L110.638 44.6668C110.613 44.6414 110.579 44.6348 110.551 44.6134C110.525 44.5894 110.51 44.5614 110.481 44.5414L110.291 44.4148C110.279 44.4068 110.266 44.4068 110.255 44.4001C110.243 44.3921 110.238 44.3801 110.226 44.3748L80.9006 27.4428C80.8886 27.4361 80.8766 27.4361 80.8659 27.4308C80.8552 27.4241 80.8499 27.4134 80.8379 27.4068L80.5846 27.2814C80.5432 27.2601 80.4992 27.2614 80.4552 27.2468C80.4112 27.2308 80.3766 27.2001 80.3299 27.1868L80.1152 27.1361H80.1126L79.9139 27.0881C79.8992 27.0841 79.8832 27.0894 79.8672 27.0854L77.5819 10.8508L113.178 31.4001L113.273 31.4761L113.382 31.5668L113.407 31.6054L113.459 31.7028L113.475 31.7788L113.515 32.0041V65.9454L113.474 66.1948L113.462 66.2441L113.41 66.3481L113.407 66.3508L113.273 66.4654L113.178 66.5414L108.662 69.1494ZM78.4752 86.5828V73.3148L80.0459 72.3974C80.0552 72.3921 80.0592 72.3828 80.0699 72.3761C80.0806 72.3694 80.0939 72.3668 80.1059 72.3574L80.2966 72.2334C80.3232 72.2134 80.3379 72.1841 80.3646 72.1641C80.3912 72.1401 80.4286 72.1321 80.4526 72.1068L80.6939 71.8801C80.7246 71.8508 80.7366 71.8134 80.7632 71.7841C80.7832 71.7588 80.8126 71.7521 80.8326 71.7268L80.9832 71.5228C80.9979 71.5054 81.0006 71.4841 81.0112 71.4654C81.0272 71.4401 81.0499 71.4188 81.0646 71.3908C81.0872 71.3908 81.1046 71.3908 81.1272 71.3881L81.3539 71.3614C81.3699 71.3601 81.3819 71.3494 81.3979 71.3468C81.4379 71.3428 81.4739 71.3441 81.5152 71.3334L81.6659 71.2961L81.7779 71.2801C81.8619 71.2681 81.9299 71.2254 82.0072 71.1974C82.0512 71.1814 82.0992 71.1868 82.1406 71.1668L82.3939 71.0401C82.4032 71.0361 82.4086 71.0268 82.4166 71.0228C82.4299 71.0161 82.4432 71.0134 82.4579 71.0068L106.262 57.2628V70.1268L106.259 70.1388C106.255 70.1574 106.263 70.1734 106.259 70.1908C106.257 70.2094 106.246 70.2214 106.245 70.2388L106.227 70.3868L106.218 70.4188L106.159 70.5268L106.146 70.5454L106.03 70.6428L105.935 70.7188L78.4752 86.5828ZM48.2912 104V87.8241L49.3606 88.4468C49.3952 88.4668 49.4326 88.4734 49.4672 88.4894C49.4859 88.5001 49.4966 88.5148 49.5166 88.5214L49.7699 88.6241C49.7912 88.6321 49.8126 88.6294 49.8339 88.6374C49.8552 88.6441 49.8672 88.6601 49.8886 88.6654L50.0659 88.7161C50.0726 88.7174 50.0792 88.7174 50.0886 88.7188C50.0926 88.7188 50.0939 88.7228 50.0992 88.7241L50.3019 88.7761C50.4019 88.8001 50.4992 88.8121 50.5979 88.8121H50.5992H50.8126H51.0419C51.1392 88.8121 51.2379 88.8001 51.3379 88.7761L51.5406 88.7241C51.5446 88.7228 51.5472 88.7188 51.5512 88.7188C51.5579 88.7174 51.5659 88.7174 51.5739 88.7161L51.7499 88.6654C51.7726 88.6588 51.7846 88.6428 51.8059 88.6374C51.8272 88.6294 51.8486 88.6321 51.8699 88.6241L52.1232 88.5214C52.1419 88.5148 52.1526 88.5001 52.1686 88.4921C52.2046 88.4761 52.2419 88.4681 52.2739 88.4494L76.0779 74.7068V87.5641L76.0686 87.6201C76.0672 87.6281 76.0699 87.6348 76.0699 87.6441C76.0672 87.6508 76.0619 87.6574 76.0619 87.6654L76.0446 87.7974L76.0366 87.8334L75.9672 87.9574L75.9326 88.0108L75.8512 88.0841L75.7512 88.1641L48.2912 104ZM38.4152 19.9961L38.5246 19.9508L38.6419 19.9188C38.6432 19.9188 38.6432 19.9174 38.6446 19.9174L38.7366 19.8948L38.7406 19.8934L38.7539 19.8961L38.8459 19.9188H38.8472L38.9606 19.9508L39.0192 19.9748C39.0192 19.9761 39.0219 19.9748 39.0232 19.9761C39.0246 19.9761 39.0259 19.9774 39.0272 19.9774L39.0726 19.9961L43.7886 22.7161L43.9099 22.8121L43.9112 22.8134L44.0659 22.9401L44.0926 22.9761L44.2006 23.1534L44.2619 23.3561L44.3032 23.5228L47.3392 45.1201L26.9032 56.9121L10.4592 47.4201V36.5361L10.5006 36.3094L10.5152 36.2348L10.5672 36.1374L10.6019 36.0868L10.6859 36.0121L10.7899 35.9281L38.4152 19.9961ZM51.1446 86.3268L51.0286 86.3734L50.9126 86.4054L50.8912 86.4108H50.8126H50.7446L50.7232 86.4054L50.6059 86.3734L50.4899 86.3254L48.2912 85.0481V70.9308C48.2912 70.8934 48.2726 70.8614 48.2699 70.8254C48.2659 70.7894 48.2779 70.7548 48.2726 70.7188L48.2086 70.3641C48.2086 70.3588 48.2046 70.3561 48.2032 70.3508C48.2019 70.3468 48.2046 70.3428 48.2032 70.3374L48.1526 70.0841C48.1406 70.0228 48.1032 69.9748 48.0832 69.9188C48.0632 69.8614 48.0606 69.8014 48.0312 69.7481L47.8672 69.4468C47.8526 69.4201 47.8286 69.4041 47.8126 69.3801C47.7952 69.3548 47.7926 69.3241 47.7739 69.2988L47.6219 69.0948C47.6032 69.0694 47.5752 69.0601 47.5552 69.0361C47.5366 69.0134 47.5286 68.9868 47.5072 68.9641L47.2806 68.7374C47.2472 68.7054 47.2046 68.6921 47.1686 68.6641C47.1326 68.6348 47.1086 68.5921 47.0686 68.5668L46.8646 68.4414C46.8592 68.4374 46.8512 68.4374 46.8446 68.4334C46.8392 68.4294 46.8352 68.4228 46.8286 68.4201L29.3032 58.2948L48.9219 46.9734L49.0912 46.9041C49.0952 46.9028 49.0979 46.9001 49.1006 46.9001C49.1112 46.8948 49.1219 46.8841 49.1326 46.8788C49.1606 46.8668 49.1886 46.8601 49.2152 46.8468L49.2232 46.8454H49.2259L49.2939 46.8641L49.4232 46.9094L49.6139 46.9894L78.7619 63.8201L78.8819 63.9148L78.9899 64.0081L78.9966 64.0148L79.0459 64.1148L79.0592 64.1734L79.0992 64.4174V69.7681L79.0979 69.7814C79.0966 69.7881 79.0979 69.7934 79.0979 69.7988C79.0966 69.8068 79.0926 69.8121 79.0899 69.8174L79.0579 70.0201L79.0432 70.0854L79.0112 70.1481L78.9712 70.2014L78.8779 70.2881L78.8046 70.3374L76.6766 71.5828H76.6752L51.1446 86.3268ZM108.995 46.4374L109.063 46.4828L109.159 46.5708L109.191 46.6174L109.23 46.6881L109.246 46.7628L109.286 46.9894V52.3534L109.245 52.5988L109.231 52.6588L109.185 52.7508L109.175 52.7641L109.065 52.8561C109.065 52.8574 109.063 52.8574 109.062 52.8574L108.941 52.9548L106.863 54.1454C106.863 54.1468 106.862 54.1454 106.861 54.1468L81.5006 68.7881V64.3241C81.5006 64.2881 81.4846 64.2588 81.4806 64.2268C81.4779 64.1934 81.4899 64.1614 81.4846 64.1268L81.4206 63.7481C81.4179 63.7361 81.4112 63.7294 81.4086 63.7201C81.4059 63.7068 81.4112 63.6961 81.4086 63.6868L81.3579 63.4588C81.3472 63.4094 81.3152 63.3721 81.2979 63.3254C81.2806 63.2788 81.2819 63.2294 81.2592 63.1814L81.0939 62.8521C81.0779 62.8188 81.0472 62.7974 81.0259 62.7668C81.0059 62.7348 81.0019 62.6974 80.9792 62.6681L80.8286 62.4668C80.7992 62.4281 80.7566 62.4081 80.7259 62.3748C80.6952 62.3441 80.6792 62.3014 80.6446 62.2734L80.4046 62.0681C80.3992 62.0668 80.3926 62.0654 80.3886 62.0614C80.3846 62.0561 80.3819 62.0508 80.3766 62.0454L80.1872 61.8948C80.1619 61.8748 80.1326 61.8694 80.1072 61.8534C80.0819 61.8361 80.0672 61.8094 80.0392 61.7934L51.6579 45.4001L79.1086 29.5361L79.2499 29.4801L79.3179 29.4548L79.3872 29.4374L79.4112 29.4361H79.4179L79.5499 29.4668H79.5512C79.5512 29.4668 79.5512 29.4681 79.5526 29.4681L79.6339 29.4894L79.7312 29.5374L108.995 46.4374ZM68.6059 2.55343L68.7112 2.51076L68.8126 2.48275L68.8566 2.47076H68.9232H69.0019L69.0606 2.48542L69.1459 2.51076L69.2566 2.55475L74.0219 5.32942L74.1179 5.39342L74.2552 5.51209L74.3059 5.58009L74.3886 5.7081L74.4406 5.91876V5.92009L74.4899 6.11076L74.9112 9.10942V9.11076L77.5259 27.6814L50.2112 43.4641C50.1832 43.4814 50.1672 43.5081 50.1406 43.5254C50.1166 43.5441 50.0846 43.5481 50.0606 43.5668L49.8712 43.7201C49.8432 43.7428 49.8299 43.7761 49.8032 43.8001C49.7792 43.8241 49.7486 43.8334 49.7259 43.8588L49.6072 43.9921L46.6726 23.1241C46.6712 23.1014 46.6566 23.0854 46.6512 23.0654C46.6472 23.0428 46.6539 23.0228 46.6499 23.0014L46.5859 22.7468C46.5832 22.7374 46.5766 22.7321 46.5739 22.7228C46.5712 22.7121 46.5739 22.7014 46.5712 22.6934L46.4579 22.3148C46.4419 22.2641 46.4072 22.2294 46.3859 22.1814C46.3646 22.1348 46.3606 22.0828 46.3339 22.0374L46.1192 21.6828C46.1072 21.6654 46.0912 21.6588 46.0806 21.6414C46.0699 21.6241 46.0686 21.6068 46.0566 21.5908L45.9059 21.3868C45.8752 21.3468 45.8299 21.3254 45.7979 21.2894C45.7619 21.2534 45.7419 21.2068 45.7006 21.1734L45.4232 20.9468C45.4219 20.9454 45.4206 20.9454 45.4192 20.9441C45.4179 20.9428 45.4166 20.9414 45.4152 20.9401L45.2259 20.7881C45.2006 20.7668 45.1699 20.7614 45.1432 20.7428C45.1179 20.7268 45.1032 20.6988 45.0752 20.6828L41.1526 18.4214L68.6059 2.55343ZM40.8379 108.297L40.7659 108.335C40.7606 108.336 40.7566 108.339 40.7526 108.34C40.7339 108.343 40.7139 108.337 40.6952 108.341L40.5619 108.372L40.5539 108.373L40.5432 108.372L40.4139 108.341C40.3939 108.337 40.3752 108.343 40.3552 108.34C40.3512 108.339 40.3472 108.336 40.3406 108.335L40.2686 108.297L3.49924 87.0694L3.43124 87.0241L3.35658 86.9534L3.32591 86.9081L3.26323 86.7921L3.25124 86.7454L3.22057 86.5388V52.5374L3.25124 52.3294L3.26323 52.2828L3.32591 52.1668L3.33791 52.1494L3.42857 52.0734C3.4299 52.0734 3.42991 52.0734 3.43124 52.0721L3.5539 51.9748L8.27257 49.2574L8.33791 49.2228C8.35658 49.2188 8.37257 49.2201 8.3899 49.2161L8.5379 49.1814L8.55657 49.1801L8.57657 49.1814L8.70057 49.2121C8.7259 49.2188 8.7499 49.2174 8.7739 49.2214L8.85124 49.2588L26.3046 59.3374L45.6046 70.4854L45.6832 70.5334L45.7486 70.6001L45.8006 70.6721L45.8339 70.7334L45.8499 70.8081L45.8912 71.0361V85.7374V104.983L45.8886 104.995C45.8872 105.003 45.8899 105.008 45.8886 105.015C45.8872 105.021 45.8846 105.027 45.8832 105.033L45.8486 105.232L45.8352 105.299L45.8019 105.363L45.7726 105.401L45.6766 105.487L45.5672 105.568L40.8379 108.297ZM115.895 31.6868L115.831 31.3348C115.83 31.3294 115.827 31.3268 115.827 31.3214C115.826 31.3174 115.827 31.3121 115.827 31.3068L115.775 31.0548C115.763 30.9948 115.727 30.9481 115.707 30.8908C115.686 30.8348 115.683 30.7748 115.654 30.7201L115.489 30.4148C115.479 30.3974 115.463 30.3881 115.453 30.3708C115.443 30.3534 115.442 30.3361 115.431 30.3188L115.279 30.0921C115.247 30.0441 115.198 30.0161 115.161 29.9721C115.122 29.9294 115.099 29.8801 115.054 29.8414L114.815 29.6374C114.81 29.6334 114.803 29.6334 114.799 29.6281C114.794 29.6254 114.793 29.6201 114.787 29.6174L114.598 29.4654C114.573 29.4454 114.543 29.4414 114.519 29.4241C114.494 29.4054 114.478 29.3801 114.45 29.3641L77.6219 8.10409C77.5992 8.09076 77.5752 8.09076 77.5512 8.07876C77.5259 8.0681 77.5139 8.04943 77.4899 8.03876L77.2472 7.93609C77.2232 7.92676 77.2006 7.93076 77.1766 7.92142C77.1726 7.91876 77.1686 7.91609 77.1646 7.91609L76.8579 5.71209C76.8552 5.68809 76.8406 5.67343 76.8366 5.65076C76.8312 5.6281 76.8392 5.60942 76.8326 5.58676L76.7699 5.33342V5.3321L76.6672 4.92809C76.6499 4.86009 76.6086 4.80943 76.5832 4.74943C76.5566 4.68809 76.5486 4.62409 76.5099 4.56543L76.2939 4.23609C76.2859 4.22409 76.2726 4.21742 76.2646 4.20675C76.2552 4.19342 76.2539 4.1801 76.2446 4.1681L76.0926 3.96676C76.0672 3.93343 76.0286 3.91476 75.9992 3.88409C75.9712 3.85342 75.9566 3.81343 75.9246 3.78543L75.6339 3.53209C75.6126 3.51342 75.5872 3.50942 75.5659 3.49342C75.5446 3.47742 75.5339 3.45476 75.5112 3.43876L75.3219 3.3121C75.3099 3.30543 75.2979 3.30543 75.2872 3.29743C75.2766 3.29076 75.2712 3.28009 75.2592 3.27342L70.3859 0.437425C70.3606 0.421425 70.3299 0.421421 70.3019 0.408088C70.2739 0.396088 70.2566 0.372094 70.2286 0.360094L69.9752 0.260098C69.9552 0.250764 69.9352 0.254762 69.9139 0.246762C69.8926 0.240095 69.8806 0.225433 69.8579 0.220099L69.6806 0.168097C69.6739 0.165431 69.6672 0.168088 69.6619 0.166755C69.6552 0.164088 69.6499 0.157427 69.6419 0.156094L69.4392 0.106757C69.3899 0.0947571 69.3419 0.106761 69.2939 0.100094C69.2446 0.0947607 69.2006 0.0707667 69.1499 0.0707667H68.9219H68.7072C68.6566 0.0707667 68.6112 0.0947607 68.5619 0.100094C68.5139 0.105427 68.4672 0.0947571 68.4166 0.106757L68.2166 0.156094C68.2086 0.157427 68.2032 0.164088 68.1966 0.166755C68.1899 0.168088 68.1819 0.165431 68.1752 0.168097L67.9979 0.217424C67.9766 0.224091 67.9632 0.240095 67.9432 0.246762C67.9219 0.252095 67.9019 0.248099 67.8819 0.257433L67.6286 0.357428C67.6032 0.369428 67.5846 0.392091 67.5579 0.402757C67.5299 0.417424 67.4992 0.417428 67.4726 0.432095L39.7046 16.4814C39.6832 16.4948 39.6712 16.5148 39.6512 16.5294C39.6312 16.5428 39.6059 16.5454 39.5872 16.5601L39.3859 16.7108C39.3699 16.7228 39.3646 16.7374 39.3499 16.7494C39.3366 16.7628 39.3179 16.7654 39.3046 16.7774L39.0779 16.9801C39.0472 17.0081 39.0339 17.0454 39.0072 17.0721C38.9806 17.1028 38.9432 17.1201 38.9192 17.1521L38.7672 17.3534C38.7486 17.3788 38.7446 17.4081 38.7286 17.4348C38.7139 17.4574 38.6899 17.4721 38.6779 17.4974C38.6499 17.4988 38.6246 17.4868 38.5979 17.4908L38.3832 17.5148C38.3552 17.5188 38.3326 17.5361 38.3072 17.5414C38.2806 17.5468 38.2552 17.5388 38.2299 17.5454L38.0272 17.5974C38.0232 17.5988 38.0219 17.6014 38.0179 17.6028C38.0126 17.6041 38.0072 17.6028 38.0019 17.6041L37.8259 17.6521C37.8019 17.6601 37.7859 17.6774 37.7632 17.6828C37.7419 17.6908 37.7192 17.6868 37.6979 17.6961L37.4446 17.7974C37.4179 17.8081 37.3992 17.8321 37.3752 17.8441C37.3486 17.8574 37.3192 17.8561 37.2939 17.8708L9.50991 33.8974C9.48324 33.9134 9.46724 33.9388 9.4419 33.9561C9.41524 33.9761 9.38458 33.9814 9.35924 34.0001L9.1699 34.1521C9.1619 34.1601 9.15924 34.1694 9.1499 34.1774C9.14324 34.1814 9.1339 34.1828 9.1259 34.1908L8.89658 34.3934C8.85791 34.4268 8.83791 34.4748 8.80458 34.5148C8.76991 34.5548 8.72457 34.5801 8.69391 34.6241L8.54324 34.8521C8.53258 34.8694 8.53123 34.8868 8.5219 34.9041C8.51123 34.9214 8.4939 34.9308 8.48457 34.9481L8.32058 35.2521C8.29124 35.3081 8.28857 35.3668 8.26857 35.4228C8.24724 35.4801 8.21257 35.5268 8.20057 35.5881L8.1499 35.8414C8.14857 35.8454 8.1499 35.8494 8.1499 35.8548C8.1499 35.8601 8.1459 35.8628 8.14457 35.8668L8.08058 36.2214C8.07524 36.2574 8.08591 36.2921 8.08324 36.3281C8.07924 36.3641 8.06191 36.3961 8.06191 36.4321V46.8348L7.90191 46.8694L7.77391 46.8894C7.70591 46.9001 7.64991 46.9361 7.58591 46.9561C7.51924 46.9774 7.45124 46.9814 7.3859 47.0148L7.1459 47.1414C7.13924 47.1454 7.1339 47.1534 7.12724 47.1574C7.1219 47.1614 7.11257 47.1614 7.10591 47.1641L2.27257 49.9481C2.24591 49.9628 2.2299 49.9908 2.20457 50.0081C2.1779 50.0254 2.14591 50.0308 2.11924 50.0521L1.9299 50.2041C1.9259 50.2068 1.92457 50.2134 1.91924 50.2174C1.91657 50.2201 1.91257 50.2201 1.9099 50.2228L1.6699 50.4228C1.62723 50.4588 1.60591 50.5094 1.56857 50.5494C1.53124 50.5894 1.48191 50.6188 1.44991 50.6654L1.31124 50.8681C1.29924 50.8868 1.29791 50.9068 1.28724 50.9254C1.27391 50.9454 1.25658 50.9548 1.24591 50.9734L1.08191 51.2774C1.05658 51.3241 1.05524 51.3734 1.0379 51.4214C1.0179 51.4694 0.985908 51.5081 0.972575 51.5574L0.908569 51.8108C0.904569 51.8321 0.909903 51.8508 0.907237 51.8721C0.903237 51.8934 0.888572 51.9081 0.885905 51.9308L0.835236 52.2868C0.831236 52.3148 0.843243 52.3428 0.840576 52.3708C0.839243 52.4001 0.823242 52.4254 0.823242 52.4561V86.6281C0.823242 86.6588 0.839243 86.6828 0.840576 86.7134C0.843243 86.7414 0.831236 86.7708 0.835236 86.7988L0.885905 87.1548C0.889905 87.1774 0.903237 87.1934 0.907237 87.2174C0.911237 87.2348 0.905902 87.2534 0.909902 87.2748L0.973907 87.5268C0.989907 87.5921 1.02457 87.6441 1.05124 87.7028C1.06457 87.7361 1.06458 87.7761 1.08324 87.8094L1.24724 88.1121C1.26058 88.1348 1.27924 88.1521 1.2939 88.1761C1.3019 88.1881 1.30324 88.2041 1.31257 88.2174L1.45124 88.4214C1.49258 88.4814 1.5419 88.5294 1.5899 88.5788C1.6019 88.5908 1.60458 88.6054 1.61658 88.6161L1.85658 88.8428C1.88324 88.8681 1.9179 88.8774 1.94724 88.9001C1.97257 88.9214 1.98724 88.9508 2.01657 88.9694L2.2059 89.0961C2.21924 89.1041 2.23391 89.1081 2.24591 89.1148C2.25658 89.1214 2.26191 89.1308 2.27257 89.1374L39.1019 110.4C39.1139 110.408 39.1286 110.411 39.1432 110.419C39.1512 110.421 39.1566 110.431 39.1646 110.436L39.4179 110.561C39.4632 110.584 39.5099 110.577 39.5539 110.592C39.6299 110.62 39.6992 110.664 39.7819 110.675L39.8979 110.691L40.0499 110.728C40.0819 110.736 40.1152 110.735 40.1472 110.74C40.1632 110.741 40.1752 110.752 40.1899 110.755L40.4072 110.78C40.4539 110.787 40.4992 110.788 40.5459 110.788H40.5472H40.5486H40.5499H40.5512C40.5939 110.788 40.6379 110.787 40.6832 110.78L40.9099 110.755C40.9246 110.753 40.9352 110.743 40.9499 110.741C40.9859 110.735 41.0232 110.737 41.0566 110.728L41.2072 110.692L41.3259 110.675C41.4099 110.663 41.4779 110.62 41.5552 110.592C41.5992 110.576 41.6459 110.581 41.6899 110.561L41.9432 110.436C41.9512 110.431 41.9566 110.421 41.9646 110.419C41.9779 110.411 41.9926 110.408 42.0059 110.4L46.8286 107.617C46.8486 107.605 46.8579 107.588 46.8766 107.575C46.9006 107.56 46.9272 107.555 46.9499 107.537L47.1539 107.385C47.1659 107.375 47.1726 107.359 47.1846 107.348C47.1992 107.339 47.2152 107.335 47.2286 107.324L47.4552 107.121C47.4926 107.089 47.5086 107.045 47.5406 107.009C47.5646 106.983 47.5992 106.972 47.6219 106.943L47.7739 106.737C47.7872 106.72 47.7886 106.7 47.8006 106.681C47.8166 106.656 47.8379 106.636 47.8526 106.609C47.8819 106.608 47.9112 106.608 47.9406 106.604L48.1566 106.579C48.1699 106.577 48.1806 106.567 48.1939 106.565C48.2219 106.563 48.2526 106.564 48.2806 106.556L48.4952 106.507C48.5059 106.504 48.5112 106.497 48.5219 106.495C48.5352 106.491 48.5499 106.493 48.5646 106.488L48.7406 106.437C48.7632 106.431 48.7779 106.412 48.8006 106.407C48.8232 106.399 48.8459 106.401 48.8686 106.393L49.1099 106.291C49.1286 106.285 49.1379 106.269 49.1552 106.261C49.1846 106.247 49.2179 106.24 49.2459 106.225L77.0259 90.2014C77.0499 90.1854 77.0619 90.1654 77.0846 90.1494C77.1139 90.1294 77.1472 90.1228 77.1752 90.1001L77.3646 89.9494C77.3739 89.9414 77.3779 89.9294 77.3872 89.9228C77.3966 89.9148 77.4086 89.9108 77.4166 89.9028L77.6366 89.7068C77.6392 89.7041 77.6432 89.7014 77.6446 89.6988C77.7179 89.6334 77.7846 89.5588 77.8406 89.4734L77.9939 89.2468C78.0019 89.2348 78.0019 89.2214 78.0099 89.2081C78.0179 89.1948 78.0286 89.1854 78.0352 89.1734H78.1992H78.2006C78.2926 89.1734 78.3859 89.1614 78.4779 89.1401L78.6939 89.0881C78.7006 89.0868 78.7032 89.0828 78.7099 89.0814C78.7179 89.0788 78.7272 89.0801 78.7366 89.0774L78.9112 89.0281C78.9392 89.0214 78.9579 89.0028 78.9846 88.9921C79.0086 88.9841 79.0339 88.9881 79.0592 88.9761L79.2992 88.8748C79.3152 88.8681 79.3246 88.8534 79.3392 88.8468C79.3699 88.8334 79.4019 88.8268 79.4326 88.8094L107.213 72.7614C107.237 72.7468 107.247 72.7241 107.271 72.7081C107.299 72.6894 107.331 72.6828 107.359 72.6601L107.55 72.5094C107.553 72.5068 107.554 72.5014 107.559 72.4974C107.563 72.4934 107.571 72.4921 107.577 72.4881L107.815 72.2854C107.869 72.2401 107.897 72.1788 107.941 72.1268C107.967 72.0974 108.005 72.0841 108.027 72.0508L108.169 71.8481C108.178 71.8348 108.179 71.8174 108.189 71.8014C108.199 71.7854 108.214 71.7734 108.222 71.7548C108.247 71.7534 108.273 71.7534 108.297 71.7508L108.523 71.7268C108.542 71.7241 108.555 71.7121 108.573 71.7108C108.613 71.7041 108.65 71.7054 108.69 71.6948L108.894 71.6428C108.898 71.6414 108.901 71.6374 108.905 71.6374C108.913 71.6348 108.919 71.6361 108.929 71.6348L109.103 71.5841C109.125 71.5774 109.138 71.5628 109.161 71.5574C109.182 71.5508 109.202 71.5521 109.223 71.5428L109.477 71.4414C109.495 71.4348 109.505 71.4188 109.523 71.4108C109.558 71.3961 109.595 71.3881 109.629 71.3681L114.451 68.5841C114.477 68.5694 114.487 68.5468 114.511 68.5308C114.539 68.5121 114.573 68.5068 114.599 68.4828L114.789 68.3321C114.793 68.3294 114.795 68.3241 114.799 68.3201C114.805 68.3161 114.81 68.3148 114.817 68.3108L115.055 68.1081C115.099 68.0708 115.119 68.0228 115.155 67.9828C115.181 67.9548 115.218 67.9441 115.241 67.9121L115.393 67.7108C115.407 67.6908 115.41 67.6681 115.421 67.6468C115.449 67.6068 115.483 67.5694 115.506 67.5228L115.671 67.1934C115.69 67.1574 115.689 67.1188 115.701 67.0788C115.722 67.0254 115.755 66.9788 115.769 66.9201L115.818 66.6921C115.821 66.6814 115.818 66.6721 115.819 66.6614C115.822 66.6494 115.83 66.6401 115.833 66.6281L115.897 66.2481C115.902 66.2161 115.889 66.1828 115.891 66.1508C115.895 66.1174 115.913 66.0868 115.913 66.0521V31.9001C115.913 31.8614 115.894 31.8308 115.891 31.7934C115.889 31.7588 115.902 31.7241 115.895 31.6868" fill="#37A0D9"/>
</svg>
