<?xml version="1.0" encoding="utf-8"?>
<!-- Generator: Adobe Illustrator 16.0.0, SVG Export Plug-In . SVG Version: 6.00 Build 0)  -->
<!DOCTYPE svg PUBLIC "-//W3C//DTD SVG 1.1//EN" "http://www.w3.org/Graphics/SVG/1.1/DTD/svg11.dtd">
<svg version="1.1" id="Слой_1" xmlns="http://www.w3.org/2000/svg" xmlns:xlink="http://www.w3.org/1999/xlink" x="0px" y="0px"
	 width="47px" height="71px" viewBox="0 0 47 71" enable-background="new 0 0 47 71" xml:space="preserve">
<path fill="#5C9999" d="M46,36.595L28,26.4v-24l-4-2.268V0h-2v0.133L0,12.595v31.811l3,1.699V62h2V47.238L21,56.3V71h2V57.433L24,58
	l18-10.2V61h2V46.671l3-1.7V37L46,36.595z M45,43.7L24,55.594l-1-0.565V55h-0.05L2,43.133V13.867L23,1.971l3,1.7v23.161L7,37.595V39
	h1.765l18.618-10.546L45,38.433V43.7z"/>
</svg>
