<?xml version="1.0" encoding="utf-8"?>
<!-- Generator: Adobe Illustrator 16.0.0, SVG Export Plug-In . SVG Version: 6.00 Build 0)  -->
<!DOCTYPE svg PUBLIC "-//W3C//DTD SVG 1.1//EN" "http://www.w3.org/Graphics/SVG/1.1/DTD/svg11.dtd">
<svg version="1.1" id="Слой_1" xmlns="http://www.w3.org/2000/svg" xmlns:xlink="http://www.w3.org/1999/xlink" x="0px" y="0px"
	 width="59.974px" height="71.39px" viewBox="0 0 59.974 71.39" enable-background="new 0 0 59.974 71.39" xml:space="preserve">
<path fill="#5C9999" d="M47.427,17.6v-5.865c0-0.465-0.379-0.843-0.844-0.843H44.16V0.843C44.16,0.378,43.783,0,43.318,0H32.425
	c-0.467,0-0.844,0.378-0.844,0.843v10.049h-2.418c-0.465,0-0.843,0.378-0.843,0.843v5.862c-3.654,0.442-6.537,3.442-6.537,7.209
	v41.385c0,2.868,2.331,5.199,5.193,5.199h21.783c2.867,0,5.199-2.331,5.199-5.192V55.206V28.584v-3.778
	C53.96,21.039,51.078,18.039,47.427,17.6 M33.267,1.685h9.207v3.76H40.05c-0.465,0-0.844,0.378-0.844,0.843s0.379,0.843,0.844,0.843
	h2.424v3.758h-9.207V1.685z M30.003,12.579h2.418h10.893h2.424v4.85H30.003V12.579z M48.763,69.708H26.979
	c-1.938,0-3.51-1.575-3.51-3.513v-2.907h28.805v2.913C52.275,68.136,50.701,69.708,48.763,69.708 M52.275,54.363H36.703V29.426
	h15.572V54.363z M52.275,27.741H35.859c-0.465,0-0.842,0.378-0.842,0.843v26.622c0,0.465,0.377,0.843,0.842,0.843h16.416v5.549
	H23.47V24.806c0-3.14,2.55-5.69,5.69-5.69h17.421c3.141,0,5.691,2.55,5.691,5.69v2.935H52.275z"/>
<path fill="#5C9999" d="M18.271,52.284H0.843C0.378,52.284,0,52.662,0,53.127v13.071c0,2.861,2.331,5.192,5.199,5.192h8.715
	c2.868,0,5.199-2.331,5.199-5.199V53.127C19.113,52.662,18.735,52.284,18.271,52.284 M17.427,66.191
	c0,1.938-1.574,3.514-3.513,3.514H5.199c-1.938,0-3.513-1.573-3.513-3.51V53.966h15.74V66.191z"/>
<path fill="#5C9999" d="M46.968,5.34c0.527,0,0.953,0.427,0.953,0.954c0,0.526-0.426,0.954-0.953,0.954s-0.953-0.428-0.953-0.954
	C46.015,5.767,46.441,5.34,46.968,5.34"/>
<path fill="#5C9999" d="M51.06,3.123c0.527,0,0.955,0.427,0.955,0.954c0,0.526-0.428,0.954-0.955,0.954s-0.953-0.428-0.953-0.954
	C50.107,3.55,50.533,3.123,51.06,3.123"/>
<path fill="#5C9999" d="M51.06,7.551c0.527,0,0.955,0.427,0.955,0.954c0,0.526-0.428,0.954-0.955,0.954s-0.953-0.428-0.953-0.954
	C50.107,7.978,50.533,7.551,51.06,7.551"/>
<path fill="#5C9999" d="M55.515,1.77c0.527,0,0.955,0.428,0.955,0.954c0,0.527-0.428,0.954-0.955,0.954s-0.953-0.427-0.953-0.954
	C54.562,2.197,54.988,1.77,55.515,1.77"/>
<path fill="#5C9999" d="M55.515,8.904c0.527,0,0.955,0.427,0.955,0.953c0,0.527-0.428,0.954-0.955,0.954s-0.953-0.427-0.953-0.954
	C54.562,9.331,54.988,8.904,55.515,8.904"/>
<path fill="#5C9999" d="M53.808,5.34c0.527,0,0.955,0.427,0.955,0.954c0,0.526-0.428,0.954-0.955,0.954s-0.953-0.428-0.953-0.954
	C52.855,5.767,53.281,5.34,53.808,5.34"/>
<path fill="#5C9999" d="M59.019,0.42c0.527,0,0.955,0.427,0.955,0.954c0,0.526-0.428,0.954-0.955,0.954S58.066,1.9,58.066,1.374
	C58.066,0.847,58.492,0.42,59.019,0.42"/>
<path fill="#5C9999" d="M59.019,10.254c0.527,0,0.955,0.427,0.955,0.954c0,0.526-0.428,0.954-0.955,0.954s-0.953-0.428-0.953-0.954
	C58.066,10.681,58.492,10.254,59.019,10.254"/>
<path fill="#5C9999" d="M57.306,3.98c0.529,0,0.957,0.429,0.957,0.957c0,0.529-0.428,0.957-0.957,0.957s-0.957-0.428-0.957-0.957
	C56.349,4.409,56.777,3.98,57.306,3.98"/>
<path fill="#5C9999" d="M57.306,6.689c0.527,0,0.955,0.428,0.955,0.954c0,0.527-0.428,0.954-0.955,0.954s-0.953-0.427-0.953-0.954
	C56.353,7.117,56.779,6.689,57.306,6.689"/>
</svg>
