<?xml version="1.0" encoding="utf-8"?>
<!-- Generator: Adobe Illustrator 16.0.0, SVG Export Plug-In . SVG Version: 6.00 Build 0)  -->
<!DOCTYPE svg PUBLIC "-//W3C//DTD SVG 1.1//EN" "http://www.w3.org/Graphics/SVG/1.1/DTD/svg11.dtd">
<svg version="1.1" id="Слой_1" xmlns="http://www.w3.org/2000/svg" xmlns:xlink="http://www.w3.org/1999/xlink" x="0px" y="0px"
	 width="98.224px" height="70.046px" viewBox="0 0 98.224 70.046" enable-background="new 0 0 98.224 70.046" xml:space="preserve">
<path fill="#669ACB" d="M95.404,39.771l-0.02-0.189c-0.004-0.028-0.02-0.052-0.025-0.077c-0.004-0.025,0-0.052-0.01-0.077
	L95.309,39.3c-0.006-0.019-0.021-0.028-0.026-0.047c-0.009-0.019-0.007-0.036-0.015-0.054l-0.084-0.168
	c-0.006-0.01-0.016-0.017-0.021-0.025c-0.005-0.01-0.005-0.021-0.012-0.028l-0.063-0.105c-0.021-0.034-0.054-0.056-0.079-0.087
	c-0.027-0.031-0.045-0.069-0.078-0.098l-0.127-0.105c-0.016-0.014-0.035-0.017-0.052-0.028c-0.017-0.011-0.024-0.028-0.043-0.039
	l-0.104-0.063c-0.002,0-0.004,0-0.004,0c-0.002-0.002-0.002-0.004-0.004-0.005l-2.49-1.456c-0.023-0.014-0.051-0.015-0.076-0.025
	c-0.025-0.012-0.045-0.03-0.071-0.04l-0.127-0.041c-0.013-0.004-0.024-0.001-0.036-0.004l-0.091-0.037
	c-0.001,0-0.002-0.001-0.002-0.001l-0.009-0.003c-0.006-0.002-0.012-0.001-0.018-0.003v-5.25c0-0.016-0.008-0.026-0.009-0.042
	s0.006-0.026,0.004-0.042l-0.021-0.189c-0.004-0.027-0.02-0.05-0.024-0.076c-0.006-0.027-0.001-0.056-0.011-0.083l-0.043-0.126
	c-0.006-0.017-0.02-0.027-0.026-0.044c-0.006-0.016-0.005-0.03-0.012-0.045l-0.084-0.17c-0.005-0.009-0.013-0.014-0.017-0.021
	c-0.006-0.011-0.004-0.021-0.011-0.03l-0.062-0.105c-0.023-0.039-0.059-0.063-0.088-0.096c-0.026-0.032-0.045-0.07-0.078-0.099
	l-0.127-0.104c-0.016-0.014-0.036-0.018-0.053-0.029c-0.018-0.011-0.026-0.028-0.045-0.039l-0.104-0.062
	c-0.002-0.002-0.005-0.002-0.007-0.003c0-0.001,0-0.001-0.002-0.002l-14.321-8.271c-0.009-0.005-0.017-0.004-0.024-0.007
	c-0.007-0.005-0.012-0.013-0.02-0.017l-0.127-0.063c-0.053-0.025-0.108-0.029-0.163-0.044c-0.022-0.007-0.042-0.024-0.065-0.03
	c-0.007-0.002-0.013,0-0.019-0.001c-0.007-0.001-0.013-0.008-0.019-0.009l-0.105-0.021c-0.006-0.001-0.012,0.001-0.018,0
	c-0.004-0.001-0.008-0.004-0.014-0.005l-0.127-0.021c-0.002,0-0.004,0.001-0.006,0l-0.044-0.072
	c-0.021-0.034-0.054-0.056-0.079-0.086c-0.027-0.032-0.045-0.07-0.079-0.099l-0.126-0.105c-0.016-0.013-0.035-0.017-0.052-0.028
	c-0.017-0.011-0.025-0.027-0.043-0.039l-0.104-0.063c-0.003-0.001-0.006-0.001-0.008-0.002c-0.002-0.002-0.003-0.004-0.005-0.004
	L60.967,12.92c-0.006-0.004-0.014-0.003-0.02-0.007c-0.008-0.003-0.012-0.011-0.018-0.014l-0.127-0.063
	c-0.056-0.027-0.113-0.034-0.173-0.048c-0.022-0.009-0.042-0.025-0.065-0.031c-0.008-0.002-0.015,0.001-0.021-0.001
	s-0.012-0.007-0.02-0.008l-0.104-0.021c-0.004-0.001-0.009,0.001-0.013,0s-0.008-0.003-0.012-0.005l-0.09-0.015
	c-0.002,0-0.002,0-0.004-0.001l-0.031-0.006h-0.006l-0.039-0.063c-0.021-0.037-0.058-0.062-0.084-0.094
	c-0.029-0.033-0.047-0.072-0.082-0.102l-0.127-0.104c-0.016-0.014-0.035-0.017-0.051-0.026c-0.015-0.012-0.021-0.026-0.037-0.036
	l-0.105-0.063c-0.002-0.002-0.006-0.001-0.008-0.003c-0.004-0.002-0.006-0.005-0.008-0.008L41.371,1.593
	c-0.007-0.004-0.015-0.004-0.022-0.008c-0.007-0.003-0.011-0.011-0.018-0.015L41.12,1.466c-0.029-0.015-0.062-0.015-0.091-0.023
	c-0.033-0.013-0.06-0.034-0.095-0.041l-0.105-0.021h-0.003l-0.211-0.042c-0.024-0.005-0.047,0.003-0.071,0.001
	c-0.026-0.003-0.049-0.017-0.075-0.017h-0.168H40.3c-0.041,0-0.082,0.02-0.124,0.026c-0.058,0.009-0.117,0.012-0.169,0.034h-0.001
	l-0.078,0.033l-0.027-0.015c-0.008-0.003-0.017-0.002-0.024-0.006c-0.044-0.021-0.092-0.026-0.14-0.038
	c-0.051-0.014-0.1-0.029-0.15-0.03c-0.009,0-0.016-0.006-0.023-0.006h-0.17c-0.026,0-0.048,0.014-0.073,0.016
	c-0.024,0.003-0.048-0.005-0.073,0L39.037,1.38h-0.003L38.929,1.4c-0.034,0.007-0.062,0.028-0.094,0.041
	c-0.03,0.01-0.062,0.01-0.092,0.023l-0.211,0.104c-0.007,0.004-0.011,0.012-0.019,0.015c-0.007,0.004-0.015,0.004-0.021,0.008
	L20.119,12.203c-0.003,0.002-0.005,0.005-0.008,0.007c-0.003,0.002-0.005,0.001-0.008,0.003l-0.105,0.063
	c-0.025,0.017-0.04,0.041-0.063,0.06c-0.024,0.021-0.054,0.027-0.076,0.051l-0.105,0.104c-0.01,0.011-0.013,0.023-0.022,0.034
	c-0.01,0.01-0.022,0.016-0.031,0.025l-0.085,0.104c-0.013,0.017-0.016,0.036-0.026,0.052c-0.014,0.002-0.025-0.003-0.039,0
	l-0.032,0.006l-0.073,0.016l-0.105,0.021c-0.001,0-0.002,0.001-0.002,0.001h-0.004l-0.105,0.021
	c-0.034,0.006-0.061,0.027-0.093,0.039c-0.03,0.01-0.062,0.01-0.093,0.024l-0.127,0.063c-0.007,0.003-0.011,0.01-0.019,0.014
	c-0.007,0.004-0.015,0.004-0.021,0.008l-14.326,8.27c-0.014,0.007-0.021,0.021-0.034,0.029c-0.014,0.01-0.03,0.012-0.043,0.021
	L4.39,21.303c-0.005,0.005-0.007,0.01-0.012,0.014c-0.005,0.003-0.011,0.004-0.016,0.008L4.236,21.43
	c-0.021,0.018-0.031,0.043-0.05,0.062c-0.019,0.02-0.041,0.028-0.058,0.049l-0.084,0.105c-0.017,0.021-0.021,0.047-0.035,0.068
	c-0.015,0.021-0.037,0.038-0.05,0.063l-0.084,0.169c-0.018,0.037-0.019,0.076-0.03,0.113c-0.011,0.032-0.031,0.062-0.037,0.096
	l-0.017,0.103l-0.04,0.174c-0.007,0.028,0.001,0.056-0.002,0.084s-0.016,0.054-0.016,0.083v5.256l-0.034,0.013L3.66,27.875
	c-0.016,0.003-0.027,0.014-0.042,0.019c-0.015,0.005-0.029,0.001-0.044,0.006L3.447,27.94c-0.025,0.007-0.043,0.026-0.066,0.038
	c-0.025,0.01-0.053,0.011-0.077,0.025l-2.49,1.456l-0.001,0.001c-0.001,0-0.002,0-0.003,0.001l-0.105,0.063
	c-0.028,0.018-0.046,0.044-0.071,0.063c-0.024,0.021-0.054,0.027-0.076,0.051l-0.105,0.105c-0.01,0.01-0.013,0.023-0.022,0.033
	c-0.01,0.011-0.022,0.016-0.031,0.025L0.313,29.91c-0.018,0.022-0.022,0.049-0.036,0.071c-0.016,0.023-0.039,0.04-0.052,0.065
	l-0.084,0.169c-0.018,0.035-0.018,0.073-0.029,0.11c-0.011,0.033-0.032,0.062-0.038,0.099l-0.018,0.102L0.017,30.71
	c-0.006,0.026,0.002,0.054-0.001,0.081C0.013,30.817,0,30.841,0,30.867V48.48c0,0.026,0.013,0.05,0.016,0.077
	c0.003,0.026-0.005,0.053,0.001,0.08l0.039,0.183l0.018,0.103c0.014,0.078,0.044,0.148,0.078,0.216
	c0.005,0.011,0.005,0.021,0.01,0.029l0.003,0.005c0,0.001,0.001,0.002,0.002,0.004l0.079,0.14c0.008,0.015,0.024,0.02,0.033,0.033
	c0.014,0.021,0.018,0.046,0.034,0.065l0.085,0.105c0.008,0.009,0.021,0.013,0.029,0.022c0.01,0.011,0.014,0.024,0.024,0.036
	l0.105,0.105c0.011,0.01,0.024,0.013,0.036,0.022c0.011,0.011,0.016,0.024,0.027,0.032l0.105,0.084
	c0.017,0.015,0.037,0.02,0.056,0.031c0.014,0.009,0.021,0.022,0.036,0.031L19.8,60.855c0.017,0.009,0.036,0.005,0.054,0.015
	c0.028,0.014,0.049,0.034,0.079,0.046l0.104,0.035l0.093,0.036c0.023,0.011,0.049,0.008,0.072,0.015
	c0.022,0.007,0.039,0.021,0.062,0.024l0.105,0.021c0.048,0.011,0.096,0.015,0.143,0.015h0.001h0.105h0.127h0.001
	c0.047,0,0.095-0.004,0.143-0.015l0.105-0.021c0.042-0.007,0.075-0.031,0.114-0.046c0.025-0.011,0.053-0.006,0.077-0.02l0.041-0.021
	l0.075-0.025c0.029-0.011,0.049-0.031,0.076-0.044c0.019-0.01,0.039-0.006,0.058-0.016l2.489-1.435
	c0.016-0.009,0.023-0.022,0.038-0.033c0.018-0.012,0.038-0.017,0.055-0.029l0.105-0.084c0.002-0.002,0.003-0.005,0.006-0.007
	s0.006-0.004,0.009-0.006l0.126-0.105c0.048-0.04,0.077-0.092,0.112-0.14c0.014-0.019,0.034-0.026,0.046-0.045l0.044-0.071
	c0.004-0.001,0.008,0,0.012-0.001l0.127-0.021c0.002,0,0.003-0.002,0.005-0.002c0.007-0.001,0.013-0.001,0.02-0.002l0.105-0.021
	c0.005-0.001,0.009-0.005,0.015-0.007c0.007-0.002,0.015-0.001,0.021-0.003l0.084-0.021c0.029-0.007,0.05-0.026,0.077-0.037
	c0.022-0.009,0.047-0.006,0.068-0.016l0.127-0.063c0.009-0.006,0.015-0.014,0.023-0.018c0.007-0.004,0.014-0.002,0.021-0.006
	l14.322-8.271l0.003-0.003c0.002-0.002,0.003,0,0.005-0.002l0.105-0.062c0.028-0.018,0.046-0.044,0.071-0.064
	c0.024-0.02,0.054-0.027,0.076-0.05l0.105-0.105c0.012-0.013,0.016-0.026,0.026-0.039c0.009-0.012,0.021-0.015,0.03-0.023
	l0.004-0.005l0.007,0.008c0.015,0.019,0.035,0.024,0.051,0.041c0.02,0.021,0.029,0.045,0.052,0.063l0.126,0.104
	c0.007,0.006,0.015,0.007,0.021,0.014c0.007,0.005,0.01,0.012,0.016,0.018l0.085,0.062c0.014,0.01,0.029,0.014,0.044,0.022
	c0.01,0.006,0.016,0.016,0.025,0.021l14.322,8.271c0.007,0.004,0.014,0.002,0.021,0.006s0.015,0.012,0.022,0.018l0.127,0.063
	c0.024,0.011,0.052,0.008,0.076,0.018c0.036,0.014,0.065,0.036,0.104,0.045l0.105,0.021l0.105,0.021l0.104,0.021
	c0.017,0.003,0.03,0.002,0.046,0.005h0.001c0.009,0.014,0.011,0.029,0.021,0.042l0.084,0.105c0.016,0.019,0.037,0.023,0.053,0.041
	c0.021,0.021,0.031,0.05,0.057,0.068l0.104,0.087l0.057,0.057c0.023,0.023,0.055,0.034,0.081,0.055s0.045,0.048,0.075,0.065
	l14.322,8.248c0.007,0.004,0.015,0.002,0.021,0.006c0.009,0.004,0.013,0.014,0.021,0.018l0.127,0.062
	c0.024,0.013,0.052,0.009,0.076,0.019c0.037,0.013,0.066,0.037,0.105,0.045l0.105,0.021l0.104,0.021h0.005c0,0,0,0,0.001,0
	l0.104,0.021c0.015,0.003,0.027,0.002,0.041,0.004c0.002,0.003,0.002,0.007,0.006,0.01c0.008,0.011,0.01,0.025,0.02,0.038
	l0.086,0.104c0.014,0.018,0.034,0.024,0.051,0.039c0.02,0.022,0.029,0.047,0.052,0.065l0.103,0.085l0.061,0.061
	c0.023,0.024,0.055,0.033,0.08,0.054c0.027,0.021,0.045,0.05,0.076,0.065l2.488,1.435c0.02,0.012,0.039,0.008,0.059,0.017
	C74.05,69.87,74.07,69.892,74.1,69.9l0.099,0.034l0.103,0.04c0.021,0.008,0.045,0.006,0.065,0.012s0.036,0.021,0.057,0.023
	l0.104,0.021c0.05,0.011,0.101,0.016,0.148,0.016h0.002h0.104h0.126h0.001c0.049,0,0.101-0.005,0.147-0.016l0.105-0.021
	c0.036-0.008,0.064-0.028,0.1-0.042c0.024-0.009,0.053-0.006,0.077-0.019l0.046-0.021l0.081-0.027
	c0.03-0.01,0.052-0.031,0.079-0.045c0.018-0.01,0.037-0.005,0.055-0.016l18.983-10.969c0.015-0.01,0.022-0.021,0.036-0.032
	c0.02-0.013,0.039-0.018,0.056-0.029l0.104-0.084c0.003-0.002,0.004-0.006,0.007-0.008s0.006-0.003,0.009-0.005l0.126-0.104
	c0.048-0.041,0.077-0.093,0.112-0.142c0.014-0.019,0.033-0.024,0.046-0.044l0.063-0.105c0.004-0.003,0.004-0.009,0.006-0.014
	c0.002-0.003,0.006-0.005,0.008-0.008l0.084-0.147c0.009-0.017,0.008-0.033,0.016-0.048c0.014-0.03,0.033-0.054,0.044-0.084
	l0.042-0.126c0.008-0.025,0.004-0.051,0.01-0.075c0.006-0.028,0.021-0.054,0.024-0.082l0.021-0.19
	c0.002-0.016-0.004-0.026-0.004-0.042c0.002-0.014,0.008-0.023,0.008-0.038v-17.61c0-0.015-0.006-0.026-0.008-0.039
	C95.4,39.798,95.407,39.785,95.404,39.771 M74.921,68.507l-0.058,0.02c-0.016,0.005-0.024,0.018-0.038,0.022h-0.036h-0.016
	l-0.029-0.012c-0.006-0.002-0.012-0.002-0.018-0.004s-0.01-0.006-0.015-0.008l-0.054-0.019l-2.344-1.351L72.3,67.144
	c-0.008-0.009-0.021-0.012-0.026-0.02c-0.01-0.009-0.014-0.019-0.021-0.026l-0.057-0.048l-0.002-0.009
	c-0.002-0.003-0.004-0.006-0.004-0.009c0-0.004,0.002-0.007,0-0.01l-0.021-0.105c-0.001-0.007-0.006-0.012-0.007-0.017V57v-7.547
	l0.02-0.08c0.002-0.01,0-0.018,0.002-0.025c0.002-0.01,0.008-0.018,0.01-0.027l0.002-0.008l0.057-0.049
	c0.01-0.008,0.014-0.019,0.021-0.026c0.008-0.007,0.02-0.01,0.026-0.019l0.015-0.014l9.998-5.752v-0.002h0.002l8.873-5.14
	c0.012-0.003,0.021-0.001,0.033-0.006c0.002-0.001,0.004-0.003,0.008-0.004c0.008-0.002,0.019-0.002,0.027-0.004
	c0.014-0.004,0.023-0.015,0.036-0.019c0.013,0.004,0.022,0.015,0.036,0.019l0.057,0.016l0.031,0.009l2.419,1.415h0.001l0.031,0.021
	l0.031,0.061l0.008,0.077v17.523l-0.008,0.065l-0.028,0.053l-0.031,0.025l-0.049,0.039L74.921,68.507z M20.749,59.522l-0.054,0.019
	c-0.015,0.005-0.024,0.018-0.039,0.022h-0.037h-0.015l-0.024-0.011c-0.007-0.003-0.013-0.001-0.02-0.004
	c-0.006-0.002-0.01-0.007-0.016-0.009l-0.058-0.02L1.617,48.617l-0.029-0.022l-0.046-0.046l-0.017-0.021
	c-0.001-0.004,0.001-0.009,0-0.016l-0.024-0.112V30.947l0.024-0.112c0.001-0.006-0.001-0.012,0-0.018
	c0.001-0.005,0.005-0.009,0.006-0.016l0.003-0.017l0.008-0.01l0.008-0.007l0.026-0.017l0.001-0.001l2.418-1.414l0.003-0.001
	l0.066-0.015c0.021-0.004,0.038-0.019,0.059-0.024h0.003h0.003c0.021,0.007,0.037,0.021,0.059,0.024l0.069,0.015l8.962,5.172
	c0.001,0.001,0.001,0.002,0.002,0.002l9.908,5.73l0.052,0.042l0.027,0.022l0.027,0.049l0.002,0.006l0.008,0.062v7.595V57.9
	c-0.008,0.03,0,0.062-0.003,0.091c-0.002,0.015-0.007,0.026-0.008,0.038l-0.03,0.063l-0.026,0.021l-0.046,0.038L20.749,59.522z
	 M90.098,31.468C90.1,31.469,90.1,31.47,90.1,31.47l0.037,0.021l0.028,0.061l0.003,0.01l0.008,0.064v5.542l-8.236,4.771
	l-10.549-6.097l1.535-10.835l0.021-0.062v-0.002c0.001-0.001,0.002-0.001,0.002-0.002l0.04-0.123l0.04-0.072l0.082-0.069
	l0.025-0.021l2.504-1.447l0.016-0.003l0.072-0.015l0.047,0.009l0.031,0.017L90.098,31.468z M71.482,47.955
	c-0.029,0.018-0.049,0.046-0.075,0.066c-0.025,0.021-0.058,0.029-0.08,0.053l-0.062,0.062l-0.102,0.085
	c-0.02,0.017-0.027,0.04-0.046,0.058c-0.019,0.019-0.041,0.027-0.058,0.048l-0.084,0.104c-0.019,0.021-0.021,0.049-0.037,0.07
	c-0.016,0.023-0.039,0.04-0.051,0.066l-0.084,0.168c-0.02,0.037-0.02,0.076-0.031,0.114c-0.01,0.032-0.03,0.061-0.037,0.095
	l-0.016,0.1l-0.035,0.145c-0.008,0.029,0,0.06-0.004,0.089c-0.004,0.031-0.019,0.058-0.019,0.088v7.206l-1.088,0.639l-0.025,0.012
	l-0.003,0.001h-0.054h-0.032l-0.02-0.004h-0.002l-0.055-0.023l-13.14-7.588l-0.001-0.001l-1.072-0.628l-0.049-0.039l-0.001-0.001
	l-0.036-0.03c-0.003-0.005-0.008-0.008-0.011-0.012c-0.005-0.009-0.007-0.02-0.013-0.026l-0.004-0.008l-0.004-0.022v-2.841
	l0.006-0.055l0.002-0.005l0.033-0.065l0.025-0.021l0.001-0.001l0.049-0.039l15.074-8.705c0.006-0.004,0.009-0.011,0.015-0.015
	c0.01-0.004,0.02-0.002,0.027-0.006l0.001-0.001c0.002-0.001,0.003,0,0.005-0.001l0.094-0.047h0.032h0.011
	c0.01,0.004,0.021,0.011,0.03,0.015c0.007,0.004,0.013,0.01,0.019,0.012l0.055,0.018l9.902,5.723L71.482,47.955z M26.004,48.219
	l-0.029,0.015l-0.017,0.003h-0.044h-0.028l-0.033-0.006l-0.013-0.003l-0.01-0.006l-1.086-0.636v-7.207
	c0-0.018-0.008-0.029-0.01-0.046c0-0.016,0.006-0.029,0.004-0.045l-0.021-0.168c-0.003-0.021-0.015-0.036-0.019-0.056
	c-0.003-0.021,0.002-0.039-0.004-0.059l-0.042-0.147c-0.009-0.032-0.03-0.055-0.043-0.083c-0.012-0.028-0.013-0.06-0.028-0.086
	l-0.084-0.146c-0.002-0.004-0.006-0.005-0.008-0.01c-0.001-0.003-0.001-0.006-0.003-0.008l-0.063-0.105
	c-0.021-0.034-0.054-0.057-0.079-0.085c-0.027-0.033-0.045-0.071-0.079-0.101l-0.126-0.104c-0.002-0.002-0.004-0.002-0.006-0.003
	c-0.002-0.002-0.003-0.004-0.005-0.006l-0.105-0.084c-0.016-0.013-0.034-0.015-0.05-0.026c-0.017-0.011-0.027-0.027-0.045-0.039
	l-8.832-5.109l9.925-5.728l0.036-0.019l0.046-0.009l0.009,0.002l0.041,0.017c0.007,0.003,0.014,0.001,0.02,0.004
	c0.006,0.002,0.01,0.007,0.016,0.009l0.055,0.019l13.247,7.663c0.001,0,0.001,0,0.002,0.001l0.12,0.072l0.04,0.04
	c0.005,0.005,0.011,0.006,0.016,0.009c0.005,0.005,0.007,0.013,0.012,0.018l0.168,0.15l0.1,0.124l0.084,0.143l0.054,0.105
	l0.055,0.15l0.021,0.08l0.011,0.113v3.163l-0.012,0.121l-0.02,0.089L39.09,40.33l-0.057,0.11l-0.015,0.024
	c-0.05,0.056-0.091,0.116-0.124,0.185l-0.045,0.057l-0.168,0.151c-0.005,0.004-0.007,0.012-0.012,0.017
	c-0.005,0.004-0.011,0.005-0.016,0.01l-0.06,0.061l-0.127,0.088L26.004,48.219z M39.684,19.671c0.075,0.024,0.152,0.048,0.236,0.048
	s0.162-0.022,0.238-0.048l13.091,7.545L40.62,34.521c-0.002,0.001-0.003,0.003-0.005,0.004c-0.002,0-0.003,0-0.004,0.001
	L40.4,34.652c-0.027,0.018-0.044,0.043-0.068,0.063s-0.055,0.029-0.077,0.053l-0.088,0.088l-0.201,0.182
	c-0.016,0.014-0.021,0.032-0.035,0.048c-0.014-0.016-0.02-0.034-0.035-0.048l-0.201-0.182l-0.088-0.088
	c-0.022-0.022-0.053-0.033-0.077-0.053c-0.024-0.02-0.041-0.045-0.068-0.063l-0.211-0.126c-0.001-0.001-0.002-0.001-0.004-0.001
	c-0.002-0.001-0.003-0.003-0.005-0.004l-12.628-7.306L39.684,19.671z M41.397,41.031l-0.127-0.088l-0.06-0.061
	c-0.005-0.005-0.011-0.006-0.016-0.01c-0.005-0.006-0.007-0.013-0.012-0.017l-0.167-0.15l-0.038-0.049
	c-0.042-0.09-0.103-0.17-0.176-0.236l-0.004-0.006l-0.042-0.084l-0.038-0.096l-0.01-0.088c-0.001-0.012-0.008-0.021-0.01-0.031
	c-0.002-0.011,0.002-0.021,0-0.033l-0.028-0.14V36.87l0.028-0.139c0.002-0.011-0.002-0.02,0-0.027
	c0.002-0.011,0.008-0.018,0.009-0.027l0.011-0.087l0.04-0.11l0.04-0.079l0.104-0.147l0.114-0.144l0.167-0.15
	c0.005-0.005,0.007-0.013,0.012-0.017c0.005-0.004,0.011-0.005,0.016-0.011l0.04-0.039l0.12-0.072
	c0.001-0.001,0.001-0.001,0.002-0.001l13.25-7.664l0.052-0.018c0.006-0.002,0.01-0.007,0.016-0.009s0.015-0.001,0.021-0.004
	l0.041-0.017l0.008-0.001l0.026,0.004l0.071,0.032l13.947,8.062l-14.43,8.335c-0.018,0.01-0.025,0.026-0.042,0.036
	c-0.017,0.012-0.035,0.015-0.05,0.026l-0.105,0.084c-0.002,0.002-0.003,0.004-0.005,0.005c-0.002,0.002-0.005,0.002-0.008,0.004
	l-0.127,0.105c-0.034,0.028-0.052,0.065-0.08,0.1c-0.026,0.031-0.062,0.055-0.083,0.091l-0.063,0.105
	c-0.006,0.009-0.006,0.018-0.01,0.026c-0.005,0.008-0.014,0.013-0.018,0.021L53.7,45.313c-0.009,0.019-0.009,0.038-0.017,0.057
	s-0.021,0.031-0.029,0.052l-0.04,0.127c-0.007,0.021-0.003,0.045-0.009,0.067c-0.004,0.023-0.02,0.043-0.021,0.068l-0.021,0.169
	c-0.002,0.017,0.006,0.03,0.004,0.048c0,0.017-0.01,0.029-0.01,0.046v2.108L41.397,41.031z M72.346,23.382
	c-0.017,0.01-0.023,0.022-0.039,0.033c-0.014,0.01-0.029,0.012-0.043,0.021L72.18,23.5c-0.006,0.004-0.008,0.011-0.013,0.015
	c-0.006,0.005-0.013,0.006-0.019,0.011l-0.146,0.125c-0.02,0.017-0.025,0.039-0.043,0.057s-0.038,0.025-0.055,0.044l-0.084,0.105
	c-0.016,0.018-0.018,0.039-0.03,0.058c-0.013,0.02-0.03,0.029-0.042,0.05l-0.105,0.189c-0.012,0.021-0.012,0.045-0.021,0.067
	c-0.011,0.021-0.026,0.038-0.034,0.061l-0.063,0.189v0.001l-0.041,0.121c-0.008,0.021-0.002,0.045-0.008,0.065
	c-0.006,0.025-0.021,0.045-0.023,0.069l-1.48,10.435l-0.008-0.008c-0.016-0.012-0.035-0.016-0.052-0.026
	c-0.017-0.012-0.026-0.027-0.044-0.038l-14.051-8.123l1.541-10.944l0.021-0.063l0.04-0.12l0.043-0.077l0.076-0.065l0.027-0.021
	l2.511-1.45l0.01-0.003h0.001l0.071-0.014l0.044,0.008l0.037,0.02L74.215,22.3L72.346,23.382z M56.779,14.397
	c-0.016,0.007-0.021,0.021-0.035,0.03c-0.014,0.01-0.028,0.011-0.041,0.02l-0.084,0.063c-0.008,0.006-0.01,0.014-0.016,0.018
	c-0.006,0.005-0.015,0.007-0.021,0.012l-0.147,0.127c-0.021,0.018-0.028,0.04-0.047,0.06c-0.017,0.016-0.037,0.024-0.054,0.045
	l-0.084,0.104c-0.013,0.018-0.017,0.036-0.026,0.054c-0.012,0.018-0.031,0.028-0.041,0.049l-0.105,0.188
	c-0.012,0.021-0.012,0.046-0.021,0.067s-0.025,0.037-0.033,0.06l-0.063,0.189v0.001c0,0-0.001,0-0.001,0.001l-0.042,0.127
	c-0.008,0.022-0.003,0.046-0.009,0.07c-0.006,0.021-0.02,0.038-0.021,0.062l-1.47,10.438c-0.006-0.006-0.013-0.009-0.019-0.013
	c-0.026-0.021-0.045-0.048-0.074-0.064L40.783,18.3c-0.014-0.008-0.029-0.008-0.043-0.015c-0.014-0.008-0.022-0.021-0.037-0.025
	l-0.031-0.014V2.92L58.65,13.315L56.779,14.397z M39.17,2.934v15.313l-0.031,0.014c-0.014,0.007-0.022,0.019-0.036,0.025
	c-0.014,0.006-0.028,0.006-0.042,0.014L25.54,26.104c-0.018,0.009-0.027,0.026-0.043,0.038c-0.017,0.011-0.037,0.014-0.053,0.026
	l-1.486-10.428c0-0.003-0.003-0.006-0.003-0.008c-0.001-0.004,0.001-0.007,0-0.012l-0.021-0.127
	c-0.003-0.021-0.016-0.034-0.021-0.054c-0.005-0.021-0.001-0.04-0.008-0.06l-0.063-0.189c-0.011-0.032-0.034-0.055-0.048-0.083
	c-0.015-0.031-0.019-0.063-0.038-0.095l-0.126-0.188l-0.001-0.001l-0.049-0.08c-0.021-0.032-0.053-0.054-0.077-0.083
	c-0.025-0.029-0.041-0.066-0.071-0.093l-0.146-0.127c-0.017-0.016-0.038-0.019-0.056-0.031c-0.019-0.014-0.029-0.032-0.049-0.045
	l-0.105-0.063c-0.002-0.001-0.004-0.001-0.005-0.002c-0.003,0-0.004-0.003-0.006-0.004l-1.871-1.082L39.17,2.934z M19.605,14.23
	l0.016-0.009l0.01-0.002h0.001l0.071-0.015l0.054,0.011l0.003,0.003l2.553,1.477h0.001l0.039,0.023l0.01,0.01l0.003,0.005
	c0.002,0.002,0.006,0.003,0.008,0.007c0.003,0.006,0.003,0.013,0.007,0.018l0.072,0.107l0.013,0.039l0.011,0.063l1.568,11
	l-10.447,6.028l-8.365-4.826v-5.486l0.024-0.108c0.002-0.007-0.001-0.013,0.001-0.021c0.001-0.008,0.006-0.013,0.007-0.021
	l0.002-0.008l0.044-0.038l0.032-0.023L19.605,14.23z M24.744,57.199v-7.875l0.348,0.204c0.007,0.004,0.016,0.002,0.023,0.007
	c0.009,0.006,0.015,0.015,0.024,0.02l0.127,0.062c0.024,0.013,0.051,0.01,0.076,0.019c0.036,0.015,0.066,0.037,0.104,0.045
	l0.105,0.021l0.105,0.021c0.049,0.011,0.1,0.015,0.148,0.015h0.001h0.105h0.105h0.001c0.041,0,0.083-0.003,0.124-0.01l0.127-0.021
	c0.007-0.001,0.013-0.007,0.02-0.009c0.014-0.003,0.027-0.001,0.041-0.004l0.084-0.021c0.029-0.008,0.05-0.026,0.077-0.038
	c0.022-0.008,0.047-0.005,0.068-0.017l0.127-0.062c0.009-0.005,0.015-0.013,0.023-0.018c0.007-0.005,0.014-0.002,0.021-0.007
	l12.08-6.967v6.363c-0.001,0.007-0.006,0.011-0.007,0.016l-0.021,0.105c-0.001,0.005,0.001,0.009,0,0.015
	c-0.001,0.003-0.003,0.005-0.004,0.009l-0.003,0.017l-0.001,0.002l-0.007,0.009l-0.007,0.008l-0.026,0.016
	c-0.001,0-0.001,0.001-0.002,0.002L24.744,57.199z M41.136,49.139L41.1,49.111l-0.037-0.031l-0.001-0.004
	c-0.001-0.004-0.003-0.007-0.004-0.01c-0.001-0.004,0.001-0.008,0-0.014l-0.007-0.034v-0.013v-6.442l12.058,6.966
	c0.013,0.008,0.025,0.004,0.037,0.011c0.018,0.009,0.027,0.023,0.045,0.029l0.146,0.063c0.04,0.019,0.082,0.017,0.123,0.024
	c0.024,0.011,0.046,0.028,0.072,0.035c0.008,0.001,0.015,0.001,0.022,0.002c0.004,0.001,0.006,0.004,0.012,0.005l0.104,0.021
	c0.05,0.011,0.101,0.015,0.147,0.015h0.002h0.019l0.035,0.06c0.011,0.02,0.03,0.024,0.044,0.043
	c0.037,0.051,0.068,0.105,0.119,0.146l0.127,0.105c0.003,0.002,0.006,0.003,0.009,0.005c0.002,0.001,0.002,0.004,0.005,0.005
	l0.104,0.085c0.016,0.012,0.034,0.018,0.052,0.027c0.014,0.01,0.021,0.023,0.036,0.031l0.746,0.438v6.529L41.136,49.139z
	 M56.748,58.172l-0.014-0.014c-0.008-0.008-0.02-0.01-0.027-0.019c-0.009-0.009-0.014-0.021-0.021-0.028l-0.056-0.045l-0.002-0.011
	c-0.001-0.004-0.003-0.007-0.004-0.01c-0.001-0.005,0.001-0.009,0-0.015L56.618,58v-0.009v-6.44l12.06,6.966
	c0.012,0.007,0.023,0.004,0.035,0.009c0.018,0.01,0.026,0.023,0.044,0.03l0.147,0.063c0.041,0.018,0.082,0.016,0.125,0.025
	c0.023,0.008,0.044,0.025,0.068,0.032c0.01,0.002,0.019,0.001,0.026,0.003c0.006,0.003,0.011,0.007,0.017,0.008l0.104,0.021
	c0.048,0.01,0.096,0.014,0.144,0.014l0,0h0.105h0.127h0.001c0.047,0,0.095-0.005,0.144-0.014l0.104-0.021
	c0.006-0.001,0.01-0.005,0.017-0.008c0.008-0.002,0.018-0.001,0.025-0.003l0.084-0.021c0.031-0.007,0.053-0.027,0.081-0.039
	c0.022-0.008,0.046-0.006,0.067-0.016l0.127-0.063c0.01-0.006,0.015-0.013,0.022-0.018c0.007-0.005,0.015-0.002,0.021-0.007
	l0.349-0.202v7.876L56.748,58.172z"/>
<path fill="#669ACB" d="M98.209,5.802c-0.234-1.186-0.873-2.213-1.803-2.918c-0.218-0.165-0.506-0.208-0.762-0.111
	c-1.479,0.551-2.27,0.223-2.768-0.693c-0.129-0.237-0.227-0.496-0.293-0.758c-0.041-0.153-0.061-0.269-0.065-0.318
	c-0.033-0.291-0.224-0.542-0.495-0.651c-1.156-0.469-2.445-0.469-3.6,0c-0.273,0.109-0.463,0.36-0.496,0.651
	c-0.006,0.05-0.025,0.165-0.064,0.318c-0.068,0.262-0.164,0.521-0.293,0.758c-0.5,0.916-1.291,1.244-2.768,0.693
	c-0.258-0.097-0.545-0.054-0.764,0.111c-0.929,0.705-1.568,1.732-1.795,2.882c-0.056,0.295,0.025,0.561,0.211,0.747
	c1.684,1.706,1.684,5.064,0,6.771c-0.186,0.187-0.267,0.453-0.218,0.711c0.233,1.186,0.872,2.212,1.802,2.918
	c0.215,0.163,0.498,0.207,0.752,0.117c0.075-0.027,0.236-0.074,0.461-0.123c0.735-0.159,1.504-0.19,2.197-0.016
	c0.915,0.229,1.604,0.793,2.036,1.82c0.274,0.653,1.2,0.653,1.476,0c0.433-1.027,1.121-1.591,2.037-1.82
	c0.691-0.175,1.461-0.144,2.196,0.016c0.226,0.049,0.386,0.096,0.462,0.123c0.254,0.09,0.536,0.046,0.751-0.117
	c0.929-0.706,1.568-1.732,1.796-2.882c0.055-0.294-0.027-0.561-0.211-0.747c-1.686-1.706-1.686-5.064,0-6.771
	C98.176,6.326,98.258,6.061,98.209,5.802 M96.545,14.066c-0.158,0.501-0.438,0.956-0.814,1.32c-0.063-0.014-0.127-0.028-0.197-0.045
	c-0.955-0.207-1.96-0.247-2.927-0.004c-0.949,0.239-1.761,0.733-2.383,1.501c-0.622-0.768-1.435-1.262-2.384-1.501
	c-0.967-0.243-1.971-0.203-2.928,0.004c-0.068,0.017-0.135,0.031-0.195,0.045c-0.377-0.364-0.655-0.818-0.815-1.321
	c1.89-2.274,1.89-6.061,0-8.335c0.156-0.494,0.433-0.943,0.8-1.307c2.01,0.587,3.465-0.095,4.274-1.58
	c0.218-0.399,0.36-0.795,0.446-1.142c0.525-0.136,1.076-0.136,1.602,0c0.087,0.347,0.229,0.742,0.447,1.142
	c0.81,1.485,2.265,2.167,4.275,1.58c0.366,0.362,0.641,0.812,0.799,1.308C94.655,8.005,94.655,11.791,96.545,14.066"/>
</svg>
