<svg width="800" height="640" viewBox="0 0 800 640" fill="none" xmlns="http://www.w3.org/2000/svg">
<path d="M586.292 47.6507L214.687 1.50788C207.275 0.654283 199.762 0.223083 192.359 0.223083C86.2929 0.223083 0 86.6634 0 192.91V196.901C0 268.755 39.4746 331.541 97.8341 364.667L149.222 572.404C154.904 595.381 169.198 614.772 189.464 626.999C203.461 635.445 219.147 639.777 235.083 639.777C242.225 639.775 249.416 638.906 256.527 637.148L257.939 636.798C280.916 631.115 300.307 616.824 312.535 596.558C324.762 576.289 328.368 552.474 322.683 529.497L285.58 379.503L586.292 342.163C594.555 341.138 600.759 334.117 600.759 325.79V64.0254C600.757 55.6983 594.553 48.6759 586.292 47.6507ZM290.647 537.42C294.215 551.843 291.951 566.79 284.278 579.508C276.602 592.228 264.434 601.198 250.01 604.764L248.598 605.114C234.181 608.684 219.232 606.421 206.512 598.743C193.794 591.069 184.824 578.898 181.258 564.48L135.901 381.114C153.763 386.618 172.722 389.588 192.362 389.588C199.767 389.588 207.28 389.157 214.837 388.284L252.6 383.595L290.647 537.42ZM567.757 311.209L210.914 355.519C204.75 356.227 198.506 356.588 192.357 356.588C104.489 356.588 33 284.954 33 196.901V192.91C33 104.86 104.489 33.2231 192.359 33.2231C198.508 33.2231 204.752 33.5839 210.769 34.2747L567.759 78.6026L567.757 311.209Z" fill="#5C9999"/>
<path d="M92.1933 194.906C92.1933 255.421 141.425 304.655 201.943 304.655C262.46 304.655 311.692 255.421 311.692 194.906C311.692 134.39 262.458 85.1564 201.943 85.1564C141.427 85.1564 92.1933 134.39 92.1933 194.906ZM278.692 194.906C278.692 237.225 244.262 271.655 201.943 271.655C159.623 271.655 125.193 237.227 125.193 194.906C125.193 152.584 159.623 118.156 201.943 118.156C244.262 118.156 278.692 152.586 278.692 194.906Z" fill="#5C9999"/>
<path d="M640.498 107C650.09 107 654.71 112.163 663.435 122.904C673.067 134.762 686.26 151 711.987 151C737.714 151 750.905 134.762 760.539 122.904C769.264 112.161 773.884 107 783.476 107C792.588 107 799.976 99.6146 799.976 90.5C799.976 81.3854 792.588 74 783.476 74C757.749 74 744.558 90.2382 734.924 102.096C726.199 112.839 721.579 118 711.987 118C702.395 118 697.775 112.837 689.05 102.096C679.418 90.2382 666.225 74 640.5 74C631.388 74 624 81.3854 624 90.5C624 99.6146 631.385 107 640.498 107Z" fill="#5C9999"/>
<path d="M783.476 228C757.749 228 744.558 244.238 734.924 256.096C726.199 266.839 721.579 272 711.987 272C702.395 272 697.775 266.837 689.05 256.096C679.418 244.238 666.225 228 640.5 228C631.388 228 624 235.385 624 244.5C624 253.615 631.388 261 640.5 261C650.092 261 654.712 266.163 663.437 276.904C673.069 288.762 686.262 305 711.989 305C737.716 305 750.907 288.762 760.541 276.904C769.266 266.161 773.886 261 783.478 261C792.591 261 799.978 253.615 799.978 244.5C799.978 235.385 792.588 228 783.476 228Z" fill="#5C9999"/>
<path d="M640.498 184C650.09 184 654.71 189.163 663.435 199.904C673.067 211.762 686.26 228 711.987 228C737.714 228 750.905 211.762 760.539 199.904C769.264 189.161 773.884 184 783.476 184C792.588 184 799.976 176.615 799.976 167.5C799.976 158.385 792.588 151 783.476 151C757.749 151 744.558 167.238 734.924 179.096C726.199 189.839 721.579 195 711.987 195C702.395 195 697.775 189.837 689.05 179.096C679.418 167.238 666.225 151 640.5 151C631.388 151 624 158.385 624 167.5C624 176.615 631.385 184 640.498 184Z" fill="#5C9999"/>
</svg>
