<?xml version="1.0" encoding="utf-8"?>
<!-- Generator: Adobe Illustrator 16.0.0, SVG Export Plug-In . SVG Version: 6.00 Build 0)  -->
<!DOCTYPE svg PUBLIC "-//W3C//DTD SVG 1.1//EN" "http://www.w3.org/Graphics/SVG/1.1/DTD/svg11.dtd">
<svg version="1.1" id="Слой_1" xmlns="http://www.w3.org/2000/svg" xmlns:xlink="http://www.w3.org/1999/xlink" x="0px" y="0px"
	 width="86.317px" height="83.037px" viewBox="0 0 86.317 83.037" enable-background="new 0 0 86.317 83.037" xml:space="preserve">
<polygon fill="#5C9999" points="46.707,40.714 51.707,43.441 51.707,26.129 46.707,29.173 "/>
<polygon fill="#5C9999" points="58.707,21.868 53.707,24.912 53.707,44.532 58.707,47.26 "/>
<polygon fill="#5C9999" points="67.707,49.441 72.707,46.713 72.707,29.172 67.707,26.129 "/>
<polygon fill="#5C9999" points="44.707,30.391 36.707,35.259 44.707,39.623 "/>
<polygon fill="#5C9999" points="74.707,30.391 74.707,45.623 82.707,41.259 82.707,35.259 "/>
<polygon fill="#5C9999" points="65.707,24.912 60.707,21.868 60.707,49.26 60.707,53.26 65.707,50.532 "/>
<path fill="#5C9999" d="M86.304,23.712l-0.048-0.264c-0.001-0.004-0.003-0.006-0.003-0.01c-0.001-0.003,0-0.007,0-0.011
	l-0.039-0.189c-0.009-0.045-0.036-0.08-0.051-0.123c-0.016-0.042-0.018-0.087-0.04-0.128l-0.124-0.229
	c-0.008-0.013-0.02-0.02-0.027-0.033c-0.007-0.013-0.008-0.026-0.016-0.039l-0.114-0.17c-0.024-0.036-0.062-0.057-0.089-0.09
	c-0.029-0.032-0.046-0.069-0.08-0.098l-0.179-0.153c-0.005-0.003-0.009-0.003-0.013-0.007c-0.004-0.002-0.004-0.006-0.009-0.008
	l-0.142-0.114c-0.02-0.015-0.041-0.018-0.059-0.031c-0.02-0.014-0.031-0.033-0.053-0.045L57.599,6.025
	c-0.017-0.01-0.035-0.01-0.053-0.019c-0.02-0.008-0.027-0.022-0.046-0.03l-0.183-0.077c-0.018-0.007-0.035-0.004-0.053-0.011
	c-0.003-0.002-0.006-0.004-0.009-0.004l-0.229-1.653c-0.002-0.018-0.014-0.029-0.017-0.046c-0.004-0.017,0.002-0.031-0.003-0.048
	l-0.047-0.19V3.946l-0.077-0.303c-0.013-0.051-0.044-0.089-0.063-0.134c-0.02-0.046-0.025-0.094-0.055-0.138l-0.162-0.247
	c-0.006-0.009-0.016-0.014-0.021-0.022c-0.008-0.01-0.008-0.02-0.016-0.029l-0.113-0.151c-0.02-0.025-0.049-0.039-0.07-0.062
	s-0.031-0.053-0.057-0.074l-0.217-0.189c-0.017-0.014-0.035-0.018-0.052-0.029c-0.016-0.012-0.024-0.029-0.04-0.041l-0.143-0.095
	c-0.01-0.005-0.018-0.005-0.026-0.011c-0.008-0.005-0.012-0.013-0.021-0.018l-3.655-2.127c-0.019-0.012-0.042-0.012-0.063-0.022
	c-0.021-0.009-0.033-0.027-0.055-0.036l-0.189-0.075c-0.016-0.007-0.03-0.004-0.047-0.01c-0.016-0.005-0.024-0.016-0.041-0.02
	l-0.133-0.039c-0.006-0.002-0.011,0-0.015-0.001c-0.005-0.002-0.009-0.007-0.015-0.008l-0.152-0.037
	c-0.037-0.009-0.073,0-0.109-0.005C51.315,0.018,51.282,0,51.245,0h-0.172h-0.16c-0.038,0-0.072,0.018-0.109,0.022
	c-0.035,0.004-0.07-0.004-0.109,0.005l-0.149,0.037c-0.006,0.001-0.011,0.006-0.015,0.008c-0.006,0.001-0.012-0.001-0.017,0.001
	L50.381,0.11c-0.017,0.005-0.026,0.017-0.041,0.022c-0.017,0.004-0.03,0.001-0.046,0.008l-0.189,0.075
	c-0.02,0.009-0.033,0.026-0.054,0.034C50.03,0.26,50.007,0.26,49.987,0.271L29.161,12.308c-0.016,0.01-0.025,0.025-0.04,0.036
	c-0.015,0.01-0.034,0.012-0.048,0.023l-0.151,0.113c-0.012,0.009-0.016,0.02-0.027,0.029c-0.01,0.01-0.024,0.012-0.034,0.021
	l-0.17,0.152c-0.023,0.021-0.033,0.049-0.053,0.069c-0.02,0.023-0.048,0.036-0.066,0.06l-0.114,0.151
	c-0.014,0.019-0.017,0.041-0.029,0.061c-0.011,0.017-0.029,0.028-0.038,0.047c-0.021,0.001-0.04-0.008-0.06-0.005l-0.161,0.018
	c-0.021,0.003-0.038,0.016-0.057,0.02c-0.02,0.004-0.039-0.002-0.058,0.003l-0.152,0.039c-0.003,0.001-0.004,0.003-0.007,0.004
	c-0.004,0.001-0.008,0-0.012,0.001l-0.132,0.036c-0.018,0.006-0.03,0.019-0.047,0.023c-0.016,0.006-0.033,0.003-0.049,0.01
	l-0.19,0.076c-0.02,0.008-0.034,0.026-0.052,0.035c-0.02,0.01-0.042,0.009-0.061,0.02L6.515,25.37
	c-0.02,0.012-0.032,0.031-0.051,0.044c-0.02,0.015-0.043,0.019-0.062,0.033L6.26,25.561c-0.006,0.006-0.008,0.013-0.015,0.019
	c-0.005,0.003-0.012,0.004-0.018,0.01l-0.172,0.152c-0.029,0.025-0.044,0.061-0.069,0.091c-0.026,0.03-0.06,0.049-0.083,0.082
	L5.79,26.086c-0.008,0.013-0.009,0.026-0.016,0.039c-0.008,0.013-0.021,0.02-0.028,0.033l-0.123,0.228
	c-0.022,0.042-0.024,0.086-0.039,0.128c-0.016,0.043-0.042,0.078-0.051,0.124l-0.038,0.189c-0.001,0.003,0,0.006,0,0.01
	s-0.003,0.006-0.004,0.009l-0.048,0.266c-0.004,0.027,0.004,0.053,0.002,0.08c-0.003,0.027-0.016,0.051-0.016,0.078v7.802
	l-0.12,0.026l-0.096,0.015c-0.051,0.008-0.093,0.035-0.141,0.05c-0.05,0.016-0.101,0.019-0.15,0.044l-0.18,0.095
	c-0.005,0.003-0.009,0.009-0.014,0.012c-0.004,0.003-0.011,0.003-0.016,0.005l-3.625,2.088c-0.02,0.011-0.032,0.032-0.051,0.045
	c-0.02,0.013-0.044,0.017-0.064,0.033L0.83,37.6c-0.003,0.002-0.004,0.007-0.008,0.01c-0.002,0.002-0.005,0.002-0.007,0.004
	l-0.18,0.15c-0.032,0.027-0.048,0.064-0.076,0.095c-0.028,0.03-0.065,0.052-0.089,0.087l-0.104,0.152
	c-0.009,0.014-0.01,0.029-0.018,0.043c-0.01,0.015-0.023,0.021-0.031,0.036l-0.123,0.228c-0.019,0.035-0.02,0.072-0.033,0.108
	c-0.015,0.036-0.039,0.064-0.049,0.102l-0.048,0.19c-0.003,0.016,0.001,0.03-0.001,0.046c-0.003,0.016-0.014,0.027-0.016,0.044
	l-0.038,0.267c-0.003,0.021,0.006,0.042,0.004,0.063C0.012,39.247,0,39.266,0,39.289v25.629c0,0.023,0.012,0.041,0.013,0.064
	c0.002,0.021-0.007,0.043-0.004,0.064l0.038,0.267C0.05,65.33,0.06,65.342,0.063,65.36c0.003,0.013-0.001,0.027,0.002,0.043
	l0.048,0.189c0.012,0.049,0.038,0.088,0.058,0.132c0.01,0.025,0.01,0.055,0.024,0.08l0.123,0.227c0.01,0.017,0.024,0.03,0.035,0.048
	C0.359,66.088,0.36,66.1,0.367,66.11l0.104,0.153c0.031,0.045,0.068,0.081,0.104,0.118c0.009,0.009,0.011,0.02,0.02,0.028l0.18,0.17
	c0.02,0.02,0.046,0.026,0.068,0.043c0.019,0.016,0.03,0.038,0.052,0.052l0.142,0.095c0.01,0.006,0.021,0.009,0.03,0.014
	c0.008,0.005,0.012,0.012,0.02,0.017l27.622,15.947c0.009,0.006,0.02,0.008,0.031,0.014c0.006,0.002,0.01,0.009,0.016,0.013
	l0.19,0.094c0.034,0.017,0.069,0.012,0.102,0.023c0.057,0.02,0.109,0.054,0.171,0.061l0.087,0.013l0.114,0.028
	c0.024,0.006,0.049,0.005,0.073,0.009c0.012,0.001,0.021,0.009,0.032,0.011l0.163,0.019c0.035,0.004,0.069,0.005,0.104,0.005h0.001
	h0.001h0.001h0.001c0.032,0,0.065-0.001,0.099-0.005l0.17-0.019c0.011-0.001,0.019-0.009,0.03-0.01
	c0.027-0.005,0.055-0.003,0.08-0.01l0.113-0.027l0.089-0.014c0.063-0.008,0.114-0.041,0.172-0.061
	c0.033-0.012,0.068-0.008,0.101-0.023l0.19-0.094c0.006-0.004,0.01-0.011,0.016-0.013c0.01-0.006,0.021-0.008,0.031-0.014
	l3.617-2.087c0.015-0.009,0.022-0.021,0.036-0.032c0.018-0.011,0.038-0.015,0.055-0.028l0.153-0.114
	c0.009-0.008,0.014-0.02,0.023-0.028c0.011-0.007,0.023-0.01,0.033-0.018l0.17-0.152c0.028-0.023,0.04-0.057,0.064-0.084
	c0.018-0.02,0.044-0.028,0.061-0.05L35.213,80c0.01-0.013,0.011-0.028,0.02-0.042c0.012-0.019,0.028-0.034,0.039-0.054
	c0.022-0.001,0.044-0.001,0.066-0.004l0.162-0.019c0.01-0.001,0.018-0.009,0.028-0.01c0.021-0.002,0.044-0.001,0.065-0.007
	l0.161-0.037c0.008-0.002,0.012-0.007,0.02-0.009c0.01-0.003,0.021-0.001,0.032-0.005l0.132-0.038
	c0.017-0.005,0.028-0.019,0.045-0.023c0.017-0.006,0.034-0.004,0.051-0.01l0.181-0.077c0.014-0.004,0.021-0.016,0.034-0.022
	c0.022-0.011,0.047-0.016,0.068-0.027l20.834-12.018c0.019-0.012,0.027-0.027,0.045-0.039c0.021-0.015,0.047-0.02,0.067-0.037
	l0.142-0.113c0.008-0.006,0.011-0.015,0.018-0.02c0.007-0.006,0.016-0.009,0.021-0.015l0.166-0.147
	c0.002-0.002,0.004-0.004,0.006-0.006c0.055-0.049,0.104-0.105,0.146-0.169l0.115-0.17c0.006-0.009,0.006-0.019,0.012-0.029
	c0.006-0.01,0.014-0.017,0.02-0.026h0.123l0,0c0.07,0,0.14-0.009,0.209-0.025l0.162-0.039c0.004-0.001,0.006-0.004,0.012-0.005
	c0.006-0.002,0.013-0.001,0.02-0.003l0.131-0.037c0.021-0.005,0.035-0.019,0.056-0.027c0.018-0.006,0.036-0.003,0.056-0.012
	l0.18-0.076c0.013-0.005,0.02-0.016,0.03-0.021c0.022-0.01,0.048-0.015,0.07-0.028l20.835-12.036
	c0.018-0.011,0.025-0.028,0.044-0.04c0.021-0.014,0.045-0.019,0.065-0.036l0.144-0.113c0.002-0.002,0.003-0.006,0.007-0.009
	c0.003-0.003,0.01-0.004,0.014-0.007l0.179-0.152c0.04-0.034,0.061-0.08,0.094-0.119c0.021-0.022,0.048-0.032,0.065-0.057
	l0.105-0.152c0.008-0.01,0.008-0.023,0.016-0.035s0.019-0.021,0.024-0.035c0.019-0.001,0.038-0.001,0.056-0.003l0.17-0.018
	c0.015-0.002,0.024-0.011,0.037-0.012c0.03-0.005,0.059-0.004,0.088-0.012l0.153-0.039c0.003-0.001,0.005-0.004,0.009-0.004
	c0.006-0.002,0.01-0.001,0.018-0.002l0.131-0.038c0.016-0.005,0.025-0.016,0.043-0.02c0.016-0.005,0.031-0.004,0.047-0.011
	l0.189-0.076c0.015-0.005,0.021-0.017,0.035-0.023c0.026-0.011,0.055-0.017,0.08-0.032l3.616-2.088
	c0.019-0.011,0.027-0.028,0.046-0.04c0.021-0.014,0.045-0.018,0.065-0.036l0.142-0.113c0.004-0.002,0.006-0.006,0.008-0.009
	c0.004-0.003,0.008-0.004,0.014-0.007l0.179-0.152c0.033-0.028,0.048-0.064,0.075-0.094c0.02-0.021,0.047-0.029,0.064-0.053
	l0.113-0.151c0.012-0.015,0.014-0.032,0.021-0.048c0.021-0.03,0.047-0.058,0.063-0.093l0.124-0.247
	c0.014-0.027,0.014-0.056,0.021-0.086c0.017-0.04,0.041-0.075,0.052-0.119l0.037-0.171c0.002-0.008,0-0.015,0.001-0.023
	c0.002-0.009,0.008-0.016,0.01-0.025l0.048-0.285c0.005-0.024-0.006-0.049-0.004-0.073c0.003-0.025,0.017-0.048,0.017-0.074V23.872
	c0-0.029-0.015-0.052-0.017-0.08C86.299,23.766,86.31,23.74,86.304,23.712 M30.011,81.17l-0.054,0.028
	c-0.004,0.001-0.007,0.003-0.01,0.004c-0.014,0.002-0.029-0.002-0.043,0.001l-0.1,0.023l-0.006,0.001l-0.008-0.001l-0.097-0.023
	c-0.015-0.003-0.029,0.001-0.044-0.001c-0.003-0.001-0.006-0.003-0.011-0.004l-0.054-0.028L2.007,65.249l-0.051-0.034L1.9,65.162
	l-0.023-0.034L1.83,65.041l-0.009-0.035l-0.023-0.155V39.35l0.023-0.156l0.009-0.035l0.047-0.087l0.009-0.013l0.068-0.057
	c0.001,0,0.001,0,0.002-0.001l0.092-0.073l3.539-2.038l0.049-0.026c0.014-0.003,0.026-0.002,0.039-0.005l0.111-0.026L5.8,36.832
	l0.015,0.001l0.093,0.023c0.019,0.005,0.037,0.004,0.055,0.007l0.058,0.028l13.09,7.559l14.475,8.361l0.059,0.036l0.049,0.05
	l0.039,0.054l0.025,0.046l0.012,0.056l0.031,0.171V64.25v14.434l-0.002,0.009c-0.001,0.006,0.001,0.01,0,0.015
	c-0.001,0.005-0.003,0.009-0.004,0.014l-0.026,0.148l-0.01,0.05l-0.025,0.048l-0.022,0.029l-0.072,0.064l-0.082,0.061L30.011,81.17z
	 M50.837,1.862l0.079-0.032l0.075-0.021L51.024,1.8h0.051h0.059l0.044,0.011l0.063,0.019l0.084,0.033l3.574,2.081l0.071,0.048
	l0.103,0.089l0.039,0.051l0.062,0.096l0.039,0.158v0.001L55.25,4.53l0.315,2.249V6.78l1.961,13.928L37.041,32.545
	c-0.021,0.013-0.033,0.033-0.053,0.046c-0.018,0.014-0.042,0.017-0.06,0.031l-0.142,0.115c-0.021,0.017-0.031,0.042-0.051,0.06
	c-0.018,0.018-0.041,0.025-0.058,0.044l-0.089,0.1L34.387,17.29c-0.001-0.017-0.012-0.029-0.016-0.044
	c-0.003-0.017,0.002-0.032-0.001-0.048l-0.048-0.191c-0.002-0.007-0.007-0.011-0.009-0.018c-0.002-0.008,0-0.016-0.002-0.022
	l-0.085-0.284c-0.012-0.038-0.038-0.064-0.054-0.1c-0.016-0.035-0.019-0.074-0.039-0.108l-0.161-0.266
	c-0.009-0.013-0.021-0.018-0.029-0.031c-0.008-0.013-0.009-0.026-0.018-0.038l-0.113-0.153c-0.023-0.03-0.057-0.046-0.081-0.073
	c-0.027-0.027-0.042-0.062-0.073-0.087l-0.208-0.17c-0.001-0.001-0.002-0.001-0.003-0.002s-0.002-0.002-0.003-0.003l-0.142-0.114
	c-0.019-0.016-0.042-0.02-0.062-0.034c-0.019-0.012-0.03-0.033-0.051-0.045l-2.942-1.696L50.837,1.862z M81.129,34.775l0.051,0.034
	l0.072,0.066l0.024,0.035l0.028,0.053l0.013,0.056l0.029,0.17v4.023l-0.031,0.184l-0.01,0.045l-0.035,0.069l-0.007,0.01
	l-0.083,0.069c0,0.001-0.001,0.001-0.002,0.001l-0.091,0.073l-1.558,0.894c0,0.001-0.002,0-0.002,0.001l-19.021,10.98V48.19
	c0-0.027-0.012-0.049-0.015-0.073c-0.002-0.025,0.007-0.049,0.003-0.075l-0.048-0.284c-0.002-0.009-0.008-0.014-0.01-0.021
	c-0.002-0.01,0.002-0.018,0-0.025l-0.037-0.171c-0.008-0.037-0.032-0.065-0.045-0.1c-0.014-0.035-0.013-0.072-0.029-0.108
	l-0.124-0.247c-0.013-0.025-0.035-0.041-0.052-0.064c-0.015-0.024-0.018-0.052-0.035-0.074l-0.112-0.151
	c-0.022-0.029-0.054-0.044-0.077-0.069c-0.023-0.023-0.035-0.055-0.061-0.076l-0.18-0.154c-0.005-0.001-0.01-0.002-0.013-0.005
	c-0.003-0.004-0.005-0.008-0.009-0.012l-0.143-0.113c-0.019-0.015-0.041-0.019-0.06-0.031c-0.019-0.013-0.03-0.033-0.051-0.045
	L38.126,33.997l20.588-11.898l0.105-0.042l0.052-0.02l0.052-0.013l0.018-0.001h0.006l0.099,0.023h0.001c0,0,0,0.001,0.001,0.001
	l0.062,0.016l0.072,0.036L81.129,34.775z M37.741,64.692l-0.087,0.035l-0.087,0.024l-0.016,0.004h-0.059h-0.051l-0.016-0.004
	l-0.088-0.024l-0.087-0.036l-1.649-0.958V53.145c0-0.028-0.014-0.052-0.016-0.079c-0.003-0.027,0.006-0.053,0.002-0.08l-0.048-0.266
	c0-0.004-0.003-0.006-0.004-0.01c-0.001-0.003,0.001-0.006,0-0.01l-0.038-0.19c-0.009-0.046-0.037-0.082-0.052-0.124
	c-0.015-0.043-0.017-0.088-0.039-0.128l-0.123-0.226c-0.011-0.02-0.029-0.032-0.041-0.05c-0.013-0.019-0.015-0.042-0.029-0.061
	l-0.114-0.153c-0.014-0.019-0.035-0.026-0.05-0.044c-0.014-0.017-0.02-0.037-0.036-0.054l-0.17-0.17
	c-0.025-0.024-0.057-0.034-0.084-0.055c-0.027-0.022-0.045-0.054-0.075-0.073l-0.153-0.094c-0.004-0.003-0.01-0.003-0.015-0.006
	c-0.004-0.003-0.007-0.008-0.012-0.01L21.36,43.668l14.714-8.491l0.127-0.052c0.003-0.001,0.005-0.003,0.007-0.003
	c0.008-0.004,0.016-0.012,0.024-0.016c0.021-0.009,0.042-0.014,0.062-0.024l0.006-0.001h0.002l0.051,0.014l0.097,0.034l0.143,0.06
	l21.861,12.623l0.09,0.071l0.081,0.07l0.005,0.005l0.037,0.075l0.01,0.044l0.03,0.183v4.013l-0.001,0.01
	c-0.001,0.005,0,0.009,0,0.013c-0.001,0.006-0.004,0.01-0.006,0.014l-0.024,0.152l-0.011,0.049l-0.023,0.047l-0.031,0.04
	l-0.069,0.064L58.485,52.7l-1.596,0.934h-0.001L37.741,64.692z M28.194,14.944l0.082-0.034l0.088-0.024
	c0.001,0,0.001-0.001,0.002-0.001l0.069-0.017l0.003-0.001l0.01,0.002l0.069,0.017h0.001l0.085,0.024l0.044,0.018
	c0,0.001,0.002,0,0.003,0.001c0.001,0,0.002,0.001,0.003,0.001l0.034,0.014l3.537,2.04l0.091,0.072l0.001,0.001l0.116,0.095
	l0.021,0.027l0.081,0.133l0.046,0.152l0.031,0.125l2.277,16.198L19.56,42.631L7.227,35.512v-8.163l0.031-0.17l0.011-0.056
	l0.039-0.073l0.026-0.038l0.063-0.056l0.078-0.063L28.194,14.944z M35.601,77.947V65.815l0.802,0.467
	c0.026,0.015,0.054,0.02,0.08,0.032c0.014,0.008,0.022,0.019,0.037,0.024l0.19,0.077c0.016,0.006,0.032,0.004,0.048,0.01
	c0.016,0.005,0.025,0.017,0.041,0.021l0.133,0.038c0.005,0.001,0.01,0.001,0.017,0.002c0.003,0,0.004,0.003,0.008,0.004l0.152,0.039
	c0.075,0.018,0.148,0.027,0.222,0.027h0.001h0.16h0.172c0.073,0,0.147-0.009,0.222-0.027l0.152-0.039
	c0.003-0.001,0.005-0.004,0.008-0.004c0.005-0.001,0.011-0.001,0.017-0.002l0.132-0.038c0.017-0.005,0.026-0.017,0.042-0.021
	c0.016-0.006,0.032-0.004,0.048-0.01l0.19-0.077c0.014-0.005,0.022-0.016,0.034-0.022c0.027-0.012,0.055-0.018,0.079-0.032
	L56.44,55.977v9.643l-0.006,0.042c-0.002,0.006,0,0.011,0,0.019c-0.002,0.005-0.006,0.01-0.006,0.016l-0.013,0.099l-0.007,0.027
	l-0.051,0.093l-0.026,0.04l-0.062,0.055l-0.074,0.06L35.601,77.947z M58.239,64.884v-9.951l1.178-0.688
	c0.007-0.004,0.01-0.011,0.018-0.016s0.019-0.007,0.027-0.014l0.143-0.093c0.021-0.015,0.031-0.037,0.051-0.052
	c0.021-0.018,0.049-0.024,0.066-0.043l0.182-0.17c0.022-0.022,0.031-0.05,0.052-0.072c0.015-0.019,0.036-0.024,0.052-0.043
	l0.113-0.153c0.011-0.013,0.013-0.029,0.021-0.043c0.012-0.019,0.028-0.035,0.039-0.056c0.018,0,0.03,0,0.047-0.002l0.17-0.02
	c0.012-0.001,0.021-0.009,0.033-0.011c0.03-0.003,0.057-0.002,0.088-0.01l0.113-0.028l0.084-0.012
	c0.063-0.009,0.114-0.041,0.172-0.062c0.033-0.012,0.069-0.008,0.1-0.023l0.19-0.095c0.007-0.003,0.011-0.01,0.017-0.013
	c0.011-0.005,0.021-0.007,0.031-0.012l17.854-10.308v9.648l-0.002,0.009c-0.004,0.014,0.003,0.026,0,0.039
	c-0.002,0.014-0.01,0.023-0.012,0.036l-0.013,0.111l-0.007,0.024l-0.044,0.081l-0.011,0.014l-0.086,0.073l-0.071,0.057
	L58.239,64.884z M80.879,51.809v-9.951l1.17-0.671c0.019-0.011,0.028-0.026,0.044-0.038c0.023-0.016,0.051-0.023,0.072-0.04
	l0.142-0.114c0.005-0.003,0.007-0.006,0.009-0.009s0.006-0.003,0.008-0.006l0.181-0.152c0.032-0.026,0.048-0.063,0.074-0.093
	c0.021-0.022,0.05-0.031,0.067-0.057l0.113-0.151c0.014-0.017,0.016-0.034,0.023-0.051c0.02-0.028,0.043-0.054,0.06-0.086
	l0.124-0.246c0.014-0.026,0.014-0.056,0.021-0.082c0.017-0.043,0.043-0.081,0.054-0.128l0.037-0.171c0.002-0.008,0-0.015,0-0.022
	c0.002-0.009,0.008-0.015,0.009-0.024l0.048-0.284c0.005-0.025-0.005-0.05-0.003-0.074c0.003-0.025,0.016-0.047,0.016-0.073V35.11
	c0-0.029-0.014-0.052-0.017-0.079c-0.002-0.027,0.008-0.053,0.002-0.08l-0.047-0.266c0-0.003-0.003-0.006-0.004-0.009
	c0-0.003,0.001-0.006,0-0.01l-0.037-0.189c-0.011-0.047-0.037-0.083-0.054-0.127c-0.016-0.043-0.018-0.088-0.039-0.129l-0.124-0.227
	c-0.011-0.021-0.03-0.032-0.042-0.051c-0.012-0.018-0.014-0.038-0.026-0.056l-0.114-0.153c-0.017-0.022-0.039-0.031-0.057-0.052
	c-0.02-0.021-0.025-0.047-0.047-0.065l-0.182-0.171c-0.019-0.019-0.043-0.024-0.064-0.04c-0.02-0.018-0.031-0.039-0.053-0.054
	l-0.143-0.095c-0.009-0.006-0.019-0.006-0.027-0.011c-0.008-0.006-0.012-0.015-0.021-0.019L60.058,20.529
	c-0.009-0.005-0.018-0.005-0.025-0.009c-0.008-0.005-0.012-0.013-0.021-0.018l-0.189-0.094c-0.031-0.016-0.064-0.015-0.098-0.026
	c-0.033-0.012-0.059-0.035-0.094-0.045l-0.161-0.038h-0.002l-0.149-0.036c-0.011-0.003-0.022,0.001-0.035-0.002L57.569,8.085
	l26.697,15.412l0.07,0.057l0.082,0.068l0.02,0.029l0.039,0.073l0.012,0.057l0.029,0.169v25.456l-0.031,0.187l-0.008,0.037
	l-0.039,0.078l-0.002,0.002l-0.102,0.086l-0.07,0.057L80.879,51.809z"/>
</svg>
