<svg width="122" height="77" viewBox="0 0 122 77" fill="none" xmlns="http://www.w3.org/2000/svg">
<path d="M119.673 62.5206V62.5246L119.633 62.5633L98.9199 74.5139L98.9012 74.5233L98.8786 74.5139L96.3239 73.0486L96.2879 73.0139V62.1126V53.7766L96.2906 53.7646L107.299 47.4179C107.3 47.4179 107.3 47.4153 107.3 47.4153L107.308 47.4126C107.309 47.4113 107.309 47.4113 107.311 47.4113L117.077 41.7593L117.084 41.7606L119.632 43.2206L119.669 43.2579L119.673 43.2873V62.5206ZM95.0226 51.9793C94.9972 51.9939 94.9679 51.9953 94.9426 52.0126C94.9119 52.0326 94.8972 52.0633 94.8692 52.0873C94.8426 52.1086 94.8106 52.1179 94.7852 52.1419L94.6612 52.2646C94.6399 52.2846 94.6332 52.3113 94.6159 52.3313C94.5959 52.3553 94.5692 52.3646 94.5519 52.3886L94.4612 52.5126C94.4412 52.5406 94.4359 52.5739 94.4186 52.6033C94.4012 52.6326 94.3746 52.6486 94.3599 52.6793L94.2679 52.8659C94.2266 52.9486 94.2159 53.0379 94.1972 53.1233C94.1852 53.1579 94.1626 53.1859 94.1532 53.2193C94.1492 53.2379 94.1546 53.2553 94.1506 53.2726C94.1479 53.2913 94.1359 53.3046 94.1332 53.3219L94.1026 53.5393C94.0972 53.5673 94.1079 53.5913 94.1066 53.6179C94.1052 53.6459 94.0906 53.6686 94.0906 53.6979V61.4726L93.0719 62.0486L78.6012 53.7046L77.4186 53.0246V53.0233C77.4186 53.0219 77.4172 53.0193 77.4172 53.0179V50.0086L77.4199 50.0073L94.0066 40.4179C94.0079 40.4179 94.0079 40.4166 94.0092 40.4166L94.0759 40.3899L94.0906 40.3966L104.561 46.4566L95.1039 51.9086C95.0719 51.9273 95.0519 51.9579 95.0226 51.9793V51.9793ZM94.0906 71.7339L79.1626 63.1339C79.1599 63.1313 79.1532 63.1299 79.1506 63.1259V56.5606L92.0412 63.9926C92.0506 63.9979 92.0612 63.9939 92.0706 63.9993C92.0826 64.0059 92.0879 64.0179 92.1012 64.0246L92.2252 64.0859C92.2866 64.1166 92.3492 64.1126 92.4119 64.1313C92.4399 64.1433 92.4572 64.1633 92.4866 64.1739L92.5799 64.2046C92.6932 64.2433 92.8066 64.2619 92.9172 64.2619H92.9212C92.9239 64.2619 92.9266 64.2633 92.9319 64.2633H93.0852H93.2106C93.3292 64.2633 93.4492 64.2446 93.5679 64.2033L93.6172 64.1859L93.6972 64.1646C93.7412 64.1539 93.7732 64.1259 93.8146 64.1073C93.8452 64.0953 93.8812 64.1006 93.9119 64.0846L94.0359 64.0233C94.0479 64.0166 94.0532 64.0059 94.0639 64.0006C94.0719 63.9953 94.0812 63.9979 94.0906 63.9926V71.7339ZM76.2639 48.1393C76.2452 48.1499 76.2359 48.1673 76.2186 48.1779C76.2012 48.1899 76.1812 48.1913 76.1639 48.2046L76.0386 48.2953C76.0372 48.2966 76.0359 48.2993 76.0346 48.3006C76.0346 48.3006 76.0332 48.3006 76.0319 48.3019L75.9066 48.3939C75.8626 48.4273 75.8386 48.4753 75.8012 48.5126C75.7626 48.5499 75.7132 48.5779 75.6786 48.6233L75.5892 48.7473C75.5692 48.7739 75.5666 48.8033 75.5506 48.8299C75.5346 48.8593 75.5079 48.8753 75.4932 48.9046L75.3999 49.0899C75.3586 49.1739 75.3479 49.2646 75.3292 49.3526C75.3159 49.3859 75.2919 49.4166 75.2839 49.4513C75.2786 49.4686 75.2839 49.4859 75.2826 49.5033C75.2772 49.5206 75.2666 49.5339 75.2639 49.5486L75.2332 49.7646C75.2292 49.7913 75.2386 49.8166 75.2372 49.8446C75.2359 49.8726 75.2212 49.8953 75.2212 49.9246V51.7379L63.0012 44.6979V38.5379L76.8039 30.5593L76.8146 30.5539L76.8252 30.5593L91.7706 39.1739L76.2639 48.1393ZM76.9492 61.8393L62.0132 53.2286C62.0106 53.2273 62.0092 53.2273 62.0079 53.2259V53.2193L61.9786 53.1033V46.6473L74.9012 54.0939C74.9106 54.0993 74.9226 54.0966 74.9306 54.1019C74.9452 54.1073 74.9519 54.1206 74.9639 54.1273L75.0879 54.1886C75.1292 54.2099 75.1719 54.2059 75.2132 54.2193C75.2466 54.2353 75.2732 54.2619 75.3079 54.2753C75.3252 54.2806 75.3399 54.2779 75.3586 54.2833C75.3706 54.2886 75.3812 54.2993 75.3932 54.3019L75.5159 54.3313C75.5626 54.3446 75.6079 54.3446 75.6506 54.3499L75.6759 54.3819C75.6919 54.4046 75.7172 54.4113 75.7346 54.4313C75.7572 54.4566 75.7652 54.4886 75.7892 54.5126L75.9146 54.6366C75.9346 54.6566 75.9586 54.6619 75.9812 54.6806C76.0026 54.6979 76.0119 54.7219 76.0359 54.7406L76.1599 54.8313C76.1812 54.8459 76.2026 54.8513 76.2252 54.8633C76.2399 54.8726 76.2466 54.8873 76.2612 54.8953L76.9492 55.2926V61.8393ZM60.2679 43.7246C60.2652 43.7273 60.2612 43.7299 60.2599 43.7339L60.2172 43.8193C60.1999 43.8459 60.1799 43.8699 60.1666 43.8966L60.1292 43.9393L59.9719 44.0739C59.9599 44.0833 59.9559 44.0993 59.9439 44.1099C59.9346 44.1193 59.9199 44.1233 59.9092 44.1339L59.8519 44.1913L59.7439 44.2686L46.7786 51.7379V49.9246C46.7786 49.8953 46.7639 49.8726 46.7612 49.8446C46.7599 49.8166 46.7706 49.7913 46.7666 49.7646L46.7346 49.5486C46.7319 49.5339 46.7226 49.5206 46.7186 49.5033C46.7146 49.4859 46.7212 49.4686 46.7159 49.4513C46.7079 49.4166 46.6839 49.3859 46.6719 49.3526C46.6519 49.2646 46.6412 49.1739 46.5986 49.0899L46.5066 48.9046C46.4919 48.8753 46.4652 48.8593 46.4492 48.8299C46.4332 48.8033 46.4306 48.7739 46.4119 48.7473L46.3199 48.6233C46.2866 48.5779 46.2372 48.5499 46.1986 48.5126C46.1626 48.4753 46.1372 48.4273 46.0932 48.3939L45.9679 48.3019C45.9666 48.3006 45.9652 48.3006 45.9652 48.3006C45.9639 48.2993 45.9626 48.2966 45.9612 48.2953L45.8372 48.2046C45.8186 48.1913 45.7986 48.1899 45.7812 48.1779C45.7626 48.1673 45.7546 48.1499 45.7346 48.1393L30.2292 39.1739L45.1746 30.5593L45.1852 30.5539L45.1959 30.5593L59.7479 38.9713L59.9066 39.0819L59.9652 39.1273L60.1212 39.2833L60.2132 39.3766L60.2599 39.4673L60.2679 39.4833V43.7246ZM60.0199 53.1033L59.9906 53.2193V53.2259C59.9892 53.2273 59.9879 53.2273 59.9866 53.2286L45.0506 61.8393V55.2926L45.7386 54.8953C45.7532 54.8873 45.7599 54.8726 45.7746 54.8633C45.7972 54.8513 45.8186 54.8459 45.8399 54.8313L45.9639 54.7406C45.9879 54.7219 45.9972 54.6979 46.0186 54.6806C46.0399 54.6619 46.0652 54.6566 46.0866 54.6366L46.2106 54.5126C46.2332 54.4886 46.2426 54.4566 46.2652 54.4313C46.2826 54.4113 46.3079 54.4046 46.3239 54.3819L46.3479 54.3499C46.3932 54.3446 46.4372 54.3446 46.4826 54.3313L46.6066 54.3019C46.6172 54.2993 46.6279 54.2886 46.6412 54.2833C46.6599 54.2779 46.6732 54.2806 46.6919 54.2753C46.7266 54.2619 46.7532 54.2353 46.7866 54.2193C46.8279 54.2059 46.8706 54.2099 46.9119 54.1886L47.0359 54.1273C47.0479 54.1206 47.0559 54.1073 47.0679 54.1019C47.0772 54.0966 47.0892 54.0993 47.0972 54.0939L60.0199 46.6473V53.1033ZM44.5826 53.0179C44.5826 53.0193 44.5812 53.0219 44.5812 53.0233V53.0246L43.3986 53.7046L28.9266 62.0486L27.9092 61.4726V53.6979C27.9092 53.6686 27.8946 53.6459 27.8932 53.6179C27.8919 53.5913 27.9012 53.5673 27.8972 53.5393L27.8666 53.3219C27.8639 53.3046 27.8519 53.2913 27.8492 53.2726C27.8452 53.2553 27.8506 53.2379 27.8466 53.2193C27.8372 53.1859 27.8132 53.1579 27.8026 53.1233C27.7839 53.0379 27.7732 52.9486 27.7319 52.8659L27.6399 52.6793C27.6252 52.6486 27.5986 52.6326 27.5812 52.6033C27.5626 52.5739 27.5586 52.5406 27.5386 52.5126L27.4479 52.3886C27.4292 52.3646 27.4026 52.3553 27.3839 52.3313C27.3666 52.3113 27.3599 52.2846 27.3386 52.2646L27.2146 52.1419C27.1892 52.1179 27.1572 52.1086 27.1306 52.0873C27.1026 52.0633 27.0879 52.0326 27.0572 52.0126C27.0319 51.9953 27.0026 51.9939 26.9772 51.9793C26.9479 51.9579 26.9279 51.9273 26.8959 51.9086L17.4386 46.4566L27.9092 40.3966L27.9239 40.3899L27.9906 40.4166C27.9919 40.4166 27.9919 40.4179 27.9932 40.4179L44.5799 50.0073L44.5826 50.0086V53.0179ZM42.8492 63.1259C42.8452 63.1299 42.8399 63.1313 42.8372 63.1339L27.9092 71.7339V63.9926C27.9186 63.9979 27.9266 63.9953 27.9359 64.0006C27.9466 64.0059 27.9519 64.0166 27.9639 64.0233L28.0879 64.0846C28.1186 64.1006 28.1546 64.0953 28.1852 64.1073C28.2266 64.1259 28.2586 64.1539 28.3026 64.1646L28.3826 64.1859L28.4319 64.2033C28.5506 64.2446 28.6706 64.2633 28.7892 64.2633H28.9146H29.0679C29.0719 64.2633 29.0759 64.2619 29.0786 64.2619H29.0826C29.1932 64.2619 29.3066 64.2433 29.4199 64.2046L29.5119 64.1739C29.5412 64.1633 29.5599 64.1433 29.5879 64.1313C29.6506 64.1126 29.7132 64.1166 29.7746 64.0859L29.8972 64.0246C29.9119 64.0179 29.9172 64.0059 29.9292 63.9993C29.9399 63.9939 29.9492 63.9979 29.9586 63.9926L42.8492 56.5606V63.1259ZM25.7106 62.1126V73.0139L25.6759 73.0486L23.1199 74.5139L23.0986 74.5233L23.0799 74.5139L2.36657 62.5633L2.32658 62.5246V62.5206V43.2873L2.33057 43.2579L2.36792 43.2206L4.91724 41.7606L4.92257 41.7593L14.6892 47.4113C14.6906 47.4113 14.6906 47.4113 14.6919 47.4126L14.6999 47.4153C14.6999 47.4153 14.6999 47.4179 14.7012 47.4179L25.7092 53.7646L25.7106 53.7766V62.1126ZM6.43991 34.1726L6.44258 34.1633L6.47857 34.1273L22.0666 25.1433L22.0799 25.1393L24.7572 26.6699C24.7719 26.6833 24.7799 26.7019 24.7959 26.7153L24.8319 26.7459L24.8399 26.7566L24.8559 26.8126C24.8612 26.8313 24.8759 26.8459 24.8826 26.8659C24.8879 26.8819 24.8852 26.8966 24.8906 26.9113L24.9039 26.9419L26.5372 38.6473L15.2399 45.1859L6.43991 40.0939V34.1726ZM39.2319 15.2446L41.8959 16.7673C41.9052 16.7766 41.9186 16.7806 41.9292 16.7899C41.9386 16.7979 41.9426 16.8059 41.9506 16.8126L42.0186 16.9126L42.0266 16.9313L42.0332 16.9659L43.7132 28.8606L28.6106 37.5673L27.0639 26.5059C27.0586 26.4619 27.0346 26.4246 27.0199 26.3819C27.0106 26.3393 27.0146 26.2939 26.9972 26.2513L26.9559 26.1459L26.9079 25.9806C26.8919 25.9233 26.8546 25.8833 26.8306 25.8313C26.8066 25.7819 26.7986 25.7273 26.7679 25.6793L26.6452 25.4926C26.6399 25.4833 26.6279 25.4793 26.6212 25.4699C26.6159 25.4606 26.6146 25.4499 26.6092 25.4419L26.5172 25.3193C26.4879 25.2793 26.4426 25.2579 26.4092 25.2219C26.3746 25.1899 26.3559 25.1473 26.3199 25.1166L26.2106 25.0299L26.1586 24.9779C26.1239 24.9419 26.0786 24.9313 26.0412 24.9006C26.0026 24.8726 25.9759 24.8313 25.9319 24.8059L24.2826 23.8633L39.2319 15.2446ZM60.2679 3.0686V19.3086L45.7626 27.6739L44.2026 16.6033C44.2012 16.5939 44.1932 16.5846 44.1919 16.5739C44.1906 16.5633 44.1959 16.5499 44.1919 16.5379L44.1612 16.3833C44.1519 16.3459 44.1292 16.3166 44.1172 16.2806C44.1052 16.2446 44.1106 16.2073 44.0932 16.1713L44.0026 15.9539C43.9866 15.9206 43.9599 15.8979 43.9426 15.8686C43.9266 15.8379 43.9252 15.8046 43.9052 15.7753L43.7799 15.5899C43.7772 15.5833 43.7719 15.5819 43.7666 15.5753C43.6852 15.4166 43.5746 15.2673 43.4132 15.1593L43.2279 15.0366C43.2239 15.0339 43.2199 15.0353 43.2159 15.0326C43.1652 14.9913 43.1292 14.9366 43.0719 14.9059L41.4186 13.9606L60.2679 3.0686ZM60.9999 21.4313L74.6132 29.2819L61.1026 37.0913C61.0866 37.0993 61.0772 37.1153 61.0639 37.1233C61.0479 37.1339 61.0319 37.1339 61.0159 37.1459L60.9999 37.1579L60.9839 37.1459C60.9679 37.1339 60.9519 37.1339 60.9359 37.1233C60.9226 37.1153 60.9132 37.0993 60.8972 37.0913L47.3866 29.2819L60.9999 21.4313ZM78.9279 14.9059C78.8706 14.9366 78.8346 14.9913 78.7839 15.0326C78.7799 15.0353 78.7759 15.0339 78.7719 15.0366L78.5866 15.1593C78.4239 15.2673 78.3146 15.4166 78.2319 15.5753C78.2292 15.5819 78.2226 15.5833 78.2199 15.5899L78.0946 15.7753C78.0746 15.8046 78.0732 15.8379 78.0572 15.8686C78.0386 15.8979 78.0119 15.9206 77.9986 15.9539L77.9052 16.1713C77.8892 16.2073 77.8946 16.2446 77.8826 16.2806C77.8706 16.3166 77.8466 16.3459 77.8386 16.3833L77.8079 16.5379C77.8039 16.5499 77.8092 16.5633 77.8079 16.5739C77.8066 16.5846 77.7986 16.5939 77.7972 16.6033L76.2359 27.6739L63.0012 20.0406V3.80192L80.5812 13.9606L78.9279 14.9059ZM82.7679 15.2446L97.7172 23.8633L96.0666 24.8059C96.0239 24.8313 95.9972 24.8726 95.9586 24.9006C95.9212 24.9313 95.8746 24.9419 95.8412 24.9779L95.7879 25.0299L95.6799 25.1166C95.6439 25.1473 95.6239 25.1899 95.5906 25.2219C95.5572 25.2579 95.5119 25.2793 95.4826 25.3193L95.3919 25.4419C95.3852 25.4499 95.3839 25.4606 95.3786 25.4699C95.3719 25.4793 95.3599 25.4833 95.3546 25.4926L95.2306 25.6793C95.2012 25.7273 95.1932 25.7819 95.1706 25.8313C95.1452 25.8833 95.1079 25.9233 95.0919 25.9806L95.0439 26.1459L95.0026 26.2513C94.9852 26.2939 94.9892 26.3393 94.9786 26.3819C94.9652 26.4246 94.9412 26.4619 94.9346 26.5059L93.3892 37.5673L78.2866 28.8606L79.9666 16.9659L79.9732 16.9313L79.9812 16.9126L80.0479 16.8126C80.0572 16.8059 80.0626 16.7979 80.0706 16.7899C80.0812 16.7806 80.0932 16.7766 80.1039 16.7673L82.7679 15.2446ZM99.9199 25.1393L99.9332 25.1433L115.521 34.1273L115.559 34.1633L115.56 34.1726V40.0939L106.759 45.1859L95.4612 38.6473L97.0959 26.9419L97.1092 26.9113C97.1146 26.8966 97.1119 26.8819 97.1172 26.8659C97.1226 26.8459 97.1386 26.8313 97.1439 26.8126L97.1599 26.7566L97.1679 26.7459L97.2039 26.7153C97.2199 26.7019 97.2279 26.6833 97.2426 26.6699L99.9199 25.1393ZM121.865 43.0593L121.835 42.8419C121.832 42.8299 121.824 42.8206 121.823 42.8113C121.82 42.8006 121.825 42.7873 121.823 42.7739L121.791 42.6206C121.779 42.5606 121.744 42.5153 121.723 42.4606C121.697 42.3979 121.692 42.3313 121.655 42.2726L121.563 42.1193C121.552 42.1033 121.535 42.0939 121.524 42.0766C121.513 42.0606 121.511 42.0406 121.499 42.0246L121.405 41.9006C121.389 41.8793 121.365 41.8713 121.347 41.8499C121.329 41.8286 121.324 41.8059 121.305 41.7859L121.183 41.6633C121.167 41.6473 121.147 41.6433 121.131 41.6299C121.117 41.6126 121.111 41.5926 121.096 41.5753C121.06 41.5379 121.009 41.5206 120.971 41.4899C120.931 41.4579 120.904 41.4193 120.86 41.3926L118.105 39.8179C118.083 39.8033 118.057 39.8033 118.033 39.7939C118.008 39.7793 117.992 39.7593 117.965 39.7486L117.811 39.6859C117.795 39.6806 117.779 39.6833 117.763 39.6779V34.0886C117.763 34.0553 117.747 34.0286 117.743 33.9966C117.74 33.9659 117.752 33.9379 117.747 33.9059L117.716 33.7193C117.713 33.7153 117.711 33.7126 117.711 33.7086C117.709 33.7033 117.712 33.6979 117.711 33.6926L117.68 33.5379C117.671 33.4873 117.639 33.4473 117.623 33.3993C117.607 33.3499 117.607 33.3033 117.585 33.2566L117.492 33.0699C117.423 32.9299 117.325 32.8139 117.213 32.7193C117.205 32.7113 117.203 32.7006 117.195 32.6926L117.069 32.5673C117.055 32.5499 117.032 32.5459 117.015 32.5313C117 32.5126 116.992 32.4913 116.977 32.4753C116.943 32.4393 116.896 32.4259 116.859 32.3953C116.82 32.3646 116.793 32.3246 116.751 32.3006L100.968 23.1993C100.944 23.1859 100.919 23.1859 100.896 23.1739C100.872 23.1619 100.857 23.1446 100.833 23.1339L100.679 23.0699C100.648 23.0566 100.615 23.0619 100.584 23.0513C100.559 23.0419 100.54 23.0206 100.515 23.0126C100.475 22.9993 100.432 23.0073 100.393 22.9979C100.361 22.9886 100.337 22.9659 100.305 22.9593C100.268 22.9499 100.231 22.9606 100.195 22.9553C100.173 22.9299 100.164 22.8966 100.139 22.8726L100.047 22.7806L99.9279 22.6619C99.9079 22.6446 99.8852 22.6379 99.8652 22.6219C99.8439 22.6033 99.8346 22.5793 99.8132 22.5633L99.6906 22.4713C99.6706 22.4553 99.6466 22.4526 99.6279 22.4393C99.6079 22.4273 99.5972 22.4073 99.5772 22.3953L83.7972 13.2993C83.7879 13.2953 83.7799 13.2953 83.7706 13.2899C83.7612 13.2859 83.7559 13.2753 83.7479 13.2713L83.6239 13.2086C83.5706 13.1806 83.5186 13.1819 83.4639 13.1659C83.4319 13.1499 83.4039 13.1233 83.3692 13.1113C83.3559 13.1073 83.3412 13.1113 83.3292 13.1073C83.3132 13.1033 83.3026 13.0913 83.2892 13.0886L83.1652 13.0566C83.1266 13.0486 83.0932 13.0579 83.0559 13.0539C83.0319 13.0259 83.0226 12.9926 82.9946 12.9646L82.9039 12.8779L82.7919 12.7646C82.7732 12.7433 82.7492 12.7379 82.7266 12.7193C82.7052 12.7033 82.6959 12.6779 82.6732 12.6593L82.5506 12.5673C82.5319 12.5526 82.5079 12.5499 82.4879 12.5379C82.4679 12.5233 82.4559 12.5046 82.4372 12.4926L62.2039 0.801925C62.1826 0.789925 62.1626 0.79126 62.1439 0.780593C62.1226 0.77126 62.1132 0.753925 62.0919 0.745925L61.8746 0.652592C61.8426 0.649926 61.8132 0.643261 61.7839 0.631261C61.7666 0.625927 61.7492 0.616597 61.7319 0.607264C61.6826 0.59393 61.6332 0.577934 61.5839 0.563267C61.5212 0.545934 61.4572 0.5286 61.3959 0.509933C61.3199 0.489933 61.2452 0.499265 61.1706 0.493932L61.0626 0.479263C61.0612 0.479263 61.0572 0.480596 61.0532 0.479263C61.0359 0.477929 61.0172 0.484594 60.9999 0.483261C60.9826 0.484594 60.9639 0.477929 60.9466 0.479263C60.9426 0.480596 60.9399 0.479263 60.9359 0.479263L60.8292 0.493932C60.7546 0.499265 60.6786 0.5046 60.6039 0.509933C60.4919 0.543266 60.3799 0.575264 60.2679 0.607264C60.2506 0.616597 60.2332 0.625927 60.2159 0.631261C60.1866 0.643261 60.1559 0.649926 60.1239 0.652592L59.9079 0.745925C59.8879 0.753925 59.8772 0.77126 59.8559 0.780593C59.8372 0.79126 59.8159 0.789925 59.7959 0.801925L39.5626 12.4926C39.5426 12.5046 39.5319 12.5233 39.5119 12.5379C39.4919 12.5499 39.4679 12.5526 39.4492 12.5673L39.3252 12.6593C39.3039 12.6779 39.2932 12.7033 39.2732 12.7193C39.2519 12.7379 39.2266 12.7433 39.2066 12.7646L39.0959 12.8779L39.0052 12.9646C38.9772 12.9926 38.9679 13.0259 38.9452 13.0539C38.9066 13.0579 38.8719 13.0486 38.8346 13.0566L38.7092 13.0886C38.6972 13.0913 38.6866 13.1033 38.6706 13.1073C38.6586 13.1113 38.6439 13.1073 38.6306 13.1113C38.5959 13.1233 38.5679 13.1499 38.5346 13.1659C38.4812 13.1819 38.4279 13.1806 38.3759 13.2086L38.2519 13.2713C38.2439 13.2753 38.2372 13.2859 38.2292 13.2899C38.2199 13.2953 38.2106 13.2953 38.2026 13.2993L22.4226 22.3953C22.4012 22.4073 22.3919 22.4273 22.3706 22.4393C22.3519 22.4526 22.3292 22.4553 22.3106 22.4713L22.1866 22.5633C22.1666 22.5793 22.1559 22.6033 22.1346 22.6219C22.1146 22.6379 22.0906 22.6446 22.0719 22.6619L21.9532 22.7806L21.8612 22.8726C21.8359 22.8966 21.8266 22.9299 21.8052 22.9553C21.7679 22.9606 21.7319 22.9499 21.6959 22.9593C21.6626 22.9659 21.6386 22.9886 21.6079 22.9979C21.5679 23.0073 21.5252 22.9993 21.4852 23.0126C21.4586 23.0206 21.4412 23.0419 21.4172 23.0513C21.3852 23.0619 21.3519 23.0566 21.3212 23.0699L21.1679 23.1339C21.1426 23.1446 21.1279 23.1619 21.1039 23.1739C21.0812 23.1859 21.0559 23.1859 21.0319 23.1993L5.24924 32.3006C5.20658 32.3246 5.17858 32.3646 5.14124 32.3953C5.10258 32.4259 5.05725 32.4393 5.02258 32.4753C5.00658 32.4913 4.99991 32.5126 4.98525 32.5313C4.96791 32.5459 4.94658 32.5499 4.92925 32.5673L4.80524 32.6926C4.79591 32.7006 4.79458 32.7113 4.78525 32.7193C4.67458 32.8139 4.57725 32.9299 4.50658 33.0699L4.41458 33.2566C4.39325 33.3033 4.39325 33.3499 4.37725 33.3993C4.36125 33.4473 4.32925 33.4873 4.31991 33.5379L4.28791 33.6926C4.28658 33.6979 4.29058 33.7033 4.28791 33.7086C4.28791 33.7126 4.28525 33.7153 4.28391 33.7193L4.25324 33.9059C4.24791 33.9379 4.25857 33.9659 4.25591 33.9966C4.25324 34.0286 4.23724 34.0553 4.23724 34.0886V39.6779C4.22124 39.6833 4.20525 39.6806 4.18925 39.6859L4.03458 39.7486C4.00658 39.7593 3.99058 39.7793 3.96658 39.7939C3.94258 39.8033 3.91725 39.8033 3.89458 39.8179L1.13991 41.3926C1.09591 41.4193 1.06924 41.4579 1.03058 41.4899C0.990576 41.5206 0.939908 41.5379 0.903908 41.5753C0.889241 41.5926 0.882584 41.6126 0.867918 41.6299C0.851918 41.6433 0.833248 41.6473 0.817248 41.6633L0.694578 41.7859C0.675911 41.8059 0.67058 41.8286 0.653247 41.8499C0.635913 41.8713 0.610582 41.8793 0.594582 41.9006L0.502581 42.0246C0.487915 42.0406 0.485242 42.0606 0.475909 42.0766C0.465242 42.0939 0.44791 42.1033 0.437243 42.1193L0.345243 42.2726C0.30791 42.3313 0.302583 42.3979 0.27725 42.4606C0.255917 42.5153 0.221247 42.5606 0.207914 42.6206L0.177244 42.7739C0.174577 42.7873 0.178577 42.8006 0.177244 42.8113C0.17591 42.8206 0.167916 42.8299 0.166583 42.8419L0.13458 43.0593C0.13058 43.0873 0.142581 43.1086 0.151914 43.1379C0.150581 43.1633 0.138578 43.1846 0.138578 43.2113V62.6126C0.138578 62.6459 0.154579 62.6699 0.155912 62.7019C0.158579 62.7326 0.147914 62.7593 0.151914 62.7886L0.183917 62.9753C0.18525 62.9833 0.189247 62.9899 0.19058 62.9953C0.191913 63.0046 0.189247 63.0126 0.19058 63.0206L0.22125 63.1753C0.234583 63.2353 0.265244 63.2846 0.287911 63.3393C0.301244 63.3753 0.299915 63.4126 0.317248 63.4459L0.409249 63.6326C0.422582 63.6593 0.449249 63.6673 0.463916 63.6926C0.510582 63.7713 0.550578 63.8553 0.619911 63.9246C0.634578 63.9366 0.655913 63.9433 0.671913 63.9566C0.683913 63.9726 0.687917 63.9913 0.702583 64.0046L0.825244 64.1299C0.82791 64.1313 0.827908 64.1313 0.829242 64.1313C0.829242 64.1326 0.829241 64.1339 0.830574 64.1339C0.849241 64.1539 0.877245 64.1593 0.897245 64.1779C0.973245 64.2606 1.05058 64.3419 1.15191 64.4006L22.0639 76.4673C22.0839 76.4793 22.1052 76.4753 22.1252 76.4846C22.1559 76.4993 22.1772 76.5246 22.2079 76.5379L22.3626 76.6006C22.3746 76.6046 22.3892 76.6033 22.4039 76.6059C22.4132 76.6113 22.4212 76.6206 22.4346 76.6259L22.5279 76.6579C22.5399 76.6606 22.5532 76.6593 22.5666 76.6619C22.5746 76.6646 22.5812 76.6713 22.5892 76.6739L22.7132 76.7059C22.8026 76.7273 22.8932 76.7379 22.9826 76.7393H22.9852H23.1092H23.2319C23.2346 76.7393 23.2372 76.7379 23.2412 76.7379H23.2426C23.3279 76.7379 23.4146 76.7286 23.5026 76.7073L23.6266 76.6753C23.6372 76.6726 23.6452 76.6646 23.6559 76.6606C23.6679 76.6593 23.6826 76.6593 23.6959 76.6553C23.7212 76.6499 23.7359 76.6286 23.7599 76.6193C23.7906 76.6086 23.8266 76.6139 23.8572 76.6019L24.0106 76.5393C24.0426 76.5259 24.0626 76.5019 24.0919 76.4873C24.1119 76.4766 24.1332 76.4833 24.1519 76.4699L26.9039 74.8913C26.9466 74.8673 26.9706 74.8286 27.0066 74.8019C27.0466 74.7713 27.0932 74.7566 27.1292 74.7206C27.1452 74.7033 27.1519 74.6806 27.1692 74.6619C27.1866 74.6473 27.2092 74.6419 27.2279 74.6233L27.3519 74.4993C27.3532 74.4979 27.3532 74.4953 27.3546 74.4953C27.3546 74.4939 27.3559 74.4939 27.3586 74.4926C27.3999 74.4486 27.4212 74.3913 27.4559 74.3433C27.5066 74.3379 27.5586 74.3379 27.6092 74.3246C27.6372 74.3193 27.6559 74.2993 27.6812 74.2913C27.7319 74.2819 27.7826 74.2833 27.8306 74.2673C27.8532 74.2593 27.8679 74.2406 27.8919 74.2299C27.9212 74.2219 27.9506 74.2246 27.9799 74.2139L28.1332 74.1513C28.1626 74.1393 28.1799 74.1139 28.2079 74.1006C28.2292 74.0899 28.2492 74.0966 28.2692 74.0846L44.0466 64.9899C44.0866 64.9659 44.1106 64.9299 44.1466 64.9006C44.1839 64.8726 44.2292 64.8579 44.2626 64.8259C44.2706 64.8179 44.2719 64.8086 44.2786 64.8019C44.2812 64.8019 44.2812 64.8006 44.2826 64.8006L44.4359 64.6753C44.5026 64.6219 44.5412 64.5499 44.5919 64.4873C44.6092 64.4673 44.6319 64.4579 44.6466 64.4366C44.6799 64.4313 44.7132 64.4326 44.7466 64.4233L44.8692 64.3926C44.8826 64.3886 44.8932 64.3779 44.9092 64.3739C44.9266 64.3699 44.9439 64.3713 44.9612 64.3646C44.9839 64.3579 45.0012 64.3379 45.0239 64.3286C45.0532 64.3193 45.0852 64.3246 45.1172 64.3099L45.2706 64.2473C45.2999 64.2353 45.3172 64.2126 45.3466 64.1979C45.3652 64.1873 45.3866 64.1926 45.4052 64.1806L60.9999 55.1926L76.5946 64.1806C76.6132 64.1926 76.6346 64.1873 76.6532 64.1979C76.6826 64.2126 76.6999 64.2353 76.7292 64.2473L76.8839 64.3099C76.9146 64.3246 76.9466 64.3193 76.9759 64.3286C76.9999 64.3379 77.0146 64.3579 77.0386 64.3646C77.0572 64.3713 77.0719 64.3699 77.0906 64.3739C77.1066 64.3779 77.1172 64.3886 77.1292 64.3926L77.2532 64.4233C77.2866 64.4326 77.3186 64.4313 77.3532 64.4366C77.3679 64.4579 77.3906 64.4673 77.4066 64.4873C77.4586 64.5499 77.4986 64.6219 77.5639 64.6753L77.7186 64.8006C77.7199 64.8006 77.7199 64.8019 77.7212 64.8019C77.7279 64.8086 77.7292 64.8179 77.7372 64.8259C77.7706 64.8579 77.8159 64.8726 77.8532 64.9006C77.8892 64.9299 77.9132 64.9659 77.9519 64.9899L93.7306 74.0846C93.7506 74.0966 93.7706 74.0899 93.7906 74.1006C93.8186 74.1139 93.8372 74.1393 93.8666 74.1513L94.0199 74.2139C94.0492 74.2246 94.0786 74.2219 94.1079 74.2299C94.1319 74.2406 94.1452 74.2593 94.1692 74.2673C94.2186 74.2833 94.2679 74.2819 94.3172 74.2913C94.3439 74.2993 94.3639 74.3193 94.3919 74.3246C94.4412 74.3379 94.4919 74.3379 94.5439 74.3433C94.5786 74.3913 94.5986 74.4486 94.6426 74.4926C94.6439 74.4939 94.6452 74.4939 94.6452 74.4953C94.6452 74.4953 94.6452 74.4979 94.6479 74.4993L94.7719 74.6233C94.7892 74.6419 94.8132 74.6473 94.8306 74.6619C94.8466 74.6806 94.8546 74.7033 94.8706 74.7206C94.9052 74.7566 94.9519 74.7713 94.9919 74.8019C95.0292 74.8286 95.0546 74.8673 95.0946 74.8913L97.8479 76.4699C97.8679 76.4833 97.8879 76.4766 97.9079 76.4873C97.9372 76.5019 97.9559 76.5259 97.9892 76.5393L98.1426 76.6019C98.1732 76.6139 98.2092 76.6086 98.2399 76.6193C98.2626 76.6286 98.2799 76.6499 98.3039 76.6553C98.3172 76.6593 98.3319 76.6593 98.3439 76.6606C98.3532 76.6646 98.3626 76.6726 98.3732 76.6753L98.4972 76.7073C98.5852 76.7286 98.6719 76.7379 98.7572 76.7379H98.7586C98.7612 76.7379 98.7639 76.7393 98.7679 76.7393H98.8906H99.0132H99.0172C99.1066 76.7379 99.1972 76.7273 99.2866 76.7059L99.4092 76.6739C99.4186 76.6713 99.4239 76.6646 99.4332 76.6619C99.4466 76.6593 99.4599 76.6606 99.4719 76.6579L99.5652 76.6259C99.5786 76.6206 99.5866 76.6113 99.5959 76.6059C99.6106 76.6033 99.6252 76.6046 99.6372 76.6006L99.7906 76.5379C99.8226 76.5246 99.8439 76.4993 99.8746 76.4846C99.8946 76.4753 99.9159 76.4793 99.9346 76.4673L120.848 64.4006C120.949 64.3419 121.027 64.2606 121.103 64.1779C121.123 64.1593 121.151 64.1539 121.169 64.1339C121.171 64.1339 121.171 64.1326 121.171 64.1313C121.173 64.1313 121.173 64.1313 121.173 64.1299L121.297 64.0046C121.312 63.9913 121.316 63.9726 121.328 63.9566C121.344 63.9433 121.365 63.9366 121.379 63.9246C121.449 63.8553 121.489 63.7713 121.536 63.6926C121.551 63.6673 121.577 63.6593 121.591 63.6326L121.683 63.4459C121.701 63.4126 121.699 63.3753 121.712 63.3393C121.733 63.2846 121.765 63.2353 121.779 63.1753L121.809 63.0206C121.811 63.0126 121.808 63.0046 121.809 62.9953C121.811 62.9899 121.815 62.9833 121.816 62.9753L121.847 62.7886C121.852 62.7593 121.841 62.7326 121.844 62.7019C121.845 62.6699 121.861 62.6459 121.861 62.6126V43.2113C121.861 43.1846 121.848 43.1633 121.847 43.1379C121.857 43.1086 121.869 43.0873 121.865 43.0593" fill="#37A0D9"/>
</svg>
