<svg width="126" height="102" viewBox="0 0 126 102" fill="none" xmlns="http://www.w3.org/2000/svg">
<path d="M73.7349 80.9256C73.7322 80.9003 73.7429 80.8803 73.7389 80.8549L73.7109 80.6576C73.7082 80.6389 73.6976 80.6256 73.6936 80.6069C73.6896 80.5896 73.6949 80.5749 73.6909 80.5589L73.6629 80.4469C73.6536 80.4083 73.6296 80.3816 73.6162 80.3469C73.6016 80.3083 73.6029 80.2669 73.5856 80.2309L73.4989 80.0616C73.4856 80.0336 73.4616 80.0176 73.4456 79.9923C73.4296 79.9669 73.4282 79.9389 73.4096 79.9149L73.3269 79.8029C73.3216 79.7963 73.3176 79.7923 73.3122 79.7883L75.8162 70.3376L75.8269 70.3083C75.8322 70.2949 75.8296 70.2816 75.8349 70.2669C75.8402 70.2483 75.8536 70.2363 75.8589 70.2176L75.8736 70.1683L75.8802 70.1576L75.9136 70.1296C75.9296 70.1189 75.9349 70.1003 75.9482 70.0883L80.0869 67.7243L80.0229 67.6803L123.002 43.0376V69.0096L123 69.0149L122.946 69.2136L73.7482 97.4469V88.0656V80.9923C73.7482 80.9683 73.7362 80.9509 73.7349 80.9256ZM69.3616 99.9176L69.3589 99.9163L50.4656 89.0163L50.4642 89.0149L50.4629 89.0096V71.5123L50.4642 71.5083L50.4682 71.5056L52.8509 70.1389L57.7962 73.0016V73.1523L57.9282 73.0763L61.7296 75.2776C61.7309 75.2776 61.7309 75.2776 61.7322 75.2803L61.7389 75.2829C61.7389 75.2843 61.7389 75.2843 61.7402 75.2843L71.7496 81.0683V88.6429V98.5296C71.7482 98.5376 71.7442 98.5456 71.7429 98.5536L69.3616 99.9176ZM71.9042 65.0283L76.3576 67.4896L75.1296 68.1936V68.2509L74.8802 68.3949C74.8402 68.4176 74.8176 68.4536 74.7816 68.4803C74.7469 68.5083 74.7069 68.5176 74.6749 68.5496L74.6269 68.5976L74.5282 68.6763C74.4949 68.7043 74.4789 68.7429 74.4469 68.7723C74.4162 68.8043 74.3749 68.8243 74.3482 68.8603L74.2656 68.9723C74.2616 68.9803 74.2602 68.9896 74.2549 68.9976C74.2496 69.0069 74.2376 69.0096 74.2322 69.0189L74.1202 69.1883C74.0936 69.2323 74.0856 69.2829 74.0642 69.3269C74.0416 69.3736 74.0082 69.4096 73.9936 69.4616L73.9496 69.6136L73.9122 69.7083C73.8962 69.7469 73.9002 69.7883 73.8909 69.8269C73.8789 69.8656 73.8562 69.8989 73.8509 69.9403L71.4896 78.6109L64.2282 74.4123C64.2282 74.4123 62.2456 73.2229 59.9762 71.8976L71.9042 65.0283ZM72.8456 57.9043C72.8429 57.9016 72.8376 57.9003 72.8349 57.8976V51.9283L81.9322 56.9549L76.7349 59.9509L72.8456 57.9043ZM71.2616 48.7136V48.7123C71.2616 48.7109 71.2602 48.7096 71.2602 48.7083V45.9723L71.2629 45.9709L86.3402 37.2536C86.3416 37.2536 86.3416 37.2523 86.3429 37.2523L86.4029 37.2296L86.4162 37.2336L101.548 45.6576L83.9109 55.8163L72.3349 49.3323L71.2616 48.7136ZM70.2109 44.2723C70.1936 44.2829 70.1856 44.2989 70.1696 44.3083C70.1536 44.3189 70.1349 44.3203 70.1189 44.3323L70.0056 44.4149L70.0016 44.4189C70.0016 44.4189 70.0002 44.4189 69.9989 44.4203L69.8856 44.5056C69.8456 44.5336 69.8229 44.5776 69.7896 44.6136C69.7562 44.6469 69.7096 44.6723 69.6789 44.7123L69.5962 44.8256C69.5789 44.8496 69.5762 44.8763 69.5616 44.9016C69.5469 44.9269 69.5229 44.9416 69.5096 44.9683L69.4269 45.1363C69.3869 45.2136 69.3776 45.2949 69.3602 45.3763C69.3482 45.4069 69.3269 45.4336 69.3189 45.4656C69.3162 45.4816 69.3202 45.4963 69.3176 45.5136C69.3149 45.5283 69.3042 45.5403 69.3016 45.5563L69.2736 45.7496C69.2696 45.7749 69.2789 45.7976 69.2776 45.8229C69.2762 45.8483 69.2629 45.8696 69.2629 45.8963V47.5443L57.4776 40.7536L57.3776 40.6829L57.3256 40.6309C57.3176 40.6216 57.3029 40.6203 57.2936 40.6109C57.2829 40.5989 57.2789 40.5856 57.2682 40.5776L57.1256 40.4549L57.0936 40.4163C57.0789 40.3923 57.0616 40.3696 57.0456 40.3456L57.0069 40.2683C57.0002 40.2563 56.9896 40.2496 56.9842 40.2389C56.9776 40.2296 56.9776 40.2136 56.9696 40.2029L56.9349 40.1443L56.8976 40.0429L56.8696 39.9416L56.8602 39.8869V36.7909L56.8709 36.7229L56.8829 36.6829C56.8829 36.6816 56.8842 36.6816 56.8842 36.6803L56.9509 36.5029L57.0069 36.3909L57.0496 36.3056L57.1322 36.2229L57.2749 36.0803L57.3282 36.0389L57.4736 35.9376L70.7029 28.2909L70.7109 28.2869L70.7202 28.2909L84.3069 36.1229L70.2109 44.2723ZM70.8336 56.7283L57.2562 48.9003C57.2549 48.8989 57.2522 48.8989 57.2522 48.8976V48.8923L57.2242 48.7856V42.9163L68.9736 49.6856C68.9816 49.6909 68.9909 49.6883 68.9989 49.6923C69.0109 49.6989 69.0176 49.7109 69.0282 49.7163L69.1429 49.7723C69.1789 49.7909 69.2176 49.7869 69.2562 49.8003C69.2856 49.8149 69.3109 49.8403 69.3416 49.8509C69.3576 49.8563 69.3722 49.8536 69.3869 49.8589C69.3989 49.8629 69.4082 49.8723 69.4189 49.8749L69.5309 49.9029C69.5722 49.9136 69.6136 49.9136 69.6536 49.9189L69.6762 49.9496C69.6909 49.9683 69.7136 49.9749 69.7296 49.9923C69.7496 50.0163 69.7589 50.0443 69.7789 50.0669L69.8922 50.1789C69.9109 50.1976 69.9336 50.2029 69.9536 50.2189C69.9736 50.2349 69.9829 50.2576 70.0029 50.2736L70.1162 50.3563C70.1349 50.3696 70.1549 50.3749 70.1749 50.3856C70.1882 50.3949 70.1949 50.4083 70.2082 50.4149L70.8336 50.7776V56.7283ZM56.3922 34.2589C56.3776 34.2683 56.3642 34.2683 56.3482 34.2803L56.1509 34.4189C56.1482 34.4216 56.1469 34.4269 56.1429 34.4296C56.1362 34.4323 56.1309 34.4336 56.1269 34.4363L56.0149 34.5203C55.9949 34.5349 55.9869 34.5563 55.9696 34.5723C55.9522 34.5869 55.9309 34.5923 55.9136 34.6083L55.8736 34.6483L55.8349 34.6109C55.8176 34.5923 55.7936 34.5869 55.7749 34.5709C55.7576 34.5563 55.7469 34.5336 55.7269 34.5176L55.6136 34.4336L55.6056 34.4296C55.6029 34.4283 55.6016 34.4243 55.5989 34.4229L55.4042 34.2843C55.3896 34.2723 55.3736 34.2709 55.3576 34.2616C55.3429 34.2523 55.3349 34.2363 55.3202 34.2296L43.0229 27.1203L55.8149 19.7443C55.8296 19.7456 55.8416 19.7536 55.8576 19.7536C55.8749 19.7536 55.8869 19.7443 55.9042 19.7443L68.7096 27.1296L56.4282 34.2296C56.4122 34.2363 56.4042 34.2509 56.3922 34.2589ZM54.8549 39.8856L54.8362 40.0176V40.0189L54.8242 40.1043L54.8136 40.1349L54.7869 40.1763C54.6976 40.2656 54.6216 40.3723 54.5696 40.4923L54.4709 40.5776C54.4616 40.5856 54.4576 40.5976 54.4482 40.6056C54.4402 40.6163 54.4296 40.6189 54.4216 40.6256L54.3642 40.6829L54.2669 40.7523L42.4869 47.5429V45.8949C42.4869 45.8696 42.4762 45.8509 42.4736 45.8269C42.4709 45.8016 42.4829 45.7816 42.4789 45.7549L42.4496 45.5616C42.4402 45.4989 42.4096 45.4523 42.3909 45.3949C42.3749 45.3456 42.3749 45.2949 42.3509 45.2469L42.2949 45.1363L42.2136 44.9736C42.2136 44.9723 42.2109 44.9709 42.2109 44.9696C42.2096 44.9683 42.2109 44.9669 42.2096 44.9656L42.1522 44.8523C42.1402 44.8269 42.1189 44.8149 42.1042 44.7923C42.0696 44.7323 42.0229 44.6816 41.9762 44.6296C41.9376 44.5909 41.9002 44.5523 41.8562 44.5216C41.8282 44.4989 41.8096 44.4669 41.7749 44.4483L41.7176 44.4136C41.6922 44.3896 41.6629 44.3803 41.6362 44.3603C41.6002 44.3323 41.5749 44.2936 41.5362 44.2709L27.4256 36.1296L41.0242 28.2896L41.0336 28.2869L41.0402 28.2883L41.0429 28.2896L54.2722 35.9349L54.4162 36.0389L54.4696 36.0789L54.5856 36.1936L54.6869 36.3136L54.7562 36.4216L54.7962 36.5083L54.8296 36.5936L54.8376 36.6429L54.8549 36.7829V39.8856ZM54.4949 48.8976L40.9136 56.7283V50.7776L41.5402 50.4149C41.5776 50.3936 41.6029 50.3549 41.6376 50.3283C41.6722 50.3016 41.7136 50.2896 41.7456 50.2563L41.7882 50.2136L41.8842 50.1363C41.9656 50.0723 42.0202 49.9909 42.0749 49.9096C42.1162 49.9043 42.1562 49.8963 42.1976 49.8843C42.2282 49.8803 42.2629 49.8803 42.2949 49.8723L42.4082 49.8443C42.4962 49.8216 42.5669 49.7736 42.6402 49.7323C42.6669 49.7203 42.6976 49.7269 42.7229 49.7123C42.7349 49.7069 42.7416 49.6963 42.7522 49.6896C42.7602 49.6856 42.7669 49.6869 42.7749 49.6829L54.4949 42.9309V48.8976ZM40.4936 48.7003C40.4842 48.7083 40.4789 48.7229 40.4682 48.7309L26.6789 56.5816L26.6629 56.5896L26.6456 56.5816L25.7482 56.0643V48.9923C25.7482 48.9683 25.7362 48.9509 25.7349 48.9256C25.7322 48.9003 25.7429 48.8803 25.7389 48.8549L25.7109 48.6576C25.7082 48.6389 25.6976 48.6256 25.6936 48.6069C25.6896 48.5896 25.6949 48.5749 25.6909 48.5589L25.6629 48.4469C25.6536 48.4083 25.6296 48.3816 25.6162 48.3469C25.6016 48.3083 25.6029 48.2669 25.5856 48.2309L25.4989 48.0616C25.4842 48.0336 25.4616 48.0176 25.4456 47.9923C25.4296 47.9669 25.4282 47.9389 25.4096 47.9149L25.3269 47.8029C25.3122 47.7829 25.2882 47.7736 25.2722 47.7536C25.2562 47.7349 25.2496 47.7123 25.2322 47.6936L25.1202 47.5816C25.0816 47.5429 25.0349 47.5256 24.9896 47.4949C24.9456 47.4643 24.9136 47.4216 24.8642 47.3976L24.7762 47.3536L16.2282 42.4123L25.3309 37.2376L25.3482 37.2309H25.3496C25.3536 37.2336 25.3589 37.2349 25.3642 37.2376C25.3722 37.2429 25.3762 37.2509 25.3842 37.2563L40.4669 45.9589C40.4736 45.9629 40.4789 45.9656 40.4829 45.9696L40.4936 45.9923V48.7003ZM38.9109 57.8803L38.9069 57.8843L25.7496 65.3776V58.3616C25.7576 58.3643 25.7629 58.3629 25.7682 58.3656C25.7962 58.3803 25.8162 58.4029 25.8442 58.4149L25.9842 58.4709C26.0096 58.4816 26.0362 58.4776 26.0616 58.4856C26.0802 58.4936 26.0936 58.5096 26.1122 58.5149C26.1536 58.5296 26.1949 58.5283 26.2389 58.5363C26.2629 58.5443 26.2816 58.5643 26.3069 58.5683C26.3896 58.5896 26.4709 58.5976 26.5536 58.5976C26.5749 58.5976 26.5949 58.5883 26.6136 58.5869C26.6322 58.5883 26.6482 58.5976 26.6656 58.5976C26.6856 58.5976 26.7029 58.5869 26.7202 58.5856C26.7416 58.5869 26.7589 58.5976 26.7776 58.5976C26.8469 58.5976 26.9069 58.5709 26.9709 58.5603C27.0269 58.5536 27.0829 58.5523 27.1376 58.5376C27.1509 58.5349 27.1576 58.5256 27.1682 58.5216C27.1829 58.5176 27.1976 58.5203 27.2096 58.5149L27.2936 58.4869C27.3016 58.4843 27.3069 58.4776 27.3149 58.4749C27.3229 58.4723 27.3336 58.4736 27.3429 58.4696L27.4842 58.4136C27.5109 58.4016 27.5309 58.3789 27.5589 58.3643C27.5762 58.3563 27.5962 58.3603 27.6136 58.3496L38.9109 51.9283V57.8803ZM23.7496 56.6429V66.5296C23.7482 66.5376 23.7442 66.5456 23.7429 66.5536L21.3616 67.9176L21.3589 67.9163L2.46556 57.0163L2.46422 57.0149L2.46289 57.0096V39.5123L2.46422 39.5083L2.46822 39.5056L4.85089 38.1389L13.7296 43.2776C13.7309 43.2776 13.7309 43.2776 13.7322 43.2803L13.7389 43.2829C13.7389 43.2843 13.7389 43.2843 13.7402 43.2843L23.7496 49.0683V56.6429ZM6.20289 31.2576C6.21489 31.2469 6.22022 31.2309 6.23222 31.2203L20.0309 23.3616L22.4536 24.7616L22.5189 24.8109L22.5402 24.8269V24.8283L22.5616 24.9309L24.0856 35.6429L14.2322 41.2549L6.20289 36.6109V31.2576ZM35.5989 14.3656L35.6109 14.3616L38.0416 15.7509C38.0576 15.7643 38.0642 15.7829 38.0789 15.7949L38.1176 15.8256L38.1202 15.8296L38.1336 15.8749C38.1402 15.8949 38.1522 15.9069 38.1589 15.9256C38.1642 15.9416 38.1602 15.9563 38.1669 15.9723L38.1802 16.0069L39.6976 26.7456L25.9642 34.6629L24.5349 24.6029C24.5336 24.5936 24.5256 24.5856 24.5242 24.5763C24.5229 24.5656 24.5269 24.5563 24.5242 24.5443L24.4962 24.4043C24.4936 24.3923 24.4842 24.3816 24.4829 24.3709C24.4802 24.3603 24.4829 24.3483 24.4802 24.3389L24.4256 24.1403C24.4082 24.0843 24.3736 24.0416 24.3482 23.9909C24.3269 23.9469 24.3202 23.8963 24.2909 23.8523L24.1776 23.6829C24.1722 23.6749 24.1629 23.6723 24.1576 23.6629C24.1522 23.6549 24.1509 23.6443 24.1456 23.6349L24.0602 23.5229C24.0336 23.4883 23.9949 23.4696 23.9642 23.4389C23.9362 23.4096 23.9189 23.3709 23.8842 23.3443L23.7442 23.2323C23.7416 23.2309 23.7362 23.2309 23.7336 23.2283C23.7296 23.2256 23.7282 23.2189 23.7242 23.2163L23.6122 23.1323C23.5962 23.1203 23.5736 23.1176 23.5549 23.1043C23.5389 23.0923 23.5269 23.0749 23.5096 23.0643L22.0136 22.2003L35.5989 14.3656ZM54.8589 3.2376V17.9869L41.5602 25.6549L40.1442 15.6069C40.1376 15.5683 40.1149 15.5376 40.1056 15.5029C40.0962 15.4603 40.0989 15.4176 40.0829 15.3763L40.0442 15.2803L40.0042 15.1363C39.9896 15.0869 39.9576 15.0496 39.9362 15.0043C39.9136 14.9549 39.9069 14.9016 39.8762 14.8563L39.7642 14.6869C39.7576 14.6763 39.7442 14.6723 39.7362 14.6589C39.7296 14.6496 39.7282 14.6376 39.7216 14.6296L39.6362 14.5176C39.6096 14.4843 39.5722 14.4656 39.5429 14.4349C39.5149 14.4069 39.4989 14.3696 39.4656 14.3443L39.3736 14.2696L39.3322 14.2296C39.3002 14.1963 39.2602 14.1829 39.2242 14.1563C39.1869 14.1269 39.1589 14.0856 39.1162 14.0629L37.6149 13.2029L54.8589 3.2376ZM56.8602 3.21893L74.1349 13.2016L72.6322 14.0616C72.5802 14.0896 72.5469 14.1376 72.5016 14.1749C72.4976 14.1776 72.4936 14.1763 72.4909 14.1789L72.3216 14.2909C72.1749 14.3896 72.0749 14.5243 72.0002 14.6709C71.9962 14.6749 71.9909 14.6763 71.9882 14.6816L71.8749 14.8509C71.8562 14.8776 71.8549 14.9083 71.8402 14.9349C71.8242 14.9629 71.8002 14.9829 71.7869 15.0136L71.7042 15.2109C71.6882 15.2429 71.6922 15.2776 71.6816 15.3109C71.6709 15.3429 71.6509 15.3696 71.6429 15.4043L71.6136 15.5443C71.6109 15.5563 71.6149 15.5669 71.6136 15.5776C71.6122 15.5869 71.6056 15.5949 71.6042 15.6043L70.1856 25.6696L56.8602 17.9829V3.21893ZM76.1229 14.3683L89.7136 22.2029L88.2136 23.0616C88.1736 23.0843 88.1509 23.1203 88.1149 23.1469C88.0802 23.1749 88.0402 23.1843 88.0082 23.2163L87.9602 23.2643L87.8616 23.3429C87.8282 23.3709 87.8122 23.4096 87.7802 23.4389C87.7496 23.4709 87.7082 23.4909 87.6816 23.5269L87.5989 23.6389C87.5949 23.6469 87.5936 23.6563 87.5882 23.6643C87.5816 23.6736 87.5709 23.6763 87.5656 23.6856L87.4536 23.8549C87.4269 23.8989 87.4189 23.9496 87.3976 23.9936C87.3749 24.0403 87.3416 24.0763 87.3269 24.1283L87.2829 24.2803L87.2456 24.3749C87.2296 24.4136 87.2336 24.4549 87.2242 24.4936C87.2122 24.5323 87.1896 24.5656 87.1842 24.6069L85.7789 34.6616L72.0496 26.7469L73.5762 15.9336L73.5829 15.9016L73.5909 15.8843L73.6522 15.7936C73.6589 15.7883 73.6629 15.7816 73.6709 15.7736C73.6802 15.7656 73.6922 15.7616 73.7029 15.7523L76.1229 14.3683ZM91.7162 23.3629L91.7282 23.3669L106.052 31.3429L104.214 32.3949C104.174 32.4176 104.151 32.4536 104.115 32.4803C104.08 32.5083 104.04 32.5176 104.008 32.5496L103.96 32.5976L103.862 32.6763C103.828 32.7043 103.812 32.7429 103.78 32.7723C103.75 32.8043 103.708 32.8243 103.682 32.8603L103.599 32.9723C103.595 32.9803 103.594 32.9896 103.588 32.9976C103.583 33.0069 103.571 33.0096 103.566 33.0189L103.454 33.1883C103.427 33.2323 103.419 33.2829 103.398 33.3269C103.375 33.3736 103.342 33.4096 103.327 33.4616L103.283 33.6136L103.246 33.7083C103.23 33.7469 103.234 33.7883 103.224 33.8269C103.212 33.8656 103.19 33.8989 103.184 33.9403L101.843 43.5376L87.6629 35.6429L89.1496 25.0043L89.1602 24.9749C89.1656 24.9616 89.1629 24.9483 89.1682 24.9336C89.1736 24.9149 89.1869 24.9029 89.1922 24.8843L89.2069 24.8349L89.2136 24.8243L89.2469 24.7963C89.2629 24.7856 89.2682 24.7669 89.2816 24.7549L91.7162 23.3629ZM94.4789 57.0949L90.0202 54.5976L103.58 46.7869L108.079 49.2909L94.4789 57.0949ZM78.3416 66.3509L73.9136 63.8709L88.0109 55.7536L92.4949 58.2309L78.3416 66.3509ZM122.907 40.7869L110.098 48.1336L103.718 44.5816L105.15 34.3376L105.16 34.3083C105.166 34.2949 105.163 34.2816 105.168 34.2669C105.174 34.2483 105.187 34.2363 105.192 34.2176L105.207 34.1683L105.214 34.1576L105.247 34.1296C105.263 34.1189 105.268 34.1003 105.282 34.0883L108.096 32.4803L122.335 40.4096V40.4589L122.907 40.7869ZM125.002 40.7603C125.002 40.7309 124.987 40.7056 124.986 40.6776C124.983 40.6496 124.992 40.6229 124.987 40.5949L124.959 40.4256C124.958 40.4216 124.955 40.4189 124.955 40.4149C124.954 40.4096 124.956 40.4056 124.955 40.4003L124.928 40.2603C124.916 40.2016 124.882 40.1549 124.862 40.1003C124.839 40.0456 124.832 39.9883 124.802 39.9363L124.718 39.7963C124.71 39.7843 124.695 39.7749 124.684 39.7603C124.675 39.7456 124.674 39.7309 124.663 39.7149L124.583 39.6029C124.566 39.5816 124.54 39.5723 124.526 39.5523C124.508 39.5323 124.502 39.5096 124.484 39.4896L124.371 39.3776C124.354 39.3629 124.332 39.3576 124.316 39.3429C124.299 39.3269 124.29 39.3069 124.271 39.2923L124.158 39.2069C124.14 39.1936 124.119 39.1909 124.099 39.1789C124.08 39.1656 124.071 39.1469 124.051 39.1363L123.668 38.9176V38.8603L92.6682 21.6003C92.6482 21.5883 92.6242 21.5883 92.6029 21.5776C92.5816 21.5669 92.5682 21.5496 92.5456 21.5403L92.4056 21.4829C92.3776 21.4709 92.3469 21.4749 92.3189 21.4656C92.2962 21.4563 92.2802 21.4376 92.2576 21.4309C92.2202 21.4189 92.1816 21.4256 92.1469 21.4176C92.1176 21.4083 92.0962 21.3896 92.0656 21.3816C92.0336 21.3736 91.9989 21.3829 91.9656 21.3789C91.9456 21.3549 91.9376 21.3256 91.9149 21.3029L91.8309 21.2203L91.7229 21.1136C91.7069 21.0949 91.6842 21.0896 91.6656 21.0749C91.6482 21.0589 91.6376 21.0363 91.6189 21.0216L91.5069 20.9376C91.4896 20.9243 91.4682 20.9216 91.4509 20.9096C91.4322 20.8976 91.4242 20.8803 91.4042 20.8696L77.0589 12.6003C77.0509 12.5963 77.0429 12.5963 77.0362 12.5923C77.0269 12.5883 77.0216 12.5789 77.0136 12.5749L76.9016 12.5176C76.8536 12.4923 76.8069 12.4936 76.7576 12.4789C76.7269 12.4643 76.7029 12.4403 76.6696 12.4296C76.6576 12.4256 76.6456 12.4296 76.6336 12.4256C76.6189 12.4216 76.6096 12.4109 76.5976 12.4083L76.4856 12.3803C76.4496 12.3723 76.4189 12.3816 76.3842 12.3776C76.3642 12.3509 76.3549 12.3203 76.3296 12.2963L76.2469 12.2163L76.1469 12.1149C76.1282 12.0949 76.1056 12.0896 76.0856 12.0736C76.0669 12.0589 76.0576 12.0349 76.0389 12.0189L75.9269 11.9349C75.9082 11.9216 75.8869 11.9189 75.8696 11.9069C75.8509 11.8963 75.8402 11.8776 75.8229 11.8669L57.4296 1.23893C57.4096 1.2296 57.3909 1.23093 57.3736 1.22026C57.3549 1.21093 57.3456 1.19493 57.3269 1.18826L57.1296 1.10292C57.1016 1.09092 57.0736 1.09359 57.0469 1.08426C57.0189 1.07492 56.9976 1.05626 56.9682 1.04826L56.8776 1.02559L56.6936 0.973589C56.5562 0.934922 56.4189 0.92826 56.2856 0.946927C56.2816 0.94826 56.2789 0.946927 56.2762 0.946927L56.0816 0.973589C56.0109 0.984256 55.9522 1.01892 55.8869 1.04426L55.8562 1.03092C55.8242 1.01759 55.7882 1.02293 55.7562 1.0136C55.7229 1.0056 55.6976 0.984264 55.6616 0.977597L55.4922 0.950925C55.4856 0.949591 55.4789 0.952258 55.4709 0.950925C55.4162 0.941591 55.3602 0.95359 55.3042 0.95359C55.2242 0.954923 55.1482 0.952257 55.0709 0.972257C55.0642 0.97359 55.0576 0.972256 55.0509 0.973589L54.8549 1.02959C54.8442 1.03226 54.8362 1.04159 54.8269 1.04559C54.8122 1.04826 54.7962 1.04292 54.7816 1.04692C54.7522 1.05626 54.7282 1.07492 54.7002 1.08559C54.6709 1.09492 54.6429 1.09226 54.6149 1.10426L54.4216 1.18959C54.4029 1.19759 54.3922 1.2136 54.3749 1.22026C54.3576 1.23093 54.3402 1.23093 54.3229 1.23893L35.9296 11.8696C35.9096 11.8803 35.9002 11.8976 35.8842 11.9083C35.8669 11.9203 35.8469 11.9216 35.8296 11.9349L35.7162 12.0189C35.6949 12.0349 35.6856 12.0589 35.6669 12.0749C35.6482 12.0923 35.6229 12.0989 35.6042 12.1176L35.4922 12.2309C35.4856 12.2363 35.4856 12.2443 35.4802 12.2509C35.4669 12.2603 35.4589 12.2776 35.4496 12.2856C35.4376 12.2949 35.4242 12.2989 35.4136 12.3096C35.3909 12.3323 35.3842 12.3589 35.3669 12.3829C35.3242 12.3896 35.2829 12.3976 35.2429 12.4083C35.2136 12.4123 35.1816 12.4043 35.1522 12.4123C35.1402 12.4149 35.1309 12.4243 35.1202 12.4283C35.1069 12.4309 35.0962 12.4283 35.0829 12.4323L34.9989 12.4603C34.9856 12.4643 34.9789 12.4749 34.9656 12.4803C34.9536 12.4843 34.9402 12.4816 34.9296 12.4869L34.7896 12.5443C34.7669 12.5536 34.7549 12.5723 34.7322 12.5816C34.7109 12.5909 34.6882 12.5923 34.6669 12.6043L20.3229 20.8723C20.2309 20.9256 20.1616 21.0016 20.0949 21.0736C20.0736 21.0909 20.0496 21.0976 20.0322 21.1163C20.0309 21.1163 20.0309 21.1176 20.0309 21.1189C20.0282 21.1189 20.0282 21.1189 20.0269 21.1203L19.9149 21.2323C19.9082 21.2389 19.9069 21.2469 19.9002 21.2536C19.8882 21.2643 19.8802 21.2776 19.8709 21.2869C19.8602 21.2949 19.8482 21.2976 19.8402 21.3069C19.8176 21.3309 19.8096 21.3603 19.7869 21.3856C19.7469 21.3936 19.7069 21.4003 19.6669 21.4109C19.6376 21.4149 19.6056 21.4069 19.5749 21.4149C19.5629 21.4176 19.5549 21.4269 19.5442 21.4296C19.5336 21.4336 19.5202 21.4296 19.5096 21.4336L19.4256 21.4616C19.4096 21.4656 19.4016 21.4776 19.3896 21.4816C19.3762 21.4869 19.3642 21.4843 19.3509 21.4896L19.2109 21.5469C19.1882 21.5563 19.1749 21.5749 19.1536 21.5843C19.1322 21.5936 19.1096 21.5949 19.0896 21.6069L5.15222 29.5349C5.08289 29.5749 5.03622 29.6336 4.98022 29.6869C4.96689 29.6949 4.95222 29.6976 4.94155 29.7069L4.80155 29.8203C4.77355 29.8429 4.76289 29.8736 4.73755 29.8976C4.71355 29.9163 4.69089 29.9296 4.66956 29.9523C4.66156 29.9563 4.65222 29.9589 4.64689 29.9656C4.60289 30.0083 4.58289 30.0603 4.54956 30.1056C4.51622 30.1509 4.47089 30.1883 4.44556 30.2416L4.36422 30.4109C4.34289 30.4523 4.34289 30.4936 4.33089 30.5363C4.31755 30.5763 4.28956 30.6109 4.28022 30.6536L4.25222 30.7936C4.25222 30.8003 4.25489 30.8069 4.25222 30.8136C4.25222 30.8189 4.24822 30.8216 4.24689 30.8269L4.21889 30.9963C4.21355 31.0243 4.22422 31.0509 4.22156 31.0789C4.21889 31.1069 4.20289 31.1323 4.20289 31.1616V36.2363C4.15089 36.2549 4.11622 36.2896 4.06955 36.3136C4.03889 36.3269 4.00022 36.3269 3.96822 36.3416C3.95889 36.3469 3.95356 36.3549 3.94422 36.3603C3.93489 36.3656 3.92689 36.3643 3.91622 36.3696L1.41355 37.8029C1.39355 37.8136 1.38422 37.8323 1.36689 37.8456C1.34555 37.8576 1.32556 37.8603 1.30689 37.8736L1.19356 37.9589C1.17489 37.9736 1.16556 37.9936 1.15089 38.0083C1.13222 38.0243 1.11089 38.0296 1.09622 38.0443L0.98289 38.1563C0.96289 38.1749 0.956221 38.1989 0.940221 38.2189C0.925554 38.2389 0.898889 38.2483 0.882889 38.2696L0.801554 38.3816C0.790888 38.3976 0.789556 38.4123 0.780223 38.4269C0.769556 38.4416 0.756221 38.4509 0.746887 38.4629L0.662888 38.6029C0.632221 38.6549 0.625556 38.7123 0.604223 38.7669C0.582889 38.8216 0.549556 38.8683 0.53889 38.9269L0.509557 39.0669C0.508224 39.0723 0.51089 39.0763 0.509557 39.0816C0.509557 39.0856 0.506888 39.0883 0.505554 39.0923L0.478887 39.2616C0.473554 39.2896 0.484224 39.3163 0.481557 39.3443C0.478891 39.3723 0.462891 39.3976 0.462891 39.4269V57.0883C0.462891 57.1189 0.478891 57.1429 0.481557 57.1723C0.484224 57.1989 0.473554 57.2269 0.478887 57.2536L0.505554 57.4229C0.506888 57.4269 0.509557 57.4309 0.509557 57.4349C0.51089 57.4389 0.508224 57.4443 0.509557 57.4496L0.53889 57.5883C0.560223 57.7056 0.604222 57.8136 0.661555 57.9096C0.662888 57.9109 0.662888 57.9109 0.662888 57.9123C0.664221 57.9149 0.665557 57.9163 0.66689 57.9176L0.74822 58.0536C0.757553 58.0669 0.770891 58.0709 0.777557 58.0816C0.788224 58.0989 0.790887 58.1189 0.802887 58.1349L0.885554 58.2469C0.898887 58.2656 0.921557 58.2723 0.934891 58.2883C0.953557 58.3096 0.961557 58.3376 0.981557 58.3563L1.09489 58.4696C1.11222 58.4883 1.13489 58.4936 1.15355 58.5096C1.17222 58.5256 1.18156 58.5469 1.20289 58.5643L1.31622 58.6469C1.33356 58.6683 1.35622 58.6736 1.37489 58.6843C1.38955 58.6949 1.39755 58.7096 1.41222 58.7176L20.4256 69.6869C20.4416 69.6976 20.4616 69.6936 20.4802 69.7016C20.5069 69.7163 20.5256 69.7389 20.5549 69.7509L20.6949 69.8069C20.7229 69.8189 20.7549 69.8149 20.7829 69.8243C20.8042 69.8323 20.8189 69.8509 20.8416 69.8563C20.8789 69.8683 20.9189 69.8669 20.9549 69.8749C20.9776 69.8816 20.9922 69.8976 21.0136 69.9029C21.0962 69.9243 21.1802 69.9336 21.2629 69.9336C21.2842 69.9336 21.3016 69.9243 21.3229 69.9229C21.3402 69.9243 21.3549 69.9336 21.3736 69.9336C21.3936 69.9336 21.4096 69.9229 21.4296 69.9216C21.4496 69.9229 21.4669 69.9336 21.4869 69.9336C21.5536 69.9336 21.6109 69.9069 21.6736 69.8976C21.7309 69.8936 21.7896 69.8909 21.8456 69.8749C21.8562 69.8723 21.8642 69.8643 21.8736 69.8616C21.8856 69.8576 21.8989 69.8589 21.9109 69.8549L21.9936 69.8269C22.0549 69.8056 22.0989 69.7656 22.1536 69.7363C22.1816 69.7256 22.2136 69.7309 22.2402 69.7149C22.2522 69.7096 22.2589 69.6989 22.2682 69.6936C22.2762 69.6896 22.2842 69.6909 22.2922 69.6869L55.5642 50.5869C55.6122 50.5603 55.6456 50.5136 55.6856 50.4803L55.8109 50.4043C55.8322 50.3909 55.8442 50.3683 55.8669 50.3523C55.8869 50.3683 55.8989 50.3909 55.9229 50.4043L55.9616 50.4296L55.9656 50.4336C55.9989 50.4669 56.0416 50.4803 56.0776 50.5096C56.1096 50.5336 56.1309 50.5669 56.1669 50.5883L70.5109 58.8563C70.5282 58.8669 70.5469 58.8616 70.5642 58.8709C70.5922 58.8843 70.6069 58.9056 70.6336 58.9163L70.7736 58.9736C70.8016 58.9856 70.8309 58.9816 70.8576 58.9909C70.8789 59.0003 70.8936 59.0163 70.9149 59.0229C70.9309 59.0283 70.9456 59.0269 70.9616 59.0309C70.9776 59.0349 70.9856 59.0456 70.9976 59.0483L71.1096 59.0763C71.1402 59.0843 71.1696 59.0829 71.2016 59.0883C71.2136 59.1083 71.2349 59.1176 71.2496 59.1336C71.2962 59.1923 71.3322 59.2576 71.3922 59.3056L71.5336 59.4189C71.5349 59.4189 71.5349 59.4203 71.5362 59.4203C71.5416 59.4269 71.5429 59.4349 71.5496 59.4416C71.5802 59.4709 71.6216 59.4843 71.6549 59.5109C71.6882 59.5363 71.7096 59.5696 71.7456 59.5909L74.6336 61.1616L57.9909 70.7483C56.5602 69.9283 55.2056 69.1736 54.3349 68.7376L53.1829 68.3136H52.0696C52.0389 68.3269 52.0002 68.3269 51.9682 68.3416C51.9589 68.3469 51.9536 68.3549 51.9442 68.3603C51.9349 68.3656 51.9269 68.3643 51.9162 68.3696L49.4136 69.8029C49.3936 69.8136 49.3842 69.8323 49.3669 69.8456C49.3456 69.8576 49.3256 69.8603 49.3069 69.8736L49.1936 69.9589C49.1749 69.9736 49.1656 69.9936 49.1509 70.0083C49.1322 70.0243 49.1109 70.0296 49.0962 70.0443L48.9829 70.1563C48.9629 70.1749 48.9562 70.1989 48.9402 70.2189C48.9256 70.2389 48.8989 70.2483 48.8829 70.2696L48.8016 70.3816C48.7909 70.3976 48.7896 70.4123 48.7802 70.4269C48.7696 70.4416 48.7562 70.4509 48.7469 70.4629L48.6629 70.6029C48.6322 70.6549 48.6256 70.7123 48.6042 70.7669C48.5829 70.8216 48.5496 70.8683 48.5389 70.9269L48.5096 71.0669C48.5082 71.0723 48.5109 71.0763 48.5096 71.0816C48.5096 71.0856 48.5069 71.0883 48.5056 71.0923L48.4789 71.2616C48.4736 71.2896 48.4842 71.3163 48.4816 71.3443C48.4789 71.3723 48.4629 71.3976 48.4629 71.4269V89.0883C48.4629 89.1189 48.4789 89.1429 48.4816 89.1723C48.4842 89.1989 48.4736 89.2269 48.4789 89.2536L48.5056 89.4229C48.5069 89.4269 48.5096 89.4309 48.5096 89.4349C48.5109 89.4389 48.5082 89.4443 48.5096 89.4496L48.5389 89.5883C48.5602 89.7056 48.6042 89.8136 48.6616 89.9096C48.6629 89.9109 48.6629 89.9109 48.6629 89.9123C48.6642 89.9149 48.6656 89.9163 48.6669 89.9176L48.7482 90.0536C48.7576 90.0669 48.7709 90.0709 48.7776 90.0816C48.7882 90.0989 48.7909 90.1189 48.8029 90.1349L48.8856 90.2469C48.8989 90.2656 48.9216 90.2723 48.9349 90.2883C48.9536 90.3096 48.9616 90.3376 48.9816 90.3563L49.0949 90.4696C49.1122 90.4883 49.1349 90.4936 49.1536 90.5096C49.1722 90.5256 49.1816 90.5469 49.2029 90.5643L49.3162 90.6469C49.3336 90.6683 49.3562 90.6736 49.3749 90.6843C49.3896 90.6949 49.3976 90.7096 49.4122 90.7176L68.4256 101.687C68.4416 101.698 68.4616 101.694 68.4802 101.702C68.5069 101.716 68.5256 101.739 68.5549 101.751L68.6949 101.807C68.7229 101.819 68.7549 101.815 68.7829 101.824C68.8042 101.832 68.8189 101.851 68.8416 101.856C68.8789 101.868 68.9189 101.867 68.9549 101.875C68.9776 101.882 68.9922 101.899 69.0136 101.903C69.0962 101.924 69.1802 101.934 69.2629 101.934C69.2842 101.934 69.3016 101.924 69.3229 101.923C69.3402 101.924 69.3549 101.934 69.3736 101.934C69.3936 101.934 69.4096 101.923 69.4296 101.922C69.4496 101.923 69.4669 101.934 69.4869 101.934C69.5536 101.934 69.6109 101.907 69.6736 101.898C69.7309 101.894 69.7896 101.891 69.8456 101.875C69.8562 101.872 69.8642 101.864 69.8736 101.862C69.8856 101.858 69.8989 101.859 69.9109 101.855L69.9936 101.827C70.0549 101.806 70.0989 101.766 70.1536 101.736C70.1816 101.726 70.2136 101.731 70.2402 101.715C70.2522 101.71 70.2842 101.691 70.2922 101.687L73.7482 99.5536L123.668 71.1003V70.9403L124.052 70.7176C124.067 70.7096 124.075 70.6949 124.091 70.6843C124.108 70.6736 124.131 70.6683 124.151 70.6469L124.263 70.5643C124.283 70.5469 124.292 70.5256 124.312 70.5096C124.33 70.4936 124.352 70.4883 124.372 70.4696L124.486 70.3563C124.503 70.3376 124.511 70.3096 124.531 70.2883C124.544 70.2723 124.566 70.2656 124.579 70.2469L124.662 70.1349C124.674 70.1189 124.676 70.0989 124.687 70.0816C124.695 70.0709 124.708 70.0669 124.716 70.0536L124.798 69.9176C124.799 69.9163 124.8 69.9149 124.802 69.9123C124.802 69.9109 124.802 69.9109 124.804 69.9096C124.862 69.8136 124.904 69.7056 124.928 69.5883L124.955 69.4496C124.956 69.4443 124.954 69.4389 124.955 69.4349C124.955 69.4309 124.958 69.4269 124.959 69.4229L124.987 69.2536C124.992 69.2269 124.983 69.1989 124.986 69.1723C124.987 69.1429 125.002 69.1189 125.002 69.0883V40.7603Z" fill="#37A0D9"/>
</svg>
