<svg width="128" height="93" viewBox="0 0 128 93" fill="none" xmlns="http://www.w3.org/2000/svg">
<path d="M76.0341 76.7627L76.0168 76.7454C76.0048 76.7347 75.9901 76.7321 75.9794 76.7201C75.9674 76.7081 75.9621 76.6921 75.9501 76.6827L75.8768 76.6227L75.8741 76.6081C75.8728 76.6027 75.8701 76.5987 75.8688 76.5947C75.8674 76.5881 75.8701 76.5827 75.8688 76.5761L75.8608 76.5334V76.5227V67.9347L91.9394 77.2227C91.9554 77.2321 91.9714 77.2281 91.9874 77.2347C92.0101 77.2467 92.0221 77.2654 92.0461 77.2747L92.2434 77.3587C92.2981 77.3827 92.3528 77.3801 92.4088 77.3934C92.4408 77.4041 92.4674 77.4267 92.5008 77.4361C92.5128 77.4387 92.5248 77.4374 92.5354 77.4401C92.5434 77.4441 92.5488 77.4494 92.5568 77.4507L92.6968 77.4774C92.7608 77.4907 92.8248 77.4961 92.8874 77.4961H92.8888H93.0288H93.1981H93.1994C93.2621 77.4961 93.3261 77.4894 93.3901 77.4774L93.5301 77.4507C93.5381 77.4494 93.5434 77.4441 93.5514 77.4401C93.5634 77.4374 93.5754 77.4387 93.5861 77.4361L93.6981 77.4081C93.7394 77.3987 93.7688 77.3707 93.8061 77.3561C93.8354 77.3454 93.8675 77.3481 93.8968 77.3347L94.0661 77.2494C94.0781 77.2427 94.0848 77.2334 94.0954 77.2267C94.1048 77.2201 94.1154 77.2241 94.1234 77.2174L94.5874 76.9481V87.4494L76.0341 76.7627ZM55.2181 64.7187L55.1701 64.6827L55.1208 64.6401L55.1194 64.6361C55.1181 64.6307 55.1155 64.6267 55.1141 64.6227C55.1128 64.6174 55.1155 64.6121 55.1141 64.6041L55.1048 64.5587V64.5414V55.9521L71.1834 65.2401C71.1994 65.2494 71.2168 65.2454 71.2328 65.2534C71.2554 65.2654 71.2688 65.2854 71.2914 65.2934L71.4861 65.3761C71.5394 65.4014 71.5954 65.3987 71.6501 65.4094C71.6834 65.4227 71.7114 65.4467 71.7461 65.4561C71.7568 65.4574 71.7661 65.4574 71.7754 65.4587C71.7808 65.4601 71.7848 65.4641 71.7914 65.4654L71.9314 65.4934C71.9968 65.5081 72.0648 65.5134 72.1288 65.5134H72.1301H72.1554L72.2021 65.5921C72.2168 65.6187 72.2434 65.6254 72.2608 65.6494C72.3101 65.7174 72.3514 65.7907 72.4194 65.8454L72.5888 65.9854C72.5928 65.9881 72.5968 65.9894 72.6008 65.9921C72.6034 65.9934 72.6034 65.9974 72.6061 65.9987L72.7461 66.1121C72.7674 66.1281 72.7928 66.1347 72.8154 66.1481C72.8341 66.1614 72.8434 66.1801 72.8634 66.1907L73.8581 66.7734V75.4787L55.2181 64.7187ZM33.3621 75.4667V64.9667L33.8261 65.2387C33.8354 65.2441 33.8475 65.2414 33.8568 65.2467C33.8688 65.2547 33.8768 65.2667 33.8888 65.2734L34.0581 65.3561C34.0901 65.3721 34.1261 65.3681 34.1594 65.3801C34.2074 65.4001 34.2474 65.4294 34.2994 65.4401L34.4395 65.4681L34.5795 65.4961C34.6448 65.5107 34.7128 65.5161 34.7768 65.5161H34.7781H34.9181H35.0581H35.0594C35.1141 65.5161 35.1701 65.5121 35.2248 65.5027L35.3941 65.4734C35.4035 65.4721 35.4115 65.4654 35.4208 65.4627C35.4395 65.4587 35.4568 65.4614 35.4754 65.4574L35.5875 65.4281C35.6261 65.4174 35.6541 65.3934 35.6901 65.3774C35.7195 65.3667 35.7528 65.3707 35.7808 65.3561L35.9501 65.2734C35.9621 65.2667 35.9701 65.2561 35.9808 65.2494C35.9901 65.2441 35.9995 65.2467 36.0088 65.2414L52.1155 55.9521V64.4361C52.1141 64.4454 52.1075 64.4507 52.1061 64.4574L52.0781 64.5974C52.0768 64.6041 52.0795 64.6094 52.0781 64.6174C52.0768 64.6214 52.0741 64.6241 52.0728 64.6294L52.0688 64.6507L52.0675 64.6534L52.0581 64.6654L52.0488 64.6761L52.0141 64.6961C52.0128 64.6961 52.0128 64.6974 52.0115 64.6987L33.3621 75.4667ZM26.5101 18.1747L26.5315 18.1627L26.5448 18.1601H26.5461L26.6408 18.1401L26.7128 18.1547L26.7168 18.1587L30.1208 20.1281H30.1221L30.1741 20.1587L30.1875 20.1721L30.1915 20.1787C30.1941 20.1814 30.1994 20.1827 30.2021 20.1881C30.2061 20.1947 30.2061 20.2041 30.2114 20.2107L30.3075 20.3547L30.3248 20.4067L30.3395 20.4894L32.4301 35.1561L18.5008 43.1934L7.34745 36.7587V29.4441L7.37945 29.3001C7.38212 29.2907 7.37812 29.2827 7.38078 29.2721C7.38212 29.2614 7.38878 29.2547 7.39012 29.2441L7.39279 29.2334L7.45145 29.1827L7.49412 29.1507L26.5101 18.1747ZM52.5968 3.11207V23.5281L52.5554 23.5467C52.5368 23.5561 52.5261 23.5721 52.5074 23.5801C52.4888 23.5881 52.4701 23.5881 52.4514 23.5987L34.4234 34.0067C34.3994 34.0187 34.3875 34.0414 34.3661 34.0574C34.3435 34.0721 34.3168 34.0761 34.2954 34.0921L32.3141 20.1894C32.3141 20.1854 32.3101 20.1814 32.3101 20.1787C32.3088 20.1734 32.3115 20.1694 32.3101 20.1627L32.2821 19.9934C32.2781 19.9667 32.2608 19.9481 32.2541 19.9214C32.2475 19.8947 32.2528 19.8681 32.2435 19.8427L32.1595 19.5894C32.1448 19.5467 32.1141 19.5174 32.0955 19.4787C32.0755 19.4374 32.0701 19.3947 32.0448 19.3534L31.8768 19.1014L31.8755 19.1001L31.8101 18.9934C31.7821 18.9507 31.7395 18.9214 31.7075 18.8827C31.6741 18.8441 31.6528 18.7947 31.6128 18.7587L31.4181 18.5894C31.3954 18.5694 31.3674 18.5654 31.3434 18.5481C31.3181 18.5294 31.3048 18.5054 31.2781 18.4881L31.1381 18.4041C31.1354 18.4027 31.1328 18.4027 31.1315 18.4014C31.1275 18.4014 31.1261 18.3974 31.1235 18.3961L28.6288 16.9534L52.5968 3.11207ZM76.0754 18.3974C76.0554 18.4067 76.0474 18.4254 76.0288 18.4374C76.0114 18.4507 75.9914 18.4521 75.9741 18.4641L75.8621 18.5481C75.8528 18.5561 75.8501 18.5667 75.8408 18.5721C75.8328 18.5787 75.8221 18.5801 75.8141 18.5867L75.6168 18.7561C75.5901 18.7801 75.5794 18.8094 75.5554 18.8361C75.5328 18.8574 75.5048 18.8681 75.4834 18.8961L75.3714 19.0347C75.3541 19.0587 75.3501 19.0827 75.3354 19.1067C75.3208 19.1307 75.2954 19.1441 75.2808 19.1721L75.1408 19.4227C75.1248 19.4521 75.1248 19.4841 75.1128 19.5134C75.0994 19.5414 75.0781 19.5627 75.0674 19.5921L74.9834 19.8454V19.8467C74.9834 19.8467 74.9821 19.8467 74.9821 19.8481L74.9261 20.0174C74.9154 20.0467 74.9221 20.0787 74.9141 20.1107C74.9074 20.1374 74.8888 20.1614 74.8861 20.1921L72.9261 34.1107C72.9181 34.1027 72.9088 34.0987 72.9008 34.0934C72.8661 34.0667 72.8408 34.0294 72.8021 34.0081L54.7474 23.6001C54.7288 23.5894 54.7088 23.5894 54.6901 23.5801C54.6714 23.5707 54.6608 23.5534 54.6408 23.5467L54.5994 23.5281V3.0934L78.5714 16.9547L76.0754 18.3974ZM96.8301 30.3761C96.8088 30.3894 96.7994 30.4067 96.7794 30.4201C96.7608 30.4334 96.7408 30.4361 96.7221 30.4494L96.6101 30.5334C96.6021 30.5387 96.5994 30.5481 96.5928 30.5534C96.5848 30.5601 96.5754 30.5614 96.5688 30.5681L96.3728 30.7347C96.3474 30.7561 96.3381 30.7867 96.3154 30.8094C96.2928 30.8334 96.2648 30.8441 96.2434 30.8681L96.1301 31.0094C96.1101 31.0321 96.1061 31.0614 96.0901 31.0854C96.0741 31.1121 96.0488 31.1254 96.0341 31.1521L95.8941 31.4054C95.8781 31.4334 95.8781 31.4654 95.8661 31.4947C95.8528 31.5227 95.8314 31.5454 95.8208 31.5761L95.7381 31.8281V31.8294L95.6834 31.9907C95.6728 32.0201 95.6794 32.0507 95.6714 32.0787C95.6634 32.1121 95.6448 32.1374 95.6408 32.1707L93.6674 46.0827L93.6568 46.0734C93.6355 46.0574 93.6101 46.0521 93.5874 46.0374C93.5648 46.0227 93.5528 46.0014 93.5288 45.9867L74.7941 35.1561L76.8488 20.5641L76.8768 20.4787L76.9301 20.3187L76.9874 20.2161L77.0888 20.1294L77.1261 20.1014L80.4728 18.1681L80.4861 18.1641H80.4874L80.5821 18.1454L80.6408 18.1561L80.6901 18.1827L99.3234 28.9334L96.8301 30.3761ZM55.5661 53.9094L55.3968 53.7921L55.3168 53.7107C55.3101 53.7041 55.3021 53.7027 55.2954 53.6974C55.2888 53.6907 55.2861 53.6814 55.2794 53.6761L55.0568 53.4747L55.0061 53.4107C54.9501 53.2907 54.8688 53.1841 54.7715 53.0947L54.7661 53.0867L54.7101 52.9747L54.6595 52.8481L54.6461 52.7307C54.6448 52.7147 54.6354 52.7027 54.6328 52.6894C54.6301 52.6747 54.6354 52.6601 54.6328 52.6441L54.5954 52.4587V48.3601L54.6328 48.1761C54.6354 48.1614 54.6301 48.1494 54.6328 48.1387C54.6354 48.1254 54.6434 48.1161 54.6448 48.1027L54.6595 47.9867L54.7128 47.8401L54.7661 47.7347L54.9048 47.5374L55.0568 47.3467L55.2794 47.1454C55.2861 47.1387 55.2888 47.1294 55.2954 47.1241C55.3021 47.1187 55.3101 47.1174 55.3168 47.1094L55.3701 47.0574L55.5301 46.9614C55.5315 46.9601 55.5314 46.9601 55.5328 46.9601L73.1994 36.7414L73.2688 36.7174C73.2768 36.7147 73.2808 36.7081 73.2888 36.7054C73.2981 36.7027 73.3088 36.7041 73.3181 36.7001L73.3728 36.6787L73.3834 36.6774L73.4181 36.6827L73.5128 36.7254L92.1101 47.4734L72.8701 58.5867C72.8474 58.6001 72.8354 58.6227 72.8141 58.6361C72.7928 58.6507 72.7674 58.6547 72.7474 58.6707L72.6074 58.7827C72.6048 58.7854 72.6034 58.7881 72.6008 58.7894C72.5981 58.7921 72.5941 58.7921 72.5901 58.7947L72.4208 58.9347C72.3754 58.9721 72.3514 59.0227 72.3141 59.0681C72.2781 59.1094 72.2328 59.1401 72.2034 59.1894L72.1194 59.3294C72.1128 59.3414 72.1128 59.3534 72.1061 59.3641C72.1008 59.3747 72.0888 59.3814 72.0834 59.3934L71.9701 59.6174C71.9581 59.6414 71.9594 59.6681 71.9488 59.6921C71.9381 59.7174 71.9194 59.7347 71.9101 59.7614L71.8554 59.9307C71.8461 59.9601 71.8515 59.9907 71.8448 60.0214C71.8381 60.0521 71.8181 60.0787 71.8154 60.1121L71.7874 60.3374C71.7848 60.3587 71.7941 60.3774 71.7928 60.4014C71.7914 60.4227 71.7794 60.4401 71.7794 60.4627V63.2734L55.5661 53.9094ZM53.2821 25.4281C53.3821 25.4614 53.4848 25.4921 53.5968 25.4921C53.7088 25.4921 53.8128 25.4627 53.9141 25.4281L71.3688 35.4881L54.5301 45.2294C54.5275 45.2307 54.5261 45.2334 54.5234 45.2347C54.5208 45.2347 54.5194 45.2347 54.5181 45.2361L54.2368 45.4041C54.2008 45.4267 54.1781 45.4614 54.1461 45.4867C54.1141 45.5134 54.0728 45.5254 54.0434 45.5574L53.9261 45.6747L53.6581 45.9161C53.6368 45.9347 53.6301 45.9601 53.6114 45.9801C53.5928 45.9601 53.5848 45.9347 53.5648 45.9161L53.2968 45.6747L53.1795 45.5574C53.1501 45.5267 53.1088 45.5134 53.0768 45.4867C53.0448 45.4614 53.0221 45.4267 52.9861 45.4041L52.7048 45.2361C52.7034 45.2347 52.7021 45.2347 52.6994 45.2347C52.6968 45.2334 52.6954 45.2307 52.6928 45.2294L35.8554 35.4881L53.2821 25.4281ZM35.0421 63.4921L35.0034 63.5121L34.9808 63.5161H34.9221H34.8848L34.8408 63.5081L34.8234 63.5041L34.8101 63.4961L33.3621 62.6481V53.0387C33.3621 53.0161 33.3515 53.0001 33.3488 52.9774C33.3488 52.9574 33.3568 52.9387 33.3541 52.9174L33.3261 52.6934C33.3221 52.6667 33.3061 52.6454 33.3008 52.6201C33.2968 52.5921 33.3034 52.5681 33.2954 52.5414L33.2394 52.3454C33.2274 52.3027 33.1995 52.2721 33.1821 52.2347C33.1661 52.1961 33.1648 52.1547 33.1448 52.1201L33.0328 51.9241C33.0301 51.9187 33.0248 51.9174 33.0221 51.9121C33.0208 51.9081 33.0208 51.9041 33.0181 51.9014L32.9341 51.7601C32.9061 51.7147 32.8621 51.6854 32.8288 51.6467C32.7928 51.6027 32.7688 51.5521 32.7234 51.5134L32.5554 51.3734C32.5528 51.3707 32.5501 51.3707 32.5474 51.3694C32.5448 51.3667 32.5435 51.3641 32.5408 51.3614L32.4008 51.2494C32.3795 51.2334 32.3554 51.2307 32.3341 51.2147C32.3114 51.2001 32.2981 51.1787 32.2741 51.1627L20.4981 44.3507L33.7315 36.7134L33.7795 36.6894L33.8408 36.6774L33.8528 36.6801L33.9075 36.7014C33.9168 36.7054 33.9261 36.7027 33.9341 36.7067C33.9421 36.7094 33.9474 36.7161 33.9554 36.7187L34.0288 36.7441L51.6914 46.9614C51.6928 46.9614 51.6928 46.9614 51.6941 46.9627L51.8541 47.0587L51.9074 47.1121C51.9141 47.1187 51.9221 47.1201 51.9288 47.1241C51.9354 47.1307 51.9381 47.1401 51.9448 47.1467L52.1688 47.3481L52.3021 47.5134L52.4141 47.7027L52.4861 47.8441L52.5594 48.0441L52.5875 48.1507L52.6021 48.3014V52.5201L52.5861 52.6814L52.5594 52.8001L52.4901 52.9734L52.4141 53.1214L52.3941 53.1534C52.3274 53.2281 52.2728 53.3081 52.2288 53.4001L52.1688 53.4747L51.9448 53.6774C51.9381 53.6827 51.9354 53.6921 51.9288 53.6987C51.9221 53.7041 51.9141 53.7054 51.9074 53.7121L51.8275 53.7934L51.6581 53.9107L35.0421 63.4921ZM95.6808 63.1401C95.6408 63.1641 95.6154 63.2014 95.5794 63.2294C95.5461 63.2561 95.5034 63.2681 95.4728 63.3001L95.3914 63.3814L95.2554 63.4947C95.2288 63.5174 95.2181 63.5481 95.1941 63.5721C95.1701 63.5961 95.1395 63.6081 95.1181 63.6347L95.0048 63.7747C94.9808 63.8027 94.9768 63.8401 94.9568 63.8681C94.9354 63.9001 94.9048 63.9214 94.8874 63.9574L94.7754 64.1814C94.7501 64.2307 94.7501 64.2827 94.7354 64.3334C94.7208 64.3761 94.6941 64.4134 94.6861 64.4601L94.6634 64.5921L94.6168 64.7854C94.6061 64.8241 94.6168 64.8641 94.6114 64.9041C94.6061 64.9454 94.5874 64.9801 94.5874 65.0214V74.6294L93.1368 75.4801L93.1034 75.4961L93.0994 75.4974H93.0275H92.9848L92.9581 75.4921H92.9568L92.8834 75.4614L75.3634 65.3441L75.3621 65.3427L73.9328 64.5054L73.8674 64.4534L73.8661 64.4521L73.8181 64.4121C73.8141 64.4054 73.8074 64.4014 73.8034 64.3961C73.7968 64.3841 73.7954 64.3694 73.7874 64.3601L73.7808 64.3507L73.7754 64.3201V60.5321L73.7848 60.4601L73.7874 60.4534L73.8314 60.3654L73.8648 60.3387L73.8661 60.3374L73.9314 60.2854L94.0301 48.6787C94.0381 48.6734 94.0421 48.6641 94.0501 48.6587C94.0621 48.6534 94.0754 48.6561 94.0861 48.6507L94.0874 48.6494C94.0901 48.6481 94.0914 48.6494 94.0941 48.6481L94.2181 48.5854H94.2621H94.2768C94.2901 48.5907 94.3034 48.6001 94.3168 48.6054C94.3261 48.6107 94.3328 48.6187 94.3421 48.6214L94.4141 48.6441L107.617 56.2747L95.6808 63.1401ZM120.501 41.1574C120.502 41.1587 120.502 41.1601 120.503 41.1601L120.551 41.1881L120.59 41.2681L120.594 41.2814L120.605 41.3667V48.7561L109.622 55.1187L95.5581 46.9894L97.6048 32.5427L97.6328 32.4614V32.4587C97.6341 32.4574 97.6355 32.4574 97.6355 32.4561L97.6888 32.2921L97.7434 32.1947L97.8514 32.1027L97.8861 32.0747L101.225 30.1441L101.245 30.1401L101.341 30.1214L101.405 30.1334L101.446 30.1547L120.501 41.1574ZM28.0354 78.5641L27.9634 78.5881C27.9434 78.5947 27.9315 78.6121 27.9115 78.6187H27.8621H27.8421L27.8101 78.6041C27.8008 78.6001 27.7928 78.6027 27.7835 78.5987C27.7755 78.5961 27.7701 78.5894 27.7621 78.5867L27.6848 78.5614L2.52612 64.0241L2.48745 63.9934L2.42612 63.9321L2.40345 63.9041C2.40212 63.8987 2.40479 63.8921 2.40345 63.8827L2.37145 63.7334V40.4641L2.40345 40.3134C2.40479 40.3054 2.40212 40.2987 2.40345 40.2907C2.40479 40.2841 2.41012 40.2787 2.41145 40.2694L2.41545 40.2481L2.42612 40.2347L2.43678 40.2254L2.47145 40.2027L2.47278 40.2014L5.69679 38.3161L5.70079 38.3147L5.78879 38.2961C5.81679 38.2907 5.83945 38.2707 5.86745 38.2627H5.87145H5.87545C5.90345 38.2721 5.92478 38.2907 5.95412 38.2961L6.04612 38.3147L17.9955 45.2107C17.9968 45.2121 17.9968 45.2134 17.9981 45.2134L31.2088 52.8547L31.2781 52.9107L31.3141 52.9401L31.3501 53.0054L31.3528 53.0134L31.3635 53.0947V63.2214V76.4014C31.3528 76.4414 31.3634 76.4827 31.3594 76.5227C31.3568 76.5414 31.3501 76.5574 31.3488 76.5734L31.3088 76.6561L31.2741 76.6841L31.2128 76.7347L28.0354 78.5641ZM100.265 90.5427L100.187 90.5694C100.167 90.5761 100.155 90.5921 100.137 90.5987H100.089H100.069L100.029 90.5827C100.021 90.5801 100.013 90.5814 100.005 90.5787C99.9968 90.5761 99.9928 90.5707 99.9861 90.5681L99.9141 90.5427L96.7888 88.7427L96.7701 88.7254C96.7594 88.7134 96.7434 88.7094 96.7341 88.6987C96.7221 88.6881 96.7168 88.6747 96.7061 88.6641L96.6301 88.6001L96.6274 88.5881C96.6261 88.5841 96.6234 88.5814 96.6234 88.5774C96.6221 88.5721 96.6248 88.5681 96.6234 88.5641L96.5954 88.4227C96.5941 88.4147 96.5874 88.4081 96.5861 88.4014V75.2001V65.1374L96.6128 65.0307C96.6154 65.0187 96.6114 65.0081 96.6141 64.9974C96.6168 64.9841 96.6248 64.9734 96.6274 64.9614L96.6301 64.9507L96.7061 64.8854C96.7181 64.8747 96.7234 64.8601 96.7341 64.8507C96.7448 64.8414 96.7608 64.8374 96.7701 64.8254L96.7888 64.8067L110.119 57.1374L110.121 57.1361H110.122L121.954 50.2827C121.969 50.2787 121.982 50.2814 121.997 50.2747C122.001 50.2734 122.003 50.2707 122.007 50.2694C122.019 50.2667 122.033 50.2667 122.045 50.2641C122.063 50.2587 122.075 50.2454 122.093 50.2401C122.11 50.2454 122.122 50.2587 122.141 50.2641L122.217 50.2854L122.258 50.2974L125.483 52.1841H125.485L125.526 52.2107L125.567 52.2921L125.578 52.3947V75.7587L125.569 75.8467L125.53 75.9161L125.489 75.9507L125.423 76.0027L100.265 90.5427ZM127.577 52.2294L127.549 51.9761C127.545 51.9387 127.523 51.9081 127.517 51.8734C127.51 51.8401 127.515 51.8041 127.503 51.7707L127.447 51.6001C127.439 51.5761 127.421 51.5627 127.413 51.5374C127.402 51.5134 127.405 51.4894 127.393 51.4667L127.281 51.2427C127.274 51.2294 127.261 51.2201 127.253 51.2081C127.246 51.1947 127.246 51.1801 127.238 51.1707L127.153 51.0294C127.125 50.9841 127.081 50.9561 127.047 50.9147C127.011 50.8721 126.987 50.8214 126.942 50.7841L126.774 50.6427C126.753 50.6254 126.727 50.6214 126.705 50.6054C126.682 50.5907 126.671 50.5681 126.647 50.5534L126.507 50.4694C126.506 50.4681 126.503 50.4681 126.502 50.4681C126.499 50.4667 126.499 50.4641 126.497 50.4627L123.178 48.5214C123.146 48.5027 123.109 48.5014 123.075 48.4867C123.042 48.4707 123.017 48.4467 122.981 48.4334L122.811 48.3787C122.795 48.3734 122.779 48.3774 122.763 48.3734L122.642 48.3241C122.641 48.3241 122.639 48.3227 122.639 48.3227L122.629 48.3187C122.621 48.3161 122.613 48.3174 122.605 48.3147V41.3147C122.605 41.2947 122.594 41.2801 122.593 41.2587C122.591 41.2387 122.601 41.2241 122.598 41.2027L122.57 40.9507C122.566 40.9134 122.545 40.8841 122.538 40.8494C122.53 40.8121 122.537 40.7747 122.523 40.7387L122.466 40.5707C122.458 40.5481 122.439 40.5334 122.431 40.5121C122.423 40.4907 122.425 40.4707 122.415 40.4521L122.303 40.2254C122.298 40.2134 122.287 40.2067 122.282 40.1961C122.274 40.1827 122.275 40.1694 122.267 40.1561L122.185 40.0161C122.154 39.9641 122.106 39.9321 122.069 39.8881C122.033 39.8454 122.007 39.7947 121.963 39.7561L121.794 39.6174C121.773 39.5987 121.746 39.5934 121.725 39.5787C121.701 39.5641 121.689 39.5401 121.665 39.5254L121.525 39.4441C121.522 39.4414 121.519 39.4414 121.517 39.4401C121.515 39.4387 121.515 39.4387 121.514 39.4374L102.418 28.4107C102.407 28.4041 102.395 28.4054 102.386 28.4014C102.377 28.3947 102.37 28.3841 102.359 28.3787L102.19 28.2961C102.119 28.2614 102.046 28.2561 101.973 28.2374C101.942 28.2281 101.917 28.2041 101.885 28.1961C101.877 28.1934 101.869 28.1961 101.861 28.1947C101.851 28.1934 101.845 28.1854 101.835 28.1841L101.695 28.1561C101.687 28.1547 101.679 28.1574 101.673 28.1561C101.666 28.1547 101.661 28.1507 101.654 28.1494L101.485 28.1227C101.482 28.1227 101.479 28.1241 101.477 28.1227L101.418 28.0254C101.39 27.9801 101.346 27.9521 101.313 27.9121C101.277 27.8681 101.253 27.8174 101.207 27.7801L101.039 27.6387C101.018 27.6227 100.993 27.6174 100.97 27.6014C100.947 27.5867 100.937 27.5654 100.913 27.5494L100.773 27.4654C100.77 27.4641 100.766 27.4641 100.763 27.4627C100.761 27.4601 100.759 27.4574 100.757 27.4574L81.6594 16.4267C81.6514 16.4214 81.6408 16.4227 81.6328 16.4174C81.6234 16.4134 81.6181 16.4041 81.6088 16.4001L81.4408 16.3147C81.3661 16.2787 81.2888 16.2694 81.2101 16.2507C81.1794 16.2401 81.1541 16.2174 81.1221 16.2094C81.1128 16.2067 81.1034 16.2107 81.0941 16.2081C81.0848 16.2054 81.0781 16.1987 81.0688 16.1974L80.9288 16.1707C80.9234 16.1694 80.9168 16.1721 80.9114 16.1707C80.9061 16.1694 80.9021 16.1667 80.8968 16.1641L80.7754 16.1441C80.7741 16.1441 80.7728 16.1441 80.7714 16.1427L80.7288 16.1361H80.7208L80.6701 16.0507C80.6408 16.0014 80.5928 15.9681 80.5568 15.9254C80.5194 15.8814 80.4941 15.8294 80.4488 15.7907L80.2794 15.6507C80.2581 15.6334 80.2328 15.6294 80.2114 15.6161C80.1914 15.6001 80.1821 15.5814 80.1608 15.5681L80.0208 15.4827C80.0181 15.4801 80.0141 15.4814 80.0101 15.4787C80.0061 15.4761 80.0034 15.4721 79.9994 15.4694L55.5315 1.32407C55.5221 1.31874 55.5114 1.31873 55.5021 1.3134C55.4928 1.3094 55.4874 1.30007 55.4781 1.29473L55.1968 1.15473C55.1581 1.13473 55.1141 1.13607 55.0754 1.12407C55.0314 1.10674 54.9954 1.07874 54.9488 1.0694L54.8088 1.0414H54.8048L54.5234 0.985398C54.4914 0.978731 54.4608 0.989397 54.4288 0.98673C54.3941 0.98273 54.3634 0.965399 54.3288 0.965399H54.1048H54.1035C54.0488 0.965399 53.9941 0.990733 53.9381 1.00007C53.8608 1.01207 53.7821 1.01607 53.7128 1.04541H53.7114L53.6074 1.0894L53.5714 1.07074C53.5608 1.06674 53.5488 1.06806 53.5394 1.06273C53.4808 1.0334 53.4168 1.02674 53.3528 1.01207C53.2848 0.993403 53.2194 0.972062 53.1528 0.970729C53.1408 0.970729 53.1315 0.964066 53.1221 0.964066H52.8954C52.8608 0.964066 52.8314 0.981398 52.7981 0.984065C52.7661 0.988065 52.7341 0.977398 52.7008 0.984065L52.4195 1.04006H52.4154L52.2754 1.06807C52.2301 1.0774 52.1928 1.1054 52.1501 1.12274C52.1101 1.13474 52.0675 1.13473 52.0275 1.1534L51.7461 1.2934C51.7368 1.29873 51.7314 1.30807 51.7208 1.31207C51.7114 1.3174 51.7008 1.3174 51.6928 1.32273L27.1954 15.4707C27.1914 15.4734 27.1888 15.4774 27.1848 15.4801C27.1808 15.4827 27.1781 15.4814 27.1741 15.4841L27.0341 15.5694C27.0008 15.5907 26.9808 15.6241 26.9501 15.6481C26.9181 15.6761 26.8781 15.6854 26.8488 15.7161L26.7088 15.8561C26.6955 15.8694 26.6915 15.8867 26.6795 15.9014C26.6661 15.9147 26.6501 15.9214 26.6381 15.9347L26.5248 16.0747C26.5075 16.0961 26.5034 16.1227 26.4901 16.1427C26.4714 16.1454 26.4568 16.1387 26.4381 16.1427L26.3955 16.1507L26.2981 16.1721L26.1581 16.1987C26.1568 16.1987 26.1554 16.2001 26.1554 16.2001H26.1501L26.0101 16.2294C25.9648 16.2374 25.9288 16.2654 25.8861 16.2814C25.8461 16.2947 25.8035 16.2947 25.7621 16.3134L25.5928 16.3987C25.5834 16.4027 25.5781 16.4121 25.5675 16.4161C25.5581 16.4214 25.5475 16.4214 25.5395 16.4267L6.43812 27.4534C6.41945 27.4627 6.41012 27.4801 6.39279 27.4921C6.37412 27.5054 6.35279 27.5081 6.33545 27.5201L6.22345 27.6041C6.21678 27.6107 6.21412 27.6174 6.20745 27.6227C6.20079 27.6267 6.19278 27.6281 6.18612 27.6334L6.01812 27.7734C5.99012 27.7974 5.97678 27.8307 5.95145 27.8561C5.92612 27.8814 5.89679 27.8934 5.87412 27.9201L5.76212 28.0614C5.73945 28.0881 5.73412 28.1241 5.71545 28.1521C5.69545 28.1814 5.66612 28.2027 5.64878 28.2361L5.53678 28.4614C5.51278 28.5107 5.51145 28.5627 5.49679 28.6121C5.48212 28.6547 5.45545 28.6934 5.44745 28.7401L5.42478 28.8761L5.37145 29.1081C5.36212 29.1454 5.37278 29.1827 5.36878 29.2201C5.36478 29.2574 5.34745 29.2921 5.34745 29.3307V36.3387L5.30212 36.3561L5.25012 36.3667C5.22878 36.3707 5.21412 36.3854 5.19412 36.3921C5.17412 36.3987 5.15545 36.3934 5.13545 36.4001L4.96612 36.4547C4.93279 36.4641 4.90878 36.4894 4.87812 36.5054C4.84478 36.5187 4.80745 36.5201 4.77545 36.5387L1.45545 38.4801L1.45412 38.4814C1.45278 38.4814 1.45145 38.4814 1.45012 38.4827L1.31012 38.5667C1.27279 38.5894 1.24879 38.6254 1.21545 38.6507C1.18345 38.6787 1.14345 38.6881 1.11412 38.7187L0.974121 38.8587C0.960788 38.8721 0.956783 38.8907 0.944783 38.9041C0.93145 38.9174 0.915453 38.9241 0.903453 38.9374L0.78745 39.0814C0.76345 39.1107 0.758118 39.1454 0.739451 39.1761C0.718118 39.2067 0.687454 39.2294 0.67012 39.2627L0.558121 39.4881C0.534121 39.5347 0.534117 39.5854 0.51945 39.6347C0.504783 39.6801 0.476786 39.7174 0.468786 39.7667L0.444784 39.9027L0.392787 40.1467C0.384787 40.1827 0.395454 40.2187 0.391454 40.2547C0.387454 40.2907 0.370117 40.3214 0.370117 40.3574V63.8414C0.370117 63.8761 0.387454 63.9081 0.391454 63.9441C0.395454 63.9787 0.384787 64.0147 0.392787 64.0507L0.444784 64.2947L0.468786 64.4307C0.487452 64.5347 0.527451 64.6294 0.572784 64.7187C0.579451 64.7334 0.579454 64.7467 0.586121 64.7574L0.590118 64.7641C0.590118 64.7654 0.59145 64.7667 0.592784 64.7694L0.69812 64.9561C0.708787 64.9747 0.730116 64.9814 0.742116 65.0001C0.760783 65.0267 0.766117 65.0614 0.78745 65.0867L0.900787 65.2281C0.911454 65.2401 0.928786 65.2454 0.939453 65.2574C0.952786 65.2721 0.958117 65.2907 0.971451 65.3054L1.11145 65.4467C1.12612 65.4601 1.14345 65.4641 1.15945 65.4761C1.17412 65.4907 1.18078 65.5094 1.19545 65.5201L1.33545 65.6321C1.35812 65.6507 1.38479 65.6574 1.41012 65.6734C1.42879 65.6854 1.43812 65.7027 1.45812 65.7147L26.7701 80.3414C26.7928 80.3534 26.8181 80.3481 26.8421 80.3601C26.8794 80.3787 26.9075 80.4067 26.9475 80.4214L27.0861 80.4681L27.2101 80.5174C27.2408 80.5307 27.2754 80.5267 27.3061 80.5361C27.3354 80.5454 27.3581 80.5654 27.3888 80.5694L27.5288 80.5974C27.5928 80.6121 27.6568 80.6174 27.7195 80.6174H27.7208H27.8608H28.0301H28.0315C28.0941 80.6174 28.1581 80.6121 28.2221 80.5974L28.3621 80.5694C28.4181 80.5601 28.4621 80.5267 28.5141 80.5081C28.5475 80.4934 28.5848 80.5001 28.6168 80.4814L28.6715 80.4547L28.7715 80.4201C28.8101 80.4067 28.8368 80.3787 28.8728 80.3614C28.8981 80.3494 28.9248 80.3547 28.9501 80.3414L32.2688 78.4281C32.2901 78.4161 32.2995 78.3987 32.3195 78.3841C32.3435 78.3681 32.3701 78.3614 32.3928 78.3454L32.5328 78.2334C32.5355 78.2307 32.5368 78.2267 32.5408 78.2241C32.5448 78.2214 32.5488 78.2187 32.5528 78.2161L32.7208 78.0761C32.7848 78.0227 32.8234 77.9534 32.8701 77.8894C32.8888 77.8641 32.9155 77.8547 32.9315 77.8294L32.9901 77.7347C32.9954 77.7334 33.0008 77.7347 33.0061 77.7334L33.1754 77.7041C33.1781 77.7041 33.1795 77.7014 33.1821 77.7014C33.1915 77.7001 33.1995 77.7001 33.2088 77.6987L33.3488 77.6721C33.3555 77.6707 33.3608 77.6654 33.3688 77.6627C33.3781 77.6601 33.3888 77.6614 33.3968 77.6587L33.5088 77.6307C33.5475 77.6214 33.5755 77.5947 33.6115 77.5801C33.6408 77.5694 33.6741 77.5734 33.7021 77.5601L33.8715 77.4761C33.8835 77.4694 33.8914 77.4587 33.9021 77.4534C33.9114 77.4481 33.9208 77.4507 33.9301 77.4454L53.0261 66.4174L53.0301 66.4134C53.0328 66.4121 53.0341 66.4134 53.0368 66.4121L53.1768 66.3294C53.2141 66.3054 53.2381 66.2707 53.2715 66.2441C53.3035 66.2174 53.3434 66.2067 53.3728 66.1774L53.5128 66.0361C53.5288 66.0201 53.5341 66.0014 53.5475 65.9841C53.5595 65.9694 53.5755 65.9654 53.5875 65.9534L53.5928 65.9467L53.6021 65.9574C53.6221 65.9814 53.6488 65.9894 53.6701 66.0121C53.6968 66.0387 53.7088 66.0721 53.7394 66.0961L53.9074 66.2361C53.9168 66.2441 53.9275 66.2454 53.9355 66.2534C53.9448 66.2601 53.9488 66.2694 53.9568 66.2774L54.0701 66.3587C54.0888 66.3721 54.1088 66.3774 54.1288 66.3894C54.1421 66.3974 54.1501 66.4107 54.1621 66.4174L73.2581 77.4454C73.2674 77.4507 73.2768 77.4481 73.2861 77.4534C73.2981 77.4587 73.3061 77.4694 73.3168 77.4761L73.4861 77.5601C73.5181 77.5747 73.5541 77.5707 73.5874 77.5827C73.6354 77.6014 73.6754 77.6321 73.7274 77.6427L73.8674 77.6721L74.0074 77.6987L74.1474 77.7281C74.1688 77.7321 74.1874 77.7307 74.2088 77.7347H74.2101C74.2221 77.7521 74.2248 77.7734 74.2381 77.7907L74.3501 77.9307C74.3701 77.9561 74.3981 77.9627 74.4194 77.9854C74.4474 78.0134 74.4621 78.0521 74.4941 78.0774L74.6328 78.1921L74.7088 78.2681C74.7408 78.3001 74.7821 78.3134 74.8168 78.3414C74.8514 78.3681 74.8768 78.4054 74.9168 78.4281L94.0128 89.4254C94.0221 89.4307 94.0328 89.4281 94.0408 89.4334C94.0514 89.4387 94.0581 89.4521 94.0688 89.4574L94.2381 89.5387C94.2701 89.5561 94.3061 89.5507 94.3395 89.5641C94.3875 89.5814 94.4274 89.6134 94.4794 89.6241L94.6195 89.6507L94.7594 89.6801H94.7661C94.7661 89.6801 94.7661 89.6801 94.7675 89.6801L94.9074 89.7081C94.9261 89.7121 94.9421 89.7107 94.9608 89.7134C94.9634 89.7174 94.9648 89.7227 94.9688 89.7267C94.9795 89.7414 94.9821 89.7601 94.9954 89.7774L95.1088 89.9161C95.1288 89.9401 95.1554 89.9494 95.1768 89.9694C95.2034 89.9987 95.2168 90.0307 95.2461 90.0561L95.3821 90.1694L95.4634 90.2494C95.4941 90.2827 95.5368 90.2947 95.5714 90.3214C95.6061 90.3494 95.6314 90.3881 95.6714 90.4094L98.9901 92.3214C99.0154 92.3374 99.0421 92.3321 99.0674 92.3441C99.1034 92.3601 99.1301 92.3894 99.1688 92.4014L99.3008 92.4467L99.4381 92.5001C99.4661 92.5107 99.4968 92.5081 99.5248 92.5161C99.5528 92.5241 99.5728 92.5427 99.6008 92.5467L99.7408 92.5747C99.8061 92.5881 99.8741 92.5947 99.9381 92.5947H99.9394H100.079H100.247H100.249C100.314 92.5947 100.382 92.5881 100.446 92.5747L100.586 92.5467C100.634 92.5361 100.671 92.5094 100.718 92.4907C100.751 92.4787 100.789 92.4827 100.822 92.4667L100.883 92.4374L100.991 92.4014C101.031 92.3881 101.059 92.3587 101.097 92.3414C101.121 92.3281 101.146 92.3347 101.169 92.3201L126.481 77.6947C126.501 77.6827 126.51 77.6667 126.529 77.6521C126.554 77.6361 126.581 77.6294 126.603 77.6134L126.743 77.5014C126.746 77.4987 126.747 77.4934 126.751 77.4907C126.755 77.4881 126.759 77.4867 126.763 77.4841L126.931 77.3454C126.995 77.2907 127.034 77.2214 127.081 77.1561C127.099 77.1321 127.126 77.1241 127.142 77.0974L127.227 76.9574C127.231 76.9534 127.231 76.9454 127.234 76.9387C127.237 76.9347 127.242 76.9321 127.245 76.9281L127.357 76.7321C127.369 76.7094 127.367 76.6881 127.378 76.6681C127.397 76.6281 127.422 76.5961 127.437 76.5561L127.493 76.3881C127.503 76.3547 127.498 76.3201 127.505 76.2881C127.514 76.2494 127.534 76.2161 127.538 76.1787L127.566 75.9241C127.569 75.9041 127.559 75.8894 127.561 75.8681C127.562 75.8507 127.571 75.8374 127.571 75.8174V52.3374C127.571 52.3174 127.562 52.3027 127.561 52.2854C127.57 52.2641 127.579 52.2481 127.577 52.2294" fill="#37A0D9"/>
</svg>
