<svg width="116" height="112" viewBox="0 0 116 112" fill="none" xmlns="http://www.w3.org/2000/svg">
<path d="M108.662 69.4827V56.2147L110.222 55.32C110.246 55.3053 110.259 55.2853 110.281 55.2693C110.311 55.248 110.347 55.2387 110.377 55.216L110.566 55.064C110.571 55.06 110.574 55.056 110.577 55.052C110.581 55.048 110.585 55.048 110.589 55.044L110.829 54.8413C110.871 54.8067 110.893 54.7573 110.927 54.7173C110.955 54.688 110.994 54.676 111.018 54.6413L111.169 54.44C111.186 54.4173 111.189 54.3947 111.201 54.372C111.226 54.3347 111.258 54.3 111.279 54.2573L111.445 53.9293C111.463 53.8947 111.462 53.8547 111.474 53.82C111.495 53.7627 111.531 53.712 111.545 53.6493L111.594 53.4213C111.597 53.4107 111.594 53.4013 111.594 53.392C111.597 53.38 111.605 53.372 111.606 53.36L111.67 52.9813C111.677 52.948 111.663 52.9147 111.666 52.8827C111.67 52.8493 111.687 52.82 111.687 52.7853V47.2173C111.687 47.1787 111.669 47.148 111.665 47.112C111.662 47.076 111.675 47.0413 111.667 47.0053L111.605 46.6507C111.605 46.6467 111.601 46.6427 111.599 46.6387C111.599 46.6347 111.601 46.6307 111.599 46.6253L111.55 46.3733C111.537 46.3107 111.501 46.2627 111.479 46.204C111.458 46.1467 111.455 46.0867 111.426 46.032L111.261 45.7307C111.246 45.7027 111.221 45.688 111.205 45.6627C111.189 45.6387 111.186 45.612 111.17 45.588L111.018 45.384C110.995 45.3547 110.965 45.3427 110.942 45.3147C110.917 45.288 110.907 45.252 110.879 45.228L110.638 45C110.613 44.9747 110.579 44.968 110.551 44.9467C110.525 44.9227 110.51 44.8947 110.481 44.8747L110.291 44.748C110.279 44.74 110.266 44.74 110.255 44.7333C110.243 44.7253 110.238 44.7133 110.226 44.708L80.9006 27.776C80.8886 27.7693 80.8766 27.7693 80.8659 27.764C80.8552 27.7573 80.8499 27.7467 80.8379 27.74L80.5846 27.6147C80.5432 27.5933 80.4992 27.5947 80.4552 27.58C80.4112 27.564 80.3766 27.5333 80.3299 27.52L80.1152 27.4693H80.1126L79.9139 27.4213C79.8992 27.4173 79.8832 27.4227 79.8672 27.4187L77.5819 11.184L113.178 31.7333L113.273 31.8093L113.382 31.9L113.407 31.9387L113.459 32.036L113.475 32.112L113.515 32.3373V66.2787L113.474 66.528L113.462 66.5773L113.41 66.6813L113.407 66.684L113.273 66.7987L113.178 66.8747L108.662 69.4827ZM78.4752 86.916V73.648L80.0459 72.7307C80.0552 72.7253 80.0592 72.716 80.0699 72.7093C80.0806 72.7027 80.0939 72.7 80.1059 72.6907L80.2966 72.5667C80.3232 72.5467 80.3379 72.5173 80.3646 72.4973C80.3912 72.4733 80.4286 72.4653 80.4526 72.44L80.6939 72.2133C80.7246 72.184 80.7366 72.1467 80.7632 72.1173C80.7832 72.092 80.8126 72.0853 80.8326 72.06L80.9832 71.856C80.9979 71.8387 81.0006 71.8173 81.0112 71.7987C81.0272 71.7733 81.0499 71.752 81.0646 71.724C81.0872 71.724 81.1046 71.724 81.1272 71.7213L81.3539 71.6947C81.3699 71.6933 81.3819 71.6827 81.3979 71.68C81.4379 71.676 81.4739 71.6773 81.5152 71.6667L81.6659 71.6293L81.7779 71.6133C81.8619 71.6013 81.9299 71.5587 82.0072 71.5307C82.0512 71.5147 82.0992 71.52 82.1406 71.5L82.3939 71.3733C82.4032 71.3693 82.4086 71.36 82.4166 71.356C82.4299 71.3493 82.4432 71.3467 82.4579 71.34L106.262 57.596V70.46L106.259 70.472C106.255 70.4907 106.263 70.5067 106.259 70.524C106.257 70.5427 106.246 70.5547 106.245 70.572L106.227 70.72L106.218 70.752L106.159 70.86L106.146 70.8787L106.03 70.976L105.935 71.052L78.4752 86.916ZM48.2912 104.333V88.1573L49.3606 88.78C49.3952 88.8 49.4326 88.8067 49.4672 88.8227C49.4859 88.8333 49.4966 88.848 49.5166 88.8547L49.7699 88.9573C49.7912 88.9653 49.8126 88.9627 49.8339 88.9707C49.8552 88.9773 49.8672 88.9933 49.8886 88.9987L50.0659 89.0493C50.0726 89.0507 50.0792 89.0507 50.0886 89.052C50.0926 89.052 50.0939 89.056 50.0992 89.0573L50.3019 89.1093C50.4019 89.1333 50.4992 89.1453 50.5979 89.1453H50.5992H50.8126H51.0419C51.1392 89.1453 51.2379 89.1333 51.3379 89.1093L51.5406 89.0573C51.5446 89.056 51.5472 89.052 51.5512 89.052C51.5579 89.0507 51.5659 89.0507 51.5739 89.0493L51.7499 88.9987C51.7726 88.992 51.7846 88.976 51.8059 88.9707C51.8272 88.9627 51.8486 88.9653 51.8699 88.9573L52.1232 88.8547C52.1419 88.848 52.1526 88.8333 52.1686 88.8253C52.2046 88.8093 52.2419 88.8013 52.2739 88.7827L76.0779 75.04V87.8973L76.0686 87.9533C76.0672 87.9613 76.0699 87.968 76.0699 87.9773C76.0672 87.984 76.0619 87.9907 76.0619 87.9987L76.0446 88.1307L76.0366 88.1667L75.9672 88.2907L75.9326 88.344L75.8512 88.4173L75.7512 88.4973L48.2912 104.333ZM38.4152 20.3293L38.5246 20.284L38.6419 20.252C38.6432 20.252 38.6432 20.2507 38.6446 20.2507L38.7366 20.228L38.7406 20.2267L38.7539 20.2293L38.8459 20.252H38.8472L38.9606 20.284L39.0192 20.308C39.0192 20.3093 39.0219 20.308 39.0232 20.3093C39.0246 20.3093 39.0259 20.3107 39.0272 20.3107L39.0726 20.3293L43.7886 23.0493L43.9099 23.1454L43.9112 23.1467L44.0659 23.2733L44.0926 23.3093L44.2006 23.4867L44.2619 23.6893L44.3032 23.856L47.3392 45.4533L26.9032 57.2453L10.4592 47.7533V36.8693L10.5006 36.6427L10.5152 36.568L10.5672 36.4707L10.6019 36.42L10.6859 36.3453L10.7899 36.2613L38.4152 20.3293ZM51.1446 86.66L51.0286 86.7067L50.9126 86.7387L50.8912 86.744H50.8126H50.7446L50.7232 86.7387L50.6059 86.7067L50.4899 86.6587L48.2912 85.3813V71.264C48.2912 71.2267 48.2726 71.1947 48.2699 71.1587C48.2659 71.1227 48.2779 71.088 48.2726 71.052L48.2086 70.6973C48.2086 70.692 48.2046 70.6893 48.2032 70.684C48.2019 70.68 48.2046 70.676 48.2032 70.6707L48.1526 70.4173C48.1406 70.356 48.1032 70.308 48.0832 70.252C48.0632 70.1947 48.0606 70.1347 48.0312 70.0813L47.8672 69.78C47.8526 69.7533 47.8286 69.7373 47.8126 69.7133C47.7952 69.688 47.7926 69.6573 47.7739 69.632L47.6219 69.428C47.6032 69.4027 47.5752 69.3933 47.5552 69.3693C47.5366 69.3467 47.5286 69.32 47.5072 69.2973L47.2806 69.0707C47.2472 69.0387 47.2046 69.0253 47.1686 68.9973C47.1326 68.968 47.1086 68.9253 47.0686 68.9L46.8646 68.7747C46.8592 68.7707 46.8512 68.7707 46.8446 68.7667C46.8392 68.7627 46.8352 68.756 46.8286 68.7533L29.3032 58.628L48.9219 47.3067L49.0912 47.2373C49.0952 47.236 49.0979 47.2333 49.1006 47.2333C49.1112 47.228 49.1219 47.2173 49.1326 47.212C49.1606 47.2 49.1886 47.1933 49.2152 47.18L49.2232 47.1787H49.2259L49.2939 47.1973L49.4232 47.2427L49.6139 47.3227L78.7619 64.1533L78.8819 64.248L78.9899 64.3413L78.9966 64.348L79.0459 64.448L79.0592 64.5067L79.0992 64.7507V70.1013L79.0979 70.1147C79.0966 70.1213 79.0979 70.1267 79.0979 70.132C79.0966 70.14 79.0926 70.1453 79.0899 70.1507L79.0579 70.3533L79.0432 70.4187L79.0112 70.4813L78.9712 70.5347L78.8779 70.6213L78.8046 70.6707L76.6766 71.916H76.6752L51.1446 86.66ZM108.995 46.7707L109.063 46.816L109.159 46.904L109.191 46.9507L109.23 47.0213L109.246 47.096L109.286 47.3227V52.6867L109.245 52.932L109.231 52.992L109.185 53.084L109.175 53.0973L109.065 53.1893C109.065 53.1907 109.063 53.1907 109.062 53.1907L108.941 53.288L106.863 54.4787C106.863 54.48 106.862 54.4787 106.861 54.48L81.5006 69.1213V64.6573C81.5006 64.6213 81.4846 64.592 81.4806 64.56C81.4779 64.5267 81.4899 64.4947 81.4846 64.46L81.4206 64.0813C81.4179 64.0693 81.4112 64.0627 81.4086 64.0533C81.4059 64.04 81.4112 64.0293 81.4086 64.02L81.3579 63.792C81.3472 63.7427 81.3152 63.7053 81.2979 63.6587C81.2806 63.612 81.2819 63.5627 81.2592 63.5147L81.0939 63.1853C81.0779 63.152 81.0472 63.1307 81.0259 63.1C81.0059 63.068 81.0019 63.0307 80.9792 63.0013L80.8286 62.8C80.7992 62.7613 80.7566 62.7413 80.7259 62.708C80.6952 62.6773 80.6792 62.6347 80.6446 62.6067L80.4046 62.4013C80.3992 62.4 80.3926 62.3987 80.3886 62.3947C80.3846 62.3893 80.3819 62.384 80.3766 62.3787L80.1872 62.228C80.1619 62.208 80.1326 62.2027 80.1072 62.1867C80.0819 62.1693 80.0672 62.1427 80.0392 62.1267L51.6579 45.7333L79.1086 29.8693L79.2499 29.8133L79.3179 29.788L79.3872 29.7707L79.4112 29.7693H79.4179L79.5499 29.8H79.5512C79.5512 29.8 79.5512 29.8013 79.5526 29.8013L79.6339 29.8227L79.7312 29.8707L108.995 46.7707ZM68.6059 2.88668L68.7112 2.84401L68.8126 2.81601L68.8566 2.80401H68.9232H69.0019L69.0606 2.81867L69.1459 2.84401L69.2566 2.88801L74.0219 5.66268L74.1179 5.72667L74.2552 5.84534L74.3059 5.91335L74.3886 6.04135L74.4406 6.25201V6.25334L74.4899 6.44402L74.9112 9.44267V9.44402L77.5259 28.0147L50.2112 43.7973C50.1832 43.8147 50.1672 43.8413 50.1406 43.8587C50.1166 43.8773 50.0846 43.8813 50.0606 43.9L49.8712 44.0533C49.8432 44.076 49.8299 44.1093 49.8032 44.1333C49.7792 44.1573 49.7486 44.1667 49.7259 44.192L49.6072 44.3253L46.6726 23.4573C46.6712 23.4347 46.6566 23.4187 46.6512 23.3987C46.6472 23.376 46.6539 23.356 46.6499 23.3347L46.5859 23.08C46.5832 23.0707 46.5766 23.0653 46.5739 23.056C46.5712 23.0453 46.5739 23.0347 46.5712 23.0267L46.4579 22.648C46.4419 22.5973 46.4072 22.5627 46.3859 22.5147C46.3646 22.468 46.3606 22.416 46.3339 22.3707L46.1192 22.016C46.1072 21.9987 46.0912 21.992 46.0806 21.9747C46.0699 21.9573 46.0686 21.94 46.0566 21.924L45.9059 21.72C45.8752 21.68 45.8299 21.6587 45.7979 21.6227C45.7619 21.5867 45.7419 21.54 45.7006 21.5067L45.4232 21.28C45.4219 21.2787 45.4206 21.2787 45.4192 21.2773C45.4179 21.276 45.4166 21.2747 45.4152 21.2733L45.2259 21.1213C45.2006 21.1 45.1699 21.0947 45.1432 21.076C45.1179 21.06 45.1032 21.032 45.0752 21.016L41.1526 18.7547L68.6059 2.88668ZM40.8379 108.631L40.7659 108.668C40.7606 108.669 40.7566 108.672 40.7526 108.673C40.7339 108.676 40.7139 108.671 40.6952 108.675L40.5619 108.705L40.5539 108.707L40.5432 108.705L40.4139 108.675C40.3939 108.671 40.3752 108.676 40.3552 108.673C40.3512 108.672 40.3472 108.669 40.3406 108.668L40.2686 108.631L3.49924 87.4027L3.43124 87.3573L3.35658 87.2867L3.32591 87.2413L3.26323 87.1253L3.25124 87.0787L3.22057 86.872V52.8707L3.25124 52.6627L3.26323 52.616L3.32591 52.5L3.33791 52.4827L3.42857 52.4067C3.4299 52.4067 3.42991 52.4067 3.43124 52.4053L3.5539 52.308L8.27257 49.5907L8.33791 49.556C8.35658 49.552 8.37257 49.5533 8.3899 49.5493L8.5379 49.5147L8.55657 49.5133L8.57657 49.5147L8.70057 49.5453C8.7259 49.552 8.7499 49.5507 8.7739 49.5547L8.85124 49.592L26.3046 59.6707L45.6046 70.8187L45.6832 70.8667L45.7486 70.9333L45.8006 71.0053L45.8339 71.0667L45.8499 71.1413L45.8912 71.3693V86.0707V105.316L45.8886 105.328C45.8872 105.336 45.8899 105.341 45.8886 105.348C45.8872 105.355 45.8846 105.36 45.8832 105.367L45.8486 105.565L45.8352 105.632L45.8019 105.696L45.7726 105.735L45.6766 105.82L45.5672 105.901L40.8379 108.631ZM115.895 32.02L115.831 31.668C115.83 31.6627 115.827 31.66 115.827 31.6547C115.826 31.6507 115.827 31.6453 115.827 31.64L115.775 31.388C115.763 31.328 115.727 31.2813 115.707 31.224C115.686 31.168 115.683 31.108 115.654 31.0533L115.489 30.748C115.479 30.7307 115.463 30.7213 115.453 30.704C115.443 30.6867 115.442 30.6693 115.431 30.652L115.279 30.4253C115.247 30.3773 115.198 30.3493 115.161 30.3053C115.122 30.2627 115.099 30.2133 115.054 30.1747L114.815 29.9707C114.81 29.9667 114.803 29.9667 114.799 29.9613C114.794 29.9587 114.793 29.9533 114.787 29.9507L114.598 29.7987C114.573 29.7787 114.543 29.7747 114.519 29.7573C114.494 29.7387 114.478 29.7133 114.45 29.6973L77.6219 8.43734C77.5992 8.42401 77.5752 8.42401 77.5512 8.41201C77.5259 8.40135 77.5139 8.38268 77.4899 8.37202L77.2472 8.26934C77.2232 8.26001 77.2006 8.26401 77.1766 8.25468C77.1726 8.25201 77.1686 8.24934 77.1646 8.24934L76.8579 6.04535C76.8552 6.02135 76.8406 6.00668 76.8366 5.98402C76.8312 5.96135 76.8392 5.94268 76.8326 5.92001L76.7699 5.66667V5.66535L76.6672 5.26134C76.6499 5.19334 76.6086 5.14268 76.5832 5.08268C76.5566 5.02135 76.5486 4.95734 76.5099 4.89868L76.2939 4.56934C76.2859 4.55734 76.2726 4.55067 76.2646 4.54C76.2552 4.52667 76.2539 4.51335 76.2446 4.50135L76.0926 4.30001C76.0672 4.26668 76.0286 4.24801 75.9992 4.21734C75.9712 4.18668 75.9566 4.14668 75.9246 4.11868L75.6339 3.86534C75.6126 3.84668 75.5872 3.84268 75.5659 3.82668C75.5446 3.81068 75.5339 3.78801 75.5112 3.77201L75.3219 3.64667C75.3099 3.63867 75.2979 3.63868 75.2872 3.63068C75.2766 3.62402 75.2712 3.61334 75.2592 3.60668L70.3859 0.770677C70.3606 0.754677 70.3299 0.754673 70.3019 0.74134C70.2739 0.72934 70.2566 0.705346 70.2286 0.693346L69.9752 0.59335C69.9552 0.584016 69.9352 0.588013 69.9139 0.581346C69.8926 0.573346 69.8806 0.558685 69.8579 0.553351L69.6806 0.500007C69.6739 0.498673 69.6672 0.500007 69.6619 0.500007C69.6552 0.49734 69.6499 0.490679 69.6419 0.489346L69.4392 0.438676C69.3899 0.426676 69.3419 0.438679 69.2939 0.433346C69.2446 0.426679 69.2006 0.404019 69.1499 0.404019H68.9219H68.7072C68.6566 0.404019 68.6112 0.428013 68.5619 0.433346C68.5139 0.438679 68.4672 0.426676 68.4166 0.438676L68.2166 0.489346C68.2086 0.490679 68.2032 0.49734 68.1966 0.500007C68.1899 0.500007 68.1819 0.498673 68.1752 0.500007L67.9979 0.550676C67.9766 0.557343 67.9632 0.573347 67.9432 0.580014C67.9219 0.585347 67.9019 0.582684 67.8819 0.590684L67.6286 0.692013C67.6032 0.70268 67.5846 0.725352 67.5579 0.737352C67.5299 0.752019 67.4992 0.752013 67.4726 0.765347L39.7046 16.8147C39.6832 16.828 39.6712 16.848 39.6512 16.8627C39.6312 16.876 39.6059 16.8787 39.5872 16.8933L39.3859 17.044C39.3699 17.056 39.3646 17.0707 39.3499 17.0827C39.3366 17.096 39.3179 17.0987 39.3046 17.1107L39.0779 17.3133C39.0472 17.3413 39.0339 17.3787 39.0072 17.4053C38.9806 17.436 38.9432 17.4533 38.9192 17.4853L38.7672 17.6867C38.7486 17.712 38.7446 17.7413 38.7286 17.768C38.7139 17.7907 38.6899 17.8053 38.6779 17.8307C38.6499 17.832 38.6246 17.82 38.5979 17.824L38.3832 17.848C38.3552 17.852 38.3326 17.8693 38.3072 17.8747C38.2806 17.88 38.2552 17.872 38.2299 17.8787L38.0272 17.9307C38.0232 17.932 38.0219 17.9347 38.0179 17.936C38.0126 17.9373 38.0072 17.936 38.0019 17.9373L37.8259 17.9853C37.8019 17.9933 37.7859 18.0107 37.7632 18.016C37.7419 18.024 37.7192 18.02 37.6979 18.0293L37.4446 18.1307C37.4179 18.1413 37.3992 18.1653 37.3752 18.1773C37.3486 18.1907 37.3192 18.1893 37.2939 18.204L9.50991 34.2307C9.48324 34.2467 9.46724 34.272 9.4419 34.2893C9.41524 34.3093 9.38458 34.3147 9.35924 34.3333L9.1699 34.4853C9.1619 34.4933 9.15924 34.5027 9.1499 34.5107C9.14324 34.5147 9.1339 34.516 9.1259 34.524L8.89658 34.7267C8.85791 34.76 8.83791 34.808 8.80458 34.848C8.76991 34.888 8.72457 34.9133 8.69391 34.9573L8.54324 35.1853C8.53258 35.2027 8.53123 35.22 8.5219 35.2373C8.51123 35.2547 8.4939 35.264 8.48457 35.2813L8.32058 35.5853C8.29124 35.6413 8.28857 35.7 8.26857 35.756C8.24724 35.8133 8.21257 35.86 8.20057 35.9213L8.1499 36.1747C8.14857 36.1787 8.1499 36.1827 8.1499 36.188C8.1499 36.1933 8.1459 36.196 8.14457 36.2L8.08058 36.5547C8.07524 36.5907 8.08591 36.6253 8.08324 36.6613C8.07924 36.6973 8.06191 36.7293 8.06191 36.7653V47.168L7.90191 47.2027L7.77391 47.2227C7.70591 47.2333 7.64991 47.2693 7.58591 47.2893C7.51924 47.3107 7.45124 47.3147 7.3859 47.348L7.1459 47.4747C7.13924 47.4787 7.1339 47.4867 7.12724 47.4907C7.1219 47.4947 7.11257 47.4947 7.10591 47.4973L2.27257 50.2813C2.24591 50.296 2.2299 50.324 2.20457 50.3413C2.1779 50.3587 2.14591 50.364 2.11924 50.3853L1.9299 50.5373C1.9259 50.54 1.92457 50.5467 1.91924 50.5507C1.91657 50.5533 1.91257 50.5533 1.9099 50.556L1.6699 50.756C1.62723 50.792 1.60591 50.8427 1.56857 50.8827C1.53124 50.9227 1.48191 50.952 1.44991 50.9987L1.31124 51.2013C1.29924 51.22 1.29791 51.24 1.28724 51.2587C1.27391 51.2787 1.25658 51.288 1.24591 51.3067L1.08191 51.6107C1.05658 51.6573 1.05524 51.7067 1.0379 51.7547C1.0179 51.8027 0.985908 51.8413 0.972575 51.8907L0.908569 52.144C0.904569 52.1653 0.909903 52.184 0.907237 52.2053C0.903237 52.2267 0.888572 52.2413 0.885905 52.264L0.835236 52.62C0.831236 52.648 0.843243 52.676 0.840576 52.704C0.839243 52.7333 0.823242 52.7587 0.823242 52.7893V86.9613C0.823242 86.992 0.839243 87.016 0.840576 87.0467C0.843243 87.0747 0.831236 87.104 0.835236 87.132L0.885905 87.488C0.889905 87.5107 0.903237 87.5267 0.907237 87.5507C0.911237 87.568 0.905902 87.5867 0.909902 87.608L0.973907 87.86C0.989907 87.9253 1.02457 87.9773 1.05124 88.036C1.06457 88.0693 1.06458 88.1093 1.08324 88.1427L1.24724 88.4453C1.26058 88.468 1.27924 88.4853 1.2939 88.5093C1.3019 88.5213 1.30324 88.5373 1.31257 88.5507L1.45124 88.7547C1.49258 88.8147 1.5419 88.8627 1.5899 88.912C1.6019 88.924 1.60458 88.9387 1.61658 88.9493L1.85658 89.176C1.88324 89.2013 1.9179 89.2107 1.94724 89.2333C1.97257 89.2547 1.98724 89.284 2.01657 89.3027L2.2059 89.4293C2.21924 89.4373 2.23391 89.4413 2.24591 89.448C2.25658 89.4547 2.26191 89.464 2.27257 89.4707L39.1019 110.733C39.1139 110.741 39.1286 110.744 39.1432 110.752C39.1512 110.755 39.1566 110.764 39.1646 110.769L39.4179 110.895C39.4632 110.917 39.5099 110.911 39.5539 110.925C39.6299 110.953 39.6992 110.997 39.7819 111.008L39.8979 111.024L40.0499 111.061C40.0819 111.069 40.1152 111.068 40.1472 111.073C40.1632 111.075 40.1752 111.085 40.1899 111.088L40.4072 111.113C40.4539 111.12 40.4992 111.121 40.5459 111.121H40.5472H40.5486H40.5499H40.5512C40.5939 111.121 40.6379 111.12 40.6832 111.113L40.9099 111.088C40.9246 111.087 40.9352 111.076 40.9499 111.075C40.9859 111.068 41.0232 111.071 41.0566 111.061L41.2072 111.025L41.3259 111.008C41.4099 110.996 41.4779 110.953 41.5552 110.925C41.5992 110.909 41.6459 110.915 41.6899 110.895L41.9432 110.769C41.9512 110.764 41.9566 110.755 41.9646 110.752C41.9779 110.744 41.9926 110.741 42.0059 110.733L46.8286 107.951C46.8486 107.939 46.8579 107.921 46.8766 107.908C46.9006 107.893 46.9272 107.888 46.9499 107.871L47.1539 107.719C47.1659 107.708 47.1726 107.692 47.1846 107.681C47.1992 107.672 47.2152 107.668 47.2286 107.657L47.4552 107.455C47.4926 107.423 47.5086 107.379 47.5406 107.343C47.5646 107.316 47.5992 107.305 47.6219 107.276L47.7739 107.071C47.7872 107.053 47.7886 107.033 47.8006 107.015C47.8166 106.989 47.8379 106.969 47.8526 106.943C47.8819 106.941 47.9112 106.941 47.9406 106.937L48.1566 106.912C48.1699 106.911 48.1806 106.9 48.1939 106.899C48.2219 106.896 48.2526 106.897 48.2806 106.889L48.4952 106.84C48.5059 106.837 48.5112 106.831 48.5219 106.828C48.5352 106.824 48.5499 106.827 48.5646 106.821L48.7406 106.771C48.7632 106.764 48.7779 106.745 48.8006 106.74C48.8232 106.732 48.8459 106.735 48.8686 106.727L49.1099 106.624C49.1286 106.619 49.1379 106.603 49.1552 106.595C49.1846 106.58 49.2179 106.573 49.2459 106.559L77.0259 90.5347C77.0499 90.5187 77.0619 90.4987 77.0846 90.4827C77.1139 90.4627 77.1472 90.456 77.1752 90.4333L77.3646 90.2827C77.3739 90.2747 77.3779 90.2627 77.3872 90.256C77.3966 90.248 77.4086 90.244 77.4166 90.236L77.6366 90.04C77.6392 90.0373 77.6432 90.0347 77.6446 90.032C77.7179 89.9667 77.7846 89.892 77.8406 89.8067L77.9939 89.58C78.0019 89.568 78.0019 89.5547 78.0099 89.5413C78.0179 89.528 78.0286 89.5187 78.0352 89.5067H78.1992H78.2006C78.2926 89.5067 78.3859 89.4947 78.4779 89.4733L78.6939 89.4213C78.7006 89.42 78.7032 89.416 78.7099 89.4147C78.7179 89.412 78.7272 89.4133 78.7366 89.4107L78.9112 89.3613C78.9392 89.3547 78.9579 89.336 78.9846 89.3253C79.0086 89.3173 79.0339 89.3213 79.0592 89.3093L79.2992 89.208C79.3152 89.2013 79.3246 89.1867 79.3392 89.18C79.3699 89.1667 79.4019 89.16 79.4326 89.1427L107.213 73.0947C107.237 73.08 107.247 73.0573 107.271 73.0413C107.299 73.0227 107.331 73.016 107.359 72.9933L107.55 72.8427C107.553 72.84 107.554 72.8347 107.559 72.8307C107.563 72.8267 107.571 72.8253 107.577 72.8213L107.815 72.6187C107.869 72.5733 107.897 72.512 107.941 72.46C107.967 72.4307 108.005 72.4173 108.027 72.384L108.169 72.1813C108.178 72.168 108.179 72.1507 108.189 72.1347C108.199 72.1187 108.214 72.1067 108.222 72.088C108.247 72.0867 108.273 72.0867 108.297 72.084L108.523 72.06C108.542 72.0573 108.555 72.0453 108.573 72.044C108.613 72.0373 108.65 72.0387 108.69 72.028L108.894 71.976C108.898 71.9747 108.901 71.9707 108.905 71.9707C108.913 71.968 108.919 71.9693 108.929 71.968L109.103 71.9173C109.125 71.9107 109.138 71.896 109.161 71.8907C109.182 71.884 109.202 71.8853 109.223 71.876L109.477 71.7747C109.495 71.768 109.505 71.752 109.523 71.744C109.558 71.7293 109.595 71.7213 109.629 71.7013L114.451 68.9173C114.477 68.9027 114.487 68.88 114.511 68.864C114.539 68.8453 114.573 68.84 114.599 68.816L114.789 68.6653C114.793 68.6627 114.795 68.6573 114.799 68.6533C114.805 68.6493 114.81 68.648 114.817 68.644L115.055 68.4413C115.099 68.404 115.119 68.356 115.155 68.316C115.181 68.288 115.218 68.2773 115.241 68.2453L115.393 68.044C115.407 68.024 115.41 68.0013 115.421 67.98C115.449 67.94 115.483 67.9027 115.506 67.856L115.671 67.5267C115.69 67.4907 115.689 67.452 115.701 67.412C115.722 67.3587 115.755 67.312 115.769 67.2533L115.818 67.0253C115.821 67.0147 115.818 67.0053 115.819 66.9947C115.822 66.9827 115.83 66.9733 115.833 66.9613L115.897 66.5813C115.902 66.5493 115.889 66.516 115.891 66.484C115.895 66.4507 115.913 66.42 115.913 66.3853V32.2333C115.913 32.1947 115.894 32.164 115.891 32.1267C115.889 32.092 115.902 32.0573 115.895 32.02" fill="#5C9999"/>
</svg>
