<svg width="116" height="102" viewBox="0 0 116 102" fill="none" xmlns="http://www.w3.org/2000/svg">
<path d="M110.283 54.6909V44.8016L111.394 44.1589C111.402 44.1536 111.407 44.1443 111.417 44.1389C111.431 44.1283 111.446 44.1269 111.461 44.1163L111.613 44.0149C111.639 43.9963 111.653 43.9696 111.678 43.9483C111.705 43.9296 111.737 43.9216 111.761 43.8976L111.95 43.7216C111.982 43.6936 111.995 43.6523 112.025 43.6189C112.046 43.5949 112.077 43.5869 112.097 43.5589L112.211 43.4069C112.226 43.3869 112.227 43.3643 112.241 43.3443C112.266 43.3029 112.301 43.2709 112.322 43.2243L112.449 42.9723C112.465 42.9403 112.462 42.9043 112.475 42.8709C112.495 42.8216 112.526 42.7776 112.539 42.7243L112.589 42.5216C112.591 42.5096 112.589 42.4989 112.59 42.4896C112.594 42.4749 112.602 42.4643 112.605 42.4523L112.657 42.1749C112.663 42.1376 112.651 42.1016 112.655 42.0629C112.658 42.0269 112.677 41.9949 112.677 41.9549V37.5509C112.677 37.5123 112.658 37.4803 112.655 37.4416C112.651 37.4056 112.665 37.3683 112.657 37.3309L112.605 37.0536C112.602 37.0416 112.594 37.0309 112.59 37.0203C112.589 37.0083 112.591 36.9963 112.589 36.9856L112.539 36.7816C112.526 36.7283 112.493 36.6896 112.473 36.6416C112.451 36.5896 112.45 36.5363 112.422 36.4869L112.297 36.2603C112.289 36.2469 112.279 36.2416 112.271 36.2296C112.265 36.2189 112.265 36.2056 112.257 36.1963L112.143 36.0189C112.106 35.9603 112.05 35.9256 112.006 35.8776C111.962 35.8296 111.933 35.7723 111.881 35.7283L111.699 35.5869L111.558 35.4656C111.531 35.4429 111.497 35.4389 111.467 35.4189C111.439 35.3976 111.422 35.3683 111.393 35.3496L88.2674 22.0096C88.2567 22.0029 88.2434 22.0029 88.2327 21.9963C88.2221 21.9923 88.2167 21.9803 88.2047 21.9749L88.0047 21.8736C87.9741 21.8576 87.9421 21.8603 87.9114 21.8483C87.8821 21.8349 87.8594 21.8123 87.8274 21.8016L87.6634 21.7509C87.6314 21.7389 87.5994 21.7469 87.5687 21.7389C87.5607 21.7376 87.5541 21.7336 87.5461 21.7309L85.8461 9.63095L113.447 25.5549L113.503 25.6016V25.6029L113.57 25.6603L113.573 25.6629L113.574 25.6709V25.6723L113.605 25.8416V52.5789L113.574 52.7483V52.7496L113.573 52.7589L113.569 52.7629L113.503 52.8203V52.8216L113.446 52.8669L110.283 54.6909ZM86.4781 68.4296V58.5456L87.5861 57.9043C87.5954 57.8989 87.6021 57.8883 87.6114 57.8829C87.6247 57.8749 87.6394 57.8723 87.6527 57.8629L87.8034 57.7629C87.8301 57.7429 87.8447 57.7163 87.8701 57.6949C87.8981 57.6723 87.9327 57.6629 87.9594 57.6389L88.1487 57.4603C88.1807 57.4323 88.1941 57.3909 88.2207 57.3603C88.2421 57.3363 88.2714 57.3296 88.2901 57.3029L88.4047 57.1509C88.4087 57.1456 88.4087 57.1403 88.4114 57.1363L88.5607 57.1136C88.5634 57.1123 88.5661 57.1123 88.5701 57.1123L88.7341 57.0883C88.7701 57.0829 88.7967 57.0616 88.8314 57.0523C88.8741 57.0443 88.9167 57.0469 88.9607 57.0309L89.1007 56.9803C89.1047 56.9789 89.1061 56.9763 89.1087 56.9749C89.1127 56.9736 89.1167 56.9736 89.1207 56.9723L89.3221 56.8963C89.3421 56.8896 89.3541 56.8736 89.3714 56.8656C89.4141 56.8469 89.4567 56.8376 89.4981 56.8149L107.885 46.1869V55.9136L107.869 56.0176L107.865 56.0363L107.846 56.0709L107.821 56.0976L107.778 56.1256L86.4781 68.4296ZM62.6714 82.1736V72.2896L63.7807 71.6483C63.7887 71.6429 63.7941 71.6336 63.8034 71.6283C63.8154 71.6189 63.8287 71.6176 63.8421 71.6083L63.9941 71.5083C64.0221 71.4896 64.0367 71.4603 64.0634 71.4403C64.0901 71.4176 64.1247 71.4096 64.1501 71.3856L64.3394 71.2083C64.3701 71.1803 64.3821 71.1429 64.4101 71.1123C64.4301 71.0883 64.4581 71.0816 64.4781 71.0549L64.5927 70.9043C64.5994 70.8976 64.5994 70.8869 64.6034 70.8816L64.7514 70.8603C64.7527 70.8603 64.7527 70.8589 64.7541 70.8589C64.7607 70.8576 64.7674 70.8589 64.7741 70.8576L64.9394 70.8323C64.9781 70.8269 65.0074 70.8043 65.0434 70.7936C65.0861 70.7829 65.1301 70.7856 65.1714 70.7709L65.3101 70.7189C65.3127 70.7176 65.3154 70.7149 65.3194 70.7136C65.3221 70.7123 65.3274 70.7123 65.3314 70.7109L65.5207 70.6363C65.5381 70.6283 65.5487 70.6136 65.5647 70.6083C65.6021 70.5909 65.6421 70.5816 65.6807 70.5603L84.0807 59.9309V69.6536C84.0807 69.6563 84.0794 69.6589 84.0794 69.6603L84.0634 69.7696L84.0581 69.7883L84.0461 69.8123L84.0087 69.8469L83.9794 69.8683L62.6714 82.1736ZM38.8647 95.9189V84.0336L39.3274 84.3043C39.3607 84.3243 39.3981 84.3309 39.4327 84.3483C39.4501 84.3549 39.4594 84.3696 39.4767 84.3763L39.6661 84.4523C39.6754 84.4563 39.6847 84.4549 39.6927 84.4589C39.7007 84.4616 39.7074 84.4696 39.7167 84.4736L39.8567 84.5216C39.8967 84.5363 39.9394 84.5349 39.9807 84.5443C40.0127 84.5523 40.0367 84.5723 40.0714 84.5776L40.2354 84.6029C40.2394 84.6043 40.2434 84.6029 40.2487 84.6043L40.4261 84.6283C40.4821 84.6389 40.5394 84.6416 40.5941 84.6429H40.5967H40.5981H40.5994H40.6021C40.6581 84.6416 40.7127 84.6389 40.7714 84.6283L40.9474 84.6043C40.9501 84.6029 40.9554 84.6029 40.9594 84.6029L41.1234 84.5776C41.1567 84.5723 41.1821 84.5523 41.2154 84.5443C41.2554 84.5349 41.2981 84.5363 41.3394 84.5216L41.4781 84.4736C41.4887 84.4696 41.4941 84.4616 41.5034 84.4589C41.5127 84.4549 41.5221 84.4563 41.5301 84.4523L41.7207 84.3763C41.7367 84.3683 41.7461 84.3536 41.7634 84.3483C41.7967 84.3309 41.8341 84.3229 41.8661 84.3056L60.2661 73.6763V83.4016L60.2514 83.4576C60.2487 83.4696 60.2527 83.4803 60.2501 83.4923C60.2487 83.5016 60.2394 83.5109 60.2367 83.5216L60.2314 83.5496L60.1861 83.5963L60.1594 83.6136L38.8647 95.9189ZM30.9647 30.3069L31.0207 30.2789C31.0394 30.2749 31.0581 30.2763 31.0754 30.2723C31.0941 30.2763 31.1127 30.2749 31.1314 30.2789L31.1901 30.3083L34.9541 32.4963L35.0541 32.5563L35.0594 32.5616L35.0674 32.5749V32.5763L35.1527 32.7109L35.1887 32.8336L35.2154 32.9456L37.5754 49.7923L21.7407 58.9229L9.02073 51.5763V43.1683L9.04739 43.0109L9.06073 42.9856L9.1514 42.9003L9.19273 42.8669L30.9647 30.3069ZM54.7741 16.5616L54.8261 16.5363C54.8447 16.5309 54.8647 16.5323 54.8834 16.5283C54.9021 16.5323 54.9221 16.5309 54.9394 16.5363L54.9901 16.5616L58.7181 18.6936L58.7927 18.7549C58.7941 18.7563 58.7941 18.7563 58.7954 18.7563L58.8874 18.8309L58.8941 18.8403L58.9661 18.9629L58.9914 19.0429L59.0234 19.1843L61.3914 36.0176L39.9887 48.3843C39.9487 48.4069 39.9261 48.4443 39.8901 48.4709C39.8674 48.4883 39.8421 48.4949 39.8221 48.5109L37.5874 32.5509C37.5847 32.5283 37.5701 32.5123 37.5661 32.4923C37.5634 32.4696 37.5687 32.4496 37.5647 32.4283L37.5141 32.2229C37.5127 32.2163 37.5061 32.2096 37.5034 32.2016C37.5007 32.1909 37.5034 32.1829 37.5007 32.1736L37.4114 31.8723C37.3954 31.8176 37.3581 31.7749 37.3341 31.7243C37.3101 31.6709 37.3047 31.6149 37.2727 31.5643L37.0954 31.2856H37.0941L36.9794 31.1083C36.9447 31.0523 36.8914 31.0203 36.8487 30.9723C36.8061 30.9243 36.7794 30.8669 36.7274 30.8256L36.5127 30.6496C36.4914 30.6309 36.4647 30.6283 36.4434 30.6123C36.4207 30.5976 36.4087 30.5736 36.3847 30.5576L36.2207 30.4563C36.2154 30.4523 36.2087 30.4523 36.2021 30.4483C36.1994 30.4456 36.1967 30.4416 36.1914 30.4403L33.4647 28.8549L54.7741 16.5616ZM65.0501 68.1496V65.0389C65.0501 65.0016 65.0327 64.9709 65.0287 64.9349C65.0247 64.8976 65.0381 64.8616 65.0314 64.8243L64.9807 64.5469C64.9794 64.5416 64.9754 64.5363 64.9741 64.5296C64.9727 64.5229 64.9754 64.5176 64.9741 64.5123L64.9367 64.3349C64.9247 64.2843 64.8941 64.2443 64.8754 64.1949C64.8581 64.1469 64.8581 64.0963 64.8354 64.0483L64.7101 63.7949C64.6994 63.7736 64.6807 63.7643 64.6701 63.7429C64.6581 63.7216 64.6581 63.7016 64.6447 63.6803L64.5301 63.5029C64.4927 63.4443 64.4354 63.4109 64.3914 63.3603C64.3487 63.3136 64.3194 63.2563 64.2674 63.2163L64.0887 63.0723L63.9447 62.9523C63.9181 62.9283 63.8821 62.9243 63.8527 62.9016C63.8247 62.8829 63.8087 62.8536 63.7781 62.8349L41.7527 50.1376L63.0167 37.8536L63.1287 37.8109C63.1327 37.8096 63.1341 37.8069 63.1381 37.8069L63.1554 37.8029L63.2154 37.8123L63.2687 37.8389L86.2981 51.1176L86.3687 51.1776C86.3727 51.1803 86.3767 51.1816 86.3794 51.1843C86.3834 51.1856 86.3847 51.1909 86.3887 51.1949L86.4221 51.2203L86.4434 51.2576L86.4594 51.3776V55.6363L86.4554 55.6736L86.4447 55.7349L86.4394 55.7603L86.4234 55.7909L86.3887 55.8229L86.3594 55.8429L84.6807 56.8136L65.0501 68.1496ZM40.7394 82.1869L40.6554 82.2203L40.6501 82.2216L40.6007 82.2296L40.5514 82.2216L40.5461 82.2203L40.4647 82.1869L38.8661 81.2603V70.2816C38.8661 70.2443 38.8474 70.2109 38.8434 70.1749C38.8407 70.1389 38.8514 70.1043 38.8461 70.0683L38.7954 69.7896C38.7954 69.7883 38.7941 69.7869 38.7941 69.7843V69.7803L38.7554 69.5789C38.7434 69.5163 38.7074 69.4683 38.6874 69.4109C38.6661 69.3483 38.6621 69.2829 38.6287 69.2229L38.4901 68.9696C38.4754 68.9429 38.4487 68.9283 38.4327 68.9016C38.4181 68.8789 38.4141 68.8509 38.3967 68.8283L38.2834 68.6749C38.2661 68.6509 38.2394 68.6429 38.2221 68.6189C38.2021 68.5976 38.1954 68.5696 38.1741 68.5483L37.9981 68.3709C37.9674 68.3403 37.9274 68.3283 37.8954 68.3016C37.8647 68.2749 37.8447 68.2389 37.8101 68.2176L37.6594 68.1149C37.6487 68.1083 37.6354 68.1083 37.6247 68.1016C37.6127 68.0949 37.6061 68.0829 37.5954 68.0763L24.1461 60.3083L39.2834 51.5803L39.3461 51.5483L39.4007 51.5563L39.4754 51.5923L62.4914 64.8643L62.5674 64.9283C62.5714 64.9309 62.5754 64.9309 62.5794 64.9349C62.5821 64.9376 62.5834 64.9403 62.5874 64.9429L62.6127 64.9629L62.6221 64.9869L62.6527 65.1549V69.3763L62.6367 69.4376C62.6341 69.4496 62.6381 69.4616 62.6354 69.4749C62.6327 69.4896 62.6234 69.4963 62.6207 69.5083L62.6154 69.5389L62.5887 69.5643L62.5461 69.5936L60.8741 70.5589C60.8727 70.5603 60.8727 70.5603 60.8714 70.5603L40.7394 82.1869ZM110.105 37.3776L110.178 37.4389C110.182 37.4403 110.187 37.4403 110.191 37.4443C110.193 37.4469 110.194 37.4509 110.198 37.4536L110.229 37.4789L110.25 37.5149L110.253 37.5243L110.277 37.6629V41.8456L110.253 41.9803L110.241 42.0189L110.227 42.0469L110.201 42.0709L110.15 42.1056L108.485 43.0669C108.485 43.0683 108.485 43.0683 108.483 43.0683L88.8567 54.4136V51.2949C88.8567 51.2683 88.8421 51.2443 88.8394 51.2176C88.8394 51.1896 88.8501 51.1643 88.8461 51.1376L88.8101 50.8589C88.8061 50.8323 88.7901 50.8163 88.7847 50.7896C88.7807 50.7669 88.7874 50.7429 88.7821 50.7189L88.7301 50.5176C88.7167 50.4656 88.6834 50.4296 88.6647 50.3816C88.6434 50.3323 88.6421 50.2816 88.6167 50.2349L88.4914 50.0056C88.4834 49.9949 88.4727 49.9883 88.4661 49.9763C88.4594 49.9656 88.4581 49.9509 88.4514 49.9403L88.3381 49.7643C88.3021 49.7096 88.2474 49.6749 88.2047 49.6269C88.1607 49.5776 88.1327 49.5189 88.0794 49.4763L87.8901 49.3243C87.8887 49.3243 87.8887 49.3229 87.8874 49.3229L87.7581 49.2136C87.7301 49.1896 87.6941 49.1829 87.6661 49.1629C87.6367 49.1416 87.6181 49.1109 87.5874 49.0936L65.5634 36.3936L86.8181 24.1083L86.9221 24.0709C86.9287 24.0683 86.9327 24.0616 86.9394 24.0603L86.9621 24.0563L87.0261 24.0656L87.1007 24.1043L110.105 37.3776ZM78.6101 2.80561L78.6407 2.78829C78.6567 2.78562 78.6741 2.78561 78.6914 2.78161H78.6967H78.7034C78.7207 2.78561 78.7354 2.78562 78.7527 2.78829L78.7701 2.79895L78.7714 2.80028L82.5314 4.95228L82.5967 5.00694C82.5981 5.00828 82.5994 5.00828 82.5994 5.00828C82.6021 5.01094 82.6021 5.01361 82.6047 5.01627L82.6994 5.0936L82.7247 5.12695L82.7714 5.19895L82.8047 5.31895L82.8341 5.43628L83.1661 7.79895L85.1981 22.2736L63.8074 34.6389C63.7767 34.6563 63.7594 34.6843 63.7314 34.7056C63.7021 34.7256 63.6687 34.7296 63.6421 34.7549L63.6394 34.7576L61.3941 18.8043C61.3914 18.7883 61.3821 18.7776 61.3794 18.7629C61.3754 18.7469 61.3821 18.7336 61.3781 18.7189L61.3287 18.4909C61.3247 18.4696 61.3101 18.4563 61.3047 18.4363C61.2994 18.4163 61.3047 18.3989 61.2981 18.3816L61.2087 18.1029C61.1954 18.0589 61.1634 18.0283 61.1447 17.9883C61.1261 17.9443 61.1234 17.8976 61.0994 17.8563L60.9354 17.5789C60.9261 17.5616 60.9101 17.5536 60.8994 17.5403C60.8901 17.5243 60.8887 17.5069 60.8781 17.4923L60.7527 17.3149C60.7194 17.2696 60.6727 17.2443 60.6341 17.2056C60.5994 17.1683 60.5794 17.1216 60.5394 17.0883L60.3287 16.9136L60.3261 16.9109L60.1727 16.7843C60.1461 16.7616 60.1101 16.7549 60.0794 16.7336C60.0514 16.7149 60.0327 16.6843 60.0034 16.6656L57.2794 15.1083L78.6101 2.80561ZM32.6087 99.5256L32.5554 99.5523C32.5421 99.5536 32.5287 99.5523 32.5141 99.5549H32.5007H32.4994C32.4847 99.5523 32.4714 99.5536 32.4567 99.5523L32.4061 99.5256L3.47273 82.8349L3.40073 82.7749C3.39806 82.7736 3.39406 82.7736 3.39273 82.7709C3.38873 82.7669 3.38739 82.7629 3.38339 82.7603L3.34873 82.7309L3.33007 82.6976L3.31273 82.5776V55.7803L3.33007 55.6603L3.34873 55.6256L3.38339 55.5989C3.38739 55.5963 3.38873 55.5923 3.39273 55.5896C3.39406 55.5869 3.39806 55.5856 3.40073 55.5829L3.47139 55.5256L7.11273 53.4203L7.2034 53.3869L7.2394 53.3736L7.26606 53.3696L7.3114 53.3763L7.34739 53.3883C7.35006 53.3896 7.35273 53.3883 7.35673 53.3896C7.35806 53.3909 7.35939 53.3923 7.36206 53.3936L7.37806 53.4003L7.39007 53.4043L21.1447 61.3469L36.3661 70.1376L36.3807 70.1496L36.4181 70.1856L36.4234 70.1936L36.4354 70.2136V70.2176L36.4661 70.3883V81.9509V97.0949L36.4634 97.1069C36.4621 97.1136 36.4647 97.1189 36.4634 97.1269C36.4621 97.1336 36.4581 97.1389 36.4567 97.1469L36.4341 97.2843L36.4234 97.3029L36.4181 97.3109L36.3807 97.3469L36.3701 97.3563L32.6087 99.5256ZM115.985 25.5123L115.933 25.2336V25.2323L115.895 25.0309C115.883 24.9643 115.846 24.9149 115.823 24.8549C115.801 24.7949 115.798 24.7283 115.765 24.6696L115.639 24.4416C115.626 24.4203 115.606 24.4096 115.594 24.3883C115.581 24.3683 115.579 24.3443 115.565 24.3243L115.439 24.1483C115.411 24.1083 115.366 24.0843 115.333 24.0483C115.301 24.0136 115.283 23.9696 115.246 23.9376L115.07 23.7843C115.067 23.7816 115.063 23.7816 115.061 23.7789C115.059 23.7776 115.059 23.7749 115.057 23.7736L114.906 23.6483C114.879 23.6229 114.845 23.6176 114.815 23.5989C114.786 23.5763 114.767 23.5469 114.737 23.5269L85.6874 6.76961C85.6767 6.76428 85.6647 6.76427 85.6527 6.75761C85.6421 6.75094 85.6367 6.74028 85.6261 6.73494L85.4261 6.63495L85.2007 5.03495C85.1967 5.00962 85.1821 4.99361 85.1781 4.97094C85.1727 4.94561 85.1807 4.92694 85.1741 4.90161L85.1221 4.70027C85.1207 4.69361 85.1154 4.68828 85.1127 4.68162C85.1127 4.67495 85.1141 4.66828 85.1127 4.66162L85.0234 4.35628C85.0061 4.29761 84.9661 4.25495 84.9421 4.19895C84.9167 4.14695 84.9114 4.08961 84.8781 4.04028L84.7141 3.78561C84.7087 3.77761 84.7007 3.77361 84.6941 3.76694C84.6887 3.75894 84.6887 3.74827 84.6821 3.74027L84.5567 3.56428C84.5247 3.52161 84.4794 3.49627 84.4421 3.45894C84.4061 3.41894 84.3847 3.36962 84.3407 3.33362L84.1261 3.15761C84.1247 3.15628 84.1221 3.15628 84.1207 3.15494L83.9821 3.03895C83.9554 3.01495 83.9207 3.00961 83.8914 2.98961C83.8621 2.96694 83.8421 2.93628 83.8101 2.91628L79.9621 0.71361C79.9554 0.70961 79.9487 0.709614 79.9407 0.705614C79.9367 0.704281 79.9327 0.69761 79.9274 0.694943L79.7381 0.594947C79.6834 0.565614 79.6221 0.562945 79.5647 0.542945C79.5061 0.521612 79.4567 0.485609 79.3927 0.473609L79.3114 0.457618L79.2127 0.429613C79.1594 0.41628 79.1034 0.426943 79.0461 0.41761C78.9874 0.408276 78.9341 0.384274 78.8714 0.384274H78.6967H78.5194C78.4567 0.384274 78.4034 0.408276 78.3434 0.41761C78.2861 0.426943 78.2301 0.416278 78.1727 0.433611L78.0701 0.462949L77.9954 0.477617C77.9341 0.490951 77.8861 0.524277 77.8274 0.546943C77.7687 0.566943 77.7061 0.568278 77.6514 0.598945L77.4621 0.700274C77.4554 0.704274 77.4514 0.70961 77.4447 0.71361C77.4394 0.71761 77.4314 0.717617 77.4247 0.71895L55.5181 13.3496C55.4874 13.3683 55.4701 13.3963 55.4421 13.4176C55.4127 13.4389 55.3781 13.4416 55.3501 13.4669L55.1967 13.5923L55.0274 13.7283C54.9741 13.7709 54.9447 13.8296 54.9007 13.8789C54.8554 13.9296 54.7994 13.9656 54.7607 14.0256L54.6954 14.1283C54.6394 14.1296 54.5887 14.155 54.5341 14.1616C54.4754 14.1696 54.4167 14.1603 54.3567 14.1789L54.2567 14.2109L54.2007 14.219C54.1447 14.231 54.1007 14.2643 54.0474 14.2803C53.9874 14.3003 53.9247 14.3016 53.8687 14.3296L53.6674 14.4336C53.6567 14.4389 53.6501 14.4483 53.6407 14.4536C53.6314 14.4603 53.6194 14.4589 53.6101 14.4643L31.7114 27.0949C31.6821 27.1123 31.6634 27.1416 31.6367 27.1629C31.6074 27.1829 31.5727 27.1869 31.5434 27.2123L31.3981 27.3323L31.2181 27.4776C31.1634 27.5216 31.1354 27.5803 31.0901 27.6296C31.0487 27.6749 30.9954 27.7083 30.9607 27.7629L30.8874 27.8749C30.8327 27.8763 30.7834 27.8989 30.7301 27.9056C30.6714 27.9163 30.6127 27.9056 30.5554 27.9243L30.4594 27.9523L30.3834 27.9669C30.3274 27.9789 30.2834 28.0109 30.2301 28.0296C30.1754 28.0483 30.1207 28.0483 30.0674 28.0723L29.8661 28.1736C29.8527 28.1789 29.8474 28.1923 29.8354 28.1976C29.8247 28.2043 29.8114 28.2043 29.8007 28.2109L7.90473 40.8389C7.87407 40.8576 7.85539 40.8869 7.82739 40.9096C7.79806 40.9296 7.76339 40.9349 7.73539 40.9589L7.58473 41.0843C7.57539 41.0923 7.57273 41.1043 7.5634 41.1109C7.55406 41.1189 7.54073 41.1216 7.53273 41.1296L7.34206 41.3083C7.31539 41.3323 7.30473 41.3683 7.28073 41.3936C7.2554 41.4203 7.22473 41.4349 7.2034 41.4643L7.08872 41.6163C7.07272 41.6389 7.06873 41.6656 7.05407 41.6909C7.03673 41.7163 7.0114 41.7309 6.99673 41.7589L6.85806 42.0123C6.8274 42.0656 6.82473 42.1256 6.80473 42.1816C6.7834 42.2349 6.75006 42.2776 6.73673 42.3363L6.69806 42.5096C6.69539 42.5216 6.69939 42.5309 6.69806 42.5403C6.69673 42.5523 6.69007 42.5576 6.6874 42.5669L6.63673 42.8736C6.63006 42.9056 6.64339 42.9389 6.64073 42.9723C6.63806 43.0043 6.62073 43.0349 6.62073 43.0683V51.0616C6.59273 51.0709 6.56473 51.0643 6.5354 51.0749L6.3954 51.1243C6.3914 51.1269 6.38739 51.1309 6.38206 51.1336C6.37806 51.1349 6.37273 51.1336 6.3674 51.1363L6.16473 51.2136C6.13407 51.2243 6.11539 51.2483 6.08473 51.2629C6.05539 51.2776 6.02073 51.2763 5.99273 51.2936L2.1834 53.4963C2.1514 53.5136 2.13273 53.5443 2.10473 53.5656C2.07673 53.5869 2.0434 53.5909 2.0154 53.6136L1.88339 53.7243H1.88206L1.69273 53.8789C1.64073 53.9216 1.61139 53.9803 1.56606 54.0296C1.52339 54.0776 1.47006 54.1083 1.43406 54.1656L1.3194 54.3429C1.3114 54.3549 1.31139 54.3683 1.30473 54.3803C1.29806 54.3896 1.2874 54.3963 1.28206 54.4069L1.1554 54.6336C1.12873 54.6816 1.12606 54.7349 1.10739 54.7843C1.08739 54.8336 1.05273 54.8736 1.03807 54.9269L0.988729 55.1283C0.983396 55.1509 0.990064 55.1709 0.986064 55.1949C0.98073 55.2176 0.967399 55.2336 0.964732 55.2563L0.926066 55.5349C0.922066 55.5616 0.932731 55.5896 0.930064 55.6163C0.928731 55.6443 0.914062 55.6683 0.914062 55.6976V82.6549C0.914062 82.6829 0.928731 82.7083 0.930064 82.7349C0.932731 82.7629 0.922066 82.7896 0.926066 82.8176L0.964732 83.0963C0.967399 83.1189 0.98073 83.1389 0.986064 83.1616C0.990064 83.1829 0.983396 83.2029 0.988729 83.2229L1.03807 83.4256C1.0554 83.4936 1.0914 83.5469 1.11806 83.6056C1.13406 83.6416 1.13406 83.6789 1.15273 83.7163L1.2794 83.9429C1.2874 83.9589 1.30073 83.9696 1.30873 83.9856C1.31273 83.9936 1.31273 84.0029 1.3194 84.0123L1.43406 84.1883C1.50073 84.2909 1.5834 84.3776 1.67273 84.4536C1.6794 84.4603 1.6834 84.4696 1.69006 84.4749L1.87939 84.6283H1.88073L2.01273 84.7389C2.04339 84.7656 2.08207 84.7736 2.11273 84.7963C2.13807 84.8149 2.15407 84.8416 2.18207 84.8576L31.2274 101.615C31.2421 101.622 31.2554 101.624 31.2674 101.632C31.2754 101.635 31.2807 101.644 31.2874 101.648L31.4887 101.75C31.5887 101.802 31.6954 101.831 31.8021 101.852C31.8087 101.854 31.8141 101.859 31.8207 101.86L31.8874 101.872L31.9834 101.9C32.0994 101.938 32.2154 101.954 32.3327 101.954H32.3341H32.4981H32.6741H32.6754C32.7914 101.954 32.9087 101.938 33.0247 101.9L33.1207 101.872L33.1874 101.86C33.1941 101.859 33.1994 101.854 33.2061 101.852C33.3114 101.831 33.4167 101.802 33.5167 101.751L33.7194 101.65C33.7274 101.646 33.7314 101.636 33.7394 101.634C33.7541 101.624 33.7674 101.623 33.7821 101.615L37.5914 99.4136C37.6021 99.4069 37.6074 99.3976 37.6167 99.3896C37.6287 99.3843 37.6434 99.3816 37.6554 99.3723L37.8074 99.2723C37.8407 99.2469 37.8607 99.2123 37.8927 99.1856C37.9234 99.1616 37.9634 99.1496 37.9941 99.1176L38.1701 98.9403C38.1941 98.9163 38.2021 98.8856 38.2234 98.8603C38.2381 98.8403 38.2621 98.8336 38.2781 98.8149L38.3927 98.6629C38.3954 98.6576 38.3954 98.6523 38.3994 98.6483L38.5674 98.6216C38.5687 98.6216 38.5687 98.6203 38.5701 98.6203C38.5741 98.6189 38.5807 98.6203 38.5874 98.6189L38.7381 98.595C38.7714 98.5883 38.7967 98.5683 38.8287 98.5603C38.8714 98.5509 38.9114 98.5536 38.9541 98.539L39.0927 98.4883C39.0941 98.4869 39.0954 98.4856 39.0981 98.4843C39.1007 98.483 39.1034 98.4843 39.1061 98.483L39.3101 98.4069C39.3287 98.4003 39.3407 98.3843 39.3594 98.3763C39.4007 98.3576 39.4461 98.3469 39.4861 98.3243L61.3941 85.6669C61.4034 85.6616 61.4101 85.6509 61.4194 85.6443C61.4341 85.6363 61.4487 85.6336 61.4621 85.6229L61.6154 85.5216C61.6487 85.4989 61.6661 85.4643 61.6981 85.4403C61.7261 85.4136 61.7647 85.4043 61.7927 85.3763L61.9687 85.2003C61.9847 85.1843 61.9887 85.1643 62.0021 85.1496C62.0154 85.1336 62.0327 85.1296 62.0461 85.1163L62.1714 84.9643C62.1874 84.9456 62.1914 84.9229 62.2021 84.9029H62.2034L62.3701 84.8776H62.3714C62.3754 84.8763 62.3794 84.8763 62.3834 84.8763L62.5487 84.8509C62.5834 84.8443 62.6114 84.8256 62.6447 84.8163C62.6874 84.8056 62.7301 84.8083 62.7741 84.7923L62.9114 84.7416C62.9194 84.7389 62.9221 84.7336 62.9301 84.7309C62.9354 84.7283 62.9421 84.7296 62.9487 84.7269L63.1381 84.6523C63.1541 84.6443 63.1634 84.6296 63.1807 84.6243C63.2167 84.6069 63.2554 84.5989 63.2914 84.5789L85.1994 71.9229C85.2101 71.9163 85.2154 71.9069 85.2247 71.8989C85.2381 71.8923 85.2527 71.8883 85.2661 71.8803L85.4167 71.7789C85.4434 71.7603 85.4567 71.7323 85.4834 71.7123C85.5114 71.6896 85.5461 71.6803 85.5727 71.6563L85.7621 71.4789C85.7927 71.4496 85.8047 71.4123 85.8327 71.3829C85.8514 71.3589 85.8781 71.3523 85.8967 71.3283L86.0114 71.1763C86.0181 71.1696 86.0181 71.1603 86.0234 71.1536L86.1701 71.1323C86.1754 71.1309 86.1794 71.1309 86.1847 71.1309L86.3487 71.1069C86.3874 71.1003 86.4181 71.0776 86.4541 71.0669C86.4981 71.0563 86.5434 71.0603 86.5874 71.0443L86.7261 70.9923C86.7301 70.9909 86.7327 70.9883 86.7367 70.9856C86.7421 70.9843 86.7461 70.9856 86.7514 70.9829L86.9407 70.9083C86.9581 70.9003 86.9687 70.8856 86.9847 70.8803C87.0221 70.8629 87.0634 70.8536 87.1007 70.8323L109.009 58.1763C109.018 58.1696 109.025 58.1603 109.034 58.1536C109.049 58.1456 109.062 58.1429 109.077 58.1336L109.229 58.0309C109.255 58.0109 109.27 57.9843 109.297 57.9643C109.322 57.9416 109.355 57.9349 109.379 57.9109L109.569 57.7349C109.602 57.7056 109.615 57.6629 109.643 57.6296C109.665 57.6056 109.697 57.5976 109.717 57.5683L109.83 57.4163C109.831 57.4136 109.831 57.4123 109.833 57.4096H109.835L110.001 57.3843L110.165 57.3589C110.195 57.3536 110.221 57.3336 110.253 57.3269C110.294 57.3176 110.337 57.3203 110.378 57.3056L110.517 57.2563C110.523 57.2536 110.527 57.2483 110.533 57.2456C110.537 57.2456 110.543 57.2456 110.549 57.2443L110.75 57.1669C110.769 57.1603 110.781 57.1443 110.798 57.1376C110.839 57.1189 110.881 57.1083 110.921 57.0869L114.731 54.8856C114.759 54.8696 114.777 54.8416 114.803 54.8229C114.835 54.8003 114.871 54.7923 114.902 54.7669L115.053 54.6403C115.055 54.6389 115.055 54.6363 115.058 54.6336C115.061 54.6309 115.063 54.6309 115.066 54.6283L115.243 54.4763C115.289 54.4376 115.311 54.3843 115.35 54.3376C115.377 54.3083 115.415 54.2949 115.438 54.2629L115.563 54.0856C115.574 54.0709 115.575 54.0549 115.585 54.0429C115.601 54.0163 115.621 54.0003 115.635 53.9736L115.761 53.7469C115.781 53.7123 115.781 53.6736 115.794 53.6389C115.833 53.5563 115.874 53.4749 115.893 53.3829L115.929 53.1803V53.1789L115.981 52.9003C115.987 52.8643 115.977 52.8283 115.978 52.7909C115.982 52.7536 116.001 52.7203 116.001 52.6829V25.7296C116.001 25.6923 115.982 25.6603 115.978 25.6229C115.979 25.5856 115.991 25.5496 115.985 25.5123" fill="#37A0D9"/>
</svg>
