<svg width="141" height="109" viewBox="0 0 141 109" fill="none" xmlns="http://www.w3.org/2000/svg">
<path d="M8.66797 42.4051L23.3346 49.0718L78.0013 18.4051L76.668 9.07178L74.0013 3.73844L67.3346 1.07178L9.45864 33.8464L8.66797 42.4051Z" fill="#9BCFEC"/>
<path d="M133.662 66.8164V53.5484L135.222 52.6537C135.245 52.6391 135.258 52.6191 135.281 52.6031C135.312 52.5817 135.349 52.5724 135.377 52.5497L135.566 52.3977C135.572 52.3937 135.574 52.3897 135.578 52.3857C135.58 52.3817 135.585 52.3817 135.589 52.3777L135.829 52.1751C135.87 52.1404 135.893 52.0911 135.928 52.0511C135.956 52.0217 135.993 52.0097 136.018 51.9751L136.169 51.7737C136.186 51.7511 136.189 51.7284 136.201 51.7057C136.226 51.6684 136.258 51.6337 136.281 51.5911L136.445 51.2631C136.464 51.2284 136.462 51.1884 136.474 51.1537C136.497 51.0964 136.53 51.0457 136.544 50.9831L136.594 50.7551C136.597 50.7444 136.593 50.7351 136.594 50.7257C136.597 50.7137 136.605 50.7057 136.606 50.6937L136.67 50.3151C136.677 50.2817 136.665 50.2484 136.666 50.2164C136.67 50.1831 136.688 50.1537 136.688 50.1191V44.5511C136.688 44.5124 136.669 44.4817 136.666 44.4457C136.662 44.4097 136.676 44.3751 136.668 44.3391L136.605 43.9844C136.605 43.9804 136.601 43.9764 136.6 43.9724C136.6 43.9684 136.601 43.9644 136.6 43.9591L136.55 43.7071C136.537 43.6444 136.501 43.5964 136.48 43.5377C136.458 43.4804 136.456 43.4204 136.425 43.3657L136.261 43.0644C136.246 43.0364 136.222 43.0217 136.205 42.9964C136.19 42.9724 136.186 42.9457 136.17 42.9217L136.018 42.7177C135.996 42.6884 135.965 42.6764 135.942 42.6484C135.916 42.6217 135.908 42.5857 135.88 42.5617L135.638 42.3337C135.613 42.3084 135.58 42.3017 135.552 42.2804C135.525 42.2564 135.51 42.2284 135.481 42.2084L135.292 42.0817C135.28 42.0737 135.266 42.0737 135.256 42.0671C135.244 42.0591 135.238 42.0471 135.228 42.0417L80.5689 17.1097C80.5556 17.1031 80.5436 17.1031 80.5329 17.0977C80.5222 17.0911 80.5169 17.0804 80.5062 17.0737L80.2516 16.9484C80.2102 16.9271 80.1662 16.9284 80.1236 16.9137C80.0782 16.8977 80.0436 16.8671 79.9969 16.8537L79.7822 16.8031H79.7796L79.5809 16.7551C79.5662 16.7511 79.5502 16.7564 79.5342 16.7524L78.5809 12.5177L138.18 39.7337L138.273 39.8097L138.381 39.9004L138.408 39.9391L138.46 40.0364L138.474 40.1124L138.517 40.3377V63.6124L138.473 63.8617L138.462 63.9111L138.412 64.0151L138.409 64.0177L138.273 64.1324L138.18 64.2084L133.662 66.8164ZM106.142 84.2497V70.9817L107.712 70.0644C107.722 70.0591 107.726 70.0497 107.737 70.0431C107.748 70.0364 107.761 70.0337 107.773 70.0244L107.964 69.9004C107.99 69.8804 108.005 69.8511 108.032 69.8311C108.06 69.8071 108.094 69.7991 108.121 69.7737L108.361 69.5471C108.392 69.5177 108.404 69.4804 108.43 69.4511C108.45 69.4257 108.48 69.4191 108.5 69.3937L108.65 69.1897C108.665 69.1724 108.668 69.1511 108.678 69.1324C108.694 69.1071 108.717 69.0857 108.733 69.0577C108.753 69.0577 108.772 69.0577 108.794 69.0551L109.021 69.0284C109.037 69.0271 109.049 69.0164 109.065 69.0137C109.104 69.0097 109.141 69.0111 109.182 69.0004L109.333 68.9631L109.445 68.9471C109.529 68.9351 109.597 68.8924 109.674 68.8644C109.718 68.8484 109.765 68.8537 109.808 68.8337L110.061 68.7071C110.07 68.7031 110.076 68.6937 110.082 68.6897C110.097 68.6831 110.112 68.6804 110.125 68.6737L131.262 54.9297V67.7937L131.26 67.8057C131.256 67.8244 131.264 67.8404 131.26 67.8577C131.257 67.8764 131.246 67.8884 131.245 67.9057L131.228 68.0537L131.218 68.0857L131.16 68.1937L131.146 68.2124L131.03 68.3097L130.936 68.3857L106.142 84.2497ZM77.2916 101.667V85.4911L78.3609 86.1137C78.3956 86.1337 78.4316 86.1404 78.4676 86.1564C78.4862 86.1671 78.4969 86.1817 78.5169 86.1884L78.7689 86.2911C78.7916 86.2991 78.8129 86.2964 78.8342 86.3044C78.8556 86.3111 78.8676 86.3271 78.8902 86.3324L79.0662 86.3831C79.0742 86.3844 79.0796 86.3844 79.0889 86.3857C79.0916 86.3857 79.0942 86.3897 79.0996 86.3911L79.3022 86.4431C79.4022 86.4671 79.5009 86.4791 79.5969 86.4791H79.5982H79.8129H80.0409H80.0422C80.1396 86.4791 80.2382 86.4671 80.3382 86.4431L80.5409 86.3911C80.5436 86.3897 80.5476 86.3857 80.5516 86.3857C80.5596 86.3844 80.5662 86.3844 80.5756 86.3831L80.7502 86.3324C80.7729 86.3257 80.7862 86.3097 80.8049 86.3044C80.8276 86.2964 80.8502 86.2991 80.8702 86.2911L81.1249 86.1884C81.1409 86.1817 81.1529 86.1671 81.1702 86.1591C81.2036 86.1431 81.2422 86.1351 81.2756 86.1164L103.746 72.3737V85.2311L103.736 85.2871C103.734 85.2951 103.737 85.3017 103.737 85.3111C103.734 85.3177 103.73 85.3244 103.73 85.3324L103.712 85.4644L103.702 85.5004L103.634 85.6244L103.6 85.6777L103.518 85.7511L103.418 85.8311L77.2916 101.667ZM38.0809 18.9964L38.1916 18.9511L38.3076 18.9191C38.3089 18.9191 38.3089 18.9177 38.3102 18.9177L38.4036 18.8951L38.4076 18.8937L38.4209 18.8964L38.5129 18.9191H38.5142L38.6289 18.9511L38.6862 18.9751C38.6876 18.9764 38.6902 18.9751 38.6902 18.9764C38.6902 18.9764 38.6916 18.9777 38.6929 18.9777L38.7396 18.9964L47.4556 23.0497L47.5769 23.1457L47.5782 23.1471L47.7329 23.2737L47.7582 23.3097L47.8662 23.4871L47.9276 23.6897L47.9702 23.8564L51.0062 32.1204L22.5702 47.9124L10.1276 41.0871V35.5364L10.1676 35.3097L10.1822 35.2351L10.2356 35.1377L10.2676 35.0871L10.3529 35.0124L10.4569 34.9284L38.0809 18.9964ZM80.1449 83.9937L80.0289 84.0404L79.9129 84.0724L79.8916 84.0777H79.8116H79.7449L79.7236 84.0724L79.6076 84.0404L79.4889 83.9924L77.2916 82.7151V79.2644C77.2916 79.2271 77.2729 79.1951 77.2689 79.1591C77.2662 79.1231 77.2782 79.0884 77.2716 79.0524L77.2076 78.6977C77.2076 78.6924 77.2049 78.6897 77.2036 78.6844C77.2022 78.6804 77.2049 78.6764 77.2036 78.6711L77.1529 78.4177C77.1409 78.3564 77.1036 78.3084 77.0836 78.2524C77.0636 78.1951 77.0609 78.1351 77.0316 78.0817L76.8676 77.7804C76.8542 77.7537 76.8276 77.7377 76.8116 77.7137C76.7956 77.6884 76.7942 77.6577 76.7742 77.6324L76.6222 77.4284C76.6036 77.4031 76.5769 77.3937 76.5556 77.3697C76.5356 77.3471 76.5289 77.3204 76.5076 77.2977L76.2809 77.0711C76.2476 77.0391 76.2049 77.0257 76.1689 76.9977C76.1329 76.9684 76.1089 76.9257 76.0689 76.9004L75.8649 76.7751C75.8596 76.7711 75.8516 76.7711 75.8449 76.7671C75.8396 76.7631 75.8356 76.7564 75.8302 76.7537L24.9702 49.2951L52.5889 33.9737L52.7582 33.9044C52.7609 33.9031 52.7636 33.9004 52.7676 33.9004C52.7782 33.8951 52.7889 33.8844 52.7996 33.8791C52.8262 33.8671 52.8556 33.8604 52.8822 33.8471L52.8902 33.8457H52.8929L52.9609 33.8644L53.0902 33.9097L53.2822 33.9897L106.428 61.4871L106.548 61.5817L106.656 61.6751L106.664 61.6817L106.713 61.7817L106.726 61.8404L106.766 62.0844V67.4351L106.764 67.4484C106.762 67.4551 106.765 67.4604 106.764 67.4657C106.762 67.4737 106.76 67.4791 106.757 67.4844L106.725 67.6871L106.71 67.7524L106.678 67.8151L106.638 67.8684L106.545 67.9551L106.47 68.0044L104.344 69.2497L80.1449 83.9937ZM133.996 44.1044L134.065 44.1497L134.158 44.2377L134.192 44.2844L134.232 44.3551L134.246 44.4297L134.286 44.6564V50.0204L134.245 50.2657L134.233 50.3257L134.186 50.4177L134.176 50.4311L134.065 50.5231C134.065 50.5244 134.065 50.5244 134.064 50.5244L133.942 50.6217L131.864 51.8124C131.862 51.8137 131.861 51.8124 131.86 51.8137L109.168 66.4551V61.9911C109.168 61.9551 109.15 61.9257 109.148 61.8937C109.145 61.8604 109.157 61.8284 109.15 61.7937L109.088 61.4151C109.085 61.4031 109.078 61.3964 109.076 61.3871C109.073 61.3737 109.078 61.3631 109.076 61.3537L109.025 61.1257C109.014 61.0764 108.981 61.0391 108.966 60.9924C108.949 60.9457 108.95 60.8964 108.926 60.8484L108.761 60.5191C108.745 60.4857 108.714 60.4644 108.692 60.4337C108.674 60.4017 108.669 60.3644 108.645 60.3351L108.494 60.1337C108.466 60.0951 108.424 60.0751 108.393 60.0417C108.362 60.0111 108.346 59.9684 108.31 59.9404L108.072 59.7351C108.066 59.7337 108.061 59.7324 108.056 59.7284C108.05 59.7231 108.048 59.7177 108.044 59.7124L107.854 59.5617C107.829 59.5417 107.8 59.5364 107.774 59.5204C107.749 59.5031 107.734 59.4764 107.706 59.4604L55.3249 32.4004L78.7769 19.2031L78.9156 19.1471L78.9849 19.1217L79.0542 19.1044L79.0782 19.1031H79.0836L79.2169 19.1337H79.2182C79.2182 19.1337 79.2196 19.1351 79.2209 19.1351L79.3009 19.1564L79.3982 19.2044L133.996 44.1044ZM68.2729 2.88708L68.3782 2.84441L68.4782 2.8164L68.5236 2.80441H68.5902H68.6689L68.7276 2.81907L68.8129 2.84441L68.9222 2.8884L73.6889 5.66307L73.7862 5.72707L73.9222 5.84574L73.9716 5.91374L74.0556 6.04174L74.1089 6.25241V6.25374L74.1556 6.44441L75.9116 10.7764V10.7777L77.1929 17.3484L53.8782 30.4644C53.8502 30.4817 53.8342 30.5084 53.8076 30.5257C53.7836 30.5444 53.7516 30.5484 53.7276 30.5671L53.5382 30.7204C53.5116 30.7431 53.4969 30.7764 53.4702 30.8004C53.4462 30.8244 53.4156 30.8337 53.3929 30.8591L53.2742 30.9924L50.3409 23.4577C50.3382 23.4351 50.3236 23.4191 50.3182 23.3991C50.3129 23.3764 50.3209 23.3564 50.3156 23.3351L50.2516 23.0804C50.2502 23.0711 50.2436 23.0657 50.2409 23.0564C50.2382 23.0457 50.2409 23.0351 50.2382 23.0271L50.1249 22.6484C50.1089 22.5977 50.0742 22.5631 50.0529 22.5151C50.0316 22.4684 50.0276 22.4164 50.0009 22.3711L49.7862 22.0164C49.7756 21.9991 49.7582 21.9924 49.7462 21.9751C49.7369 21.9577 49.7356 21.9404 49.7236 21.9244L49.5729 21.7204C49.5422 21.6804 49.4982 21.6591 49.4649 21.6231C49.4289 21.5871 49.4102 21.5404 49.3676 21.5071L49.0889 21.2804L49.0862 21.2777L49.0822 21.2737L48.8929 21.1217C48.8676 21.1004 48.8369 21.0951 48.8102 21.0764C48.7849 21.0604 48.7689 21.0324 48.7422 21.0164L40.8182 17.4217L68.2729 2.88708ZM69.8382 105.964L69.7662 106.002C69.7609 106.003 69.7569 106.006 69.7529 106.007C69.7342 106.01 69.7142 106.004 69.6942 106.008L69.5622 106.039L69.5542 106.04L69.5436 106.039L69.4142 106.008C69.3942 106.004 69.3756 106.01 69.3556 106.007C69.3516 106.006 69.3476 106.003 69.3409 106.002L69.2689 105.964L3.16623 68.7364L3.09824 68.6911L3.02357 68.6204L2.9929 68.5751L2.93023 68.4591L2.91823 68.4124L2.8889 68.2057V46.2044L2.91823 45.9964L2.93023 45.9497L2.9929 45.8337L3.0049 45.8164L3.09556 45.7404C3.09689 45.7404 3.0969 45.7404 3.09824 45.7391L3.2209 45.6417L7.93957 42.9244L8.0049 42.8897C8.02357 42.8857 8.03956 42.8871 8.0569 42.8831L8.20356 42.8484L8.22356 42.8471L8.24356 42.8484L8.36756 42.8791C8.3929 42.8857 8.41556 42.8844 8.4409 42.8884L8.51956 42.9257L21.9702 50.3377L74.6049 78.8191L74.6836 78.8671L74.7489 78.9337L74.8009 79.0057L74.8356 79.0671L74.8502 79.1417L74.8916 79.3697V83.4044V102.65L74.8889 102.662C74.8876 102.67 74.8902 102.675 74.8889 102.682C74.8876 102.688 74.8836 102.694 74.8822 102.7L74.8502 102.9L74.8356 102.966L74.8022 103.03L74.7729 103.068L74.6769 103.154L74.5676 103.235L69.8382 105.964ZM140.896 40.0204L140.832 39.6684C140.83 39.6631 140.828 39.6604 140.828 39.6551C140.826 39.6511 140.828 39.6457 140.828 39.6404L140.776 39.3884C140.764 39.3284 140.728 39.2817 140.708 39.2244C140.686 39.1684 140.684 39.1084 140.654 39.0537L140.489 38.7484C140.478 38.7311 140.464 38.7217 140.453 38.7044C140.444 38.6871 140.442 38.6697 140.432 38.6524L140.28 38.4257C140.248 38.3777 140.198 38.3497 140.16 38.3057C140.122 38.2631 140.1 38.2137 140.054 38.1751L139.816 37.9711C139.81 37.9671 139.804 37.9671 139.8 37.9617C139.794 37.9591 139.793 37.9537 139.789 37.9511L139.598 37.7991C139.574 37.7791 139.544 37.7751 139.52 37.7577C139.494 37.7391 139.478 37.7137 139.452 37.6977L78.6236 9.77107C78.5996 9.75774 78.5756 9.75774 78.5502 9.74574C78.5262 9.73508 78.5142 9.71641 78.4889 9.70575L78.2476 9.60308C78.2249 9.59374 78.2009 9.59774 78.1769 9.58841C78.1729 9.58574 78.1689 9.58308 78.1662 9.58308L76.5249 6.04574C76.5222 6.02174 76.5076 6.00708 76.5036 5.98441C76.4982 5.96175 76.5062 5.94307 76.4996 5.92041L76.4356 5.66707V5.66575L76.3342 5.26174C76.3169 5.19374 76.2756 5.14308 76.2502 5.08308C76.2236 5.02174 76.2156 4.95774 76.1769 4.89908L75.9609 4.56974C75.9529 4.55774 75.9396 4.55107 75.9302 4.5404C75.9222 4.52707 75.9209 4.51375 75.9116 4.50175L75.7596 4.30041C75.7342 4.26708 75.6956 4.24841 75.6676 4.21774C75.6382 4.18707 75.6249 4.14708 75.5916 4.11908L75.3009 3.86574C75.2796 3.84707 75.2542 3.84307 75.2329 3.82707C75.2102 3.81107 75.2009 3.78841 75.1796 3.77241L74.9889 3.64575C74.9769 3.63908 74.9662 3.63908 74.9542 3.63108C74.9436 3.62441 74.9369 3.61374 74.9262 3.60707L70.0529 0.771074C70.0276 0.755074 69.9969 0.75507 69.9689 0.741737C69.9422 0.729737 69.9236 0.705743 69.8956 0.693743L69.6409 0.593747C69.6236 0.584413 69.6022 0.588411 69.5796 0.580411C69.5609 0.573744 69.5476 0.559082 69.5249 0.553748L69.3489 0.501746C69.3409 0.49908 69.3342 0.501737 69.3289 0.500404C69.3209 0.497737 69.3169 0.491076 69.3089 0.489743L69.1062 0.440406C69.0582 0.428406 69.0102 0.44041 68.9609 0.433743C68.9116 0.42841 68.8676 0.404416 68.8169 0.404416H68.5889H68.3742C68.3236 0.404416 68.2782 0.42841 68.2302 0.433743C68.1809 0.439076 68.1342 0.428406 68.0836 0.440406L67.8822 0.489743C67.8756 0.491076 67.8702 0.497737 67.8636 0.500404C67.8569 0.501737 67.8489 0.49908 67.8422 0.501746L67.6649 0.551073C67.6436 0.55774 67.6316 0.573744 67.6102 0.580411C67.5876 0.585744 67.5702 0.581748 67.5489 0.591082L67.2969 0.691078C67.2689 0.703078 67.2516 0.72574 67.2249 0.736406C67.1969 0.751073 67.1662 0.751077 67.1396 0.765744L39.3716 15.4817C39.3502 15.4951 39.3382 15.5151 39.3182 15.5297C39.2982 15.5431 39.2729 15.5457 39.2542 15.5604L39.0529 15.7111C39.0369 15.7231 39.0302 15.7377 39.0169 15.7497C39.0036 15.7631 38.9849 15.7657 38.9716 15.7777L38.7449 15.9804C38.7142 16.0084 38.7009 16.0457 38.6756 16.0724C38.6462 16.1031 38.6116 16.1204 38.5849 16.1524L38.4342 16.3537C38.4142 16.3791 38.4116 16.4084 38.3969 16.4351C38.3809 16.4577 38.3569 16.4724 38.3449 16.4977C38.3169 16.4991 38.2929 16.4871 38.2636 16.4911L38.0489 16.5151C38.0222 16.5191 38.0009 16.5364 37.9729 16.5417C37.9476 16.5471 37.9222 16.5391 37.8969 16.5457L37.6942 16.5977C37.6902 16.5991 37.6889 16.6017 37.6849 16.6031C37.6809 16.6044 37.6742 16.6031 37.6689 16.6044L37.4929 16.6524C37.4676 16.6604 37.4529 16.6777 37.4302 16.6831C37.4089 16.6911 37.3876 16.6871 37.3649 16.6964L37.1129 16.7977C37.0836 16.8084 37.0676 16.8324 37.0409 16.8444C37.0156 16.8577 36.9862 16.8564 36.9622 16.8711L9.17823 32.8977C9.1489 32.9137 9.13423 32.9391 9.1089 32.9564C9.08223 32.9764 9.05157 32.9817 9.02624 33.0004L8.83689 33.1524C8.82756 33.1604 8.82623 33.1697 8.81689 33.1777C8.81023 33.1817 8.8009 33.1831 8.7929 33.1911L8.5649 33.3937C8.52357 33.4271 8.50623 33.4751 8.47157 33.5151C8.4369 33.5551 8.39157 33.5804 8.3609 33.6244L8.21024 33.8524C8.19957 33.8697 8.19823 33.8871 8.18889 33.9044C8.17823 33.9217 8.16089 33.9311 8.15156 33.9484L7.98623 34.2524C7.95823 34.3084 7.95557 34.3671 7.93557 34.4231C7.91423 34.4804 7.87956 34.5271 7.86623 34.5884L7.81689 34.8417C7.81556 34.8457 7.81689 34.8497 7.81689 34.8551C7.81689 34.8604 7.8129 34.8631 7.81156 34.8671L7.74757 35.2217C7.74224 35.2577 7.7529 35.2924 7.75023 35.3284C7.74623 35.3644 7.7289 35.3964 7.7289 35.4324V40.5017L7.57023 40.5364L7.4409 40.5564C7.3729 40.5671 7.31557 40.6031 7.25157 40.6231C7.18757 40.6444 7.11823 40.6484 7.0529 40.6817L6.8129 40.8084C6.80623 40.8124 6.8009 40.8204 6.79423 40.8244C6.7889 40.8284 6.77956 40.8284 6.77423 40.8311L1.93957 43.6151C1.91157 43.6297 1.8969 43.6577 1.87156 43.6751C1.84623 43.6924 1.8129 43.6977 1.78757 43.7191L1.59689 43.8711C1.59289 43.8737 1.59023 43.8804 1.58623 43.8844C1.58357 43.8871 1.57956 43.8871 1.57689 43.8897L1.33689 44.0897C1.29423 44.1257 1.2729 44.1764 1.2369 44.2164C1.19823 44.2564 1.1489 44.2857 1.1169 44.3324L0.976898 44.5351C0.966232 44.5537 0.9649 44.5737 0.954234 44.5924C0.942234 44.6124 0.92357 44.6217 0.912903 44.6404L0.747569 44.9444C0.723569 44.9911 0.722229 45.0404 0.703562 45.0884C0.686229 45.1364 0.652901 45.1751 0.638234 45.2244L0.576894 45.4777C0.571561 45.4991 0.578229 45.5177 0.574229 45.5391C0.570229 45.5604 0.555564 45.5751 0.552897 45.5977L0.502228 45.9537C0.499561 45.9817 0.510235 46.0097 0.507568 46.0377C0.506235 46.0671 0.490234 46.0924 0.490234 46.1231V68.2951C0.490234 68.3257 0.506235 68.3497 0.507568 68.3804C0.510235 68.4084 0.499561 68.4377 0.502228 68.4657L0.552897 68.8217C0.556897 68.8444 0.570228 68.8604 0.575562 68.8844C0.578228 68.9017 0.572893 68.9204 0.578227 68.9417L0.639567 69.1937C0.655567 69.2591 0.691565 69.3111 0.716899 69.3697C0.731565 69.4031 0.731568 69.4431 0.748901 69.4764L0.914235 69.7791C0.927569 69.8017 0.94623 69.8191 0.960897 69.8431C0.968897 69.8551 0.970231 69.8711 0.978231 69.8844L1.11824 70.0884C1.15957 70.1484 1.20756 70.1964 1.2569 70.2457C1.26756 70.2577 1.27157 70.2724 1.28357 70.2831L1.52357 70.5097C1.55024 70.5351 1.58489 70.5444 1.61423 70.5671C1.63956 70.5884 1.65423 70.6177 1.68356 70.6364L1.87289 70.7631C1.88623 70.7711 1.9009 70.7751 1.9129 70.7817C1.92357 70.7884 1.92757 70.7977 1.93957 70.8044L68.1009 108.067C68.1156 108.075 68.1302 108.078 68.1436 108.086C68.1516 108.088 68.1569 108.098 68.1649 108.103L68.4182 108.228C68.4636 108.251 68.5102 108.244 68.5542 108.259C68.6302 108.287 68.6982 108.331 68.7822 108.342L68.8982 108.358L69.0489 108.395C69.0809 108.403 69.1156 108.402 69.1476 108.407C69.1636 108.408 69.1756 108.419 69.1902 108.422L69.4076 108.447C69.4542 108.454 69.4996 108.455 69.5462 108.455H69.5476H69.5489H69.5502H69.5516C69.5942 108.455 69.6382 108.454 69.6836 108.447L69.9102 108.422C69.9236 108.42 69.9356 108.41 69.9516 108.408C69.9862 108.402 70.0236 108.404 70.0582 108.395L70.2076 108.359L70.3262 108.342C70.4116 108.33 70.4782 108.287 70.5556 108.259C70.5996 108.243 70.6462 108.248 70.6902 108.228L70.9436 108.103C70.9516 108.098 70.9569 108.088 70.9649 108.086C70.9769 108.078 70.9929 108.075 71.0076 108.067L75.8302 105.284C75.8489 105.272 75.8582 105.255 75.8756 105.242C75.9009 105.227 75.9276 105.222 75.9516 105.204L76.1529 105.052C76.1662 105.042 76.1729 105.026 76.1849 105.015C76.1982 105.006 76.2142 105.002 76.2289 104.991L76.4569 104.79C76.4929 104.756 76.5089 104.712 76.5409 104.676C76.5649 104.65 76.5996 104.639 76.6222 104.61L76.7742 104.404C76.7876 104.387 76.7889 104.367 76.8009 104.348C76.8169 104.323 76.8396 104.303 76.8542 104.276C76.8822 104.275 76.9116 104.275 76.9409 104.271L77.1569 104.246C77.1702 104.244 77.1809 104.234 77.1929 104.232C77.2222 104.23 77.2529 104.231 77.2822 104.223L77.4969 104.174C77.5062 104.171 77.5129 104.164 77.5222 104.162C77.5356 104.158 77.5502 104.16 77.5649 104.155L77.7422 104.104C77.7636 104.098 77.7782 104.079 77.8009 104.074C77.8222 104.066 77.8476 104.068 77.8689 104.06L78.1102 103.958C78.1289 103.952 78.1382 103.936 78.1556 103.928C78.1862 103.914 78.2169 103.907 78.2462 103.892L104.693 87.8684C104.717 87.8524 104.729 87.8324 104.752 87.8164C104.781 87.7964 104.814 87.7897 104.842 87.7671L105.032 87.6164C105.041 87.6084 105.045 87.5964 105.054 87.5897C105.064 87.5817 105.077 87.5777 105.084 87.5697L105.304 87.3737L105.312 87.3657C105.385 87.3004 105.452 87.2257 105.508 87.1404L105.66 86.9137C105.669 86.9017 105.669 86.8884 105.677 86.8751C105.685 86.8617 105.696 86.8524 105.702 86.8404H105.866H105.868C105.96 86.8404 106.053 86.8284 106.145 86.8071L106.361 86.7551C106.366 86.7537 106.37 86.7497 106.377 86.7484C106.385 86.7457 106.394 86.7471 106.404 86.7444L106.58 86.6951C106.606 86.6884 106.625 86.6697 106.652 86.6591C106.676 86.6511 106.701 86.6551 106.726 86.6431L106.966 86.5417C106.982 86.5351 106.992 86.5204 107.008 86.5137C107.037 86.5004 107.069 86.4937 107.098 86.4764L132.213 70.4284C132.237 70.4137 132.248 70.3911 132.272 70.3751C132.3 70.3564 132.333 70.3497 132.36 70.3271L132.549 70.1764C132.553 70.1737 132.554 70.1684 132.56 70.1644C132.565 70.1604 132.572 70.1591 132.577 70.1551L132.816 69.9524C132.869 69.9071 132.897 69.8457 132.941 69.7937C132.968 69.7644 133.006 69.7511 133.028 69.7177L133.169 69.5151C133.178 69.5017 133.18 69.4844 133.19 69.4684C133.2 69.4524 133.214 69.4404 133.222 69.4217C133.248 69.4204 133.272 69.4204 133.298 69.4177L133.524 69.3937C133.542 69.3911 133.556 69.3791 133.574 69.3777C133.613 69.3711 133.65 69.3724 133.69 69.3617L133.896 69.3097C133.898 69.3084 133.901 69.3044 133.905 69.3044C133.912 69.3017 133.92 69.3031 133.928 69.3017L134.104 69.2511C134.126 69.2444 134.138 69.2297 134.16 69.2244C134.182 69.2177 134.202 69.2191 134.224 69.2097L134.477 69.1084C134.496 69.1017 134.506 69.0857 134.524 69.0777C134.558 69.0631 134.596 69.0551 134.63 69.0351L139.453 66.2511C139.477 66.2364 139.488 66.2137 139.513 66.1977C139.54 66.1791 139.574 66.1737 139.6 66.1497L139.789 65.9991C139.793 65.9964 139.796 65.9911 139.8 65.9871C139.804 65.9831 139.81 65.9817 139.817 65.9777L140.056 65.7751C140.098 65.7377 140.12 65.6897 140.156 65.6497C140.181 65.6217 140.217 65.6111 140.241 65.5791L140.393 65.3777C140.408 65.3577 140.41 65.3351 140.421 65.3137C140.449 65.2737 140.484 65.2364 140.508 65.1897L140.672 64.8604C140.69 64.8244 140.689 64.7857 140.701 64.7457C140.722 64.6924 140.754 64.6457 140.769 64.5871L140.818 64.3591C140.821 64.3484 140.817 64.3391 140.82 64.3284C140.822 64.3164 140.83 64.3071 140.833 64.2951L140.897 63.9151C140.902 63.8831 140.89 63.8497 140.892 63.8177C140.896 63.7844 140.913 63.7537 140.913 63.7191V40.2337C140.913 40.1951 140.894 40.1644 140.892 40.1271C140.89 40.0924 140.902 40.0577 140.896 40.0204" fill="#37A0D9"/>
</svg>
