<svg width="114" height="76" viewBox="0 0 114 76" fill="none" xmlns="http://www.w3.org/2000/svg">
<path d="M111.227 49.5723L90.4187 61.6576V58.8643L90.4213 58.8629L107.008 49.2723C107.009 49.2723 107.009 49.2709 107.011 49.2709L107.077 49.2456L107.091 49.2523L108 48.5936L108.463 47.5016L110.096 35.7976L110.109 35.7669C110.115 35.7523 110.112 35.7363 110.119 35.7203C110.124 35.7016 110.14 35.6869 110.144 35.6669L110.16 35.6109L110.168 35.6003L110.204 35.5696C110.221 35.5563 110.228 35.5389 110.244 35.5256L111.227 34.9669V49.5723ZM111.227 62.0069L102.663 57.0883L111.227 52.1136V62.0069ZM89.22 57.0336C89.2013 57.0443 89.1827 57.0456 89.164 57.0589L89.0387 57.1509C89.0373 57.1523 89.036 57.1549 89.0347 57.1549C89.0347 57.1549 89.0333 57.1549 89.032 57.1563L88.908 57.2496C88.864 57.2816 88.8387 57.3296 88.8027 57.3683C88.7627 57.4056 88.7133 57.4336 88.68 57.4789L88.588 57.6016C88.5707 57.6296 88.568 57.6576 88.5507 57.6856C88.5347 57.7136 88.508 57.7296 88.4933 57.7603L88.4013 57.9443C88.36 58.0296 88.3493 58.1189 88.3293 58.2083C88.316 58.2416 88.2933 58.2709 88.284 58.3069C88.28 58.3229 88.2853 58.3403 88.2827 58.3589C88.2787 58.3763 88.268 58.3883 88.2653 58.4043L88.2347 58.6189C88.2293 58.6469 88.24 58.6709 88.2387 58.7003C88.2373 58.7269 88.2227 58.7509 88.2227 58.7789V61.2709L74.268 53.2256L73.0867 52.5456V52.5443C73.0867 52.5443 73.0853 52.5416 73.0853 52.5403V49.5309L73.088 49.5296L89.6747 39.9389C89.676 39.9389 89.676 39.9376 89.6773 39.9376L89.744 39.9123L89.7573 39.9189L104.235 48.3389L89.2653 56.9936C89.2467 57.0043 89.2373 57.0229 89.22 57.0336V57.0336ZM71.932 47.6603C71.9133 47.6709 71.904 47.6896 71.8867 47.7003C71.868 47.7109 71.8493 47.7123 71.8307 47.7256L71.7053 47.8176C71.704 47.8189 71.7027 47.8216 71.7013 47.8229C71.7013 47.8229 71.7 47.8229 71.6987 47.8229L71.5747 47.9163C71.5307 47.9483 71.5053 47.9963 71.4693 48.0349C71.4293 48.0723 71.38 48.1003 71.3467 48.1456L71.2547 48.2683C71.2373 48.2963 71.2347 48.3243 71.2173 48.3523C71.2013 48.3803 71.1747 48.3963 71.16 48.4269L71.068 48.6109C71.0267 48.6963 71.016 48.7856 70.996 48.8749C70.9827 48.9083 70.96 48.9376 70.9507 48.9736C70.9467 48.9896 70.952 49.0069 70.9493 49.0256C70.9453 49.0429 70.9347 49.0549 70.932 49.0709L70.9013 49.2856C70.896 49.3136 70.9067 49.3376 70.9053 49.3669C70.904 49.3936 70.8893 49.4176 70.8893 49.4456V51.2603L57.9227 43.7896L57.8147 43.7123L57.7573 43.6563C57.748 43.6456 57.7333 43.6416 57.7227 43.6323C57.7107 43.6203 57.7067 43.6043 57.696 43.5963L57.5373 43.4616L57.5013 43.4189C57.4867 43.3909 57.468 43.3683 57.4507 43.3403L57.4293 43.3003V38.9456L57.4547 38.8976L57.5453 38.8056L57.7013 38.6496L57.76 38.6029L57.92 38.4923L72.472 30.0816L72.4813 30.0763L72.492 30.0816L87.4373 38.6963L71.932 47.6603ZM55.9787 43.3403C55.9627 43.3683 55.9427 43.3909 55.928 43.4189L55.892 43.4616L55.7347 43.5963C55.7227 43.6043 55.7187 43.6203 55.7067 43.6323C55.6973 43.6416 55.6827 43.6456 55.672 43.6563L55.6147 43.7123L55.5053 43.7896L42.54 51.2603V49.4456C42.54 49.4176 42.5267 49.3936 42.5253 49.3669C42.5227 49.3376 42.532 49.3136 42.5293 49.2856L42.4973 49.0709C42.4947 49.0549 42.484 49.0429 42.48 49.0256C42.4773 49.0069 42.4827 48.9896 42.4787 48.9736C42.4707 48.9376 42.4467 48.9083 42.4333 48.8749C42.4147 48.7856 42.404 48.6963 42.3627 48.6109L42.2693 48.4269C42.2547 48.3963 42.228 48.3803 42.212 48.3523C42.196 48.3243 42.1933 48.2963 42.1733 48.2683L42.084 48.1456C42.0493 48.1003 41.9987 48.0723 41.9613 48.0349C41.924 47.9963 41.9 47.9483 41.856 47.9163L41.7307 47.8229C41.7293 47.8229 41.728 47.8229 41.728 47.8229C41.7267 47.8216 41.7253 47.8189 41.724 47.8176L41.5987 47.7256C41.5813 47.7123 41.5613 47.7109 41.5427 47.7003C41.5267 47.6896 41.5173 47.6709 41.4973 47.6603L25.992 38.6963L40.9373 30.0816L40.948 30.0763L40.9587 30.0816L55.5107 38.4923L55.668 38.6029L55.7267 38.6496L55.884 38.8056L55.976 38.8976L56 38.9456V43.3003L55.9787 43.3403ZM40.3453 52.5403C40.3453 52.5416 40.344 52.5443 40.344 52.5443V52.5456L39.1613 53.2256L25.2067 61.2709V58.7789C25.2067 58.7509 25.1933 58.7269 25.192 58.7003C25.1893 58.6709 25.1987 58.6469 25.196 58.6189L25.164 58.4043C25.1613 58.3883 25.1507 58.3763 25.1467 58.3589C25.144 58.3403 25.1493 58.3229 25.1453 58.3069C25.1373 58.2709 25.1133 58.2416 25.1 58.2083C25.0813 58.1189 25.0707 58.0296 25.0293 57.9443L24.936 57.7603C24.9213 57.7296 24.8947 57.7136 24.8787 57.6856C24.8627 57.6576 24.86 57.6296 24.84 57.6016L24.7507 57.4789C24.716 57.4336 24.6653 57.4056 24.628 57.3683C24.5907 57.3296 24.5667 57.2816 24.5227 57.2496L24.3973 57.1563C24.396 57.1549 24.3947 57.1549 24.3947 57.1549C24.3933 57.1549 24.392 57.1523 24.3907 57.1509L24.2653 57.0589C24.248 57.0456 24.228 57.0443 24.2093 57.0336C24.1933 57.0229 24.184 57.0043 24.164 56.9936L9.19466 48.3389L23.672 39.9189L23.6867 39.9123L23.7533 39.9376C23.7547 39.9376 23.7547 39.9389 23.7547 39.9389L40.3413 49.5296L40.3453 49.5309V52.5403ZM23.012 61.6576L2.20267 49.5723V34.9669L3.18667 35.5256C3.2 35.5389 3.208 35.5563 3.224 35.5696L3.26133 35.6003L3.268 35.6109L3.28533 35.6669C3.29066 35.6869 3.30534 35.7016 3.31067 35.7203C3.31734 35.7363 3.31333 35.7523 3.32 35.7669L3.33333 35.7976L4.968 47.5016L5.42933 48.5936L6.33866 49.2523L6.35333 49.2456L6.41999 49.2709C6.42133 49.2709 6.42134 49.2723 6.42134 49.2723L23.008 58.8629L23.012 58.8643V61.6576ZM2.20267 62.0069V52.1136L10.7667 57.0883L2.20267 62.0069ZM17.828 24.6643L17.8413 24.6603L20.52 26.1922C20.5333 26.2056 20.5413 26.2229 20.5573 26.2363L20.5947 26.2669L20.6013 26.2776L20.6187 26.3336C20.624 26.3536 20.6387 26.3683 20.644 26.3869C20.6507 26.4029 20.6467 26.4189 20.6533 26.4336L20.6667 26.4643L22.3013 38.1683L7.43733 46.8176L7.03867 46.4229L5.49333 35.3616C5.48799 35.3176 5.46266 35.2789 5.44933 35.2376C5.43866 35.1949 5.444 35.1496 5.42533 35.1056L5.38533 35.0003L5.336 34.8349C5.32 34.7776 5.284 34.7389 5.25867 34.6869C5.236 34.6376 5.22799 34.5829 5.19866 34.5349L5.07467 34.3483C5.068 34.3376 5.05599 34.3336 5.05066 34.3243C5.04399 34.3163 5.04267 34.3056 5.03733 34.2976L4.94667 34.1736C4.91733 34.1349 4.872 34.1123 4.83866 34.0776C4.80533 34.0443 4.78533 34.0016 4.74933 33.9723L4.64133 33.8843L4.588 33.8323C4.55334 33.7976 4.508 33.7856 4.47066 33.7562C4.432 33.7269 4.40533 33.6869 4.36133 33.6603L3.28666 33.0456L17.828 24.6643ZM34.9947 14.7669L37.6573 16.2883C37.668 16.2989 37.6813 16.3029 37.692 16.3123C37.7 16.3203 37.704 16.3269 37.7133 16.3336L37.7813 16.4336L37.788 16.4522L37.796 16.4882L39.476 28.3816L24.372 37.0896L22.8267 26.0282C22.8213 25.9842 22.796 25.9456 22.7827 25.9043C22.772 25.8616 22.7773 25.8163 22.7587 25.7723L22.7187 25.6669L22.6693 25.5016C22.6533 25.4443 22.6173 25.4056 22.592 25.3536C22.5693 25.3043 22.5613 25.2496 22.532 25.2016L22.408 25.0149C22.4013 25.0043 22.3893 25.0002 22.384 24.9909C22.3773 24.9829 22.376 24.9723 22.3707 24.9643L22.28 24.8402C22.2507 24.8016 22.2053 24.7789 22.172 24.7443C22.1387 24.7109 22.1187 24.6682 22.0827 24.6389L21.9747 24.5509L21.9213 24.4989C21.8867 24.4643 21.8413 24.4523 21.804 24.4229C21.7653 24.3936 21.7387 24.3536 21.6947 24.3269L20.044 23.3843L34.9947 14.7669ZM56 2.60692V18.8483L41.5267 27.1963L39.9653 16.1256C39.964 16.1149 39.956 16.1056 39.9547 16.0963C39.9533 16.0856 39.9573 16.0723 39.9547 16.0589L39.924 15.9056C39.916 15.8683 39.892 15.8376 39.88 15.8029C39.868 15.7669 39.872 15.7282 39.8573 15.6936L39.764 15.4763C39.7493 15.4416 39.7227 15.4203 39.7053 15.3896C39.6893 15.3603 39.688 15.3256 39.6667 15.2976L39.5427 15.1109C39.5387 15.1043 39.5333 15.1029 39.5293 15.0976C39.4467 14.9376 39.3373 14.7883 39.176 14.6816L38.9893 14.5576C38.9867 14.5549 38.9813 14.5563 38.9773 14.5536C38.928 14.5123 38.8907 14.4589 38.8347 14.4283L37.1813 13.4829L56 2.60692ZM56.7147 36.6536C56.7093 36.6523 56.7027 36.6496 56.6987 36.6456C56.6853 36.6376 56.676 36.6203 56.66 36.6123L43.148 28.8042L56.7147 20.9803L70.28 28.8042L56.7693 36.6123C56.7533 36.6203 56.7453 36.6376 56.732 36.6456C56.7253 36.6496 56.72 36.6523 56.7147 36.6536V36.6536ZM76.2493 13.4829L74.5947 14.4283C74.5373 14.4589 74.5013 14.5123 74.452 14.5536C74.4467 14.5563 74.4427 14.5549 74.44 14.5576L74.2547 14.6816C74.092 14.7883 73.9813 14.9376 73.9 15.0976C73.896 15.1029 73.8893 15.1043 73.8867 15.1109L73.7613 15.2976C73.7427 15.3256 73.74 15.3603 73.724 15.3896C73.7067 15.4203 73.68 15.4416 73.6653 15.4763L73.5733 15.6936C73.5573 15.7282 73.5613 15.7669 73.5493 15.8029C73.5373 15.8376 73.5147 15.8683 73.5053 15.9056L73.476 16.0589C73.472 16.0723 73.4773 16.0856 73.476 16.0963C73.4747 16.1056 73.4667 16.1149 73.4653 16.1256L71.904 27.1963L57.4293 18.8483V2.60692L76.2493 13.4829ZM78.4347 14.7669L93.3853 23.3843L91.7347 24.3269C91.6907 24.3536 91.664 24.3936 91.6267 24.4229C91.588 24.4523 91.5427 24.4643 91.5093 24.4989L91.456 24.5509L91.348 24.6389C91.3107 24.6682 91.292 24.7109 91.2573 24.7443C91.224 24.7789 91.1787 24.8016 91.1493 24.8402L91.0587 24.9643C91.0533 24.9723 91.0507 24.9829 91.0453 24.9909C91.0387 25.0002 91.028 25.0043 91.0227 25.0149L90.8987 25.2016C90.868 25.2496 90.8613 25.3043 90.8373 25.3536C90.812 25.4056 90.776 25.4443 90.7587 25.5016L90.7107 25.6669L90.6693 25.7723C90.652 25.8163 90.656 25.8616 90.6453 25.9043C90.6333 25.9456 90.608 25.9842 90.6027 26.0282L89.0573 37.0896L73.9547 28.3816L75.6347 16.4882L75.6413 16.4522L75.648 16.4336L75.716 16.3336C75.724 16.3269 75.7293 16.3203 75.7387 16.3123C75.7493 16.3029 75.7613 16.2989 75.772 16.2883L78.4347 14.7669ZM95.588 24.6603L95.6 24.6643L110.144 33.0456L109.068 33.6603C109.024 33.6869 108.997 33.7269 108.96 33.7562C108.921 33.7856 108.876 33.7976 108.843 33.8323L108.789 33.8843L108.681 33.9723C108.644 34.0016 108.625 34.0443 108.591 34.0776C108.557 34.1123 108.512 34.1349 108.483 34.1736L108.392 34.2976C108.387 34.3056 108.384 34.3163 108.379 34.3243C108.372 34.3336 108.361 34.3376 108.356 34.3483L108.232 34.5349C108.201 34.5829 108.195 34.6376 108.171 34.6869C108.145 34.7389 108.109 34.7776 108.092 34.8349L108.044 35.0003L108.003 35.1056C107.985 35.1496 107.989 35.1949 107.979 35.2376C107.967 35.2789 107.941 35.3176 107.936 35.3616L106.391 46.4229L105.992 46.8176L91.1293 38.1683L92.7627 26.4643L92.776 26.4336C92.7813 26.4189 92.7787 26.4029 92.7853 26.3869C92.7907 26.3683 92.8067 26.3536 92.8107 26.3336L92.8267 26.2776L92.8347 26.2669L92.8707 26.2363C92.888 26.2229 92.8947 26.2056 92.9107 26.1922L95.588 24.6603ZM113.411 33.5189C113.408 33.4883 113.42 33.4589 113.415 33.4283L113.383 33.2416C113.381 33.2376 113.379 33.2336 113.379 33.2296C113.376 33.2243 113.38 33.2189 113.379 33.2136L113.348 33.0589C113.337 33.0083 113.307 32.9696 113.291 32.9216C113.275 32.8723 113.275 32.8243 113.253 32.7776L113.16 32.5923C113.089 32.4509 112.992 32.3349 112.881 32.2416C112.872 32.2323 112.871 32.2216 112.863 32.2136L112.737 32.0896C112.721 32.0722 112.699 32.0669 112.683 32.0522C112.667 32.0349 112.66 32.0123 112.644 31.9963C112.609 31.9616 112.564 31.9469 112.527 31.9176C112.488 31.8856 112.46 31.8456 112.419 31.8216L96.636 22.7203C96.612 22.7083 96.5867 22.7083 96.5627 22.6963C96.5387 22.6843 96.5253 22.6656 96.5 22.6562L96.3467 22.5923C96.3147 22.5789 96.2813 22.5843 96.2507 22.5736C96.2253 22.5629 96.208 22.5429 96.1827 22.5349C96.1427 22.5216 96.0987 22.5296 96.06 22.5203C96.0293 22.5096 96.004 22.4883 95.972 22.4816C95.9347 22.4723 95.8987 22.4829 95.8627 22.4776C95.84 22.4509 95.8307 22.4189 95.8067 22.3936L95.7133 22.3029L95.5947 22.1843C95.576 22.1656 95.552 22.1589 95.532 22.1443C95.512 22.1243 95.5013 22.1003 95.48 22.0856L95.3573 21.9923C95.3387 21.9776 95.3147 21.9749 95.296 21.9616C95.2747 21.9483 95.2653 21.9296 95.2453 21.9176L79.4653 12.8216C79.456 12.8176 79.4467 12.8176 79.4387 12.8123C79.4293 12.8083 79.4227 12.7976 79.416 12.7936L79.292 12.7296C79.2387 12.7029 79.1867 12.7043 79.132 12.6883C79.0987 12.6709 79.072 12.6456 79.036 12.6336C79.024 12.6296 79.008 12.6336 78.9973 12.6296C78.98 12.6243 78.9707 12.6123 78.9573 12.6096L78.832 12.5789C78.7947 12.5709 78.76 12.5803 78.7227 12.5763C78.6987 12.5469 78.6907 12.5136 78.6627 12.4869L78.572 12.3989L78.46 12.2856C78.4413 12.2656 78.416 12.2603 78.3947 12.2416C78.3733 12.2243 78.364 12.2003 78.3413 12.1816L78.2173 12.0896C78.1987 12.0749 78.176 12.0723 78.1547 12.0589C78.136 12.0443 78.124 12.0269 78.1053 12.0149L57.8707 0.322914C57.8507 0.312248 57.8293 0.313582 57.8107 0.302915C57.7907 0.293582 57.78 0.274915 57.7587 0.266915L57.5427 0.173582C57.5107 0.170915 57.48 0.164249 57.452 0.153583C57.444 0.150916 57.4373 0.146921 57.4293 0.144254V0.109586C57.4013 0.101586 57.3733 0.0935792 57.3453 0.0855792C57.2827 0.0669126 57.22 0.0495882 57.1573 0.0322548C57.0827 0.0109215 57.008 0.0215868 56.932 0.0162535L56.8253 0.00025207C56.8227 0.00025207 56.82 0.0015854 56.8147 0.00025207C56.7987 -0.00108126 56.78 0.00558321 56.7613 0.00424987H56.752L56.7307 0.00025207C56.728 0.00025207 56.7253 0.0015854 56.72 0.00025207C56.7187 0.00025207 56.716 0.00158467 56.7147 0.00158467C56.712 0.00158467 56.7107 0.00025207 56.708 0.00025207C56.704 0.0015854 56.7013 0.00025207 56.6987 0.00025207L56.6787 0.00424987H56.6667C56.6493 0.00558321 56.632 -0.00108126 56.6147 0.00025207C56.6093 0.0015854 56.6067 0.00025207 56.604 0.00025207L56.4973 0.0162535C56.4213 0.0215868 56.348 0.0109215 56.272 0.0322548C56.2093 0.0495882 56.1453 0.0669126 56.084 0.0855792C56.056 0.0935792 56.028 0.101586 56 0.109586V0.144254C55.992 0.146921 55.9853 0.150916 55.9773 0.153583C55.9493 0.164249 55.92 0.170915 55.8867 0.173582L55.6693 0.266915C55.6493 0.274915 55.64 0.293582 55.6187 0.302915C55.5987 0.313582 55.58 0.312248 55.5587 0.322914L35.324 12.0149C35.3053 12.0269 35.2933 12.0443 35.2747 12.0589C35.2547 12.0723 35.2307 12.0749 35.2107 12.0896L35.088 12.1816C35.0667 12.2003 35.056 12.2243 35.0347 12.2416C35.0133 12.2603 34.988 12.2656 34.9693 12.2856L34.8587 12.3989L34.7667 12.4869C34.74 12.5136 34.7307 12.5469 34.7067 12.5763C34.6693 12.5803 34.636 12.5709 34.596 12.5789L34.4733 12.6096C34.4587 12.6123 34.4493 12.6243 34.432 12.6296C34.4213 12.6336 34.4067 12.6296 34.3933 12.6336C34.3587 12.6456 34.3293 12.6709 34.2987 12.6883C34.244 12.7043 34.1907 12.7029 34.1387 12.7296L34.0147 12.7936C34.0053 12.7976 34 12.8083 33.9907 12.8123C33.9813 12.8176 33.9747 12.8176 33.9653 12.8216L18.1853 21.9176C18.164 21.9296 18.1533 21.9483 18.1347 21.9616C18.1147 21.9749 18.0907 21.9776 18.072 21.9923L17.9493 22.0856C17.928 22.1003 17.9187 22.1243 17.8973 22.1443C17.876 22.1589 17.8533 22.1656 17.8347 22.1843L17.716 22.3029L17.624 22.3936C17.5973 22.4189 17.5893 22.4509 17.568 22.4776C17.532 22.4829 17.4933 22.4723 17.4573 22.4816C17.424 22.4883 17.4 22.5096 17.3693 22.5203C17.3293 22.5296 17.288 22.5216 17.248 22.5349C17.2213 22.5429 17.2027 22.5629 17.1787 22.5736C17.148 22.5843 17.1147 22.5789 17.084 22.5923L16.9293 22.6562C16.9053 22.6656 16.8893 22.6843 16.8653 22.6963C16.8427 22.7083 16.8173 22.7083 16.7947 22.7203L1.01199 31.8216C0.969327 31.8456 0.941335 31.8856 0.904002 31.9176C0.865335 31.9469 0.818663 31.9616 0.783997 31.9963C0.76933 32.0123 0.762663 32.0349 0.747996 32.0522C0.730663 32.0669 0.707996 32.0722 0.691996 32.0896L0.567993 32.2136C0.55866 32.2216 0.557327 32.2323 0.547994 32.2416C0.437327 32.3349 0.339994 32.4509 0.269328 32.5923L0.177327 32.7776C0.154661 32.8243 0.154661 32.8723 0.139994 32.9216C0.122661 32.9696 0.0919953 33.0083 0.0826619 33.0589L0.0506592 33.2136C0.0493258 33.2189 0.0519925 33.2243 0.0506592 33.2296C0.0506592 33.2336 0.0479947 33.2376 0.0466614 33.2416L0.0160014 33.4283C0.010668 33.4589 0.0226666 33.4883 0.0186666 33.5189C0.0159999 33.5496 0 33.5776 0 33.6096V63.2603L1.42933 64.9976L2.16933 64.5723L2.20267 64.5936V64.5536L12.9667 58.3656L23.008 64.1963H23.0107V68.5443V75.2123V75.2603H25.2067V73.9269V64.1123V63.7176L25.2747 63.6963C25.3053 63.6856 25.3213 63.6643 25.3493 63.6536C25.4133 63.6349 25.476 63.6389 25.5373 63.6069L25.66 63.5456C25.6733 63.5403 25.68 63.5283 25.692 63.5216C25.7013 63.5163 25.712 63.5203 25.72 63.5136L38.6107 56.0829V65.9269H40.812V54.8149L41.5 54.4176C41.516 54.4096 41.5227 54.3936 41.536 54.3843C41.5587 54.3736 41.5813 54.3683 41.6013 54.3536L41.7267 54.2629C41.7507 54.2443 41.76 54.2189 41.7813 54.2029C41.8027 54.1843 41.828 54.1776 41.848 54.1576L41.9733 54.0349C41.996 54.0096 42.0053 53.9789 42.028 53.9523C42.044 53.9336 42.0693 53.9269 42.0867 53.9043L42.1107 53.8723C42.1547 53.8669 42.2 53.8669 42.2467 53.8536L42.368 53.8229C42.38 53.8216 42.3907 53.8109 42.404 53.8056C42.4213 53.8003 42.436 53.8029 42.4533 53.7976C42.4893 53.7829 42.516 53.7576 42.5493 53.7416C42.5893 53.7269 42.6333 53.7309 42.6747 53.7109L42.7987 53.6496C42.8093 53.6429 42.8173 53.6296 42.8307 53.6229C42.84 53.6176 42.852 53.6203 42.86 53.6149L55.7827 46.1683V56.6243H56H57.4293H57.6453V46.1683L70.5693 53.6149C70.5787 53.6203 70.5893 53.6176 70.5987 53.6229C70.612 53.6296 70.62 53.6429 70.632 53.6496L70.7547 53.7109C70.7973 53.7309 70.8387 53.7269 70.88 53.7416C70.9147 53.7576 70.94 53.7829 70.976 53.7976C70.9933 53.8029 71.008 53.8003 71.0267 53.8056C71.0387 53.8109 71.0493 53.8216 71.0613 53.8229L71.184 53.8536C71.2293 53.8669 71.2747 53.8669 71.3187 53.8723L71.344 53.9043C71.36 53.9269 71.3853 53.9336 71.4027 53.9523C71.424 53.9789 71.4333 54.0096 71.4573 54.0349L71.5813 54.1576C71.6013 54.1776 71.6267 54.1843 71.648 54.2029C71.6693 54.2189 71.68 54.2443 71.7027 54.2629L71.828 54.3536C71.848 54.3683 71.8693 54.3736 71.892 54.3843C71.9067 54.3936 71.9147 54.4096 71.928 54.4176L72.6173 54.8149V65.9269H74.8173V56.0829L87.708 63.5136C87.7173 63.5203 87.728 63.5163 87.7387 63.5216C87.7507 63.5283 87.7547 63.5403 87.768 63.5456L87.892 63.6069C87.9533 63.6389 88.0173 63.6349 88.08 63.6536C88.108 63.6643 88.1253 63.6856 88.1547 63.6963L88.2227 63.7176V64.1123V73.9269V75.2603H90.42V75.2123V68.5443V64.1963H90.4213L100.463 58.3656L111.227 64.5536V64.5936L111.26 64.5723L112 64.9976L113.429 63.2603V33.6096C113.429 33.5776 113.415 33.5496 113.411 33.5189" fill="#5C9999"/>
</svg>
