<?xml version="1.0" encoding="utf-8"?>
<!-- Generator: Adobe Illustrator 16.0.0, SVG Export Plug-In . SVG Version: 6.00 Build 0)  -->
<!DOCTYPE svg PUBLIC "-//W3C//DTD SVG 1.1//EN" "http://www.w3.org/Graphics/SVG/1.1/DTD/svg11.dtd">
<svg version="1.1" id="Слой_1" xmlns="http://www.w3.org/2000/svg" xmlns:xlink="http://www.w3.org/1999/xlink" x="0px" y="0px"
	 width="71.343px" height="67.379px" viewBox="0 0 71.343 67.379" enable-background="new 0 0 71.343 67.379" xml:space="preserve">
<path fill="none" stroke="#5C9999" stroke-width="2" stroke-linecap="round" stroke-miterlimit="10" d="M8.493,42.818
	c12.384-9.504,16.416,0.576,11.232,5.76c-3.456,3.456-11.809,3.744-9.505,8.064c0.864,2.016,3.744,2.016,5.185,0.288
	c3.168-3.456,5.76-6.336,8.928-6.048c10.656,1.152,5.472,10.656,6.336,13.536c1.152,3.169,5.76,2.016,4.608-1.728
	c-0.576-2.304-2.017-5.76-0.288-8.928c1.439-1.728,4.32-2.591,5.76-1.44c3.456,2.017,3.456,8.928,7.776,10.08
	c2.016,0.288,4.896-1.439,5.184-3.168c0.576-2.304-1.728-3.744-3.168-4.32c-3.168-2.016-7.2-4.608-6.624-9.504
	c0.288-4.608,5.472-5.184,9.504-4.031c4.032,0.863,6.624,2.591,10.944,2.591c9.216,0.288,5.76-6.048,2.88-6.336
	c-3.456-0.288-5.472,2.304-12.672,1.44c-2.88-0.288-5.76-0.576-7.776-2.592c-4.031-4.32,0-8.064,4.896-8.64
	c4.896-0.864,9.504-1.152,12.672-2.304c4.607-1.44,4.032-5.76,2.016-7.199c-6.336-4.609-10.368,10.367-22.752,4.895
	c-1.728-0.864-3.744-2.304-2.592-4.608c0.864-2.592,3.744-3.744,6.336-6.336c5.76-5.76-2.592-11.232-5.472-5.76
	c-1.729,3.456-0.576,6.912-4.896,10.08c-2.592,1.729-5.76,1.44-8.352-0.288c-4.32-3.168-2.304-7.2-4.32-8.928
	c-3.744-3.456-8.063,1.728-4.607,6.336c1.728,2.304,6.911,5.184,0.863,9.504c-5.76,4.032-10.943-1.152-13.248-2.016
	c-2.016-0.576-3.456,3.745,0.288,4.032c2.592,0,6.048-0.287,7.776,2.592c2.304,4.32,0,9.504-4.608,10.08
	c-2.304,0.288-7.487,0-9.216,2.592C-0.435,43.394,3.021,46.85,8.493,42.818z"/>
<path fill="none" stroke="#5C9999" stroke-width="2" stroke-linecap="round" stroke-miterlimit="10" d="M13.964,65.57
	c-0.864,0.864-2.016,1.152-2.88,0.288c-1.152-0.576-1.152-2.016-0.288-2.88c0.576-0.864,2.016-1.152,2.88-0.288
	C14.541,63.266,14.541,64.706,13.964,65.57z"/>
<path fill="none" stroke="#5C9999" stroke-width="2" stroke-linecap="round" stroke-miterlimit="10" d="M13.964,7.106
	c-1.152,1.728-3.456,2.016-5.184,0.576C7.34,6.53,7.052,3.938,8.205,2.498c1.439-1.728,3.744-2.016,5.472-0.576
	C15.117,3.074,15.405,5.666,13.964,7.106z"/>
<path fill="none" stroke="##5C9999" stroke-width="2" stroke-linecap="round" stroke-miterlimit="10" d="M64.077,60.962
	c-1.44,2.016-4.032,2.304-5.76,0.575c-1.729-1.439-2.017-4.031-0.576-5.76c1.44-1.727,4.032-2.015,5.76-0.576
	C65.517,56.642,65.517,59.233,64.077,60.962z"/>
</svg>
