<?xml version="1.0" encoding="utf-8"?>
<!-- Generator: Adobe Illustrator 22.0.0, SVG Export Plug-In . SVG Version: 6.00 Build 0)  -->
<svg version="1.1" id="Слой_1" xmlns="http://www.w3.org/2000/svg" xmlns:xlink="http://www.w3.org/1999/xlink" x="0px" y="0px"
	 viewBox="0 0 80 80" style="enable-background:new 0 0 80 80;" xml:space="preserve">
<style type="text/css">
	.st0{opacity:0.5;fill:#90C2C2;}
	.st1{fill:#333333;}
</style>
<g>
	<path class="st0" d="M25.5,72.7c0,0-2.7-13.5-6.3-14.4c-3.6-0.9-5.4,0.9-7.2-0.9c-1.8-1.8-5.6-6.4-0.9-13.5c3.6-5.4,0-8.1,2.7-10.8
		c5-5,9,2.7,13.5-0.9s0.9-7.1,5.4-9c6.3-2.7,7.2,5.4,10.8,3.6c3.6-1.8,8.1-1.8,9,0.9s0.9,5.4,6.3,7.2s11.5,1.7,9.4,7.1
		c-2.2,5.5-2.2,7.2-2.2,7.2l4.5,5.4l-1.8,3.6h-8.1l-2.7,2.7l-0.9,5.4l-3.6,3.6L48,69.2l-6.3-4.5l-4.5,1.8l-3.6,6.3L30,74.5
		L25.5,72.7z"/>
	<circle class="st1" cx="9.5" cy="12.6" r="2.5"/>
	<circle class="st1" cx="66" cy="69.1" r="2.5"/>
	<path class="st1" d="M72,24.6c-3.9,0-7-3.2-7-7s3.2-7,7-7c3.9,0,7,3.2,7,7S75.8,24.6,72,24.6z M72,13.7c-2.1,0-3.9,1.7-3.9,3.9
		s1.7,3.9,3.9,3.9c2.1,0,3.9-1.7,3.9-3.9S74.1,13.7,72,13.7z"/>
	<path class="st1" d="M29.2,76c-1.8,0-3.5-0.7-4.9-2c-1.5-1.5-2.3-3.5-2.3-5.6c0-7.9-3.5-8.5-8.7-8.5c-5.3,0-9.7-4.6-9.7-10.2
		c0-1.8,0.5-3.6,1.4-5.2c0.5-0.9,0.3-2.1-0.4-2.9C2.3,39.3,1,36.3,1,33c-0.1-6.5,4.9-11.9,11.1-12c2.5-0.1,4.9,0.8,7.7,2.6
		c0.6,0.4,1,0.4,1.1,0.3c0.1-0.1,0.2-0.4,0-1c-0.9-2.5-1-3.5-0.9-4.8c0.3-5.2,4.4-9.5,9.3-9.7c3.1-0.1,6.1,1.4,8,4
		c0.1,0.1,0.2,0.2,0.2,0.3l0,0.1c0.1,0.1,0.1,0.2,0.2,0.4c0.4,0.7,1.8,2.4,3.8,2.7c1.4,0.2,3-0.4,4.7-1.7c1.5-1.4,3.4-2.2,5.4-2.2
		c4.4,0,8,3.8,8,8.4c0,4.7,1.1,7.7,6.8,7.9c4.2,0,7.6,3.6,7.6,8.1c0,2-0.7,3.9-2,5.4c0,0,0,0.1-0.1,0.1c-1.7,1.9-4.4,5.7-3.9,7.9
		c0.1,0.4,0.3,1.1,1.5,1.6c1.8,0.8,2.9,2.7,2.8,4.8c-0.2,2.4-2,4.3-4.2,4.5c-0.7,0.1-1.4,0-2-0.3c-1.1-0.4-4.6-1-6.1,0.1
		c-0.2,0.2-0.9,0.7-0.8,2.5c0.1,0.5,0.1,1.1,0.1,1.6c-0.2,4.1-3.5,7.4-7.4,7.4c0,0,0,0-0.1,0c-1.4,0-2.7-0.4-3.8-1.2c0,0,0,0,0,0
		c-0.1-0.1-0.2-0.1-0.3-0.2c-4.6-3.1-7.3-3.2-8.8-2.6c-1.7,0.6-2.4,2.1-2.6,2.7c-0.9,3.2-3.7,5.5-6.9,5.5C29.3,76,29.3,76,29.2,76z
		 M12.3,24.1c0,0-0.1,0-0.1,0c-4.5,0.1-8.1,4.1-8,8.9c0,2.5,1,4.7,2.7,6.4c1.7,1.7,2.1,4.4,1,6.6c-0.6,1.1-1,2.5-1,3.8
		c0,3.9,2.9,7,6.5,7c6.1,0,11.8,1.4,11.8,11.6c0,1.3,0.5,2.5,1.4,3.4c0.8,0.8,1.7,1.2,2.7,1.1c1.8,0,3.4-1.4,3.9-3.2
		c0,0,0-0.1,0-0.1c0.7-2.3,2.4-4,4.6-4.8c3.2-1.1,7.1-0.1,11.7,3c0.1,0.1,0.2,0.1,0.2,0.1c0,0,0,0,0,0c0.7,0.4,1.4,0.6,2.1,0.6
		c0,0,0,0,0,0c2.2,0,4.2-2,4.3-4.4c0-0.3,0-0.7,0-1c0,0,0-0.1,0-0.1c-0.2-3,1-4.5,2-5.3c3.3-2.5,9.1-0.6,9.1-0.5
		c0.2,0.1,0.4,0.1,0.6,0.1c0.7-0.1,1.3-0.8,1.4-1.6c0-0.7-0.3-1.4-1-1.7c-2.3-1-3.1-2.7-3.3-3.9c-0.9-4.4,3.9-9.8,4.7-10.6
		c0,0,0,0,0,0c0.8-0.9,1.2-2.1,1.2-3.4c0-2.7-2-4.9-4.5-4.9c0,0,0,0-0.1,0c-9.8-0.4-9.8-8.4-9.8-11c0-2.9-2.2-5.2-4.8-5.2
		c-1.2,0-2.3,0.5-3.2,1.4c0,0-0.1,0.1-0.1,0.1c-2.4,2-4.9,2.8-7.2,2.4c-3.1-0.5-5-2.8-5.9-4.1c-0.1-0.2-0.2-0.3-0.2-0.4
		c0,0,0,0,0-0.1c0,0,0,0,0-0.1c-1.3-1.8-3.3-2.9-5.5-2.8c-3.3,0.1-6.1,3.1-6.3,6.7c0,0.9-0.1,1.4,0.7,3.6c0.6,1.8,0.3,3.5-1,4.5
		c-1,0.8-2.8,1.2-4.8-0.1C15.9,24.7,14,24.1,12.3,24.1z"/>
</g>
</svg>
