<svg width="66" height="66" viewBox="0 0 66 66" fill="none" xmlns="http://www.w3.org/2000/svg">
<path d="M54.5996 32.8994C54.5996 45.2994 46.4996 55.3994 36.5996 55.3994C26.6996 55.3994 17.5996 45.7994 17.5996 33.3994C17.5996 20.9994 26.6996 10.3994 36.5996 10.3994C46.4996 10.3994 54.5996 20.3994 54.5996 32.8994Z" fill="#90C2C2"/>
<path d="M42.099 25.7996C41.499 25.2996 40.6991 25.3996 40.1991 25.9996L31.999 36.0996L26.599 31.5996C25.999 31.0996 25.1991 31.1996 24.6991 31.7996C24.1991 32.3996 24.299 33.1996 24.899 33.6996L31.2991 38.9996C31.5991 39.1996 31.8991 39.2996 32.2991 39.2996C32.6991 39.2996 32.9991 39.0996 33.1991 38.7996L42.2991 27.5996C42.7991 27.0996 42.699 26.2996 42.099 25.7996Z" fill="#333333"/>
<path d="M32.6988 9C19.4988 9 8.79883 19.7 8.79883 32.9C8.79883 46.1 19.4988 56.8 32.6988 56.8C45.8988 56.8 56.5988 46.1 56.5988 32.9C56.5988 19.7 45.8988 9 32.6988 9ZM32.6988 54C20.9988 54 11.5988 44.5 11.5988 32.9C11.5988 21.3 21.0988 11.7 32.6988 11.7C44.3988 11.7 53.7988 21.2 53.7988 32.9C53.7988 44.6 44.3988 54 32.6988 54Z" fill="#333333"/>
<path d="M64.9 41.9L63.4 35.7C63.2 34.9 63.1 33.6 63.1 32.4C63.1 31.3 63.2 30.1 63.4 29.3L64.8 23.1C64.9 22.7 64.9 22.3 64.9 21.8C64.9 20.7 64.6 19.6 64.1 18.6C63.6 17.6 62.8 16.8 61.9 16.2L56.5 12.9C55.8 12.5 54.9 11.7 54 10.9C53.2 10.1 52.4 9.10001 52 8.40001L48.7 3C48.1 2.1 47.3 1.3 46.3 0.800003C45.3 0.300003 44.3 0 43.2 0C42.8 0 42.3 0.0999969 41.9 0.199997L35.7 1.7C34.9 1.9 33.6 2 32.4 2C31.3 2 30.1 1.9 29.3 1.7L23.1 0.300003C22.7 0.200003 22.3 0.199997 21.8 0.199997C20.7 0.199997 19.6 0.5 18.6 1C17.6 1.5 16.8 2.3 16.2 3.2L12.9 8.60001C12.5 9.30001 11.7 10.2 10.9 11.1C10.1 11.9 9.09999 12.7 8.39999 13.1L3 16.4C2.1 17 1.30002 17.8 0.800018 18.8C0.300018 19.8 0 20.8 0 21.9C0 22.3 0.100012 22.8 0.200012 23.2L1.70001 29.4C1.90001 30.2 2 31.5 2 32.7C2 33.8 1.90001 35 1.70001 35.8L0.300018 42C0.200018 42.4 0.200012 42.9 0.200012 43.3C0.200012 44.4 0.5 45.5 1 46.5C1.5 47.5 2.30001 48.3 3.20001 48.9L8.60001 52.2C9.30001 52.6 10.2 53.4 11.1 54.2C11.9 55 12.7 56 13.1 56.7L16.4 62.1C17 63 17.8 63.8 18.8 64.3C19.8 64.8 20.8 65.1 21.9 65.1C22.3 65.1 22.8 65.1 23.2 64.9L29.4 63.4C30.2 63.2 31.5 63.1 32.7 63.1C33.8 63.1 35 63.2 35.8 63.4L42 64.8C42.4 64.9 42.8 64.9 43.3 64.9C44.4 64.9 45.5 64.6 46.5 64.1C47.5 63.6 48.3 62.8 48.9 61.9L52.2 56.5C52.6 55.8 53.4 54.9 54.2 54C55 53.2 56 52.4 56.7 52L62.1 48.7C63 48.1 63.8 47.3 64.3 46.3C64.8 45.3 65.1 44.3 65.1 43.2C65.1 42.8 64.9 41.9 64.9 41.9ZM61.9 45.2C61.6 45.8 61.2 46.3 60.7 46.6L55.3 49.9C54.3 50.5 53.3 51.4 52.3 52.3C51.4 53.3 50.5 54.3 49.9 55.3L46.6 60.7C46.3 61.2 45.8 61.6 45.2 61.9C44.6 62.2 43.9 62.4 43.3 62.4C43.1 62.4 42.8 62.4 42.6 62.3L36.4 60.9C35.3 60.6 34 60.5 32.7 60.5C31.3 60.5 29.9 60.6 28.7 60.9L22.5 62.4C22.3 62.5 22.1 62.5 21.8 62.5C21.2 62.5 20.5 62.3 19.9 62C19.3 61.7 18.8 61.3 18.5 60.8L15.2 55.4C14.6 54.4 13.7 53.4 12.8 52.4C11.8 51.4 10.8 50.6 9.80002 50L4.39999 46.7C3.89999 46.4 3.50001 45.9 3.20001 45.3C2.90001 44.7 2.70001 44 2.70001 43.4C2.70001 43.2 2.70002 42.9 2.80002 42.8L4.20001 36.6C4.50001 35.5 4.60001 34.2 4.60001 32.9C4.60001 31.5 4.50001 30.1 4.20001 29L2.70001 22.8C2.60001 22.6 2.60001 22.4 2.60001 22.1C2.60001 21.5 2.80001 20.8 3.10001 20.2C3.40001 19.6 3.80002 19.1 4.30002 18.8L9.70001 15.5C10.7 14.9 11.7 14 12.7 13.1C13.6 12.1 14.5 11.1 15.1 10.1L18.4 4.7C18.7 4.2 19.2 3.8 19.8 3.5C20.4 3.2 21.1 3 21.7 3C21.9 3 22.1 3.00001 22.4 3.10001L28.6 4.5C29.7 4.8 31 4.90001 32.3 4.90001C33.7 4.90001 35.1 4.8 36.3 4.5L42.5 3C42.7 2.9 42.9 2.90001 43.2 2.90001C43.8 2.90001 44.5 3.10001 45.1 3.40001C45.7 3.70001 46.2 4.10001 46.5 4.60001L49.8 10C50.4 11 51.3 12 52.2 13C53.2 13.9 54.2 14.8 55.2 15.4L60.6 18.7C61.1 19 61.5 19.5 61.8 20.1C62.1 20.7 62.3 21.4 62.3 22C62.3 22.2 62.3 22.5 62.2 22.7L60.8 28.9C60.5 30 60.4 31.3 60.4 32.6C60.4 34 60.5 35.4 60.8 36.6L62.3 42.7C62.4 42.9 62.4 43.1 62.4 43.4C62.4 43.9 62.2 44.6 61.9 45.2Z" fill="#333333"/>
</svg>
