<svg width="135" height="107" viewBox="0 0 135 107" fill="none" xmlns="http://www.w3.org/2000/svg">
<path d="M46.334 70.4413V82.7386L50.334 84.0719L57.0007 88.0719L58.334 102.739L61.0007 105.405L66.334 102.739L133.001 64.0719L133.593 48.6079L110.037 33.8959L46.334 70.4413Z" fill="#9BCFEC"/>
<path d="M132.559 63.7378L132.195 64.1472L61.8109 104.326L61.6976 104.374L61.5816 104.405L61.5589 104.411H61.4789H61.4136L61.3909 104.405L61.2749 104.374L61.1562 104.325L58.9589 103.047V88.9312C58.9589 88.8925 58.9402 88.8618 58.9362 88.8245C58.9336 88.7898 58.9456 88.7552 58.9389 88.7178L58.8762 88.3645C58.8762 88.3592 58.8722 88.3565 58.8709 88.3512C58.8696 88.3472 58.8722 88.3418 58.8709 88.3365L58.8202 88.0845C58.8082 88.0232 58.7709 87.9752 58.7522 87.9192C58.7309 87.8618 58.7282 87.8018 58.6989 87.7485L58.5349 87.4458C58.5216 87.4205 58.4949 87.4045 58.4789 87.3792C58.4629 87.3552 58.4602 87.3232 58.4416 87.2992L58.2896 87.0952C58.2709 87.0698 58.2442 87.0592 58.2229 87.0365C58.2029 87.0138 58.1976 86.9872 58.1749 86.9645L57.9482 86.7378C57.9162 86.7058 57.8722 86.6925 57.8362 86.6632C57.8002 86.6338 57.7762 86.5925 57.7362 86.5672L57.5322 86.4405C57.5282 86.4365 57.5189 86.4365 57.5122 86.4325C57.5069 86.4298 57.5029 86.4232 57.4962 86.4205L48.0456 80.9605L48.1656 71.2778L110.394 35.7485L112.974 37.2378V37.3365L132.272 48.4858L132.351 48.5338L132.418 48.5992L132.47 48.6698L132.502 48.7338L132.518 48.8085L132.559 49.0365V63.7378ZM47.9002 92.8765L48.0122 83.7138L56.2722 88.4858L56.3509 88.5338L56.4176 88.5992L56.4696 88.6698L56.5016 88.7338L56.5176 88.8085L56.5589 89.0365V97.8778L47.9002 92.8765ZM45.8922 75.7378V94.9832L45.8896 94.9938C45.8882 95.0018 45.8909 95.0072 45.8896 95.0152C45.8882 95.0218 45.8842 95.0272 45.8829 95.0325L45.8509 95.2325L45.8376 95.2992L45.8042 95.3632L45.7722 95.4018L45.6776 95.4872L45.5682 95.5685L40.8389 98.2978L40.7669 98.3338C40.7616 98.3352 40.7576 98.3378 40.7536 98.3392C40.7349 98.3418 40.7149 98.3365 40.6962 98.3405L40.5629 98.3725L40.5562 98.3738L40.5442 98.3725L40.4162 98.3405C40.3949 98.3365 40.3762 98.3418 40.3562 98.3392C40.3522 98.3378 40.3482 98.3352 40.3429 98.3338L40.2696 98.2978L3.50022 77.0698L3.43222 77.0245L3.35755 76.9525L3.32688 76.9085L3.26422 76.7925L3.25356 76.7458L3.22289 76.5392V42.5378L3.25356 42.3285L3.26422 42.2818L3.32688 42.1658L3.33889 42.1498L3.42956 42.0738C3.43089 42.0738 3.43089 42.0738 3.43222 42.0725L3.55489 41.9752L8.27223 39.2565L8.33889 39.2218C8.35755 39.2178 8.37356 39.2192 8.39089 39.2152L8.53756 39.1818L8.55756 39.1805L8.57756 39.1818L8.70156 39.2112C8.72689 39.2178 8.75089 39.2165 8.77489 39.2205L8.85356 39.2592L26.3069 49.3365L45.6056 60.4858L45.6842 60.5338L45.7509 60.5992L45.8029 60.6698L45.8349 60.7338L45.8509 60.8085L45.8922 61.0365V75.7378ZM39.6189 46.5752L39.7882 46.5058C39.7922 46.5058 39.7949 46.5018 39.7989 46.5005C39.8082 46.4952 39.8176 46.4858 39.8296 46.4805C39.8576 46.4685 39.8856 46.4618 39.9122 46.4485L39.9229 46.4472L42.3562 45.0032L84.4736 21.1378L84.6136 21.0818L84.6816 21.0552L84.7522 21.0405L84.7736 21.0378L84.7816 21.0392L84.9136 21.0698H84.9149C84.9149 21.0698 84.9162 21.0712 84.9176 21.0712L84.9989 21.0912L85.0949 21.1392L107.988 34.3592L48.1989 68.4898L48.2922 60.9312C48.2922 60.8925 48.2736 60.8618 48.2696 60.8245C48.2669 60.7898 48.2789 60.7552 48.2722 60.7178L48.2096 60.3645C48.2096 60.3592 48.2056 60.3565 48.2042 60.3512C48.2029 60.3472 48.2056 60.3418 48.2042 60.3365L48.1536 60.0845C48.1416 60.0232 48.1042 59.9752 48.0856 59.9192C48.0642 59.8618 48.0616 59.8018 48.0322 59.7485L47.8682 59.4458C47.8549 59.4205 47.8282 59.4045 47.8122 59.3792C47.7962 59.3552 47.7936 59.3232 47.7749 59.2992L47.6229 59.0952C47.6042 59.0698 47.5776 59.0592 47.5562 59.0365C47.5362 59.0138 47.5309 58.9872 47.5082 58.9645L47.2816 58.7378C47.2496 58.7058 47.2056 58.6925 47.1696 58.6632C47.1336 58.6338 47.1096 58.5925 47.0696 58.5672L46.8656 58.4405C46.8616 58.4365 46.8522 58.4365 46.8456 58.4325C46.8402 58.4298 46.8362 58.4232 46.8296 58.4205L32.8296 50.4925L39.6189 46.5752ZM80.5562 6.53783L80.5869 6.3285L80.5976 6.28184L80.6602 6.16583L80.6722 6.14983L80.7629 6.07383C80.7642 6.07383 80.7642 6.07383 80.7656 6.0725L80.8882 5.97517L85.6056 3.2565L85.6722 3.22183C85.6909 3.21783 85.7069 3.21917 85.7242 3.21517L85.8709 3.18183L85.8909 3.1805L85.9109 3.18183L86.0349 3.21116C86.0602 3.21782 86.0842 3.2165 86.1082 3.2205L86.1869 3.25916L103.64 13.3365L122.939 24.4858L123.018 24.5338L123.084 24.5992L123.136 24.6698L123.168 24.7338L123.184 24.8085L123.226 25.0365V39.7378V40.4858L115.971 36.2952L115.61 36.0872L115.655 36.0165C115.643 36.0098 115.63 36.0098 115.619 36.0018C115.607 35.9938 115.6 35.9818 115.59 35.9765L86.2642 19.0432C86.2536 19.0378 86.2416 19.0378 86.2296 19.0325C86.2189 19.0258 86.2122 19.0152 86.2016 19.0085L85.9496 18.8832C85.9069 18.8618 85.8629 18.8632 85.8189 18.8485C85.7749 18.8312 85.7402 18.8018 85.6936 18.7898L85.4776 18.7378H85.4749L85.2776 18.6898C85.2616 18.6858 85.2469 18.6912 85.2309 18.6872L82.8896 19.2832L80.5562 20.6072V6.53783ZM134.936 48.8245C134.934 48.7898 134.946 48.7552 134.939 48.7178L134.876 48.3645C134.876 48.3592 134.872 48.3565 134.871 48.3512C134.87 48.3472 134.872 48.3418 134.871 48.3365L134.82 48.0845C134.808 48.0232 134.771 47.9752 134.752 47.9192C134.731 47.8618 134.728 47.8018 134.699 47.7485L134.535 47.4458C134.522 47.4205 134.495 47.4045 134.479 47.3792C134.463 47.3552 134.46 47.3232 134.442 47.2992L134.29 47.0952C134.271 47.0698 134.244 47.0592 134.223 47.0365C134.203 47.0138 134.198 46.9872 134.175 46.9645L133.948 46.7378C133.916 46.7058 133.872 46.6925 133.836 46.6632C133.8 46.6338 133.776 46.5925 133.736 46.5672L133.532 46.4405C133.528 46.4365 133.519 46.4365 133.512 46.4325C133.507 46.4298 133.503 46.4232 133.496 46.4205L125.419 41.7538L125.626 24.9312C125.626 24.8925 125.607 24.8618 125.603 24.8245C125.6 24.7898 125.612 24.7552 125.606 24.7178L125.543 24.3645C125.543 24.3592 125.539 24.3565 125.538 24.3512C125.536 24.3472 125.539 24.3418 125.538 24.3365L125.487 24.0845C125.476 24.0232 125.438 23.9752 125.419 23.9192C125.398 23.8618 125.395 23.8018 125.366 23.7485L125.202 23.4458C125.188 23.4205 125.162 23.4045 125.146 23.3792C125.13 23.3552 125.127 23.3232 125.108 23.2992L124.956 23.0952C124.938 23.0698 124.911 23.0592 124.89 23.0365C124.87 23.0138 124.864 22.9872 124.842 22.9645L124.615 22.7378C124.583 22.7058 124.539 22.6925 124.503 22.6632C124.467 22.6338 124.443 22.5925 124.403 22.5672L124.199 22.4405C124.195 22.4365 124.186 22.4365 124.179 22.4325C124.174 22.4298 124.17 22.4232 124.163 22.4205L86.0376 0.833829H85.3962L85.2376 0.869829L85.1082 0.888496C85.0402 0.899162 84.9829 0.935166 84.9202 0.956499C84.8549 0.977832 84.7856 0.981831 84.7202 1.01516L84.4802 1.14183C84.4749 1.1445 84.4696 1.15382 84.4616 1.15649C84.4562 1.15916 84.4469 1.15916 84.4416 1.16316L79.6056 3.94716C79.5802 3.96316 79.5642 3.98983 79.5389 4.00716C79.5136 4.02583 79.4802 4.03116 79.4549 4.05116L79.2642 4.2045C79.2602 4.20716 79.2576 4.2125 79.2536 4.2165C79.2522 4.21917 79.2482 4.21916 79.2442 4.22183L79.0042 4.42316C78.9616 4.45916 78.9402 4.5085 78.9029 4.5485C78.8656 4.58983 78.8162 4.61783 78.7842 4.6645L78.6442 4.8685C78.6336 4.88583 78.6322 4.90716 78.6216 4.92583C78.6096 4.9445 78.5909 4.95517 78.5816 4.97383L78.4162 5.2765C78.3909 5.32316 78.3896 5.37383 78.3709 5.42183C78.3536 5.46983 78.3202 5.50583 78.3069 5.5565L78.2442 5.81116C78.2389 5.83116 78.2442 5.85116 78.2416 5.87249C78.2376 5.89249 78.2229 5.9085 78.2202 5.93117L78.1709 6.28582C78.1669 6.31516 78.1776 6.34183 78.1749 6.37116C78.1736 6.4005 78.1576 6.42583 78.1576 6.4565V21.9672L38.0362 44.7205L30.4096 49.1218L8.70422 36.8338H8.06289L7.90423 36.8698L7.77489 36.8885C7.70689 36.8992 7.64956 36.9352 7.58689 36.9565C7.52156 36.9778 7.45223 36.9818 7.38689 37.0152L7.14689 37.1418C7.14156 37.1445 7.13622 37.1538 7.12822 37.1565C7.12289 37.1592 7.11356 37.1592 7.10823 37.1632L2.27223 39.9472C2.24689 39.9632 2.23089 39.9898 2.20556 40.0072C2.18022 40.0258 2.14688 40.0312 2.12155 40.0512L1.93089 40.2045C1.92689 40.2072 1.92423 40.2125 1.92023 40.2165C1.91889 40.2192 1.91489 40.2192 1.91089 40.2218L1.67089 40.4232C1.62822 40.4592 1.60689 40.5085 1.56956 40.5485C1.53223 40.5898 1.48289 40.6178 1.45089 40.6645L1.31089 40.8685C1.30023 40.8858 1.29888 40.9072 1.28822 40.9258C1.27622 40.9445 1.25755 40.9552 1.24822 40.9738L1.08289 41.2765C1.05755 41.3232 1.05622 41.3738 1.03756 41.4218C1.02022 41.4698 0.986885 41.5058 0.973551 41.5565L0.910889 41.8112C0.905555 41.8312 0.91089 41.8512 0.908223 41.8725C0.904223 41.8925 0.889558 41.9085 0.886892 41.9312L0.837555 42.2858C0.833555 42.3152 0.844219 42.3418 0.841553 42.3712C0.840219 42.4005 0.824219 42.4258 0.824219 42.4565V76.6285C0.824219 76.6578 0.840219 76.6832 0.841553 76.7125C0.844219 76.7418 0.833555 76.7698 0.837555 76.7992L0.886892 77.1552C0.890892 77.1765 0.904223 77.1938 0.909556 77.2165C0.913556 77.2352 0.906889 77.2538 0.910889 77.2738L0.974884 77.5272C0.989551 77.5925 1.02689 77.6445 1.05089 77.7032C1.06689 77.7365 1.06689 77.7752 1.08422 77.8098L1.24955 78.1112C1.26155 78.1352 1.28022 78.1525 1.29622 78.1752C1.30422 78.1885 1.30556 78.2045 1.31223 78.2165L1.45222 78.4218C1.49355 78.4818 1.54156 78.5298 1.59089 78.5792C1.60289 78.5912 1.60555 78.6045 1.61755 78.6152L1.85889 78.8418C1.88422 78.8685 1.92022 78.8765 1.94822 78.8992C1.97489 78.9218 1.98822 78.9498 2.01756 78.9698L2.20689 79.0965C2.22022 79.1032 2.23489 79.1072 2.24822 79.1138C2.25755 79.1218 2.26156 79.1312 2.27223 79.1378L39.1029 100.4C39.1162 100.408 39.1309 100.411 39.1442 100.419C39.1522 100.422 39.1576 100.431 39.1656 100.435L39.4202 100.561C39.4642 100.585 39.5109 100.578 39.5549 100.593C39.6309 100.619 39.6989 100.663 39.7829 100.674L39.8989 100.691L40.0509 100.727C40.0829 100.737 40.1162 100.735 40.1482 100.741C40.1642 100.742 40.1762 100.753 40.1922 100.755L40.4082 100.779C40.4549 100.786 40.5002 100.787 40.5469 100.787H40.5482H40.5496H40.5509H40.5522C40.5949 100.787 40.6402 100.786 40.6842 100.779L40.9109 100.755C40.9242 100.754 40.9362 100.743 40.9522 100.742C40.9869 100.735 41.0242 100.738 41.0589 100.727L41.2082 100.692L41.3269 100.674C41.4109 100.662 41.4789 100.619 41.5562 100.593C41.6002 100.577 41.6469 100.582 41.6909 100.561L41.9442 100.435C41.9522 100.431 41.9576 100.422 41.9656 100.419C41.9776 100.411 41.9936 100.408 42.0082 100.4L46.8296 97.6165C46.8496 97.6045 46.8602 97.5885 46.8762 97.5752C46.9016 97.5592 46.9282 97.5538 46.9522 97.5378L47.1536 97.3845C47.1682 97.3738 47.1736 97.3592 47.1856 97.3485C47.1989 97.3378 47.2149 97.3338 47.2309 97.3232L47.4576 97.1218C47.4936 97.0898 47.5096 97.0445 47.5416 97.0085C47.5669 96.9832 47.6002 96.9725 47.6229 96.9418L47.7749 96.7378C47.7882 96.7192 47.7896 96.7005 47.8016 96.6818C47.8176 96.6552 47.8402 96.6365 47.8549 96.6085L47.8656 95.6298L56.2722 100.486L56.3509 100.534L56.4176 100.599L56.4696 100.67L56.5016 100.734L56.5176 100.808L56.5589 101.037V103.738L58.9589 105.823L60.0296 106.446C60.0629 106.467 60.1002 106.474 60.1349 106.488C60.1536 106.499 60.1642 106.515 60.1842 106.522L60.4362 106.625C60.4589 106.633 60.4802 106.63 60.5016 106.638C60.5229 106.644 60.5349 106.659 60.5576 106.664L60.7336 106.715C60.7416 106.717 60.7482 106.717 60.7562 106.718C60.7589 106.718 60.7616 106.722 60.7669 106.723L60.9709 106.775C61.0696 106.801 61.1682 106.812 61.2642 106.812H61.2656H61.4802H61.7082H61.7096C61.8082 106.812 61.9056 106.801 62.0056 106.775L62.2082 106.723C62.2122 106.722 62.2149 106.718 62.2189 106.718C62.2256 106.717 62.2336 106.717 62.2416 106.715L62.4189 106.664C62.4389 106.658 62.4536 106.643 62.4736 106.638C62.4949 106.63 62.5176 106.633 62.5376 106.625L62.7922 106.522C62.8082 106.515 62.8202 106.499 62.8376 106.491C62.8709 106.476 62.9096 106.469 62.9429 106.449L133.996 65.8805L134.335 65.4045L134.959 63.9792V63.0472V48.9312C134.959 48.8925 134.94 48.8618 134.936 48.8245" fill="#37A0D9"/>
</svg>
